;TYPE=PLATED
;Layer: PTH_Through_Via
;EasyEDA Pro Client v3.2.149.88089769, 2026-08-13 17:59:42
;Gerber Generator version 0.3
M48
METRIC,LZ,0000.00000
;Hole size 1 = 0.30500 METRIC
T01C0.30500
%
G05
G90
T01
X136.87732Y-45.85465
X121.22094Y-57.96295
X116.05877Y-52.54444
X127.16127Y-44.86982
X125.38447Y-44.0182
X116.61866Y-50.76361
X119.95923Y-58.04983
X136.7599Y-42.6427
X134.85911Y-39.36277
X135.67377Y-38.47481
X134.30728Y-43.04075
X138.18777Y-41.98435
X119.4186Y-49.285
X133.46196Y-47.3388
X133.28147Y-48.49325
X131.32087Y-54.21111
X133.49828Y-52.31584
X137.0958Y-52.72311
X134.78791Y-51.15351
X134.87238Y-44.62544
X137.76838Y-44.01728
X117.02085Y-56.93074
X139.05301Y-57.21873
X138.68296Y-56.19226
X117.31045Y-55.88818
X139.78666Y-56.06757
X139.56665Y-54.59302
X132.65937Y-49.88551
X130.10727Y-59.90448
X127.94703Y-53.21601
X137.23986Y-38.5063
X145.17551Y-38.25165
X136.36881Y-60.02447
X127.63497Y-56.97391
X131.24653Y-42.46191
X127.96218Y-46.31337
X126.11839Y-49.02596
X120.12638Y-48.05769
X119.09075Y-53.88159
X116.87531Y-47.55382
X116.86083Y-49.97199
X122.29446Y-40.41879
X122.93158Y-41.75095
X115.80462Y-42.18125
X113.04188Y-41.7221
X116.80534Y-39.96762
X116.91809Y-41.15452
X141.74205Y-49.43561
X126.62568Y-42.6284
X132.75478Y-42.19864
X124.48225Y-45.67138
X123.18599Y-45.60868
X121.04781Y-53.84214
X132.60515Y-44.6125
X132.6148Y-45.85778
X139.43171Y-35.78676
X141.13101Y-39.44305
X136.78199Y-33.08254
X117.24999Y-37.31338
X113.1911Y-40.30888
X118.57143Y-35.17758
X123.17125Y-35.19527
X122.39736Y-37.00826
X127.37528Y-34.96037
X128.664Y-34.98934
X144.04063Y-33.01898
X146.54859Y-39.66819
X146.7125Y-43.65592
X142.46233Y-37.86586
X142.43259Y-40.86921
X143.07163Y-48.05032
X143.07163Y-46.60231
X150.42396Y-43.73086
X148.80572Y-54.03057
X148.80572Y-56.28945
X138.93034Y-58.98273
X122.0868Y-35.17604
X121.05405Y-45.3121
X114.2764Y-53.19172
X114.25423Y-54.46265
X120.04142Y-35.13585
X128.57775Y-43.26352
X123.58734Y-51.15924
X148.29827Y-40.46669
X116.80641Y-51.66984
X120.18508Y-49.66195
X136.9091Y-53.55513
X120.39031Y-52.23052
X124.60108Y-52.16686
X114.30579Y-49.06813
X112.06138Y-50.66093
X111.84418Y-52.6447
X110.13286Y-45.8072
X111.21508Y-45.98542
X111.18695Y-43.35185
X112.18171Y-40.75326
X112.97374Y-35.0888
X117.30315Y-42.14668
X118.535Y-55.47749
X129.42293Y-54.8167
X126.07804Y-52.70261
X138.16444Y-54.26123
X142.88654Y-49.64693
X137.06557Y-49.79173
X131.53223Y-55.92657
X131.58801Y-54.97839
X130.34163Y-57.34243
X123.99666Y-57.05597
X109.51286Y-32.10628
X110.40648Y-32.07899
X111.32738Y-32.16597
X111.36319Y-33.26934
X111.35126Y-34.34373
X111.36319Y-35.44199
X109.52821Y-33.20965
X109.54015Y-35.48974
X118.13208Y-54.17649
X103.91774Y-57.13883
X108.60769Y-52.43075
X108.00914Y-50.4962
X107.79161Y-52.98666
X108.41052Y-53.70156
X112.82538Y-59.18791
X112.72625Y-57.48808
X112.02257Y-58.25549
X102.1543Y-58.766
X100.28066Y-58.79442
X102.17136Y-57.10155
X100.30567Y-57.12656
X101.13689Y-58.35494
X106.42954Y-55.0998
X107.10333Y-56.09141
X107.82797Y-56.52366
X100.88669Y-54.97267
X97.9341Y-45.65406
X98.92095Y-41.70669
X97.45525Y-56.03262
X103.38555Y-48.38712
X103.21392Y-51.1522
X103.0423Y-49.30246
X137.22408Y-30.14092
X134.10623Y-30.22673
X130.13025Y-30.22673
X126.75495Y-30.22673
X122.34991Y-30.22673
X117.42999Y-30.22673
X146.43463Y-29.71186
X142.8305Y-29.76906
X146.32022Y-32.20042
X140.32923Y-32.82018
X112.74976Y-38.94104
X109.32573Y-41.20818
X111.2589Y-49.95577
X131.18727Y-39.14422
X113.22005Y-42.53239
X112.45032Y-37.13315
X117.21769Y-38.42987
X148.33334Y-39.69677
X149.56226Y-39.6883
X149.56226Y-40.48498
X145.50753Y-31.18756
X144.26731Y-30.9366
X143.75314Y-31.76953
X142.95622Y-31.74705
X143.24771Y-33.15001
X141.83233Y-34.58234
X118.53893Y-56.52523
X134.83876Y-43.77599
X119.74069Y-53.11475
X119.97005Y-47.04457
X121.79219Y-47.73884
X123.27277Y-48.23237
M30