G04 Layer: InnerLayer1*
G04 EasyEDA Pro v3.2.149.88089769, 2026-08-13 17:59:42*
G04 Gerber Generator version 0.3*
G04 Scale: 100 percent, Rotated: No, Reflected: No*
G04 Dimensions in millimeters*
G04 Leading zeros omitted, absolute positions, 4 integers and 5 decimals*
G04 Generated by one-click*
G04 Object Configs: Pad,Via,Track,Text,Image,Dimension,BoardOutline,BoardCutout,CopperFilled,SolidRegion,FPCStiffener,Line,PlaneZone,ComponentProperty,ComponentSilkscreen,TearDrop*
G04 Layer Configs: 1,15,16,2,3,4,5,6,7,8,9,10,11,13,14,56*
G04 Copper Areas: 0*
%FSLAX45Y45*%
%MOMM*%
%ADD10R,1.524X1.524*%
%ADD11C,1.8*%
%ADD12O,2.0X1.1*%
%ADD13O,1.8X1.2*%
%ADD14C,1.524*%
%ADD15C,0.6154*%
%ADD16C,0.61*%
G75*


G04 PlaneZone Start*
G36*
G01X9300282Y-3136904D02*
G02X9528628Y-2908558I228346J0D01*
G01X14862528Y-2908558D01*
G02X15090874Y-3136904I0J-228346D01*
G01X15090874Y-5911028D01*
G02X14862528Y-6139374I-228346J0D01*
G01X9528628Y-6139374D01*
G02X9300282Y-5911028I0J228346D01*
G01X9300282Y-3136904D01*
G37*
%LPC*%
G36*
G01X9622803Y-3879939D02*
G03X9391495Y-3879939I-115654J0D01*
G03X9622803Y-3879939I115654J0D01*
G37*
G36*
G01X9479327Y-3137723D02*
G03X9850635Y-3137723I185654J0D01*
G03X9479327Y-3137723I-185654J0D01*
G37*
G36*
G01X9494325Y-5911976D02*
G03X9865633Y-5911976I185654J0D01*
G03X9494325Y-5911976I-185654J0D01*
G37*
G36*
G01X9810922Y-5233207D02*
G03X9836576Y-5207553I0J25654D01*
G01X9836576Y-5055153D01*
G03X9810922Y-5029499I-25654J0D01*
G01X9658522Y-5029499D01*
G03X9632868Y-5055153I0J-25654D01*
G01X9632868Y-5207553D01*
G03X9658522Y-5233207I25654J0D01*
G01X9810922Y-5233207D01*
G37*
G36*
G01X9810922Y-5513264D02*
G03X9836576Y-5487610I0J25654D01*
G01X9836576Y-5335210D01*
G03X9810922Y-5309556I-25654J0D01*
G01X9658522Y-5309556D01*
G03X9632868Y-5335210I0J-25654D01*
G01X9632868Y-5487610D01*
G03X9658522Y-5513264I25654J0D01*
G01X9810922Y-5513264D01*
G37*
G36*
G01X10057662Y-5831720D02*
G03X9978109Y-5905084I-29596J-47722D01*
G03X10084093Y-5883216I49958J25642D01*
G03X10160079Y-5867136I29596J47722D01*
G03X10267495Y-5897635I55351J-9463D01*
G03X10169040Y-5844958I-52065J21035D01*
G03X10120316Y-5779733I-55351J9463D01*
G03X10057662Y-5831720I-6627J-55762D01*
G37*
G36*
G01X9974413Y-5712656D02*
G03X10086722Y-5712656I56154J0D01*
G03X9974413Y-5712656I-56154J0D01*
G37*
G36*
G01X10167066Y-3146962D02*
G03X10192720Y-3121308I0J25654D01*
G01X10192720Y-2968908D01*
G03X10167066Y-2943254I-25654J0D01*
G01X10014666Y-2943254D01*
G03X9989012Y-2968908I0J-25654D01*
G01X9989012Y-3121308D01*
G03X10014666Y-3146962I25654J0D01*
G01X10167066Y-3146962D01*
G37*
G36*
G01X10160981Y-5710155D02*
G03X10273290Y-5710155I56154J0D01*
G03X10160981Y-5710155I-56154J0D01*
G37*
G36*
G01X10422597Y-3395251D02*
G03X10448251Y-3369597I0J25654D01*
G01X10448251Y-3217197D01*
G03X10422597Y-3191543I-25654J0D01*
G01X10270197Y-3191543D01*
G03X10244543Y-3217197I0J-25654D01*
G01X10244543Y-3369597D01*
G03X10270197Y-3395251I25654J0D01*
G01X10422597Y-3395251D01*
G37*
G36*
G01X10335620Y-5713883D02*
G03X10447928Y-5713883I56154J0D01*
G03X10335620Y-5713883I-56154J0D01*
G37*
G36*
G01X10877806Y-5412611D02*
G03X10833012Y-5314581I-36754J42455D01*
G03X10835026Y-5292980I-53851J15915D01*
G03X10907178Y-5211460I25743J49906D01*
G03X10804903Y-5248760I-46409J-31614D01*
G03X10723781Y-5289371I-25743J-49906D01*
G03X10787200Y-5354242I55380J-9295D01*
G03X10877806Y-5412611I53852J-15915D01*
G37*
G36*
G01X10744760Y-5049620D02*
G03X10857068Y-5049620I56154J0D01*
G03X10744760Y-5049620I-56154J0D01*
G37*
G36*
G01X10876419Y-4120818D02*
G03X10988727Y-4120818I56154J0D01*
G03X10876419Y-4120818I-56154J0D01*
G37*
G36*
G01X11144841Y-3271431D02*
G03X11180745Y-3187465I-12103J54834D01*
G03X11089687Y-3180542I-48006J-29132D01*
G03X10994930Y-3175293I-49040J-27357D01*
G03X10902884Y-3182158I-43644J-35334D01*
G03X10941610Y-3265942I48402J-28470D01*
G03X10953602Y-3377114I11211J-55024D01*
G03X10962497Y-3265651I-781J56149D01*
G03X10997004Y-3243234I-11211J55024D01*
G03X11083698Y-3243953I43644J35334D01*
G03X11124216Y-3272100I49040J27357D01*
G03X11119379Y-3380472I12103J-54834D01*
G03X11123998Y-3489414I15747J-53901D01*
G03X11136930Y-3600350I12322J-54786D01*
G03X11147447Y-3489159I-610J56151D01*
G03X11152066Y-3380835I-12322J54786D01*
G03X11144841Y-3271431I-15747J53901D01*
G37*
G36*
G01X10897861Y-3548974D02*
G03X11010169Y-3548974I56154J0D01*
G03X10897861Y-3548974I-56154J0D01*
G37*
G36*
G01X11069736Y-4995577D02*
G03X11182044Y-4995577I56154J0D01*
G03X11069736Y-4995577I-56154J0D01*
G37*
G36*
G01X11164306Y-5866938D02*
G03X11252955Y-5801404I37951J41389D01*
G03X11310576Y-5707419I19670J52596D01*
G03X11221927Y-5772953I-37951J-41389D01*
G03X11164306Y-5866938I-19670J-52596D01*
G37*
G36*
G01X11218822Y-3894104D02*
G03X11331130Y-3894104I56154J0D01*
G03X11218822Y-3894104I-56154J0D01*
G37*
G36*
G01X11226383Y-5918791D02*
G03X11338692Y-5918791I56154J0D01*
G03X11226383Y-5918791I-56154J0D01*
G37*
G36*
G01X11334064Y-4308083D02*
G03X11350061Y-4204597I-12059J54844D01*
G03X11292129Y-4117366I-45873J32387D01*
G03X11276131Y-4220852I12059J-54844D01*
G03X11334064Y-4308083I45873J-32387D01*
G37*
G36*
G01X11369269Y-5446265D02*
G03X11481577Y-5446265I56154J0D01*
G03X11369269Y-5446265I-56154J0D01*
G37*
G36*
G01X11371486Y-5319172D02*
G03X11483794Y-5319172I56154J0D01*
G03X11371486Y-5319172I-56154J0D01*
G37*
G36*
G01X11524308Y-4218125D02*
G03X11636617Y-4218125I56154J0D01*
G03X11524308Y-4218125I-56154J0D01*
G37*
G36*
G01X11549723Y-5254444D02*
G03X11662031Y-5254444I56154J0D01*
G03X11549723Y-5254444I-56154J0D01*
G37*
G36*
G01X11692032Y-5221971D02*
G03X11702404Y-5115219I-11392J54986D01*
G03X11710262Y-5047881I-40538J38858D01*
G03X11702510Y-4943501I-24179J50682D01*
G03X11637687Y-5025679I-16427J-53698D01*
G03X11640102Y-5128126I24179J-50682D01*
G03X11692032Y-5221971I40538J-38858D01*
G37*
G36*
G01X11631377Y-4755382D02*
G03X11743685Y-4755382I56154J0D01*
G03X11631377Y-4755382I-56154J0D01*
G37*
G36*
G01X11687055Y-5747180D02*
G03X11731059Y-5644972I15029J54106D01*
G03X11746074Y-5534713I-14J56154D01*
G03X11702071Y-5636920I-15029J-54106D01*
G03X11687055Y-5747180I14J-56154D01*
G37*
G36*
G01X11759536Y-5434159D02*
G03X11868570Y-5427051I53672J16510D01*
G03X11962747Y-5371649I40506J38892D01*
G03X11853714Y-5378757I-53672J-16510D01*
G03X11759536Y-5434159I-40506J-38892D01*
G37*
G36*
G01X11800989Y-3517758D02*
G03X11913297Y-3517758I56154J0D01*
G03X11800989Y-3517758I-56154J0D01*
G37*
G36*
G01X11891469Y-4903719D02*
G03X11964094Y-4980065I50390J-24781D01*
G03X12068898Y-4990976I54414J13871D01*
G03X11996273Y-4914630I-50390J24781D01*
G03X11891469Y-4903719I-54414J-13871D01*
G37*
G36*
G01X12129799Y-3227084D02*
G03X11926091Y-3227084I-101854J0D01*
G03X12129799Y-3227084I101854J0D01*
G37*
G36*
G01X11993740Y-5604027D02*
G03X12110642Y-5440062I45926J90912D01*
G03X12130101Y-5334092I-5860J55847D01*
G03X12056352Y-5412636I-25320J-50122D01*
G03X11993740Y-5604027I-16686J-100478D01*
G37*
G36*
G01X11939769Y-5804983D02*
G03X12052077Y-5804983I56154J0D01*
G03X11939769Y-5804983I-56154J0D01*
G37*
G36*
G01X11947988Y-3513585D02*
G03X12060296Y-3513585I56154J0D01*
G03X11947988Y-3513585I-56154J0D01*
G37*
G36*
G01X11956484Y-4805769D02*
G03X12068792Y-4805769I56154J0D01*
G03X11956484Y-4805769I-56154J0D01*
G37*
G36*
G01X12033236Y-5124682D02*
G03X12145544Y-5124682I56154J0D01*
G03X12033236Y-5124682I-56154J0D01*
G37*
G36*
G01X12049251Y-4531210D02*
G03X12161559Y-4531210I56154J0D01*
G03X12049251Y-4531210I-56154J0D01*
G37*
G36*
G01X12065940Y-5796295D02*
G03X12178248Y-5796295I56154J0D01*
G03X12065940Y-5796295I-56154J0D01*
G37*
G36*
G01X12152535Y-3516608D02*
G03X12262644Y-3533133I56145J-996D01*
G03X12373270Y-3520523I54481J13606D01*
G03X12263161Y-3503998I-56145J996D01*
G03X12152535Y-3516608I-54481J-13606D01*
G37*
G36*
G01X12173292Y-4041879D02*
G03X12285600Y-4041879I56154J0D01*
G03X12173292Y-4041879I-56154J0D01*
G37*
G36*
G01X12383799Y-3227084D02*
G03X12180091Y-3227084I-101854J0D01*
G03X12383799Y-3227084I101854J0D01*
G37*
G36*
G01X12395520Y-5513114D02*
G03X12191812Y-5513114I-101854J0D01*
G03X12395520Y-5513114I101854J0D01*
G37*
G36*
G01X12237004Y-4175095D02*
G03X12349312Y-4175095I56154J0D01*
G03X12237004Y-4175095I-56154J0D01*
G37*
G36*
G01X12262445Y-4560868D02*
G03X12374753Y-4560868I56154J0D01*
G03X12262445Y-4560868I-56154J0D01*
G37*
G36*
G01X12274378Y-5118945D02*
G03X12386686Y-5118945I56154J0D01*
G03X12274378Y-5118945I-56154J0D01*
G37*
G36*
G01X12392070Y-4567138D02*
G03X12504379Y-4567138I56154J0D01*
G03X12392070Y-4567138I-56154J0D01*
G37*
G36*
G01X12637799Y-3227084D02*
G03X12434091Y-3227084I-101854J0D01*
G03X12637799Y-3227084I101854J0D01*
G37*
G36*
G01X12649520Y-5513114D02*
G03X12445812Y-5513114I-101854J0D01*
G03X12649520Y-5513114I101854J0D01*
G37*
G36*
G01X12482293Y-4401820D02*
G03X12594601Y-4401820I56154J0D01*
G03X12482293Y-4401820I-56154J0D01*
G37*
G36*
G01X12555685Y-4902596D02*
G03X12667993Y-4902596I56154J0D01*
G03X12555685Y-4902596I-56154J0D01*
G37*
G36*
G01X12606414Y-4262840D02*
G03X12718722Y-4262840I56154J0D01*
G03X12606414Y-4262840I-56154J0D01*
G37*
G36*
G01X12659973Y-4486982D02*
G03X12772281Y-4486982I56154J0D01*
G03X12659973Y-4486982I-56154J0D01*
G37*
G36*
G01X12891799Y-3227084D02*
G03X12688091Y-3227084I-101854J0D01*
G03X12891799Y-3227084I101854J0D01*
G37*
G36*
G01X12707343Y-5697391D02*
G03X12819651Y-5697391I56154J0D01*
G03X12707343Y-5697391I-56154J0D01*
G37*
G36*
G01X12738549Y-5321601D02*
G03X12850857Y-5321601I56154J0D01*
G03X12738549Y-5321601I-56154J0D01*
G37*
G36*
G01X12740064Y-4631337D02*
G03X12852372Y-4631337I56154J0D01*
G03X12740064Y-4631337I-56154J0D01*
G37*
G36*
G01X12801621Y-4326352D02*
G03X12913929Y-4326352I56154J0D01*
G03X12801621Y-4326352I-56154J0D01*
G37*
G36*
G01X12810246Y-3498934D02*
G03X12922555Y-3498934I56154J0D01*
G03X12810246Y-3498934I-56154J0D01*
G37*
G36*
G01X13145799Y-3227084D02*
G03X12942091Y-3227084I-101854J0D01*
G03X13145799Y-3227084I101854J0D01*
G37*
G36*
G01X12954573Y-5990448D02*
G03X13066881Y-5990448I56154J0D01*
G03X12954573Y-5990448I-56154J0D01*
G37*
G36*
G01X13062573Y-3914422D02*
G03X13174881Y-3914422I56154J0D01*
G03X13062573Y-3914422I-56154J0D01*
G37*
G36*
G01X13068499Y-4246191D02*
G03X13180807Y-4246191I56154J0D01*
G03X13068499Y-4246191I-56154J0D01*
G37*
G36*
G01X13075933Y-5421111D02*
G03X13188241Y-5421111I56154J0D01*
G03X13075933Y-5421111I-56154J0D01*
G37*
G36*
G01X13399799Y-3227084D02*
G03X13196091Y-3227084I-101854J0D01*
G03X13399799Y-3227084I101854J0D01*
G37*
G36*
G01X13204361Y-4461250D02*
G03X13316669Y-4461250I56154J0D01*
G03X13204361Y-4461250I-56154J0D01*
G37*
G36*
G01X13205326Y-4585778D02*
G03X13317634Y-4585778I56154J0D01*
G03X13205326Y-4585778I-56154J0D01*
G37*
G36*
G01X13209783Y-4988551D02*
G03X13322091Y-4988551I56154J0D01*
G03X13209783Y-4988551I-56154J0D01*
G37*
G36*
G01X13219324Y-4219864D02*
G03X13331632Y-4219864I56154J0D01*
G03X13219324Y-4219864I-56154J0D01*
G37*
G36*
G01X13271993Y-4849325D02*
G03X13384301Y-4849325I56154J0D01*
G03X13271993Y-4849325I-56154J0D01*
G37*
G36*
G01X13290041Y-4733880D02*
G03X13402350Y-4733880I56154J0D01*
G03X13290041Y-4733880I-56154J0D01*
G37*
G36*
G01X13293673Y-5231584D02*
G03X13405982Y-5231584I56154J0D01*
G03X13293673Y-5231584I-56154J0D01*
G37*
G36*
G01X13374573Y-4304075D02*
G03X13486882Y-4304075I56154J0D01*
G03X13374573Y-4304075I-56154J0D01*
G37*
G36*
G01X13422637Y-5115351D02*
G03X13534945Y-5115351I56154J0D01*
G03X13422637Y-5115351I-56154J0D01*
G37*
G36*
G01X13429757Y-3936277D02*
G03X13542065Y-3936277I56154J0D01*
G03X13429757Y-3936277I-56154J0D01*
G37*
G36*
G01X13431084Y-4462544D02*
G03X13543392Y-4462544I56154J0D01*
G03X13431084Y-4462544I-56154J0D01*
G37*
G36*
G01X13511223Y-3847481D02*
G03X13623532Y-3847481I56154J0D01*
G03X13511223Y-3847481I-56154J0D01*
G37*
G36*
G01X13580727Y-6002447D02*
G03X13693035Y-6002447I56154J0D01*
G03X13580727Y-6002447I-56154J0D01*
G37*
G36*
G01X13619836Y-4264270D02*
G03X13732144Y-4264270I56154J0D01*
G03X13619836Y-4264270I-56154J0D01*
G37*
G36*
G01X13733538Y-3298718D02*
G03X13891913Y-3172459I72407J71634D01*
G03X13710339Y-3262206I-85968J-54624D01*
G03X13630804Y-3338369I-32139J-46047D01*
G03X13733538Y-3298718I47396J30115D01*
G37*
G36*
G01X13631578Y-4585465D02*
G03X13743886Y-4585465I56154J0D01*
G03X13631578Y-4585465I-56154J0D01*
G37*
G36*
G01X13678615Y-5410304D02*
G03X13735903Y-5321914I12295J54792D01*
G03X13721876Y-5217520I-26323J49602D01*
G03X13664587Y-5305910I-12295J-54792D01*
G03X13678615Y-5410304I26323J-49602D01*
G37*
G36*
G01X13667831Y-3850630D02*
G03X13780140Y-3850630I56154J0D01*
G03X13667831Y-3850630I-56154J0D01*
G37*
G36*
G01X13720684Y-4401728D02*
G03X13832992Y-4401728I56154J0D01*
G03X13720684Y-4401728I-56154J0D01*
G37*
G36*
G01X13762623Y-4198435D02*
G03X13874931Y-4198435I56154J0D01*
G03X13762623Y-4198435I-56154J0D01*
G37*
G36*
G01X13924345Y-5774700D02*
G03X13899308Y-5666040I-19044J52826D01*
G03X13924414Y-5621248I-31012J46814D01*
G03X14034465Y-5600453I54252J14491D01*
G03X13922548Y-5604736I-55799J-6304D01*
G03X13821996Y-5587453I-54252J-14491D01*
G03X13874289Y-5675060I46300J-31774D01*
G03X13924345Y-5774700I31012J-46814D01*
G37*
G36*
G01X13887017Y-3578676D02*
G03X13999325Y-3578676I56154J0D01*
G03X13887017Y-3578676I-56154J0D01*
G37*
G36*
G01X13900511Y-5459302D02*
G03X14012819Y-5459302I56154J0D01*
G03X13900511Y-5459302I-56154J0D01*
G37*
G36*
G01X14056947Y-3944305D02*
G03X14169255Y-3944305I56154J0D01*
G03X14056947Y-3944305I-56154J0D01*
G37*
G36*
G01X14118051Y-4943561D02*
G03X14230359Y-4943561I56154J0D01*
G03X14118051Y-4943561I-56154J0D01*
G37*
G36*
G01X14239490Y-3173121D02*
G03X14334352Y-3215365I56132J-1584D01*
G03X14408366Y-3222349I40961J38412D01*
G03X14424448Y-3149767I-33052J45396D01*
G03X14456227Y-3045876I2282J56108D01*
G03X14377596Y-3120845I-29496J-47783D01*
G03X14336583Y-3136293I-2282J-56108D01*
G03X14239490Y-3173121I-40961J-38412D01*
G37*
G36*
G01X14429529Y-5844684D02*
G03X14550840Y-5844684I60655J0D01*
G03X14429529Y-5844684I-60655J0D01*
G37*
G36*
G01X14429529Y-5266682D02*
G03X14550840Y-5266682I60655J0D01*
G03X14429529Y-5266682I-60655J0D01*
G37*
G36*
G01X14461397Y-3825165D02*
G03X14573705Y-3825165I56154J0D01*
G03X14461397Y-3825165I-56154J0D01*
G37*
G36*
G01X14494599Y-3118756D02*
G03X14606907Y-3118756I56154J0D01*
G03X14494599Y-3118756I-56154J0D01*
G37*
G36*
G01X14648440Y-3855107D02*
G03X14799747Y-3855107I75654J0D01*
G03X14648440Y-3855107I-75654J0D01*
G37*
G36*
G01X14648440Y-4655105D02*
G03X14799747Y-4655105I75654J0D01*
G03X14648440Y-4655105I-75654J0D01*
G37*
G36*
G01X14676195Y-3137723D02*
G03X15047503Y-3137723I185654J0D01*
G03X14676195Y-3137723I-185654J0D01*
G37*
G36*
G01X14827271Y-4102764D02*
G03X14872382Y-4010032I2555J56096D01*
G03X14835889Y-3913581I-39049J40354D01*
G03X14790778Y-4006314I-2555J-56096D01*
G03X14827271Y-4102764I39049J-40354D01*
G37*
G36*
G01X14956226Y-4104652D02*
G03X14995805Y-4008664I0J56154D01*
G03X14956226Y-3912676I-39579J39834D01*
G03X14916646Y-4008664I0J-56154D01*
G03X14956226Y-4104652I39580J-39834D01*
G37*
%LPD*%
G04 PlaneZone End*

G04 Pad Start*
G54D10*
G01X10346397Y-3293397D03*
G01X10090866Y-3045108D03*
G01X9734722Y-5131353D03*
G01X9734722Y-5411410D03*
G54D11*
G01X9507149Y-3879939D03*
G01X9496789Y-4579250D03*
G54D12*
G01X14438165Y-5988194D03*
G01X14438165Y-5123197D03*
G54D13*
G01X14858180Y-5988194D03*
G01X14858180Y-5123197D03*
G54D14*
G01X12027945Y-3227084D03*
G01X12281945Y-3227084D03*
G01X12535945Y-3227084D03*
G01X12789945Y-3227084D03*
G01X13043945Y-3227084D03*
G01X13297945Y-3227084D03*
G01X13551945Y-3227084D03*
G01X13805945Y-3227084D03*
G01X12039666Y-5513114D03*
G01X12293666Y-5513114D03*
G01X12547666Y-5513114D03*
G01X12801666Y-5513114D03*
G04 Pad End*

G04 Via Start*
G54D16*
G01X13687732Y-4585465D03*
G01X12122094Y-5796295D03*
G01X11605877Y-5254444D03*
G01X12716127Y-4486982D03*
G01X12538447Y-4401820D03*
G01X11661866Y-5076361D03*
G01X11995923Y-5804983D03*
G01X13675990Y-4264270D03*
G01X13485911Y-3936277D03*
G01X13567377Y-3847481D03*
G01X13430728Y-4304075D03*
G01X13818777Y-4198435D03*
G01X11941860Y-4928500D03*
G01X13346196Y-4733880D03*
G01X13328147Y-4849325D03*
G01X13132087Y-5421111D03*
G01X13349828Y-5231584D03*
G01X13709580Y-5272311D03*
G01X13478791Y-5115351D03*
G01X13487238Y-4462544D03*
G01X13776838Y-4401728D03*
G01X11702085Y-5693074D03*
G01X13905301Y-5721873D03*
G01X13868296Y-5619226D03*
G01X11731045Y-5588818D03*
G01X13978666Y-5606757D03*
G01X13956665Y-5459302D03*
G01X13265937Y-4988551D03*
G01X13010727Y-5990448D03*
G01X12794703Y-5321601D03*
G01X13723986Y-3850630D03*
G01X14517551Y-3825165D03*
G01X13636881Y-6002447D03*
G01X12763497Y-5697391D03*
G01X13124653Y-4246191D03*
G01X12796218Y-4631337D03*
G01X12611839Y-4902596D03*
G01X12012638Y-4805769D03*
G01X11909075Y-5388159D03*
G01X11687531Y-4755382D03*
G01X11686083Y-4997199D03*
G01X12229446Y-4041879D03*
G01X12293158Y-4175095D03*
G01X11580462Y-4218125D03*
G01X11304188Y-4172210D03*
G01X11680534Y-3996762D03*
G01X11691809Y-4115452D03*
G01X14174205Y-4943561D03*
G01X12662568Y-4262840D03*
G01X13275478Y-4219864D03*
G01X12448225Y-4567138D03*
G01X12318599Y-4560868D03*
G01X12104781Y-5384214D03*
G01X13260515Y-4461250D03*
G01X13261480Y-4585778D03*
G01X13943171Y-3578676D03*
G01X14113101Y-3944305D03*
G01X13678199Y-3308254D03*
G01X11724999Y-3731338D03*
G01X11319110Y-4030888D03*
G01X11857143Y-3517758D03*
G01X12317125Y-3519527D03*
G01X12239736Y-3700826D03*
G01X12737528Y-3496037D03*
G01X12866400Y-3498934D03*
G01X14404063Y-3301898D03*
G01X14654859Y-3966819D03*
G01X14671250Y-4365592D03*
G01X14246233Y-3786586D03*
G01X14243259Y-4086921D03*
G01X14307163Y-4805032D03*
G01X14307163Y-4660231D03*
G01X15042396Y-4373086D03*
G01X14880572Y-5403057D03*
G01X14880572Y-5628945D03*
G01X13893034Y-5898273D03*
G01X12208680Y-3517604D03*
G01X12105405Y-4531210D03*
G01X11427640Y-5319172D03*
G01X11425423Y-5446265D03*
G01X12004142Y-3513585D03*
G01X12857775Y-4326352D03*
G01X12358734Y-5115924D03*
G01X14829827Y-4046669D03*
G01X11680641Y-5166984D03*
G01X12018508Y-4966195D03*
G01X13690910Y-5355513D03*
G01X12039031Y-5223052D03*
G01X12460108Y-5216686D03*
G01X11430579Y-4906813D03*
G01X11206138Y-5066093D03*
G01X11184418Y-5264470D03*
G01X11013286Y-4580720D03*
G01X11121508Y-4598542D03*
G01X11118695Y-4335185D03*
G01X11218171Y-4075326D03*
G01X11297374Y-3508880D03*
G01X11730315Y-4214668D03*
G01X11853500Y-5547749D03*
G01X12942293Y-5481670D03*
G01X12607804Y-5270261D03*
G01X13816444Y-5426123D03*
G01X14288654Y-4964693D03*
G01X13706557Y-4979173D03*
G01X13153223Y-5592657D03*
G01X13158801Y-5497839D03*
G01X13034163Y-5734243D03*
G01X12399666Y-5705597D03*
G01X10951286Y-3210628D03*
G01X11040648Y-3207899D03*
G01X11132738Y-3216597D03*
G01X11136319Y-3326934D03*
G01X11135126Y-3434373D03*
G01X11136319Y-3544199D03*
G01X10952821Y-3320965D03*
G01X10954015Y-3548974D03*
G01X11813208Y-5417649D03*
G01X10391774Y-5713883D03*
G01X10860769Y-5243075D03*
G01X10800914Y-5049620D03*
G01X10779161Y-5298666D03*
G01X10841052Y-5370156D03*
G01X11282538Y-5918791D03*
G01X11272625Y-5748808D03*
G01X11202257Y-5825549D03*
G01X10215430Y-5876600D03*
G01X10028066Y-5879442D03*
G01X10217136Y-5710155D03*
G01X10030567Y-5712656D03*
G01X10113689Y-5835494D03*
G01X10642954Y-5509980D03*
G01X10710333Y-5609141D03*
G01X10782797Y-5652366D03*
G01X10088669Y-5497267D03*
G01X9793410Y-4565406D03*
G01X9892095Y-4170669D03*
G01X9745525Y-5603262D03*
G01X10338555Y-4838712D03*
G01X10321392Y-5115220D03*
G01X10304230Y-4930246D03*
G01X13722408Y-3014092D03*
G01X13410623Y-3022673D03*
G01X13013025Y-3022673D03*
G01X12675495Y-3022673D03*
G01X12234991Y-3022673D03*
G01X11742999Y-3022673D03*
G01X14643463Y-2971186D03*
G01X14283050Y-2976906D03*
G01X14632022Y-3220042D03*
G01X14032923Y-3282018D03*
G01X11274976Y-3894104D03*
G01X10932573Y-4120818D03*
G01X11125890Y-4995577D03*
G01X13118727Y-3914422D03*
G01X11322005Y-4253239D03*
G01X11245032Y-3713315D03*
G01X11721769Y-3842987D03*
G01X14833334Y-3969677D03*
G01X14956226Y-3968830D03*
G01X14956226Y-4048498D03*
G01X14550753Y-3118756D03*
G01X14426731Y-3093660D03*
G01X14375314Y-3176953D03*
G01X14295622Y-3174705D03*
G01X14324771Y-3315001D03*
G01X14183233Y-3458234D03*
G01X11853893Y-5652523D03*
G01X13483876Y-4377599D03*
G01X11974069Y-5311475D03*
G01X11997005Y-4704457D03*
G01X12179219Y-4773884D03*
G01X12327277Y-4823237D03*
G04 Via End*

M02*

