G04 Layer: DrillDrawingLayer*
G04 EasyEDA Pro v3.2.149.88089769, 2026-08-13 17:59:42*
G04 Gerber Generator version 0.3*
G04 Scale: 100 percent, Rotated: No, Reflected: No*
G04 Dimensions in millimeters*
G04 Leading zeros omitted, absolute positions, 4 integers and 5 decimals*
G04 Generated by one-click*
G04 Object Configs: Pad,Via,Track,Text,Image,Dimension,BoardOutline,BoardCutout,CopperFilled,SolidRegion,FPCStiffener,Line,PlaneZone,ComponentProperty,ComponentSilkscreen,TearDrop*
G04 Layer Configs: 1,15,16,2,3,4,5,6,7,8,9,10,11,13,14,56*
G04 Copper Areas: 0*
%FSLAX45Y45*%
%MOMM*%
%AMIconRect*4,1,4,0.28,-0.28,-0.28,-0.28,-0.28,0.28,0.28,0.28,0.28,-0.28,0*4,0,4,0.233333,-0.233333,0.233333,0.233333,-0.233333,0.233333,-0.233333,-0.233333,0.233333,-0.233333,0*%
%AMIconTriangle*4,1,3,-0.339593,0.240473,0.339593,0.240473,0,-0.37884,-0.339593,0.240473,0*4,0,3,-0.265673,0.19404,0,-0.27342,0.266233,0.19404,-0.265673,0.19404,0*%
%AMIconStar6*4,1,12,0.12068,0.20888,0.298527,0.172713,0.241313,0,0.298527,-0.17206,0.12068,-0.208227,0,-0.344073,-0.120073,-0.208227,-0.298573,-0.17206,-0.240707,0,-0.298573,0.17206,-0.120073,0.20888,0,0.344073,0.12068,0.20888,0*4,0,12,-0.000467,0.273467,-0.090067,0.171733,-0.237533,0.136733,-0.193667,-0.007467,-0.237533,-0.1372,-0.090067,-0.171733,-0.000467,-0.273933,0.090067,-0.171733,0.237533,-0.1372,0.194133,0.007,0.237533,0.1372,0.090067,0.171267,-0.000467,0.273467,0*%
%AMIconStar4*4,1,8,-0.311733,0.311733,0,0.202533,0.311733,0.311733,0.202533,0,0.311733,-0.311733,0,-0.202533,-0.304407,-0.311733,-0.202533,0,-0.311733,0.311733,0*4,0,8,0.233333,-0.233333,0.1512,0,0.233333,0.233333,0,0.1512,-0.233333,0.233333,-0.1512,0,-0.233333,-0.233333,0,-0.1512,0.233333,-0.233333,0*%
%AMIconPlus*4,1,12,0.1736,-0.28,-0.1736,-0.28,-0.1736,-0.1736,-0.28,-0.1736,-0.28,0.1736,-0.1736,0.1736,-0.1736,0.28,0.1736,0.28,0.1736,0.1736,0.28,0.1736,0.28,-0.1736,0.1736,-0.1736,0.1736,-0.28,0*4,0,12,0.126933,-0.233333,0.126933,-0.126933,0.233333,-0.126933,0.233333,0.126933,0.126933,0.126933,0.126933,0.233333,-0.126933,0.233333,-0.126933,0.126933,-0.233333,0.126933,-0.233333,-0.126933,-0.126933,-0.126933,-0.126933,-0.233333,0.126933,-0.233333,0*%
%AMIconX*4,1,16,0.28,-0.28,0.076347,-0.28,0,-0.203653,-0.076347,-0.28,-0.28,-0.28,-0.28,-0.076347,-0.203653,0,-0.28,0.076347,-0.28,0.28,-0.076347,0.28,0,0.203653,0.076347,0.28,0.28,0.28,0.28,0.076347,0.203653,0,0.28,-0.076347,0.28,-0.28,0*4,0,16,0.23352,-0.23296,0.23352,-0.095853,0.137107,0.000093,0.23352,0.095853,0.23352,0.2331,0.095853,0.2331,0,0.137107,-0.095853,0.2331,-0.23352,0.2331,-0.23352,0.095853,-0.137107,0.000093,-0.23352,-0.095853,-0.23352,-0.23296,-0.095853,-0.23296,0,-0.137107,0.095853,-0.23296,0.23352,-0.23296,0*%
%AMIconDiamond*4,1,4,0,-0.364,-0.364,0,0,0.364,0.364,0,0,-0.364,0*4,0,4,0,-0.284807,0.284807,0,0,0.28504,-0.284807,0,0,-0.284807,0*%
%AMIconRect2*4,1,6,0.28,-0.28,-0.28,-0.28,-0.28,0.28,-0.23352,0.2331,-0.233333,-0.233333,0.23352,-0.233333,0.28,-0.28,0*4,1,6,0.28,-0.28,0.23352,-0.233333,0.23352,0.2331,-0.23352,0.2331,-0.28,0.28,0.28,0.28,0.28,-0.28,0*4,1,6,0.186853,-0.186667,-0.186667,-0.186667,-0.186667,0.186853,-0.14,0.140187,-0.14,-0.14,0.140187,-0.14,0.186853,-0.186667,0*4,1,6,0.186853,-0.186667,0.140187,-0.14,0.140187,0.140187,-0.14,0.140187,-0.186667,0.186853,0.186853,0.186853,0.186853,-0.186667,0*%
%ADD10IconRect*%
%ADD11C,0.616X0.522667*%
%ADD12IconTriangle*%
%ADD13IconStar6*%
%ADD14IconStar4*%
%ADD15IconPlus*%
%ADD16IconX*%
%ADD17IconDiamond*%
%ADD18IconRect2*%
%ADD19C,0.2032*%
%ADD20C,0.254*%
G75*


G04 Drill Drawing Start*
G54D10*
G01X9496789Y-4579250D03*
G01X9507149Y-3879939D03*
G54D11*
G01X14438173Y-5988189D03*
G01X14438176Y-5123187D03*
G54D12*
G01X14858180Y-5988194D03*
G01X14858180Y-5123197D03*
G54D13*
G01X14724093Y-4655105D03*
G01X14724093Y-3855107D03*
G54D14*
G01X14490185Y-5844684D03*
G01X14490185Y-5266682D03*
G54D15*
G01X9664981Y-3137723D03*
G01X9679979Y-5911976D03*
G01X14861849Y-3137723D03*
G54D16*
G01X9734722Y-5411410D03*
G01X9734722Y-5131353D03*
G01X10090866Y-3045108D03*
G01X10346397Y-3293397D03*
G54D17*
G01X12027945Y-3227084D03*
G01X12039666Y-5513114D03*
G01X12281945Y-3227084D03*
G01X12293666Y-5513114D03*
G01X12535945Y-3227084D03*
G01X12547666Y-5513114D03*
G01X12789945Y-3227084D03*
G01X12801666Y-5513114D03*
G01X13043945Y-3227084D03*
G01X13297945Y-3227084D03*
G01X13551945Y-3227084D03*
G01X13805945Y-3227084D03*
G54D18*
G01X9745525Y-5603262D03*
G01X9793410Y-4565406D03*
G01X9892095Y-4170669D03*
G01X10028066Y-5879442D03*
G01X10030567Y-5712656D03*
G01X10088669Y-5497267D03*
G01X10113689Y-5835494D03*
G01X10215430Y-5876600D03*
G01X10217136Y-5710155D03*
G01X10304230Y-4930246D03*
G01X10321392Y-5115220D03*
G01X10338555Y-4838712D03*
G01X10391774Y-5713883D03*
G01X10642954Y-5509980D03*
G01X10710333Y-5609141D03*
G01X10779161Y-5298666D03*
G01X10782797Y-5652366D03*
G01X10800914Y-5049620D03*
G01X10841052Y-5370156D03*
G01X10860769Y-5243075D03*
G01X10932573Y-4120818D03*
G01X10951286Y-3210628D03*
G01X10952821Y-3320965D03*
G01X10954015Y-3548974D03*
G01X11013286Y-4580720D03*
G01X11040648Y-3207899D03*
G01X11118695Y-4335185D03*
G01X11121508Y-4598542D03*
G01X11125890Y-4995577D03*
G01X11132738Y-3216597D03*
G01X11135126Y-3434373D03*
G01X11136319Y-3544199D03*
G01X11136319Y-3326934D03*
G01X11184418Y-5264470D03*
G01X11202257Y-5825549D03*
G01X11206138Y-5066093D03*
G01X11218171Y-4075326D03*
G01X11245032Y-3713315D03*
G01X11272625Y-5748808D03*
G01X11274976Y-3894104D03*
G01X11282538Y-5918791D03*
G01X11297374Y-3508880D03*
G01X11304188Y-4172210D03*
G01X11319110Y-4030888D03*
G01X11322005Y-4253239D03*
G01X11425423Y-5446265D03*
G01X11427640Y-5319172D03*
G01X11430579Y-4906813D03*
G01X11580462Y-4218125D03*
G01X11605877Y-5254444D03*
G01X11661866Y-5076361D03*
G01X11680534Y-3996762D03*
G01X11680641Y-5166984D03*
G01X11686083Y-4997199D03*
G01X11687531Y-4755382D03*
G01X11691809Y-4115452D03*
G01X11702085Y-5693074D03*
G01X11721769Y-3842987D03*
G01X11724999Y-3731338D03*
G01X11730315Y-4214668D03*
G01X11731045Y-5588818D03*
G01X11742999Y-3022673D03*
G01X11813208Y-5417649D03*
G01X11853500Y-5547749D03*
G01X11853893Y-5652523D03*
G01X11857143Y-3517758D03*
G01X11909075Y-5388159D03*
G01X11941860Y-4928500D03*
G01X11974069Y-5311475D03*
G01X11995923Y-5804983D03*
G01X11997005Y-4704457D03*
G01X12004142Y-3513585D03*
G01X12012638Y-4805769D03*
G01X12018508Y-4966195D03*
G01X12039031Y-5223052D03*
G01X12104781Y-5384214D03*
G01X12105405Y-4531210D03*
G01X12122094Y-5796295D03*
G01X12179219Y-4773884D03*
G01X12208680Y-3517604D03*
G01X12229446Y-4041879D03*
G01X12234991Y-3022673D03*
G01X12239736Y-3700826D03*
G01X12293158Y-4175095D03*
G01X12317125Y-3519527D03*
G01X12318599Y-4560868D03*
G01X12327277Y-4823237D03*
G01X12358734Y-5115924D03*
G01X12399666Y-5705597D03*
G01X12448225Y-4567138D03*
G01X12460108Y-5216686D03*
G01X12538447Y-4401820D03*
G01X12607804Y-5270261D03*
G01X12611839Y-4902596D03*
G01X12662568Y-4262840D03*
G01X12675495Y-3022673D03*
G01X12716127Y-4486982D03*
G01X12737528Y-3496037D03*
G01X12763497Y-5697391D03*
G01X12794703Y-5321601D03*
G01X12796218Y-4631337D03*
G01X12857775Y-4326352D03*
G01X12866400Y-3498934D03*
G01X12942293Y-5481670D03*
G01X13010727Y-5990448D03*
G01X13013025Y-3022673D03*
G01X13034163Y-5734243D03*
G01X13118727Y-3914422D03*
G01X13124653Y-4246191D03*
G01X13132087Y-5421111D03*
G01X13153223Y-5592657D03*
G01X13158801Y-5497839D03*
G01X13260515Y-4461250D03*
G01X13261480Y-4585778D03*
G01X13265937Y-4988551D03*
G01X13275478Y-4219864D03*
G01X13328147Y-4849325D03*
G01X13346196Y-4733880D03*
G01X13349828Y-5231584D03*
G01X13410623Y-3022673D03*
G01X13430728Y-4304075D03*
G01X13478791Y-5115351D03*
G01X13483876Y-4377599D03*
G01X13485911Y-3936277D03*
G01X13487238Y-4462544D03*
G01X13567377Y-3847481D03*
G01X13636881Y-6002447D03*
G01X13675990Y-4264270D03*
G01X13678199Y-3308254D03*
G01X13687732Y-4585465D03*
G01X13690910Y-5355513D03*
G01X13706557Y-4979173D03*
G01X13709580Y-5272311D03*
G01X13722408Y-3014092D03*
G01X13723986Y-3850630D03*
G01X13776838Y-4401728D03*
G01X13816444Y-5426123D03*
G01X13818777Y-4198435D03*
G01X13868296Y-5619226D03*
G01X13893034Y-5898273D03*
G01X13905301Y-5721873D03*
G01X13943171Y-3578676D03*
G01X13956665Y-5459302D03*
G01X13978666Y-5606757D03*
G01X14032923Y-3282018D03*
G01X14113101Y-3944305D03*
G01X14174205Y-4943561D03*
G01X14183233Y-3458234D03*
G01X14243259Y-4086921D03*
G01X14246233Y-3786586D03*
G01X14283050Y-2976906D03*
G01X14288654Y-4964693D03*
G01X14295622Y-3174705D03*
G01X14307163Y-4805032D03*
G01X14307163Y-4660231D03*
G01X14324771Y-3315001D03*
G01X14375314Y-3176953D03*
G01X14404063Y-3301898D03*
G01X14426731Y-3093660D03*
G01X14517551Y-3825165D03*
G01X14550753Y-3118756D03*
G01X14632022Y-3220042D03*
G01X14643463Y-2971186D03*
G01X14654859Y-3966819D03*
G01X14671250Y-4365592D03*
G01X14829827Y-4046669D03*
G01X14833334Y-3969677D03*
G01X14880572Y-5628945D03*
G01X14880572Y-5403057D03*
G01X14956226Y-4048498D03*
G01X14956226Y-3968830D03*
G01X15042396Y-4373086D03*
G04 Drill Drawing End*

G04 Text Start*
G54D19*
G01X17416973Y-3104610D02*
G01X17416973Y-3224752D01*
G01X17416973Y-3104610D02*
G01X17462693Y-3224752D01*
G01X17508413Y-3104610D02*
G01X17462693Y-3224752D01*
G01X17508413Y-3104610D02*
G01X17508413Y-3224752D01*
G01X17624745Y-3144742D02*
G01X17624745Y-3224752D01*
G01X17624745Y-3161760D02*
G01X17613315Y-3150330D01*
G01X17601885Y-3144742D01*
G01X17584867Y-3144742D01*
G01X17573437Y-3150330D01*
G01X17562007Y-3161760D01*
G01X17556165Y-3179032D01*
G01X17556165Y-3190462D01*
G01X17562007Y-3207480D01*
G01X17573437Y-3218910D01*
G01X17584867Y-3224752D01*
G01X17601885Y-3224752D01*
G01X17613315Y-3218910D01*
G01X17624745Y-3207480D01*
G01X17672497Y-3144742D02*
G01X17672497Y-3224752D01*
G01X17672497Y-3179032D02*
G01X17678339Y-3161760D01*
G01X17689769Y-3150330D01*
G01X17701199Y-3144742D01*
G01X17718217Y-3144742D01*
G01X17765969Y-3104610D02*
G01X17765969Y-3224752D01*
G01X17823119Y-3144742D02*
G01X17765969Y-3201892D01*
G01X17788829Y-3179032D02*
G01X17828961Y-3224752D01*
G01X18954254Y-3133312D02*
G01X18948412Y-3121882D01*
G01X18936982Y-3110452D01*
G01X18925552Y-3104610D01*
G01X18902692Y-3104610D01*
G01X18891262Y-3110452D01*
G01X18879832Y-3121882D01*
G01X18874244Y-3133312D01*
G01X18868402Y-3150330D01*
G01X18868402Y-3179032D01*
G01X18874244Y-3196050D01*
G01X18879832Y-3207480D01*
G01X18891262Y-3218910D01*
G01X18902692Y-3224752D01*
G01X18925552Y-3224752D01*
G01X18936982Y-3218910D01*
G01X18948412Y-3207480D01*
G01X18954254Y-3196050D01*
G01X19030708Y-3144742D02*
G01X19019278Y-3150330D01*
G01X19007848Y-3161760D01*
G01X19002006Y-3179032D01*
G01X19002006Y-3190462D01*
G01X19007848Y-3207480D01*
G01X19019278Y-3218910D01*
G01X19030708Y-3224752D01*
G01X19047726Y-3224752D01*
G01X19059156Y-3218910D01*
G01X19070586Y-3207480D01*
G01X19076428Y-3190462D01*
G01X19076428Y-3179032D01*
G01X19070586Y-3161760D01*
G01X19059156Y-3150330D01*
G01X19047726Y-3144742D01*
G01X19030708Y-3144742D01*
G01X19124180Y-3144742D02*
G01X19124180Y-3201892D01*
G01X19130022Y-3218910D01*
G01X19141452Y-3224752D01*
G01X19158470Y-3224752D01*
G01X19169900Y-3218910D01*
G01X19187172Y-3201892D01*
G01X19187172Y-3144742D02*
G01X19187172Y-3224752D01*
G01X19234924Y-3144742D02*
G01X19234924Y-3224752D01*
G01X19234924Y-3167602D02*
G01X19252196Y-3150330D01*
G01X19263626Y-3144742D01*
G01X19280644Y-3144742D01*
G01X19292074Y-3150330D01*
G01X19297916Y-3167602D01*
G01X19297916Y-3224752D01*
G01X19362940Y-3104610D02*
G01X19362940Y-3201892D01*
G01X19368528Y-3218910D01*
G01X19379958Y-3224752D01*
G01X19391388Y-3224752D01*
G01X19345668Y-3144742D02*
G01X19385800Y-3144742D01*
G01X20362575Y-3121882D02*
G01X20351145Y-3110452D01*
G01X20334127Y-3104610D01*
G01X20311267Y-3104610D01*
G01X20293995Y-3110452D01*
G01X20282565Y-3121882D01*
G01X20282565Y-3133312D01*
G01X20288407Y-3144742D01*
G01X20293995Y-3150330D01*
G01X20305425Y-3156172D01*
G01X20339715Y-3167602D01*
G01X20351145Y-3173190D01*
G01X20356987Y-3179032D01*
G01X20362575Y-3190462D01*
G01X20362575Y-3207480D01*
G01X20351145Y-3218910D01*
G01X20334127Y-3224752D01*
G01X20311267Y-3224752D01*
G01X20293995Y-3218910D01*
G01X20282565Y-3207480D01*
G01X20410327Y-3104610D02*
G01X20416169Y-3110452D01*
G01X20421757Y-3104610D01*
G01X20416169Y-3099022D01*
G01X20410327Y-3104610D01*
G01X20416169Y-3144742D02*
G01X20416169Y-3224752D01*
G01X20532501Y-3144742D02*
G01X20469509Y-3224752D01*
G01X20469509Y-3144742D02*
G01X20532501Y-3144742D01*
G01X20469509Y-3224752D02*
G01X20532501Y-3224752D01*
G01X20580253Y-3179032D02*
G01X20648833Y-3179032D01*
G01X20648833Y-3167602D01*
G01X20643245Y-3156172D01*
G01X20637403Y-3150330D01*
G01X20625973Y-3144742D01*
G01X20608955Y-3144742D01*
G01X20597525Y-3150330D01*
G01X20586095Y-3161760D01*
G01X20580253Y-3179032D01*
G01X20580253Y-3190462D01*
G01X20586095Y-3207480D01*
G01X20597525Y-3218910D01*
G01X20608955Y-3224752D01*
G01X20625973Y-3224752D01*
G01X20637403Y-3218910D01*
G01X20648833Y-3207480D01*
G01X24164846Y-3104610D02*
G01X24164846Y-3224752D01*
G01X24164846Y-3104610D02*
G01X24216408Y-3104610D01*
G01X24233426Y-3110452D01*
G01X24239268Y-3116040D01*
G01X24244856Y-3127470D01*
G01X24244856Y-3144742D01*
G01X24239268Y-3156172D01*
G01X24233426Y-3161760D01*
G01X24216408Y-3167602D01*
G01X24164846Y-3167602D01*
G01X24292608Y-3104610D02*
G01X24292608Y-3224752D01*
G01X24408940Y-3144742D02*
G01X24408940Y-3224752D01*
G01X24408940Y-3161760D02*
G01X24397510Y-3150330D01*
G01X24386080Y-3144742D01*
G01X24369062Y-3144742D01*
G01X24357632Y-3150330D01*
G01X24346202Y-3161760D01*
G01X24340360Y-3179032D01*
G01X24340360Y-3190462D01*
G01X24346202Y-3207480D01*
G01X24357632Y-3218910D01*
G01X24369062Y-3224752D01*
G01X24386080Y-3224752D01*
G01X24397510Y-3218910D01*
G01X24408940Y-3207480D01*
G01X24473964Y-3104610D02*
G01X24473964Y-3201892D01*
G01X24479552Y-3218910D01*
G01X24490982Y-3224752D01*
G01X24502412Y-3224752D01*
G01X24456692Y-3144742D02*
G01X24496824Y-3144742D01*
G01X24550164Y-3179032D02*
G01X24618744Y-3179032D01*
G01X24618744Y-3167602D01*
G01X24613156Y-3156172D01*
G01X24607314Y-3150330D01*
G01X24595884Y-3144742D01*
G01X24578866Y-3144742D01*
G01X24567436Y-3150330D01*
G01X24556006Y-3161760D01*
G01X24550164Y-3179032D01*
G01X24550164Y-3190462D01*
G01X24556006Y-3207480D01*
G01X24567436Y-3218910D01*
G01X24578866Y-3224752D01*
G01X24595884Y-3224752D01*
G01X24607314Y-3218910D01*
G01X24618744Y-3207480D01*
G01X24735076Y-3104610D02*
G01X24735076Y-3224752D01*
G01X24735076Y-3161760D02*
G01X24723646Y-3150330D01*
G01X24712216Y-3144742D01*
G01X24695198Y-3144742D01*
G01X24683768Y-3150330D01*
G01X24672338Y-3161760D01*
G01X24666496Y-3179032D01*
G01X24666496Y-3190462D01*
G01X24672338Y-3207480D01*
G01X24683768Y-3218910D01*
G01X24695198Y-3224752D01*
G01X24712216Y-3224752D01*
G01X24723646Y-3218910D01*
G01X24735076Y-3207480D01*
G01X25706263Y-3121882D02*
G01X25694833Y-3110452D01*
G01X25677815Y-3104610D01*
G01X25654955Y-3104610D01*
G01X25637683Y-3110452D01*
G01X25626253Y-3121882D01*
G01X25626253Y-3133312D01*
G01X25632095Y-3144742D01*
G01X25637683Y-3150330D01*
G01X25649113Y-3156172D01*
G01X25683403Y-3167602D01*
G01X25694833Y-3173190D01*
G01X25700675Y-3179032D01*
G01X25706263Y-3190462D01*
G01X25706263Y-3207480D01*
G01X25694833Y-3218910D01*
G01X25677815Y-3224752D01*
G01X25654955Y-3224752D01*
G01X25637683Y-3218910D01*
G01X25626253Y-3207480D01*
G01X25754015Y-3104610D02*
G01X25754015Y-3224752D01*
G01X25754015Y-3167602D02*
G01X25771287Y-3150330D01*
G01X25782717Y-3144742D01*
G01X25799735Y-3144742D01*
G01X25811165Y-3150330D01*
G01X25817007Y-3167602D01*
G01X25817007Y-3224752D01*
G01X25933339Y-3144742D02*
G01X25933339Y-3224752D01*
G01X25933339Y-3161760D02*
G01X25921909Y-3150330D01*
G01X25910479Y-3144742D01*
G01X25893461Y-3144742D01*
G01X25882031Y-3150330D01*
G01X25870601Y-3161760D01*
G01X25864759Y-3179032D01*
G01X25864759Y-3190462D01*
G01X25870601Y-3207480D01*
G01X25882031Y-3218910D01*
G01X25893461Y-3224752D01*
G01X25910479Y-3224752D01*
G01X25921909Y-3218910D01*
G01X25933339Y-3207480D01*
G01X25981091Y-3144742D02*
G01X25981091Y-3264630D01*
G01X25981091Y-3161760D02*
G01X25992521Y-3150330D01*
G01X26003951Y-3144742D01*
G01X26021223Y-3144742D01*
G01X26032653Y-3150330D01*
G01X26044083Y-3161760D01*
G01X26049671Y-3179032D01*
G01X26049671Y-3190462D01*
G01X26044083Y-3207480D01*
G01X26032653Y-3218910D01*
G01X26021223Y-3224752D01*
G01X26003951Y-3224752D01*
G01X25992521Y-3218910D01*
G01X25981091Y-3207480D01*
G01X26097423Y-3179032D02*
G01X26166003Y-3179032D01*
G01X26166003Y-3167602D01*
G01X26160415Y-3156172D01*
G01X26154573Y-3150330D01*
G01X26143143Y-3144742D01*
G01X26126125Y-3144742D01*
G01X26114695Y-3150330D01*
G01X26103265Y-3161760D01*
G01X26097423Y-3179032D01*
G01X26097423Y-3190462D01*
G01X26103265Y-3207480D01*
G01X26114695Y-3218910D01*
G01X26126125Y-3224752D01*
G01X26143143Y-3224752D01*
G01X26154573Y-3218910D01*
G01X26166003Y-3207480D01*
G01X27057434Y-3104610D02*
G01X27103154Y-3224752D01*
G01X27148874Y-3104610D02*
G01X27103154Y-3224752D01*
G01X27196626Y-3104610D02*
G01X27202468Y-3110452D01*
G01X27208056Y-3104610D01*
G01X27202468Y-3099022D01*
G01X27196626Y-3104610D01*
G01X27202468Y-3144742D02*
G01X27202468Y-3224752D01*
G01X27324388Y-3144742D02*
G01X27324388Y-3224752D01*
G01X27324388Y-3161760D02*
G01X27312958Y-3150330D01*
G01X27301528Y-3144742D01*
G01X27284510Y-3144742D01*
G01X27273080Y-3150330D01*
G01X27261650Y-3161760D01*
G01X27255808Y-3179032D01*
G01X27255808Y-3190462D01*
G01X27261650Y-3207480D01*
G01X27273080Y-3218910D01*
G01X27284510Y-3224752D01*
G01X27301528Y-3224752D01*
G01X27312958Y-3218910D01*
G01X27324388Y-3207480D01*
G01X27475010Y-3081750D02*
G01X27372140Y-3264630D01*
G01X27522762Y-3104610D02*
G01X27522762Y-3224752D01*
G01X27522762Y-3104610D02*
G01X27574324Y-3104610D01*
G01X27591342Y-3110452D01*
G01X27597184Y-3116040D01*
G01X27602772Y-3127470D01*
G01X27602772Y-3144742D01*
G01X27597184Y-3156172D01*
G01X27591342Y-3161760D01*
G01X27574324Y-3167602D01*
G01X27522762Y-3167602D01*
G01X27719104Y-3144742D02*
G01X27719104Y-3224752D01*
G01X27719104Y-3161760D02*
G01X27707674Y-3150330D01*
G01X27696244Y-3144742D01*
G01X27679226Y-3144742D01*
G01X27667796Y-3150330D01*
G01X27656366Y-3161760D01*
G01X27650524Y-3179032D01*
G01X27650524Y-3190462D01*
G01X27656366Y-3207480D01*
G01X27667796Y-3218910D01*
G01X27679226Y-3224752D01*
G01X27696244Y-3224752D01*
G01X27707674Y-3218910D01*
G01X27719104Y-3207480D01*
G01X27835436Y-3104610D02*
G01X27835436Y-3224752D01*
G01X27835436Y-3161760D02*
G01X27824006Y-3150330D01*
G01X27812576Y-3144742D01*
G01X27795558Y-3144742D01*
G01X27784128Y-3150330D01*
G01X27772698Y-3161760D01*
G01X27766856Y-3179032D01*
G01X27766856Y-3190462D01*
G01X27772698Y-3207480D01*
G01X27784128Y-3218910D01*
G01X27795558Y-3224752D01*
G01X27812576Y-3224752D01*
G01X27824006Y-3218910D01*
G01X27835436Y-3207480D01*
G01X28726614Y-3104610D02*
G01X28726614Y-3224752D01*
G01X28726614Y-3104610D02*
G01X28778176Y-3104610D01*
G01X28795194Y-3110452D01*
G01X28801036Y-3116040D01*
G01X28806624Y-3127470D01*
G01X28806624Y-3144742D01*
G01X28801036Y-3156172D01*
G01X28795194Y-3161760D01*
G01X28778176Y-3167602D01*
G01X28726614Y-3167602D01*
G01X28922956Y-3144742D02*
G01X28922956Y-3224752D01*
G01X28922956Y-3161760D02*
G01X28911526Y-3150330D01*
G01X28900096Y-3144742D01*
G01X28883078Y-3144742D01*
G01X28871648Y-3150330D01*
G01X28860218Y-3161760D01*
G01X28854376Y-3179032D01*
G01X28854376Y-3190462D01*
G01X28860218Y-3207480D01*
G01X28871648Y-3218910D01*
G01X28883078Y-3224752D01*
G01X28900096Y-3224752D01*
G01X28911526Y-3218910D01*
G01X28922956Y-3207480D01*
G01X29039288Y-3104610D02*
G01X29039288Y-3224752D01*
G01X29039288Y-3161760D02*
G01X29027858Y-3150330D01*
G01X29016428Y-3144742D01*
G01X28999410Y-3144742D01*
G01X28987980Y-3150330D01*
G01X28976550Y-3161760D01*
G01X28970708Y-3179032D01*
G01X28970708Y-3190462D01*
G01X28976550Y-3207480D01*
G01X28987980Y-3218910D01*
G01X28999410Y-3224752D01*
G01X29016428Y-3224752D01*
G01X29027858Y-3218910D01*
G01X29039288Y-3207480D01*
G01X29295066Y-3121882D02*
G01X29283636Y-3110452D01*
G01X29266618Y-3104610D01*
G01X29243758Y-3104610D01*
G01X29226486Y-3110452D01*
G01X29215056Y-3121882D01*
G01X29215056Y-3133312D01*
G01X29220898Y-3144742D01*
G01X29226486Y-3150330D01*
G01X29237916Y-3156172D01*
G01X29272206Y-3167602D01*
G01X29283636Y-3173190D01*
G01X29289478Y-3179032D01*
G01X29295066Y-3190462D01*
G01X29295066Y-3207480D01*
G01X29283636Y-3218910D01*
G01X29266618Y-3224752D01*
G01X29243758Y-3224752D01*
G01X29226486Y-3218910D01*
G01X29215056Y-3207480D01*
G01X29342818Y-3104610D02*
G01X29342818Y-3224752D01*
G01X29342818Y-3167602D02*
G01X29360090Y-3150330D01*
G01X29371520Y-3144742D01*
G01X29388538Y-3144742D01*
G01X29399968Y-3150330D01*
G01X29405810Y-3167602D01*
G01X29405810Y-3224752D01*
G01X29522142Y-3144742D02*
G01X29522142Y-3224752D01*
G01X29522142Y-3161760D02*
G01X29510712Y-3150330D01*
G01X29499282Y-3144742D01*
G01X29482264Y-3144742D01*
G01X29470834Y-3150330D01*
G01X29459404Y-3161760D01*
G01X29453562Y-3179032D01*
G01X29453562Y-3190462D01*
G01X29459404Y-3207480D01*
G01X29470834Y-3218910D01*
G01X29482264Y-3224752D01*
G01X29499282Y-3224752D01*
G01X29510712Y-3218910D01*
G01X29522142Y-3207480D01*
G01X29569894Y-3144742D02*
G01X29569894Y-3264630D01*
G01X29569894Y-3161760D02*
G01X29581324Y-3150330D01*
G01X29592754Y-3144742D01*
G01X29610026Y-3144742D01*
G01X29621456Y-3150330D01*
G01X29632886Y-3161760D01*
G01X29638474Y-3179032D01*
G01X29638474Y-3190462D01*
G01X29632886Y-3207480D01*
G01X29621456Y-3218910D01*
G01X29610026Y-3224752D01*
G01X29592754Y-3224752D01*
G01X29581324Y-3218910D01*
G01X29569894Y-3207480D01*
G01X29686226Y-3179032D02*
G01X29754806Y-3179032D01*
G01X29754806Y-3167602D01*
G01X29749218Y-3156172D01*
G01X29743376Y-3150330D01*
G01X29731946Y-3144742D01*
G01X29714928Y-3144742D01*
G01X29703498Y-3150330D01*
G01X29692068Y-3161760D01*
G01X29686226Y-3179032D01*
G01X29686226Y-3190462D01*
G01X29692068Y-3207480D01*
G01X29703498Y-3218910D01*
G01X29714928Y-3224752D01*
G01X29731946Y-3224752D01*
G01X29743376Y-3218910D01*
G01X29754806Y-3207480D01*
G01X30645983Y-3104610D02*
G01X30645983Y-3224752D01*
G01X30645983Y-3224752D02*
G01X30714563Y-3224752D01*
G01X30830895Y-3144742D02*
G01X30830895Y-3224752D01*
G01X30830895Y-3161760D02*
G01X30819465Y-3150330D01*
G01X30808035Y-3144742D01*
G01X30791017Y-3144742D01*
G01X30779587Y-3150330D01*
G01X30768157Y-3161760D01*
G01X30762315Y-3179032D01*
G01X30762315Y-3190462D01*
G01X30768157Y-3207480D01*
G01X30779587Y-3218910D01*
G01X30791017Y-3224752D01*
G01X30808035Y-3224752D01*
G01X30819465Y-3218910D01*
G01X30830895Y-3207480D01*
G01X30884489Y-3144742D02*
G01X30918779Y-3224752D01*
G01X30953069Y-3144742D02*
G01X30918779Y-3224752D01*
G01X30907349Y-3247612D01*
G01X30895919Y-3259042D01*
G01X30884489Y-3264630D01*
G01X30878647Y-3264630D01*
G01X31000821Y-3179032D02*
G01X31069401Y-3179032D01*
G01X31069401Y-3167602D01*
G01X31063813Y-3156172D01*
G01X31057971Y-3150330D01*
G01X31046541Y-3144742D01*
G01X31029523Y-3144742D01*
G01X31018093Y-3150330D01*
G01X31006663Y-3161760D01*
G01X31000821Y-3179032D01*
G01X31000821Y-3190462D01*
G01X31006663Y-3207480D01*
G01X31018093Y-3218910D01*
G01X31029523Y-3224752D01*
G01X31046541Y-3224752D01*
G01X31057971Y-3218910D01*
G01X31069401Y-3207480D01*
G01X31117153Y-3144742D02*
G01X31117153Y-3224752D01*
G01X31117153Y-3179032D02*
G01X31122995Y-3161760D01*
G01X31134425Y-3150330D01*
G01X31145855Y-3144742D01*
G01X31162873Y-3144742D01*
G01X31338641Y-3104610D02*
G01X31338641Y-3224752D01*
G01X31338641Y-3104610D02*
G01X31390203Y-3104610D01*
G01X31407221Y-3110452D01*
G01X31413063Y-3116040D01*
G01X31418651Y-3127470D01*
G01X31418651Y-3144742D01*
G01X31413063Y-3156172D01*
G01X31407221Y-3161760D01*
G01X31390203Y-3167602D01*
G01X31338641Y-3167602D01*
G01X31534983Y-3144742D02*
G01X31534983Y-3224752D01*
G01X31534983Y-3161760D02*
G01X31523553Y-3150330D01*
G01X31512123Y-3144742D01*
G01X31495105Y-3144742D01*
G01X31483675Y-3150330D01*
G01X31472245Y-3161760D01*
G01X31466403Y-3179032D01*
G01X31466403Y-3190462D01*
G01X31472245Y-3207480D01*
G01X31483675Y-3218910D01*
G01X31495105Y-3224752D01*
G01X31512123Y-3224752D01*
G01X31523553Y-3218910D01*
G01X31534983Y-3207480D01*
G01X31582735Y-3104610D02*
G01X31588577Y-3110452D01*
G01X31594165Y-3104610D01*
G01X31588577Y-3099022D01*
G01X31582735Y-3104610D01*
G01X31588577Y-3144742D02*
G01X31588577Y-3224752D01*
G01X31641917Y-3144742D02*
G01X31641917Y-3224752D01*
G01X31641917Y-3179032D02*
G01X31647759Y-3161760D01*
G01X31659189Y-3150330D01*
G01X31670619Y-3144742D01*
G01X31687637Y-3144742D01*
G01X18874244Y-3713883D02*
G01X18874244Y-3708041D01*
G01X18879832Y-3696611D01*
G01X18885674Y-3691023D01*
G01X18897104Y-3685181D01*
G01X18919964Y-3685181D01*
G01X18931394Y-3691023D01*
G01X18936982Y-3696611D01*
G01X18942824Y-3708041D01*
G01X18942824Y-3719471D01*
G01X18936982Y-3730901D01*
G01X18925552Y-3748173D01*
G01X18868402Y-3805323D01*
G01X18948412Y-3805323D01*
G01X20293995Y-3685181D02*
G01X20356987Y-3685181D01*
G01X20322697Y-3730901D01*
G01X20339715Y-3730901D01*
G01X20351145Y-3736743D01*
G01X20356987Y-3742331D01*
G01X20362575Y-3759603D01*
G01X20362575Y-3771033D01*
G01X20356987Y-3788051D01*
G01X20345557Y-3799481D01*
G01X20328285Y-3805323D01*
G01X20311267Y-3805323D01*
G01X20293995Y-3799481D01*
G01X20288407Y-3793893D01*
G01X20282565Y-3782463D01*
G01X20439029Y-3685181D02*
G01X20421757Y-3691023D01*
G01X20416169Y-3702453D01*
G01X20416169Y-3713883D01*
G01X20421757Y-3725313D01*
G01X20433187Y-3730901D01*
G01X20456047Y-3736743D01*
G01X20473319Y-3742331D01*
G01X20484749Y-3753761D01*
G01X20490337Y-3765191D01*
G01X20490337Y-3782463D01*
G01X20484749Y-3793893D01*
G01X20478907Y-3799481D01*
G01X20461889Y-3805323D01*
G01X20439029Y-3805323D01*
G01X20421757Y-3799481D01*
G01X20416169Y-3793893D01*
G01X20410327Y-3782463D01*
G01X20410327Y-3765191D01*
G01X20416169Y-3753761D01*
G01X20427599Y-3742331D01*
G01X20444617Y-3736743D01*
G01X20467477Y-3730901D01*
G01X20478907Y-3725313D01*
G01X20484749Y-3713883D01*
G01X20484749Y-3702453D01*
G01X20478907Y-3691023D01*
G01X20461889Y-3685181D01*
G01X20439029Y-3685181D01*
G01X20543931Y-3776621D02*
G01X20538089Y-3782463D01*
G01X20543931Y-3788051D01*
G01X20549519Y-3782463D01*
G01X20543931Y-3776621D01*
G01X20608701Y-3685181D02*
G01X20671693Y-3685181D01*
G01X20637403Y-3730901D01*
G01X20654421Y-3730901D01*
G01X20665851Y-3736743D01*
G01X20671693Y-3742331D01*
G01X20677281Y-3759603D01*
G01X20677281Y-3771033D01*
G01X20671693Y-3788051D01*
G01X20660263Y-3799481D01*
G01X20642991Y-3805323D01*
G01X20625973Y-3805323D01*
G01X20608701Y-3799481D01*
G01X20603113Y-3793893D01*
G01X20597271Y-3782463D01*
G01X20725033Y-3725313D02*
G01X20788025Y-3805323D01*
G01X20788025Y-3725313D02*
G01X20725033Y-3805323D01*
G01X20847207Y-3685181D02*
G01X20910199Y-3685181D01*
G01X20875909Y-3730901D01*
G01X20892927Y-3730901D01*
G01X20904357Y-3736743D01*
G01X20910199Y-3742331D01*
G01X20915787Y-3759603D01*
G01X20915787Y-3771033D01*
G01X20910199Y-3788051D01*
G01X20898769Y-3799481D01*
G01X20881497Y-3805323D01*
G01X20864479Y-3805323D01*
G01X20847207Y-3799481D01*
G01X20841619Y-3793893D01*
G01X20835777Y-3782463D01*
G01X20992241Y-3685181D02*
G01X20974969Y-3691023D01*
G01X20969381Y-3702453D01*
G01X20969381Y-3713883D01*
G01X20974969Y-3725313D01*
G01X20986399Y-3730901D01*
G01X21009259Y-3736743D01*
G01X21026531Y-3742331D01*
G01X21037961Y-3753761D01*
G01X21043549Y-3765191D01*
G01X21043549Y-3782463D01*
G01X21037961Y-3793893D01*
G01X21032119Y-3799481D01*
G01X21015101Y-3805323D01*
G01X20992241Y-3805323D01*
G01X20974969Y-3799481D01*
G01X20969381Y-3793893D01*
G01X20963539Y-3782463D01*
G01X20963539Y-3765191D01*
G01X20969381Y-3753761D01*
G01X20980811Y-3742331D01*
G01X20997829Y-3736743D01*
G01X21020689Y-3730901D01*
G01X21032119Y-3725313D01*
G01X21037961Y-3713883D01*
G01X21037961Y-3702453D01*
G01X21032119Y-3691023D01*
G01X21015101Y-3685181D01*
G01X20992241Y-3685181D01*
G01X21097143Y-3776621D02*
G01X21091301Y-3782463D01*
G01X21097143Y-3788051D01*
G01X21102731Y-3782463D01*
G01X21097143Y-3776621D01*
G01X21161913Y-3685181D02*
G01X21224905Y-3685181D01*
G01X21190615Y-3730901D01*
G01X21207633Y-3730901D01*
G01X21219063Y-3736743D01*
G01X21224905Y-3742331D01*
G01X21230493Y-3759603D01*
G01X21230493Y-3771033D01*
G01X21224905Y-3788051D01*
G01X21213475Y-3799481D01*
G01X21196203Y-3805323D01*
G01X21179185Y-3805323D01*
G01X21161913Y-3799481D01*
G01X21156325Y-3793893D01*
G01X21150483Y-3782463D01*
G01X21278245Y-3725313D02*
G01X21278245Y-3805323D01*
G01X21278245Y-3748173D02*
G01X21295517Y-3730901D01*
G01X21306947Y-3725313D01*
G01X21323965Y-3725313D01*
G01X21335395Y-3730901D01*
G01X21341237Y-3748173D01*
G01X21341237Y-3805323D01*
G01X21341237Y-3748173D02*
G01X21358255Y-3730901D01*
G01X21369685Y-3725313D01*
G01X21386957Y-3725313D01*
G01X21398387Y-3730901D01*
G01X21403975Y-3748173D01*
G01X21403975Y-3805323D01*
G01X21451727Y-3685181D02*
G01X21457569Y-3691023D01*
G01X21463157Y-3685181D01*
G01X21457569Y-3679593D01*
G01X21451727Y-3685181D01*
G01X21457569Y-3725313D02*
G01X21457569Y-3805323D01*
G01X21510909Y-3685181D02*
G01X21510909Y-3805323D01*
G01X21598793Y-3662321D02*
G01X21587363Y-3673751D01*
G01X21575933Y-3691023D01*
G01X21564503Y-3713883D01*
G01X21558661Y-3742331D01*
G01X21558661Y-3765191D01*
G01X21564503Y-3793893D01*
G01X21575933Y-3816753D01*
G01X21587363Y-3833771D01*
G01X21598793Y-3845201D01*
G01X21680835Y-3685181D02*
G01X21663817Y-3691023D01*
G01X21652387Y-3708041D01*
G01X21646545Y-3736743D01*
G01X21646545Y-3753761D01*
G01X21652387Y-3782463D01*
G01X21663817Y-3799481D01*
G01X21680835Y-3805323D01*
G01X21692265Y-3805323D01*
G01X21709537Y-3799481D01*
G01X21720967Y-3782463D01*
G01X21726555Y-3753761D01*
G01X21726555Y-3736743D01*
G01X21720967Y-3708041D01*
G01X21709537Y-3691023D01*
G01X21692265Y-3685181D01*
G01X21680835Y-3685181D01*
G01X21780149Y-3776621D02*
G01X21774307Y-3782463D01*
G01X21780149Y-3788051D01*
G01X21785737Y-3782463D01*
G01X21780149Y-3776621D01*
G01X21907911Y-3725313D02*
G01X21902069Y-3742331D01*
G01X21890639Y-3753761D01*
G01X21873621Y-3759603D01*
G01X21867779Y-3759603D01*
G01X21850761Y-3753761D01*
G01X21839331Y-3742331D01*
G01X21833489Y-3725313D01*
G01X21833489Y-3719471D01*
G01X21839331Y-3702453D01*
G01X21850761Y-3691023D01*
G01X21867779Y-3685181D01*
G01X21873621Y-3685181D01*
G01X21890639Y-3691023D01*
G01X21902069Y-3702453D01*
G01X21907911Y-3725313D01*
G01X21907911Y-3753761D01*
G01X21902069Y-3782463D01*
G01X21890639Y-3799481D01*
G01X21873621Y-3805323D01*
G01X21862191Y-3805323D01*
G01X21844919Y-3799481D01*
G01X21839331Y-3788051D01*
G01X22035673Y-3685181D02*
G01X21978523Y-3805323D01*
G01X21955663Y-3685181D02*
G01X22035673Y-3685181D01*
G01X22089267Y-3713883D02*
G01X22089267Y-3708041D01*
G01X22094855Y-3696611D01*
G01X22100697Y-3691023D01*
G01X22112127Y-3685181D01*
G01X22134987Y-3685181D01*
G01X22146417Y-3691023D01*
G01X22152005Y-3696611D01*
G01X22157847Y-3708041D01*
G01X22157847Y-3719471D01*
G01X22152005Y-3730901D01*
G01X22140575Y-3748173D01*
G01X22083425Y-3805323D01*
G01X22163435Y-3805323D01*
G01X22211187Y-3725313D02*
G01X22274179Y-3805323D01*
G01X22274179Y-3725313D02*
G01X22211187Y-3805323D01*
G01X22356221Y-3685181D02*
G01X22339203Y-3691023D01*
G01X22327773Y-3708041D01*
G01X22321931Y-3736743D01*
G01X22321931Y-3753761D01*
G01X22327773Y-3782463D01*
G01X22339203Y-3799481D01*
G01X22356221Y-3805323D01*
G01X22367651Y-3805323D01*
G01X22384923Y-3799481D01*
G01X22396353Y-3782463D01*
G01X22401941Y-3753761D01*
G01X22401941Y-3736743D01*
G01X22396353Y-3708041D01*
G01X22384923Y-3691023D01*
G01X22367651Y-3685181D01*
G01X22356221Y-3685181D01*
G01X22455535Y-3776621D02*
G01X22449693Y-3782463D01*
G01X22455535Y-3788051D01*
G01X22461123Y-3782463D01*
G01X22455535Y-3776621D01*
G01X22583297Y-3725313D02*
G01X22577455Y-3742331D01*
G01X22566025Y-3753761D01*
G01X22549007Y-3759603D01*
G01X22543165Y-3759603D01*
G01X22526147Y-3753761D01*
G01X22514717Y-3742331D01*
G01X22508875Y-3725313D01*
G01X22508875Y-3719471D01*
G01X22514717Y-3702453D01*
G01X22526147Y-3691023D01*
G01X22543165Y-3685181D01*
G01X22549007Y-3685181D01*
G01X22566025Y-3691023D01*
G01X22577455Y-3702453D01*
G01X22583297Y-3725313D01*
G01X22583297Y-3753761D01*
G01X22577455Y-3782463D01*
G01X22566025Y-3799481D01*
G01X22549007Y-3805323D01*
G01X22537577Y-3805323D01*
G01X22520305Y-3799481D01*
G01X22514717Y-3788051D01*
G01X22711059Y-3685181D02*
G01X22653909Y-3805323D01*
G01X22631049Y-3685181D02*
G01X22711059Y-3685181D01*
G01X22764653Y-3713883D02*
G01X22764653Y-3708041D01*
G01X22770241Y-3696611D01*
G01X22776083Y-3691023D01*
G01X22787513Y-3685181D01*
G01X22810373Y-3685181D01*
G01X22821803Y-3691023D01*
G01X22827391Y-3696611D01*
G01X22833233Y-3708041D01*
G01X22833233Y-3719471D01*
G01X22827391Y-3730901D01*
G01X22815961Y-3748173D01*
G01X22758811Y-3805323D01*
G01X22838821Y-3805323D01*
G01X22886573Y-3725313D02*
G01X22886573Y-3805323D01*
G01X22886573Y-3748173D02*
G01X22903845Y-3730901D01*
G01X22915275Y-3725313D01*
G01X22932293Y-3725313D01*
G01X22943723Y-3730901D01*
G01X22949565Y-3748173D01*
G01X22949565Y-3805323D01*
G01X22949565Y-3748173D02*
G01X22966583Y-3730901D01*
G01X22978013Y-3725313D01*
G01X22995285Y-3725313D01*
G01X23006715Y-3730901D01*
G01X23012303Y-3748173D01*
G01X23012303Y-3805323D01*
G01X23060055Y-3725313D02*
G01X23060055Y-3805323D01*
G01X23060055Y-3748173D02*
G01X23077327Y-3730901D01*
G01X23088757Y-3725313D01*
G01X23105775Y-3725313D01*
G01X23117205Y-3730901D01*
G01X23123047Y-3748173D01*
G01X23123047Y-3805323D01*
G01X23123047Y-3748173D02*
G01X23140065Y-3730901D01*
G01X23151495Y-3725313D01*
G01X23168767Y-3725313D01*
G01X23180197Y-3730901D01*
G01X23185785Y-3748173D01*
G01X23185785Y-3805323D01*
G01X23233537Y-3662321D02*
G01X23244967Y-3673751D01*
G01X23256397Y-3691023D01*
G01X23267827Y-3713883D01*
G01X23273669Y-3742331D01*
G01X23273669Y-3765191D01*
G01X23267827Y-3793893D01*
G01X23256397Y-3816753D01*
G01X23244967Y-3833771D01*
G01X23233537Y-3845201D01*
G01X24164846Y-3685181D02*
G01X24164846Y-3805323D01*
G01X24164846Y-3685181D02*
G01X24216408Y-3685181D01*
G01X24233426Y-3691023D01*
G01X24239268Y-3696611D01*
G01X24244856Y-3708041D01*
G01X24244856Y-3725313D01*
G01X24239268Y-3736743D01*
G01X24233426Y-3742331D01*
G01X24216408Y-3748173D01*
G01X24164846Y-3748173D01*
G01X24332740Y-3685181D02*
G01X24332740Y-3805323D01*
G01X24292608Y-3685181D02*
G01X24372618Y-3685181D01*
G01X24420370Y-3685181D02*
G01X24420370Y-3805323D01*
G01X24500380Y-3685181D02*
G01X24500380Y-3805323D01*
G01X24420370Y-3742331D02*
G01X24500380Y-3742331D01*
G01X25626253Y-3685181D02*
G01X25626253Y-3805323D01*
G01X25626253Y-3685181D02*
G01X25677815Y-3685181D01*
G01X25694833Y-3691023D01*
G01X25700675Y-3696611D01*
G01X25706263Y-3708041D01*
G01X25706263Y-3719471D01*
G01X25700675Y-3730901D01*
G01X25694833Y-3736743D01*
G01X25677815Y-3742331D01*
G01X25626253Y-3742331D01*
G01X25666385Y-3742331D02*
G01X25706263Y-3805323D01*
G01X25782717Y-3725313D02*
G01X25771287Y-3730901D01*
G01X25759857Y-3742331D01*
G01X25754015Y-3759603D01*
G01X25754015Y-3771033D01*
G01X25759857Y-3788051D01*
G01X25771287Y-3799481D01*
G01X25782717Y-3805323D01*
G01X25799735Y-3805323D01*
G01X25811165Y-3799481D01*
G01X25822595Y-3788051D01*
G01X25828437Y-3771033D01*
G01X25828437Y-3759603D01*
G01X25822595Y-3742331D01*
G01X25811165Y-3730901D01*
G01X25799735Y-3725313D01*
G01X25782717Y-3725313D01*
G01X25876189Y-3725313D02*
G01X25876189Y-3782463D01*
G01X25882031Y-3799481D01*
G01X25893461Y-3805323D01*
G01X25910479Y-3805323D01*
G01X25921909Y-3799481D01*
G01X25939181Y-3782463D01*
G01X25939181Y-3725313D02*
G01X25939181Y-3805323D01*
G01X25986933Y-3725313D02*
G01X25986933Y-3805323D01*
G01X25986933Y-3748173D02*
G01X26004205Y-3730901D01*
G01X26015635Y-3725313D01*
G01X26032653Y-3725313D01*
G01X26044083Y-3730901D01*
G01X26049925Y-3748173D01*
G01X26049925Y-3805323D01*
G01X26166257Y-3685181D02*
G01X26166257Y-3805323D01*
G01X26166257Y-3742331D02*
G01X26154827Y-3730901D01*
G01X26143397Y-3725313D01*
G01X26126379Y-3725313D01*
G01X26114949Y-3730901D01*
G01X26103519Y-3742331D01*
G01X26097677Y-3759603D01*
G01X26097677Y-3771033D01*
G01X26103519Y-3788051D01*
G01X26114949Y-3799481D01*
G01X26126379Y-3805323D01*
G01X26143397Y-3805323D01*
G01X26154827Y-3799481D01*
G01X26166257Y-3788051D01*
G01X27057434Y-3685181D02*
G01X27057434Y-3805323D01*
G01X27057434Y-3685181D02*
G01X27108996Y-3685181D01*
G01X27126014Y-3691023D01*
G01X27131856Y-3696611D01*
G01X27137444Y-3708041D01*
G01X27137444Y-3725313D01*
G01X27131856Y-3736743D01*
G01X27126014Y-3742331D01*
G01X27108996Y-3748173D01*
G01X27057434Y-3748173D01*
G01X27253776Y-3725313D02*
G01X27253776Y-3805323D01*
G01X27253776Y-3742331D02*
G01X27242346Y-3730901D01*
G01X27230916Y-3725313D01*
G01X27213898Y-3725313D01*
G01X27202468Y-3730901D01*
G01X27191038Y-3742331D01*
G01X27185196Y-3759603D01*
G01X27185196Y-3771033D01*
G01X27191038Y-3788051D01*
G01X27202468Y-3799481D01*
G01X27213898Y-3805323D01*
G01X27230916Y-3805323D01*
G01X27242346Y-3799481D01*
G01X27253776Y-3788051D01*
G01X27370108Y-3685181D02*
G01X27370108Y-3805323D01*
G01X27370108Y-3742331D02*
G01X27358678Y-3730901D01*
G01X27347248Y-3725313D01*
G01X27330230Y-3725313D01*
G01X27318800Y-3730901D01*
G01X27307370Y-3742331D01*
G01X27301528Y-3759603D01*
G01X27301528Y-3771033D01*
G01X27307370Y-3788051D01*
G01X27318800Y-3799481D01*
G01X27330230Y-3805323D01*
G01X27347248Y-3805323D01*
G01X27358678Y-3799481D01*
G01X27370108Y-3788051D01*
G01X28726614Y-3685181D02*
G01X28726614Y-3805323D01*
G01X28726614Y-3685181D02*
G01X28778176Y-3685181D01*
G01X28795194Y-3691023D01*
G01X28801036Y-3696611D01*
G01X28806624Y-3708041D01*
G01X28806624Y-3719471D01*
G01X28801036Y-3730901D01*
G01X28795194Y-3736743D01*
G01X28778176Y-3742331D01*
G01X28726614Y-3742331D01*
G01X28766746Y-3742331D02*
G01X28806624Y-3805323D01*
G01X28883078Y-3725313D02*
G01X28871648Y-3730901D01*
G01X28860218Y-3742331D01*
G01X28854376Y-3759603D01*
G01X28854376Y-3771033D01*
G01X28860218Y-3788051D01*
G01X28871648Y-3799481D01*
G01X28883078Y-3805323D01*
G01X28900096Y-3805323D01*
G01X28911526Y-3799481D01*
G01X28922956Y-3788051D01*
G01X28928798Y-3771033D01*
G01X28928798Y-3759603D01*
G01X28922956Y-3742331D01*
G01X28911526Y-3730901D01*
G01X28900096Y-3725313D01*
G01X28883078Y-3725313D01*
G01X28976550Y-3725313D02*
G01X28976550Y-3782463D01*
G01X28982392Y-3799481D01*
G01X28993822Y-3805323D01*
G01X29010840Y-3805323D01*
G01X29022270Y-3799481D01*
G01X29039542Y-3782463D01*
G01X29039542Y-3725313D02*
G01X29039542Y-3805323D01*
G01X29087294Y-3725313D02*
G01X29087294Y-3805323D01*
G01X29087294Y-3748173D02*
G01X29104566Y-3730901D01*
G01X29115996Y-3725313D01*
G01X29133014Y-3725313D01*
G01X29144444Y-3730901D01*
G01X29150286Y-3748173D01*
G01X29150286Y-3805323D01*
G01X29266618Y-3685181D02*
G01X29266618Y-3805323D01*
G01X29266618Y-3742331D02*
G01X29255188Y-3730901D01*
G01X29243758Y-3725313D01*
G01X29226740Y-3725313D01*
G01X29215310Y-3730901D01*
G01X29203880Y-3742331D01*
G01X29198038Y-3759603D01*
G01X29198038Y-3771033D01*
G01X29203880Y-3788051D01*
G01X29215310Y-3799481D01*
G01X29226740Y-3805323D01*
G01X29243758Y-3805323D01*
G01X29255188Y-3799481D01*
G01X29266618Y-3788051D01*
G01X30686115Y-3685181D02*
G01X30686115Y-3805323D01*
G01X30645983Y-3685181D02*
G01X30725993Y-3685181D01*
G01X30802447Y-3725313D02*
G01X30791017Y-3730901D01*
G01X30779587Y-3742331D01*
G01X30773745Y-3759603D01*
G01X30773745Y-3771033D01*
G01X30779587Y-3788051D01*
G01X30791017Y-3799481D01*
G01X30802447Y-3805323D01*
G01X30819465Y-3805323D01*
G01X30830895Y-3799481D01*
G01X30842325Y-3788051D01*
G01X30848167Y-3771033D01*
G01X30848167Y-3759603D01*
G01X30842325Y-3742331D01*
G01X30830895Y-3730901D01*
G01X30819465Y-3725313D01*
G01X30802447Y-3725313D01*
G01X30895919Y-3725313D02*
G01X30895919Y-3845201D01*
G01X30895919Y-3742331D02*
G01X30907349Y-3730901D01*
G01X30918779Y-3725313D01*
G01X30936051Y-3725313D01*
G01X30947481Y-3730901D01*
G01X30958911Y-3742331D01*
G01X30964499Y-3759603D01*
G01X30964499Y-3771033D01*
G01X30958911Y-3788051D01*
G01X30947481Y-3799481D01*
G01X30936051Y-3805323D01*
G01X30918779Y-3805323D01*
G01X30907349Y-3799481D01*
G01X30895919Y-3788051D01*
G01X31140267Y-3685181D02*
G01X31140267Y-3805323D01*
G01X31140267Y-3805323D02*
G01X31208847Y-3805323D01*
G01X31325179Y-3725313D02*
G01X31325179Y-3805323D01*
G01X31325179Y-3742331D02*
G01X31313749Y-3730901D01*
G01X31302319Y-3725313D01*
G01X31285301Y-3725313D01*
G01X31273871Y-3730901D01*
G01X31262441Y-3742331D01*
G01X31256599Y-3759603D01*
G01X31256599Y-3771033D01*
G01X31262441Y-3788051D01*
G01X31273871Y-3799481D01*
G01X31285301Y-3805323D01*
G01X31302319Y-3805323D01*
G01X31313749Y-3799481D01*
G01X31325179Y-3788051D01*
G01X31378773Y-3725313D02*
G01X31413063Y-3805323D01*
G01X31447353Y-3725313D02*
G01X31413063Y-3805323D01*
G01X31401633Y-3828183D01*
G01X31390203Y-3839613D01*
G01X31378773Y-3845201D01*
G01X31372931Y-3845201D01*
G01X31495105Y-3759603D02*
G01X31563685Y-3759603D01*
G01X31563685Y-3748173D01*
G01X31558097Y-3736743D01*
G01X31552255Y-3730901D01*
G01X31540825Y-3725313D01*
G01X31523807Y-3725313D01*
G01X31512377Y-3730901D01*
G01X31500947Y-3742331D01*
G01X31495105Y-3759603D01*
G01X31495105Y-3771033D01*
G01X31500947Y-3788051D01*
G01X31512377Y-3799481D01*
G01X31523807Y-3805323D01*
G01X31540825Y-3805323D01*
G01X31552255Y-3799481D01*
G01X31563685Y-3788051D01*
G01X31611437Y-3725313D02*
G01X31611437Y-3805323D01*
G01X31611437Y-3759603D02*
G01X31617279Y-3742331D01*
G01X31628709Y-3730901D01*
G01X31640139Y-3725313D01*
G01X31657157Y-3725313D01*
G01X31704909Y-3753761D02*
G01X31807779Y-3753761D01*
G01X31855531Y-3685181D02*
G01X31855531Y-3805323D01*
G01X31855531Y-3685181D02*
G01X31907093Y-3685181D01*
G01X31924111Y-3691023D01*
G01X31929953Y-3696611D01*
G01X31935541Y-3708041D01*
G01X31935541Y-3719471D01*
G01X31929953Y-3730901D01*
G01X31924111Y-3736743D01*
G01X31907093Y-3742331D01*
G01X31855531Y-3742331D02*
G01X31907093Y-3742331D01*
G01X31924111Y-3748173D01*
G01X31929953Y-3753761D01*
G01X31935541Y-3765191D01*
G01X31935541Y-3782463D01*
G01X31929953Y-3793893D01*
G01X31924111Y-3799481D01*
G01X31907093Y-3805323D01*
G01X31855531Y-3805323D01*
G01X32011995Y-3725313D02*
G01X32000565Y-3730901D01*
G01X31989135Y-3742331D01*
G01X31983293Y-3759603D01*
G01X31983293Y-3771033D01*
G01X31989135Y-3788051D01*
G01X32000565Y-3799481D01*
G01X32011995Y-3805323D01*
G01X32029013Y-3805323D01*
G01X32040443Y-3799481D01*
G01X32051873Y-3788051D01*
G01X32057715Y-3771033D01*
G01X32057715Y-3759603D01*
G01X32051873Y-3742331D01*
G01X32040443Y-3730901D01*
G01X32029013Y-3725313D01*
G01X32011995Y-3725313D01*
G01X32122739Y-3685181D02*
G01X32122739Y-3782463D01*
G01X32128327Y-3799481D01*
G01X32139757Y-3805323D01*
G01X32151187Y-3805323D01*
G01X32105467Y-3725313D02*
G01X32145599Y-3725313D01*
G01X32216211Y-3685181D02*
G01X32216211Y-3782463D01*
G01X32221799Y-3799481D01*
G01X32233229Y-3805323D01*
G01X32244659Y-3805323D01*
G01X32198939Y-3725313D02*
G01X32239071Y-3725313D01*
G01X32321113Y-3725313D02*
G01X32309683Y-3730901D01*
G01X32298253Y-3742331D01*
G01X32292411Y-3759603D01*
G01X32292411Y-3771033D01*
G01X32298253Y-3788051D01*
G01X32309683Y-3799481D01*
G01X32321113Y-3805323D01*
G01X32338131Y-3805323D01*
G01X32349561Y-3799481D01*
G01X32360991Y-3788051D01*
G01X32366833Y-3771033D01*
G01X32366833Y-3759603D01*
G01X32360991Y-3742331D01*
G01X32349561Y-3730901D01*
G01X32338131Y-3725313D01*
G01X32321113Y-3725313D01*
G01X32414585Y-3725313D02*
G01X32414585Y-3805323D01*
G01X32414585Y-3748173D02*
G01X32431857Y-3730901D01*
G01X32443287Y-3725313D01*
G01X32460305Y-3725313D01*
G01X32471735Y-3730901D01*
G01X32477577Y-3748173D01*
G01X32477577Y-3805323D01*
G01X32477577Y-3748173D02*
G01X32494595Y-3730901D01*
G01X32506025Y-3725313D01*
G01X32523297Y-3725313D01*
G01X32534727Y-3730901D01*
G01X32540315Y-3748173D01*
G01X32540315Y-3805323D01*
G01X32716083Y-3685181D02*
G01X32716083Y-3805323D01*
G01X32716083Y-3805323D02*
G01X32784663Y-3805323D01*
G01X32900995Y-3725313D02*
G01X32900995Y-3805323D01*
G01X32900995Y-3742331D02*
G01X32889565Y-3730901D01*
G01X32878135Y-3725313D01*
G01X32861117Y-3725313D01*
G01X32849687Y-3730901D01*
G01X32838257Y-3742331D01*
G01X32832415Y-3759603D01*
G01X32832415Y-3771033D01*
G01X32838257Y-3788051D01*
G01X32849687Y-3799481D01*
G01X32861117Y-3805323D01*
G01X32878135Y-3805323D01*
G01X32889565Y-3799481D01*
G01X32900995Y-3788051D01*
G01X32954589Y-3725313D02*
G01X32988879Y-3805323D01*
G01X33023169Y-3725313D02*
G01X32988879Y-3805323D01*
G01X32977449Y-3828183D01*
G01X32966019Y-3839613D01*
G01X32954589Y-3845201D01*
G01X32948747Y-3845201D01*
G01X33070921Y-3759603D02*
G01X33139501Y-3759603D01*
G01X33139501Y-3748173D01*
G01X33133913Y-3736743D01*
G01X33128071Y-3730901D01*
G01X33116641Y-3725313D01*
G01X33099623Y-3725313D01*
G01X33088193Y-3730901D01*
G01X33076763Y-3742331D01*
G01X33070921Y-3759603D01*
G01X33070921Y-3771033D01*
G01X33076763Y-3788051D01*
G01X33088193Y-3799481D01*
G01X33099623Y-3805323D01*
G01X33116641Y-3805323D01*
G01X33128071Y-3799481D01*
G01X33139501Y-3788051D01*
G01X33187253Y-3725313D02*
G01X33187253Y-3805323D01*
G01X33187253Y-3759603D02*
G01X33193095Y-3742331D01*
G01X33204525Y-3730901D01*
G01X33215955Y-3725313D01*
G01X33232973Y-3725313D01*
G01X18874244Y-4294455D02*
G01X18874244Y-4288613D01*
G01X18879832Y-4277183D01*
G01X18885674Y-4271595D01*
G01X18897104Y-4265753D01*
G01X18919964Y-4265753D01*
G01X18931394Y-4271595D01*
G01X18936982Y-4277183D01*
G01X18942824Y-4288613D01*
G01X18942824Y-4300043D01*
G01X18936982Y-4311473D01*
G01X18925552Y-4328745D01*
G01X18868402Y-4385895D01*
G01X18948412Y-4385895D01*
G01X20288407Y-4294455D02*
G01X20288407Y-4288613D01*
G01X20293995Y-4277183D01*
G01X20299837Y-4271595D01*
G01X20311267Y-4265753D01*
G01X20334127Y-4265753D01*
G01X20345557Y-4271595D01*
G01X20351145Y-4277183D01*
G01X20356987Y-4288613D01*
G01X20356987Y-4300043D01*
G01X20351145Y-4311473D01*
G01X20339715Y-4328745D01*
G01X20282565Y-4385895D01*
G01X20362575Y-4385895D01*
G01X20421757Y-4265753D02*
G01X20484749Y-4265753D01*
G01X20450459Y-4311473D01*
G01X20467477Y-4311473D01*
G01X20478907Y-4317315D01*
G01X20484749Y-4322903D01*
G01X20490337Y-4340175D01*
G01X20490337Y-4351605D01*
G01X20484749Y-4368623D01*
G01X20473319Y-4380053D01*
G01X20456047Y-4385895D01*
G01X20439029Y-4385895D01*
G01X20421757Y-4380053D01*
G01X20416169Y-4374465D01*
G01X20410327Y-4363035D01*
G01X20543931Y-4357193D02*
G01X20538089Y-4363035D01*
G01X20543931Y-4368623D01*
G01X20549519Y-4363035D01*
G01X20543931Y-4357193D01*
G01X20665851Y-4283025D02*
G01X20660263Y-4271595D01*
G01X20642991Y-4265753D01*
G01X20631561Y-4265753D01*
G01X20614543Y-4271595D01*
G01X20603113Y-4288613D01*
G01X20597271Y-4317315D01*
G01X20597271Y-4345763D01*
G01X20603113Y-4368623D01*
G01X20614543Y-4380053D01*
G01X20631561Y-4385895D01*
G01X20637403Y-4385895D01*
G01X20654421Y-4380053D01*
G01X20665851Y-4368623D01*
G01X20671693Y-4351605D01*
G01X20671693Y-4345763D01*
G01X20665851Y-4328745D01*
G01X20654421Y-4317315D01*
G01X20637403Y-4311473D01*
G01X20631561Y-4311473D01*
G01X20614543Y-4317315D01*
G01X20603113Y-4328745D01*
G01X20597271Y-4345763D01*
G01X20719445Y-4305885D02*
G01X20782437Y-4385895D01*
G01X20782437Y-4305885D02*
G01X20719445Y-4385895D01*
G01X20898769Y-4265753D02*
G01X20841619Y-4265753D01*
G01X20836031Y-4317315D01*
G01X20841619Y-4311473D01*
G01X20858891Y-4305885D01*
G01X20875909Y-4305885D01*
G01X20893181Y-4311473D01*
G01X20904611Y-4322903D01*
G01X20910199Y-4340175D01*
G01X20910199Y-4351605D01*
G01X20904611Y-4368623D01*
G01X20893181Y-4380053D01*
G01X20875909Y-4385895D01*
G01X20858891Y-4385895D01*
G01X20841619Y-4380053D01*
G01X20836031Y-4374465D01*
G01X20830189Y-4363035D01*
G01X21032373Y-4305885D02*
G01X21026531Y-4322903D01*
G01X21015101Y-4334333D01*
G01X20998083Y-4340175D01*
G01X20992241Y-4340175D01*
G01X20975223Y-4334333D01*
G01X20963793Y-4322903D01*
G01X20957951Y-4305885D01*
G01X20957951Y-4300043D01*
G01X20963793Y-4283025D01*
G01X20975223Y-4271595D01*
G01X20992241Y-4265753D01*
G01X20998083Y-4265753D01*
G01X21015101Y-4271595D01*
G01X21026531Y-4283025D01*
G01X21032373Y-4305885D01*
G01X21032373Y-4334333D01*
G01X21026531Y-4363035D01*
G01X21015101Y-4380053D01*
G01X20998083Y-4385895D01*
G01X20986653Y-4385895D01*
G01X20969381Y-4380053D01*
G01X20963793Y-4368623D01*
G01X21085967Y-4357193D02*
G01X21080125Y-4363035D01*
G01X21085967Y-4368623D01*
G01X21091555Y-4363035D01*
G01X21085967Y-4357193D01*
G01X21139307Y-4288613D02*
G01X21150737Y-4283025D01*
G01X21168009Y-4265753D01*
G01X21168009Y-4385895D01*
G01X21215761Y-4305885D02*
G01X21215761Y-4385895D01*
G01X21215761Y-4328745D02*
G01X21233033Y-4311473D01*
G01X21244463Y-4305885D01*
G01X21261481Y-4305885D01*
G01X21272911Y-4311473D01*
G01X21278753Y-4328745D01*
G01X21278753Y-4385895D01*
G01X21278753Y-4328745D02*
G01X21295771Y-4311473D01*
G01X21307201Y-4305885D01*
G01X21324473Y-4305885D01*
G01X21335903Y-4311473D01*
G01X21341491Y-4328745D01*
G01X21341491Y-4385895D01*
G01X21389243Y-4265753D02*
G01X21395085Y-4271595D01*
G01X21400673Y-4265753D01*
G01X21395085Y-4260165D01*
G01X21389243Y-4265753D01*
G01X21395085Y-4305885D02*
G01X21395085Y-4385895D01*
G01X21448425Y-4265753D02*
G01X21448425Y-4385895D01*
G01X21536309Y-4242893D02*
G01X21524879Y-4254323D01*
G01X21513449Y-4271595D01*
G01X21502019Y-4294455D01*
G01X21496177Y-4322903D01*
G01X21496177Y-4345763D01*
G01X21502019Y-4374465D01*
G01X21513449Y-4397325D01*
G01X21524879Y-4414343D01*
G01X21536309Y-4425773D01*
G01X21618351Y-4265753D02*
G01X21601333Y-4271595D01*
G01X21589903Y-4288613D01*
G01X21584061Y-4317315D01*
G01X21584061Y-4334333D01*
G01X21589903Y-4363035D01*
G01X21601333Y-4380053D01*
G01X21618351Y-4385895D01*
G01X21629781Y-4385895D01*
G01X21647053Y-4380053D01*
G01X21658483Y-4363035D01*
G01X21664071Y-4334333D01*
G01X21664071Y-4317315D01*
G01X21658483Y-4288613D01*
G01X21647053Y-4271595D01*
G01X21629781Y-4265753D01*
G01X21618351Y-4265753D01*
G01X21717665Y-4357193D02*
G01X21711823Y-4363035D01*
G01X21717665Y-4368623D01*
G01X21723253Y-4363035D01*
G01X21717665Y-4357193D01*
G01X21839585Y-4283025D02*
G01X21833997Y-4271595D01*
G01X21816725Y-4265753D01*
G01X21805295Y-4265753D01*
G01X21788277Y-4271595D01*
G01X21776847Y-4288613D01*
G01X21771005Y-4317315D01*
G01X21771005Y-4345763D01*
G01X21776847Y-4368623D01*
G01X21788277Y-4380053D01*
G01X21805295Y-4385895D01*
G01X21811137Y-4385895D01*
G01X21828155Y-4380053D01*
G01X21839585Y-4368623D01*
G01X21845427Y-4351605D01*
G01X21845427Y-4345763D01*
G01X21839585Y-4328745D01*
G01X21828155Y-4317315D01*
G01X21811137Y-4311473D01*
G01X21805295Y-4311473D01*
G01X21788277Y-4317315D01*
G01X21776847Y-4328745D01*
G01X21771005Y-4345763D01*
G01X21927469Y-4265753D02*
G01X21910451Y-4271595D01*
G01X21899021Y-4288613D01*
G01X21893179Y-4317315D01*
G01X21893179Y-4334333D01*
G01X21899021Y-4363035D01*
G01X21910451Y-4380053D01*
G01X21927469Y-4385895D01*
G01X21938899Y-4385895D01*
G01X21956171Y-4380053D01*
G01X21967601Y-4363035D01*
G01X21973189Y-4334333D01*
G01X21973189Y-4317315D01*
G01X21967601Y-4288613D01*
G01X21956171Y-4271595D01*
G01X21938899Y-4265753D01*
G01X21927469Y-4265753D01*
G01X22055231Y-4265753D02*
G01X22038213Y-4271595D01*
G01X22026783Y-4288613D01*
G01X22020941Y-4317315D01*
G01X22020941Y-4334333D01*
G01X22026783Y-4363035D01*
G01X22038213Y-4380053D01*
G01X22055231Y-4385895D01*
G01X22066661Y-4385895D01*
G01X22083933Y-4380053D01*
G01X22095363Y-4363035D01*
G01X22100951Y-4334333D01*
G01X22100951Y-4317315D01*
G01X22095363Y-4288613D01*
G01X22083933Y-4271595D01*
G01X22066661Y-4265753D01*
G01X22055231Y-4265753D01*
G01X22148703Y-4305885D02*
G01X22211695Y-4385895D01*
G01X22211695Y-4305885D02*
G01X22148703Y-4385895D01*
G01X22259447Y-4288613D02*
G01X22270877Y-4283025D01*
G01X22288149Y-4265753D01*
G01X22288149Y-4385895D01*
G01X22341743Y-4357193D02*
G01X22335901Y-4363035D01*
G01X22341743Y-4368623D01*
G01X22347331Y-4363035D01*
G01X22341743Y-4357193D01*
G01X22463663Y-4265753D02*
G01X22406513Y-4265753D01*
G01X22400925Y-4317315D01*
G01X22406513Y-4311473D01*
G01X22423785Y-4305885D01*
G01X22440803Y-4305885D01*
G01X22458075Y-4311473D01*
G01X22469505Y-4322903D01*
G01X22475093Y-4340175D01*
G01X22475093Y-4351605D01*
G01X22469505Y-4368623D01*
G01X22458075Y-4380053D01*
G01X22440803Y-4385895D01*
G01X22423785Y-4385895D01*
G01X22406513Y-4380053D01*
G01X22400925Y-4374465D01*
G01X22395083Y-4363035D01*
G01X22557135Y-4265753D02*
G01X22540117Y-4271595D01*
G01X22528687Y-4288613D01*
G01X22522845Y-4317315D01*
G01X22522845Y-4334333D01*
G01X22528687Y-4363035D01*
G01X22540117Y-4380053D01*
G01X22557135Y-4385895D01*
G01X22568565Y-4385895D01*
G01X22585837Y-4380053D01*
G01X22597267Y-4363035D01*
G01X22602855Y-4334333D01*
G01X22602855Y-4317315D01*
G01X22597267Y-4288613D01*
G01X22585837Y-4271595D01*
G01X22568565Y-4265753D01*
G01X22557135Y-4265753D01*
G01X22684897Y-4265753D02*
G01X22667879Y-4271595D01*
G01X22656449Y-4288613D01*
G01X22650607Y-4317315D01*
G01X22650607Y-4334333D01*
G01X22656449Y-4363035D01*
G01X22667879Y-4380053D01*
G01X22684897Y-4385895D01*
G01X22696327Y-4385895D01*
G01X22713599Y-4380053D01*
G01X22725029Y-4363035D01*
G01X22730617Y-4334333D01*
G01X22730617Y-4317315D01*
G01X22725029Y-4288613D01*
G01X22713599Y-4271595D01*
G01X22696327Y-4265753D01*
G01X22684897Y-4265753D01*
G01X22778369Y-4305885D02*
G01X22778369Y-4385895D01*
G01X22778369Y-4328745D02*
G01X22795641Y-4311473D01*
G01X22807071Y-4305885D01*
G01X22824089Y-4305885D01*
G01X22835519Y-4311473D01*
G01X22841361Y-4328745D01*
G01X22841361Y-4385895D01*
G01X22841361Y-4328745D02*
G01X22858379Y-4311473D01*
G01X22869809Y-4305885D01*
G01X22887081Y-4305885D01*
G01X22898511Y-4311473D01*
G01X22904099Y-4328745D01*
G01X22904099Y-4385895D01*
G01X22951851Y-4305885D02*
G01X22951851Y-4385895D01*
G01X22951851Y-4328745D02*
G01X22969123Y-4311473D01*
G01X22980553Y-4305885D01*
G01X22997571Y-4305885D01*
G01X23009001Y-4311473D01*
G01X23014843Y-4328745D01*
G01X23014843Y-4385895D01*
G01X23014843Y-4328745D02*
G01X23031861Y-4311473D01*
G01X23043291Y-4305885D01*
G01X23060563Y-4305885D01*
G01X23071993Y-4311473D01*
G01X23077581Y-4328745D01*
G01X23077581Y-4385895D01*
G01X23125333Y-4242893D02*
G01X23136763Y-4254323D01*
G01X23148193Y-4271595D01*
G01X23159623Y-4294455D01*
G01X23165465Y-4322903D01*
G01X23165465Y-4345763D01*
G01X23159623Y-4374465D01*
G01X23148193Y-4397325D01*
G01X23136763Y-4414343D01*
G01X23125333Y-4425773D01*
G01X24164846Y-4265753D02*
G01X24164846Y-4385895D01*
G01X24164846Y-4265753D02*
G01X24216408Y-4265753D01*
G01X24233426Y-4271595D01*
G01X24239268Y-4277183D01*
G01X24244856Y-4288613D01*
G01X24244856Y-4305885D01*
G01X24239268Y-4317315D01*
G01X24233426Y-4322903D01*
G01X24216408Y-4328745D01*
G01X24164846Y-4328745D01*
G01X24332740Y-4265753D02*
G01X24332740Y-4385895D01*
G01X24292608Y-4265753D02*
G01X24372618Y-4265753D01*
G01X24420370Y-4265753D02*
G01X24420370Y-4385895D01*
G01X24500380Y-4265753D02*
G01X24500380Y-4385895D01*
G01X24420370Y-4322903D02*
G01X24500380Y-4322903D01*
G01X25706263Y-4283025D02*
G01X25694833Y-4271595D01*
G01X25677815Y-4265753D01*
G01X25654955Y-4265753D01*
G01X25637683Y-4271595D01*
G01X25626253Y-4283025D01*
G01X25626253Y-4294455D01*
G01X25632095Y-4305885D01*
G01X25637683Y-4311473D01*
G01X25649113Y-4317315D01*
G01X25683403Y-4328745D01*
G01X25694833Y-4334333D01*
G01X25700675Y-4340175D01*
G01X25706263Y-4351605D01*
G01X25706263Y-4368623D01*
G01X25694833Y-4380053D01*
G01X25677815Y-4385895D01*
G01X25654955Y-4385895D01*
G01X25637683Y-4380053D01*
G01X25626253Y-4368623D01*
G01X25754015Y-4265753D02*
G01X25754015Y-4385895D01*
G01X25830469Y-4305885D02*
G01X25819039Y-4311473D01*
G01X25807609Y-4322903D01*
G01X25801767Y-4340175D01*
G01X25801767Y-4351605D01*
G01X25807609Y-4368623D01*
G01X25819039Y-4380053D01*
G01X25830469Y-4385895D01*
G01X25847487Y-4385895D01*
G01X25858917Y-4380053D01*
G01X25870347Y-4368623D01*
G01X25876189Y-4351605D01*
G01X25876189Y-4340175D01*
G01X25870347Y-4322903D01*
G01X25858917Y-4311473D01*
G01X25847487Y-4305885D01*
G01X25830469Y-4305885D01*
G01X25941213Y-4265753D02*
G01X25941213Y-4363035D01*
G01X25946801Y-4380053D01*
G01X25958231Y-4385895D01*
G01X25969661Y-4385895D01*
G01X25923941Y-4305885D02*
G01X25964073Y-4305885D01*
G01X27057434Y-4265753D02*
G01X27057434Y-4385895D01*
G01X27057434Y-4265753D02*
G01X27108996Y-4265753D01*
G01X27126014Y-4271595D01*
G01X27131856Y-4277183D01*
G01X27137444Y-4288613D01*
G01X27137444Y-4305885D01*
G01X27131856Y-4317315D01*
G01X27126014Y-4322903D01*
G01X27108996Y-4328745D01*
G01X27057434Y-4328745D01*
G01X27253776Y-4305885D02*
G01X27253776Y-4385895D01*
G01X27253776Y-4322903D02*
G01X27242346Y-4311473D01*
G01X27230916Y-4305885D01*
G01X27213898Y-4305885D01*
G01X27202468Y-4311473D01*
G01X27191038Y-4322903D01*
G01X27185196Y-4340175D01*
G01X27185196Y-4351605D01*
G01X27191038Y-4368623D01*
G01X27202468Y-4380053D01*
G01X27213898Y-4385895D01*
G01X27230916Y-4385895D01*
G01X27242346Y-4380053D01*
G01X27253776Y-4368623D01*
G01X27370108Y-4265753D02*
G01X27370108Y-4385895D01*
G01X27370108Y-4322903D02*
G01X27358678Y-4311473D01*
G01X27347248Y-4305885D01*
G01X27330230Y-4305885D01*
G01X27318800Y-4311473D01*
G01X27307370Y-4322903D01*
G01X27301528Y-4340175D01*
G01X27301528Y-4351605D01*
G01X27307370Y-4368623D01*
G01X27318800Y-4380053D01*
G01X27330230Y-4385895D01*
G01X27347248Y-4385895D01*
G01X27358678Y-4380053D01*
G01X27370108Y-4368623D01*
G01X28760904Y-4265753D02*
G01X28749474Y-4271595D01*
G01X28738044Y-4283025D01*
G01X28732456Y-4294455D01*
G01X28726614Y-4311473D01*
G01X28726614Y-4340175D01*
G01X28732456Y-4357193D01*
G01X28738044Y-4368623D01*
G01X28749474Y-4380053D01*
G01X28760904Y-4385895D01*
G01X28783764Y-4385895D01*
G01X28795194Y-4380053D01*
G01X28806624Y-4368623D01*
G01X28812466Y-4357193D01*
G01X28818054Y-4340175D01*
G01X28818054Y-4311473D01*
G01X28812466Y-4294455D01*
G01X28806624Y-4283025D01*
G01X28795194Y-4271595D01*
G01X28783764Y-4265753D01*
G01X28760904Y-4265753D01*
G01X28865806Y-4305885D02*
G01X28900096Y-4385895D01*
G01X28934386Y-4305885D02*
G01X28900096Y-4385895D01*
G01X29050718Y-4305885D02*
G01X29050718Y-4385895D01*
G01X29050718Y-4322903D02*
G01X29039288Y-4311473D01*
G01X29027858Y-4305885D01*
G01X29010840Y-4305885D01*
G01X28999410Y-4311473D01*
G01X28987980Y-4322903D01*
G01X28982138Y-4340175D01*
G01X28982138Y-4351605D01*
G01X28987980Y-4368623D01*
G01X28999410Y-4380053D01*
G01X29010840Y-4385895D01*
G01X29027858Y-4385895D01*
G01X29039288Y-4380053D01*
G01X29050718Y-4368623D01*
G01X29098470Y-4265753D02*
G01X29098470Y-4385895D01*
G01X30686115Y-4265753D02*
G01X30686115Y-4385895D01*
G01X30645983Y-4265753D02*
G01X30725993Y-4265753D01*
G01X30802447Y-4305885D02*
G01X30791017Y-4311473D01*
G01X30779587Y-4322903D01*
G01X30773745Y-4340175D01*
G01X30773745Y-4351605D01*
G01X30779587Y-4368623D01*
G01X30791017Y-4380053D01*
G01X30802447Y-4385895D01*
G01X30819465Y-4385895D01*
G01X30830895Y-4380053D01*
G01X30842325Y-4368623D01*
G01X30848167Y-4351605D01*
G01X30848167Y-4340175D01*
G01X30842325Y-4322903D01*
G01X30830895Y-4311473D01*
G01X30819465Y-4305885D01*
G01X30802447Y-4305885D01*
G01X30895919Y-4305885D02*
G01X30895919Y-4425773D01*
G01X30895919Y-4322903D02*
G01X30907349Y-4311473D01*
G01X30918779Y-4305885D01*
G01X30936051Y-4305885D01*
G01X30947481Y-4311473D01*
G01X30958911Y-4322903D01*
G01X30964499Y-4340175D01*
G01X30964499Y-4351605D01*
G01X30958911Y-4368623D01*
G01X30947481Y-4380053D01*
G01X30936051Y-4385895D01*
G01X30918779Y-4385895D01*
G01X30907349Y-4380053D01*
G01X30895919Y-4368623D01*
G01X31140267Y-4265753D02*
G01X31140267Y-4385895D01*
G01X31140267Y-4385895D02*
G01X31208847Y-4385895D01*
G01X31325179Y-4305885D02*
G01X31325179Y-4385895D01*
G01X31325179Y-4322903D02*
G01X31313749Y-4311473D01*
G01X31302319Y-4305885D01*
G01X31285301Y-4305885D01*
G01X31273871Y-4311473D01*
G01X31262441Y-4322903D01*
G01X31256599Y-4340175D01*
G01X31256599Y-4351605D01*
G01X31262441Y-4368623D01*
G01X31273871Y-4380053D01*
G01X31285301Y-4385895D01*
G01X31302319Y-4385895D01*
G01X31313749Y-4380053D01*
G01X31325179Y-4368623D01*
G01X31378773Y-4305885D02*
G01X31413063Y-4385895D01*
G01X31447353Y-4305885D02*
G01X31413063Y-4385895D01*
G01X31401633Y-4408755D01*
G01X31390203Y-4420185D01*
G01X31378773Y-4425773D01*
G01X31372931Y-4425773D01*
G01X31495105Y-4340175D02*
G01X31563685Y-4340175D01*
G01X31563685Y-4328745D01*
G01X31558097Y-4317315D01*
G01X31552255Y-4311473D01*
G01X31540825Y-4305885D01*
G01X31523807Y-4305885D01*
G01X31512377Y-4311473D01*
G01X31500947Y-4322903D01*
G01X31495105Y-4340175D01*
G01X31495105Y-4351605D01*
G01X31500947Y-4368623D01*
G01X31512377Y-4380053D01*
G01X31523807Y-4385895D01*
G01X31540825Y-4385895D01*
G01X31552255Y-4380053D01*
G01X31563685Y-4368623D01*
G01X31611437Y-4305885D02*
G01X31611437Y-4385895D01*
G01X31611437Y-4340175D02*
G01X31617279Y-4322903D01*
G01X31628709Y-4311473D01*
G01X31640139Y-4305885D01*
G01X31657157Y-4305885D01*
G01X31704909Y-4334333D02*
G01X31807779Y-4334333D01*
G01X31855531Y-4265753D02*
G01X31855531Y-4385895D01*
G01X31855531Y-4265753D02*
G01X31907093Y-4265753D01*
G01X31924111Y-4271595D01*
G01X31929953Y-4277183D01*
G01X31935541Y-4288613D01*
G01X31935541Y-4300043D01*
G01X31929953Y-4311473D01*
G01X31924111Y-4317315D01*
G01X31907093Y-4322903D01*
G01X31855531Y-4322903D02*
G01X31907093Y-4322903D01*
G01X31924111Y-4328745D01*
G01X31929953Y-4334333D01*
G01X31935541Y-4345763D01*
G01X31935541Y-4363035D01*
G01X31929953Y-4374465D01*
G01X31924111Y-4380053D01*
G01X31907093Y-4385895D01*
G01X31855531Y-4385895D01*
G01X32011995Y-4305885D02*
G01X32000565Y-4311473D01*
G01X31989135Y-4322903D01*
G01X31983293Y-4340175D01*
G01X31983293Y-4351605D01*
G01X31989135Y-4368623D01*
G01X32000565Y-4380053D01*
G01X32011995Y-4385895D01*
G01X32029013Y-4385895D01*
G01X32040443Y-4380053D01*
G01X32051873Y-4368623D01*
G01X32057715Y-4351605D01*
G01X32057715Y-4340175D01*
G01X32051873Y-4322903D01*
G01X32040443Y-4311473D01*
G01X32029013Y-4305885D01*
G01X32011995Y-4305885D01*
G01X32122739Y-4265753D02*
G01X32122739Y-4363035D01*
G01X32128327Y-4380053D01*
G01X32139757Y-4385895D01*
G01X32151187Y-4385895D01*
G01X32105467Y-4305885D02*
G01X32145599Y-4305885D01*
G01X32216211Y-4265753D02*
G01X32216211Y-4363035D01*
G01X32221799Y-4380053D01*
G01X32233229Y-4385895D01*
G01X32244659Y-4385895D01*
G01X32198939Y-4305885D02*
G01X32239071Y-4305885D01*
G01X32321113Y-4305885D02*
G01X32309683Y-4311473D01*
G01X32298253Y-4322903D01*
G01X32292411Y-4340175D01*
G01X32292411Y-4351605D01*
G01X32298253Y-4368623D01*
G01X32309683Y-4380053D01*
G01X32321113Y-4385895D01*
G01X32338131Y-4385895D01*
G01X32349561Y-4380053D01*
G01X32360991Y-4368623D01*
G01X32366833Y-4351605D01*
G01X32366833Y-4340175D01*
G01X32360991Y-4322903D01*
G01X32349561Y-4311473D01*
G01X32338131Y-4305885D01*
G01X32321113Y-4305885D01*
G01X32414585Y-4305885D02*
G01X32414585Y-4385895D01*
G01X32414585Y-4328745D02*
G01X32431857Y-4311473D01*
G01X32443287Y-4305885D01*
G01X32460305Y-4305885D01*
G01X32471735Y-4311473D01*
G01X32477577Y-4328745D01*
G01X32477577Y-4385895D01*
G01X32477577Y-4328745D02*
G01X32494595Y-4311473D01*
G01X32506025Y-4305885D01*
G01X32523297Y-4305885D01*
G01X32534727Y-4311473D01*
G01X32540315Y-4328745D01*
G01X32540315Y-4385895D01*
G01X32716083Y-4265753D02*
G01X32716083Y-4385895D01*
G01X32716083Y-4385895D02*
G01X32784663Y-4385895D01*
G01X32900995Y-4305885D02*
G01X32900995Y-4385895D01*
G01X32900995Y-4322903D02*
G01X32889565Y-4311473D01*
G01X32878135Y-4305885D01*
G01X32861117Y-4305885D01*
G01X32849687Y-4311473D01*
G01X32838257Y-4322903D01*
G01X32832415Y-4340175D01*
G01X32832415Y-4351605D01*
G01X32838257Y-4368623D01*
G01X32849687Y-4380053D01*
G01X32861117Y-4385895D01*
G01X32878135Y-4385895D01*
G01X32889565Y-4380053D01*
G01X32900995Y-4368623D01*
G01X32954589Y-4305885D02*
G01X32988879Y-4385895D01*
G01X33023169Y-4305885D02*
G01X32988879Y-4385895D01*
G01X32977449Y-4408755D01*
G01X32966019Y-4420185D01*
G01X32954589Y-4425773D01*
G01X32948747Y-4425773D01*
G01X33070921Y-4340175D02*
G01X33139501Y-4340175D01*
G01X33139501Y-4328745D01*
G01X33133913Y-4317315D01*
G01X33128071Y-4311473D01*
G01X33116641Y-4305885D01*
G01X33099623Y-4305885D01*
G01X33088193Y-4311473D01*
G01X33076763Y-4322903D01*
G01X33070921Y-4340175D01*
G01X33070921Y-4351605D01*
G01X33076763Y-4368623D01*
G01X33088193Y-4380053D01*
G01X33099623Y-4385895D01*
G01X33116641Y-4385895D01*
G01X33128071Y-4380053D01*
G01X33139501Y-4368623D01*
G01X33187253Y-4305885D02*
G01X33187253Y-4385895D01*
G01X33187253Y-4340175D02*
G01X33193095Y-4322903D01*
G01X33204525Y-4311473D01*
G01X33215955Y-4305885D01*
G01X33232973Y-4305885D01*
G01X18874244Y-4875026D02*
G01X18874244Y-4869184D01*
G01X18879832Y-4857754D01*
G01X18885674Y-4852166D01*
G01X18897104Y-4846324D01*
G01X18919964Y-4846324D01*
G01X18931394Y-4852166D01*
G01X18936982Y-4857754D01*
G01X18942824Y-4869184D01*
G01X18942824Y-4880614D01*
G01X18936982Y-4892044D01*
G01X18925552Y-4909316D01*
G01X18868402Y-4966466D01*
G01X18948412Y-4966466D01*
G01X20288407Y-4875026D02*
G01X20288407Y-4869184D01*
G01X20293995Y-4857754D01*
G01X20299837Y-4852166D01*
G01X20311267Y-4846324D01*
G01X20334127Y-4846324D01*
G01X20345557Y-4852166D01*
G01X20351145Y-4857754D01*
G01X20356987Y-4869184D01*
G01X20356987Y-4880614D01*
G01X20351145Y-4892044D01*
G01X20339715Y-4909316D01*
G01X20282565Y-4966466D01*
G01X20362575Y-4966466D01*
G01X20421757Y-4846324D02*
G01X20484749Y-4846324D01*
G01X20450459Y-4892044D01*
G01X20467477Y-4892044D01*
G01X20478907Y-4897886D01*
G01X20484749Y-4903474D01*
G01X20490337Y-4920746D01*
G01X20490337Y-4932176D01*
G01X20484749Y-4949194D01*
G01X20473319Y-4960624D01*
G01X20456047Y-4966466D01*
G01X20439029Y-4966466D01*
G01X20421757Y-4960624D01*
G01X20416169Y-4955036D01*
G01X20410327Y-4943606D01*
G01X20543931Y-4937764D02*
G01X20538089Y-4943606D01*
G01X20543931Y-4949194D01*
G01X20549519Y-4943606D01*
G01X20543931Y-4937764D01*
G01X20665851Y-4863596D02*
G01X20660263Y-4852166D01*
G01X20642991Y-4846324D01*
G01X20631561Y-4846324D01*
G01X20614543Y-4852166D01*
G01X20603113Y-4869184D01*
G01X20597271Y-4897886D01*
G01X20597271Y-4926334D01*
G01X20603113Y-4949194D01*
G01X20614543Y-4960624D01*
G01X20631561Y-4966466D01*
G01X20637403Y-4966466D01*
G01X20654421Y-4960624D01*
G01X20665851Y-4949194D01*
G01X20671693Y-4932176D01*
G01X20671693Y-4926334D01*
G01X20665851Y-4909316D01*
G01X20654421Y-4897886D01*
G01X20637403Y-4892044D01*
G01X20631561Y-4892044D01*
G01X20614543Y-4897886D01*
G01X20603113Y-4909316D01*
G01X20597271Y-4926334D01*
G01X20719445Y-4886456D02*
G01X20782437Y-4966466D01*
G01X20782437Y-4886456D02*
G01X20719445Y-4966466D01*
G01X20887339Y-4846324D02*
G01X20830189Y-4926334D01*
G01X20916041Y-4926334D01*
G01X20887339Y-4846324D02*
G01X20887339Y-4966466D01*
G01X21043803Y-4846324D02*
G01X20986653Y-4966466D01*
G01X20963793Y-4846324D02*
G01X21043803Y-4846324D01*
G01X21097397Y-4937764D02*
G01X21091555Y-4943606D01*
G01X21097397Y-4949194D01*
G01X21102985Y-4943606D01*
G01X21097397Y-4937764D01*
G01X21156579Y-4875026D02*
G01X21156579Y-4869184D01*
G01X21162167Y-4857754D01*
G01X21168009Y-4852166D01*
G01X21179439Y-4846324D01*
G01X21202299Y-4846324D01*
G01X21213729Y-4852166D01*
G01X21219317Y-4857754D01*
G01X21225159Y-4869184D01*
G01X21225159Y-4880614D01*
G01X21219317Y-4892044D01*
G01X21207887Y-4909316D01*
G01X21150737Y-4966466D01*
G01X21230747Y-4966466D01*
G01X21278499Y-4886456D02*
G01X21278499Y-4966466D01*
G01X21278499Y-4909316D02*
G01X21295771Y-4892044D01*
G01X21307201Y-4886456D01*
G01X21324219Y-4886456D01*
G01X21335649Y-4892044D01*
G01X21341491Y-4909316D01*
G01X21341491Y-4966466D01*
G01X21341491Y-4909316D02*
G01X21358509Y-4892044D01*
G01X21369939Y-4886456D01*
G01X21387211Y-4886456D01*
G01X21398641Y-4892044D01*
G01X21404229Y-4909316D01*
G01X21404229Y-4966466D01*
G01X21451981Y-4846324D02*
G01X21457823Y-4852166D01*
G01X21463411Y-4846324D01*
G01X21457823Y-4840736D01*
G01X21451981Y-4846324D01*
G01X21457823Y-4886456D02*
G01X21457823Y-4966466D01*
G01X21511163Y-4846324D02*
G01X21511163Y-4966466D01*
G01X21599047Y-4823464D02*
G01X21587617Y-4834894D01*
G01X21576187Y-4852166D01*
G01X21564757Y-4875026D01*
G01X21558915Y-4903474D01*
G01X21558915Y-4926334D01*
G01X21564757Y-4955036D01*
G01X21576187Y-4977896D01*
G01X21587617Y-4994914D01*
G01X21599047Y-5006344D01*
G01X21681089Y-4846324D02*
G01X21664071Y-4852166D01*
G01X21652641Y-4869184D01*
G01X21646799Y-4897886D01*
G01X21646799Y-4914904D01*
G01X21652641Y-4943606D01*
G01X21664071Y-4960624D01*
G01X21681089Y-4966466D01*
G01X21692519Y-4966466D01*
G01X21709791Y-4960624D01*
G01X21721221Y-4943606D01*
G01X21726809Y-4914904D01*
G01X21726809Y-4897886D01*
G01X21721221Y-4869184D01*
G01X21709791Y-4852166D01*
G01X21692519Y-4846324D01*
G01X21681089Y-4846324D01*
G01X21780403Y-4937764D02*
G01X21774561Y-4943606D01*
G01X21780403Y-4949194D01*
G01X21785991Y-4943606D01*
G01X21780403Y-4937764D01*
G01X21902323Y-4863596D02*
G01X21896735Y-4852166D01*
G01X21879463Y-4846324D01*
G01X21868033Y-4846324D01*
G01X21851015Y-4852166D01*
G01X21839585Y-4869184D01*
G01X21833743Y-4897886D01*
G01X21833743Y-4926334D01*
G01X21839585Y-4949194D01*
G01X21851015Y-4960624D01*
G01X21868033Y-4966466D01*
G01X21873875Y-4966466D01*
G01X21890893Y-4960624D01*
G01X21902323Y-4949194D01*
G01X21908165Y-4932176D01*
G01X21908165Y-4926334D01*
G01X21902323Y-4909316D01*
G01X21890893Y-4897886D01*
G01X21873875Y-4892044D01*
G01X21868033Y-4892044D01*
G01X21851015Y-4897886D01*
G01X21839585Y-4909316D01*
G01X21833743Y-4926334D01*
G01X21990207Y-4846324D02*
G01X21973189Y-4852166D01*
G01X21961759Y-4869184D01*
G01X21955917Y-4897886D01*
G01X21955917Y-4914904D01*
G01X21961759Y-4943606D01*
G01X21973189Y-4960624D01*
G01X21990207Y-4966466D01*
G01X22001637Y-4966466D01*
G01X22018909Y-4960624D01*
G01X22030339Y-4943606D01*
G01X22035927Y-4914904D01*
G01X22035927Y-4897886D01*
G01X22030339Y-4869184D01*
G01X22018909Y-4852166D01*
G01X22001637Y-4846324D01*
G01X21990207Y-4846324D01*
G01X22117969Y-4846324D02*
G01X22100951Y-4852166D01*
G01X22089521Y-4869184D01*
G01X22083679Y-4897886D01*
G01X22083679Y-4914904D01*
G01X22089521Y-4943606D01*
G01X22100951Y-4960624D01*
G01X22117969Y-4966466D01*
G01X22129399Y-4966466D01*
G01X22146671Y-4960624D01*
G01X22158101Y-4943606D01*
G01X22163689Y-4914904D01*
G01X22163689Y-4897886D01*
G01X22158101Y-4869184D01*
G01X22146671Y-4852166D01*
G01X22129399Y-4846324D01*
G01X22117969Y-4846324D01*
G01X22211441Y-4886456D02*
G01X22274433Y-4966466D01*
G01X22274433Y-4886456D02*
G01X22211441Y-4966466D01*
G01X22322185Y-4869184D02*
G01X22333615Y-4863596D01*
G01X22350887Y-4846324D01*
G01X22350887Y-4966466D01*
G01X22404481Y-4937764D02*
G01X22398639Y-4943606D01*
G01X22404481Y-4949194D01*
G01X22410069Y-4943606D01*
G01X22404481Y-4937764D01*
G01X22463663Y-4875026D02*
G01X22463663Y-4869184D01*
G01X22469251Y-4857754D01*
G01X22475093Y-4852166D01*
G01X22486523Y-4846324D01*
G01X22509383Y-4846324D01*
G01X22520813Y-4852166D01*
G01X22526401Y-4857754D01*
G01X22532243Y-4869184D01*
G01X22532243Y-4880614D01*
G01X22526401Y-4892044D01*
G01X22514971Y-4909316D01*
G01X22457821Y-4966466D01*
G01X22537831Y-4966466D01*
G01X22619873Y-4846324D02*
G01X22602855Y-4852166D01*
G01X22591425Y-4869184D01*
G01X22585583Y-4897886D01*
G01X22585583Y-4914904D01*
G01X22591425Y-4943606D01*
G01X22602855Y-4960624D01*
G01X22619873Y-4966466D01*
G01X22631303Y-4966466D01*
G01X22648575Y-4960624D01*
G01X22660005Y-4943606D01*
G01X22665593Y-4914904D01*
G01X22665593Y-4897886D01*
G01X22660005Y-4869184D01*
G01X22648575Y-4852166D01*
G01X22631303Y-4846324D01*
G01X22619873Y-4846324D01*
G01X22747635Y-4846324D02*
G01X22730617Y-4852166D01*
G01X22719187Y-4869184D01*
G01X22713345Y-4897886D01*
G01X22713345Y-4914904D01*
G01X22719187Y-4943606D01*
G01X22730617Y-4960624D01*
G01X22747635Y-4966466D01*
G01X22759065Y-4966466D01*
G01X22776337Y-4960624D01*
G01X22787767Y-4943606D01*
G01X22793355Y-4914904D01*
G01X22793355Y-4897886D01*
G01X22787767Y-4869184D01*
G01X22776337Y-4852166D01*
G01X22759065Y-4846324D01*
G01X22747635Y-4846324D01*
G01X22841107Y-4886456D02*
G01X22841107Y-4966466D01*
G01X22841107Y-4909316D02*
G01X22858379Y-4892044D01*
G01X22869809Y-4886456D01*
G01X22886827Y-4886456D01*
G01X22898257Y-4892044D01*
G01X22904099Y-4909316D01*
G01X22904099Y-4966466D01*
G01X22904099Y-4909316D02*
G01X22921117Y-4892044D01*
G01X22932547Y-4886456D01*
G01X22949819Y-4886456D01*
G01X22961249Y-4892044D01*
G01X22966837Y-4909316D01*
G01X22966837Y-4966466D01*
G01X23014589Y-4886456D02*
G01X23014589Y-4966466D01*
G01X23014589Y-4909316D02*
G01X23031861Y-4892044D01*
G01X23043291Y-4886456D01*
G01X23060309Y-4886456D01*
G01X23071739Y-4892044D01*
G01X23077581Y-4909316D01*
G01X23077581Y-4966466D01*
G01X23077581Y-4909316D02*
G01X23094599Y-4892044D01*
G01X23106029Y-4886456D01*
G01X23123301Y-4886456D01*
G01X23134731Y-4892044D01*
G01X23140319Y-4909316D01*
G01X23140319Y-4966466D01*
G01X23188071Y-4823464D02*
G01X23199501Y-4834894D01*
G01X23210931Y-4852166D01*
G01X23222361Y-4875026D01*
G01X23228203Y-4903474D01*
G01X23228203Y-4926334D01*
G01X23222361Y-4955036D01*
G01X23210931Y-4977896D01*
G01X23199501Y-4994914D01*
G01X23188071Y-5006344D01*
G01X24164846Y-4846324D02*
G01X24164846Y-4966466D01*
G01X24164846Y-4846324D02*
G01X24216408Y-4846324D01*
G01X24233426Y-4852166D01*
G01X24239268Y-4857754D01*
G01X24244856Y-4869184D01*
G01X24244856Y-4886456D01*
G01X24239268Y-4897886D01*
G01X24233426Y-4903474D01*
G01X24216408Y-4909316D01*
G01X24164846Y-4909316D01*
G01X24332740Y-4846324D02*
G01X24332740Y-4966466D01*
G01X24292608Y-4846324D02*
G01X24372618Y-4846324D01*
G01X24420370Y-4846324D02*
G01X24420370Y-4966466D01*
G01X24500380Y-4846324D02*
G01X24500380Y-4966466D01*
G01X24420370Y-4903474D02*
G01X24500380Y-4903474D01*
G01X25706263Y-4863596D02*
G01X25694833Y-4852166D01*
G01X25677815Y-4846324D01*
G01X25654955Y-4846324D01*
G01X25637683Y-4852166D01*
G01X25626253Y-4863596D01*
G01X25626253Y-4875026D01*
G01X25632095Y-4886456D01*
G01X25637683Y-4892044D01*
G01X25649113Y-4897886D01*
G01X25683403Y-4909316D01*
G01X25694833Y-4914904D01*
G01X25700675Y-4920746D01*
G01X25706263Y-4932176D01*
G01X25706263Y-4949194D01*
G01X25694833Y-4960624D01*
G01X25677815Y-4966466D01*
G01X25654955Y-4966466D01*
G01X25637683Y-4960624D01*
G01X25626253Y-4949194D01*
G01X25754015Y-4846324D02*
G01X25754015Y-4966466D01*
G01X25830469Y-4886456D02*
G01X25819039Y-4892044D01*
G01X25807609Y-4903474D01*
G01X25801767Y-4920746D01*
G01X25801767Y-4932176D01*
G01X25807609Y-4949194D01*
G01X25819039Y-4960624D01*
G01X25830469Y-4966466D01*
G01X25847487Y-4966466D01*
G01X25858917Y-4960624D01*
G01X25870347Y-4949194D01*
G01X25876189Y-4932176D01*
G01X25876189Y-4920746D01*
G01X25870347Y-4903474D01*
G01X25858917Y-4892044D01*
G01X25847487Y-4886456D01*
G01X25830469Y-4886456D01*
G01X25941213Y-4846324D02*
G01X25941213Y-4943606D01*
G01X25946801Y-4960624D01*
G01X25958231Y-4966466D01*
G01X25969661Y-4966466D01*
G01X25923941Y-4886456D02*
G01X25964073Y-4886456D01*
G01X27057434Y-4846324D02*
G01X27057434Y-4966466D01*
G01X27057434Y-4846324D02*
G01X27108996Y-4846324D01*
G01X27126014Y-4852166D01*
G01X27131856Y-4857754D01*
G01X27137444Y-4869184D01*
G01X27137444Y-4886456D01*
G01X27131856Y-4897886D01*
G01X27126014Y-4903474D01*
G01X27108996Y-4909316D01*
G01X27057434Y-4909316D01*
G01X27253776Y-4886456D02*
G01X27253776Y-4966466D01*
G01X27253776Y-4903474D02*
G01X27242346Y-4892044D01*
G01X27230916Y-4886456D01*
G01X27213898Y-4886456D01*
G01X27202468Y-4892044D01*
G01X27191038Y-4903474D01*
G01X27185196Y-4920746D01*
G01X27185196Y-4932176D01*
G01X27191038Y-4949194D01*
G01X27202468Y-4960624D01*
G01X27213898Y-4966466D01*
G01X27230916Y-4966466D01*
G01X27242346Y-4960624D01*
G01X27253776Y-4949194D01*
G01X27370108Y-4846324D02*
G01X27370108Y-4966466D01*
G01X27370108Y-4903474D02*
G01X27358678Y-4892044D01*
G01X27347248Y-4886456D01*
G01X27330230Y-4886456D01*
G01X27318800Y-4892044D01*
G01X27307370Y-4903474D01*
G01X27301528Y-4920746D01*
G01X27301528Y-4932176D01*
G01X27307370Y-4949194D01*
G01X27318800Y-4960624D01*
G01X27330230Y-4966466D01*
G01X27347248Y-4966466D01*
G01X27358678Y-4960624D01*
G01X27370108Y-4949194D01*
G01X28760904Y-4846324D02*
G01X28749474Y-4852166D01*
G01X28738044Y-4863596D01*
G01X28732456Y-4875026D01*
G01X28726614Y-4892044D01*
G01X28726614Y-4920746D01*
G01X28732456Y-4937764D01*
G01X28738044Y-4949194D01*
G01X28749474Y-4960624D01*
G01X28760904Y-4966466D01*
G01X28783764Y-4966466D01*
G01X28795194Y-4960624D01*
G01X28806624Y-4949194D01*
G01X28812466Y-4937764D01*
G01X28818054Y-4920746D01*
G01X28818054Y-4892044D01*
G01X28812466Y-4875026D01*
G01X28806624Y-4863596D01*
G01X28795194Y-4852166D01*
G01X28783764Y-4846324D01*
G01X28760904Y-4846324D01*
G01X28865806Y-4886456D02*
G01X28900096Y-4966466D01*
G01X28934386Y-4886456D02*
G01X28900096Y-4966466D01*
G01X29050718Y-4886456D02*
G01X29050718Y-4966466D01*
G01X29050718Y-4903474D02*
G01X29039288Y-4892044D01*
G01X29027858Y-4886456D01*
G01X29010840Y-4886456D01*
G01X28999410Y-4892044D01*
G01X28987980Y-4903474D01*
G01X28982138Y-4920746D01*
G01X28982138Y-4932176D01*
G01X28987980Y-4949194D01*
G01X28999410Y-4960624D01*
G01X29010840Y-4966466D01*
G01X29027858Y-4966466D01*
G01X29039288Y-4960624D01*
G01X29050718Y-4949194D01*
G01X29098470Y-4846324D02*
G01X29098470Y-4966466D01*
G01X30686115Y-4846324D02*
G01X30686115Y-4966466D01*
G01X30645983Y-4846324D02*
G01X30725993Y-4846324D01*
G01X30802447Y-4886456D02*
G01X30791017Y-4892044D01*
G01X30779587Y-4903474D01*
G01X30773745Y-4920746D01*
G01X30773745Y-4932176D01*
G01X30779587Y-4949194D01*
G01X30791017Y-4960624D01*
G01X30802447Y-4966466D01*
G01X30819465Y-4966466D01*
G01X30830895Y-4960624D01*
G01X30842325Y-4949194D01*
G01X30848167Y-4932176D01*
G01X30848167Y-4920746D01*
G01X30842325Y-4903474D01*
G01X30830895Y-4892044D01*
G01X30819465Y-4886456D01*
G01X30802447Y-4886456D01*
G01X30895919Y-4886456D02*
G01X30895919Y-5006344D01*
G01X30895919Y-4903474D02*
G01X30907349Y-4892044D01*
G01X30918779Y-4886456D01*
G01X30936051Y-4886456D01*
G01X30947481Y-4892044D01*
G01X30958911Y-4903474D01*
G01X30964499Y-4920746D01*
G01X30964499Y-4932176D01*
G01X30958911Y-4949194D01*
G01X30947481Y-4960624D01*
G01X30936051Y-4966466D01*
G01X30918779Y-4966466D01*
G01X30907349Y-4960624D01*
G01X30895919Y-4949194D01*
G01X31140267Y-4846324D02*
G01X31140267Y-4966466D01*
G01X31140267Y-4966466D02*
G01X31208847Y-4966466D01*
G01X31325179Y-4886456D02*
G01X31325179Y-4966466D01*
G01X31325179Y-4903474D02*
G01X31313749Y-4892044D01*
G01X31302319Y-4886456D01*
G01X31285301Y-4886456D01*
G01X31273871Y-4892044D01*
G01X31262441Y-4903474D01*
G01X31256599Y-4920746D01*
G01X31256599Y-4932176D01*
G01X31262441Y-4949194D01*
G01X31273871Y-4960624D01*
G01X31285301Y-4966466D01*
G01X31302319Y-4966466D01*
G01X31313749Y-4960624D01*
G01X31325179Y-4949194D01*
G01X31378773Y-4886456D02*
G01X31413063Y-4966466D01*
G01X31447353Y-4886456D02*
G01X31413063Y-4966466D01*
G01X31401633Y-4989326D01*
G01X31390203Y-5000756D01*
G01X31378773Y-5006344D01*
G01X31372931Y-5006344D01*
G01X31495105Y-4920746D02*
G01X31563685Y-4920746D01*
G01X31563685Y-4909316D01*
G01X31558097Y-4897886D01*
G01X31552255Y-4892044D01*
G01X31540825Y-4886456D01*
G01X31523807Y-4886456D01*
G01X31512377Y-4892044D01*
G01X31500947Y-4903474D01*
G01X31495105Y-4920746D01*
G01X31495105Y-4932176D01*
G01X31500947Y-4949194D01*
G01X31512377Y-4960624D01*
G01X31523807Y-4966466D01*
G01X31540825Y-4966466D01*
G01X31552255Y-4960624D01*
G01X31563685Y-4949194D01*
G01X31611437Y-4886456D02*
G01X31611437Y-4966466D01*
G01X31611437Y-4920746D02*
G01X31617279Y-4903474D01*
G01X31628709Y-4892044D01*
G01X31640139Y-4886456D01*
G01X31657157Y-4886456D01*
G01X31704909Y-4914904D02*
G01X31807779Y-4914904D01*
G01X31855531Y-4846324D02*
G01X31855531Y-4966466D01*
G01X31855531Y-4846324D02*
G01X31907093Y-4846324D01*
G01X31924111Y-4852166D01*
G01X31929953Y-4857754D01*
G01X31935541Y-4869184D01*
G01X31935541Y-4880614D01*
G01X31929953Y-4892044D01*
G01X31924111Y-4897886D01*
G01X31907093Y-4903474D01*
G01X31855531Y-4903474D02*
G01X31907093Y-4903474D01*
G01X31924111Y-4909316D01*
G01X31929953Y-4914904D01*
G01X31935541Y-4926334D01*
G01X31935541Y-4943606D01*
G01X31929953Y-4955036D01*
G01X31924111Y-4960624D01*
G01X31907093Y-4966466D01*
G01X31855531Y-4966466D01*
G01X32011995Y-4886456D02*
G01X32000565Y-4892044D01*
G01X31989135Y-4903474D01*
G01X31983293Y-4920746D01*
G01X31983293Y-4932176D01*
G01X31989135Y-4949194D01*
G01X32000565Y-4960624D01*
G01X32011995Y-4966466D01*
G01X32029013Y-4966466D01*
G01X32040443Y-4960624D01*
G01X32051873Y-4949194D01*
G01X32057715Y-4932176D01*
G01X32057715Y-4920746D01*
G01X32051873Y-4903474D01*
G01X32040443Y-4892044D01*
G01X32029013Y-4886456D01*
G01X32011995Y-4886456D01*
G01X32122739Y-4846324D02*
G01X32122739Y-4943606D01*
G01X32128327Y-4960624D01*
G01X32139757Y-4966466D01*
G01X32151187Y-4966466D01*
G01X32105467Y-4886456D02*
G01X32145599Y-4886456D01*
G01X32216211Y-4846324D02*
G01X32216211Y-4943606D01*
G01X32221799Y-4960624D01*
G01X32233229Y-4966466D01*
G01X32244659Y-4966466D01*
G01X32198939Y-4886456D02*
G01X32239071Y-4886456D01*
G01X32321113Y-4886456D02*
G01X32309683Y-4892044D01*
G01X32298253Y-4903474D01*
G01X32292411Y-4920746D01*
G01X32292411Y-4932176D01*
G01X32298253Y-4949194D01*
G01X32309683Y-4960624D01*
G01X32321113Y-4966466D01*
G01X32338131Y-4966466D01*
G01X32349561Y-4960624D01*
G01X32360991Y-4949194D01*
G01X32366833Y-4932176D01*
G01X32366833Y-4920746D01*
G01X32360991Y-4903474D01*
G01X32349561Y-4892044D01*
G01X32338131Y-4886456D01*
G01X32321113Y-4886456D01*
G01X32414585Y-4886456D02*
G01X32414585Y-4966466D01*
G01X32414585Y-4909316D02*
G01X32431857Y-4892044D01*
G01X32443287Y-4886456D01*
G01X32460305Y-4886456D01*
G01X32471735Y-4892044D01*
G01X32477577Y-4909316D01*
G01X32477577Y-4966466D01*
G01X32477577Y-4909316D02*
G01X32494595Y-4892044D01*
G01X32506025Y-4886456D01*
G01X32523297Y-4886456D01*
G01X32534727Y-4892044D01*
G01X32540315Y-4909316D01*
G01X32540315Y-4966466D01*
G01X32716083Y-4846324D02*
G01X32716083Y-4966466D01*
G01X32716083Y-4966466D02*
G01X32784663Y-4966466D01*
G01X32900995Y-4886456D02*
G01X32900995Y-4966466D01*
G01X32900995Y-4903474D02*
G01X32889565Y-4892044D01*
G01X32878135Y-4886456D01*
G01X32861117Y-4886456D01*
G01X32849687Y-4892044D01*
G01X32838257Y-4903474D01*
G01X32832415Y-4920746D01*
G01X32832415Y-4932176D01*
G01X32838257Y-4949194D01*
G01X32849687Y-4960624D01*
G01X32861117Y-4966466D01*
G01X32878135Y-4966466D01*
G01X32889565Y-4960624D01*
G01X32900995Y-4949194D01*
G01X32954589Y-4886456D02*
G01X32988879Y-4966466D01*
G01X33023169Y-4886456D02*
G01X32988879Y-4966466D01*
G01X32977449Y-4989326D01*
G01X32966019Y-5000756D01*
G01X32954589Y-5006344D01*
G01X32948747Y-5006344D01*
G01X33070921Y-4920746D02*
G01X33139501Y-4920746D01*
G01X33139501Y-4909316D01*
G01X33133913Y-4897886D01*
G01X33128071Y-4892044D01*
G01X33116641Y-4886456D01*
G01X33099623Y-4886456D01*
G01X33088193Y-4892044D01*
G01X33076763Y-4903474D01*
G01X33070921Y-4920746D01*
G01X33070921Y-4932176D01*
G01X33076763Y-4949194D01*
G01X33088193Y-4960624D01*
G01X33099623Y-4966466D01*
G01X33116641Y-4966466D01*
G01X33128071Y-4960624D01*
G01X33139501Y-4949194D01*
G01X33187253Y-4886456D02*
G01X33187253Y-4966466D01*
G01X33187253Y-4920746D02*
G01X33193095Y-4903474D01*
G01X33204525Y-4892044D01*
G01X33215955Y-4886456D01*
G01X33232973Y-4886456D01*
G01X18874244Y-5455598D02*
G01X18874244Y-5449756D01*
G01X18879832Y-5438326D01*
G01X18885674Y-5432738D01*
G01X18897104Y-5426896D01*
G01X18919964Y-5426896D01*
G01X18931394Y-5432738D01*
G01X18936982Y-5438326D01*
G01X18942824Y-5449756D01*
G01X18942824Y-5461186D01*
G01X18936982Y-5472616D01*
G01X18925552Y-5489888D01*
G01X18868402Y-5547038D01*
G01X18948412Y-5547038D01*
G01X20293995Y-5426896D02*
G01X20356987Y-5426896D01*
G01X20322697Y-5472616D01*
G01X20339715Y-5472616D01*
G01X20351145Y-5478458D01*
G01X20356987Y-5484046D01*
G01X20362575Y-5501318D01*
G01X20362575Y-5512748D01*
G01X20356987Y-5529766D01*
G01X20345557Y-5541196D01*
G01X20328285Y-5547038D01*
G01X20311267Y-5547038D01*
G01X20293995Y-5541196D01*
G01X20288407Y-5535608D01*
G01X20282565Y-5524178D01*
G01X20484749Y-5467028D02*
G01X20478907Y-5484046D01*
G01X20467477Y-5495476D01*
G01X20450459Y-5501318D01*
G01X20444617Y-5501318D01*
G01X20427599Y-5495476D01*
G01X20416169Y-5484046D01*
G01X20410327Y-5467028D01*
G01X20410327Y-5461186D01*
G01X20416169Y-5444168D01*
G01X20427599Y-5432738D01*
G01X20444617Y-5426896D01*
G01X20450459Y-5426896D01*
G01X20467477Y-5432738D01*
G01X20478907Y-5444168D01*
G01X20484749Y-5467028D01*
G01X20484749Y-5495476D01*
G01X20478907Y-5524178D01*
G01X20467477Y-5541196D01*
G01X20450459Y-5547038D01*
G01X20439029Y-5547038D01*
G01X20421757Y-5541196D01*
G01X20416169Y-5529766D01*
G01X20538343Y-5518336D02*
G01X20532501Y-5524178D01*
G01X20538343Y-5529766D01*
G01X20543931Y-5524178D01*
G01X20538343Y-5518336D01*
G01X20648833Y-5426896D02*
G01X20591683Y-5506906D01*
G01X20677535Y-5506906D01*
G01X20648833Y-5426896D02*
G01X20648833Y-5547038D01*
G01X20725287Y-5467028D02*
G01X20725287Y-5547038D01*
G01X20725287Y-5489888D02*
G01X20742559Y-5472616D01*
G01X20753989Y-5467028D01*
G01X20771007Y-5467028D01*
G01X20782437Y-5472616D01*
G01X20788279Y-5489888D01*
G01X20788279Y-5547038D01*
G01X20788279Y-5489888D02*
G01X20805297Y-5472616D01*
G01X20816727Y-5467028D01*
G01X20833999Y-5467028D01*
G01X20845429Y-5472616D01*
G01X20851017Y-5489888D01*
G01X20851017Y-5547038D01*
G01X20898769Y-5426896D02*
G01X20904611Y-5432738D01*
G01X20910199Y-5426896D01*
G01X20904611Y-5421308D01*
G01X20898769Y-5426896D01*
G01X20904611Y-5467028D02*
G01X20904611Y-5547038D01*
G01X20957951Y-5426896D02*
G01X20957951Y-5547038D01*
G01X21045835Y-5404036D02*
G01X21034405Y-5415466D01*
G01X21022975Y-5432738D01*
G01X21011545Y-5455598D01*
G01X21005703Y-5484046D01*
G01X21005703Y-5506906D01*
G01X21011545Y-5535608D01*
G01X21022975Y-5558468D01*
G01X21034405Y-5575486D01*
G01X21045835Y-5586916D01*
G01X21093587Y-5449756D02*
G01X21105017Y-5444168D01*
G01X21122289Y-5426896D01*
G01X21122289Y-5547038D01*
G01X21175883Y-5518336D02*
G01X21170041Y-5524178D01*
G01X21175883Y-5529766D01*
G01X21181471Y-5524178D01*
G01X21175883Y-5518336D01*
G01X21263513Y-5426896D02*
G01X21246495Y-5432738D01*
G01X21235065Y-5449756D01*
G01X21229223Y-5478458D01*
G01X21229223Y-5495476D01*
G01X21235065Y-5524178D01*
G01X21246495Y-5541196D01*
G01X21263513Y-5547038D01*
G01X21274943Y-5547038D01*
G01X21292215Y-5541196D01*
G01X21303645Y-5524178D01*
G01X21309233Y-5495476D01*
G01X21309233Y-5478458D01*
G01X21303645Y-5449756D01*
G01X21292215Y-5432738D01*
G01X21274943Y-5426896D01*
G01X21263513Y-5426896D01*
G01X21391275Y-5426896D02*
G01X21374257Y-5432738D01*
G01X21362827Y-5449756D01*
G01X21356985Y-5478458D01*
G01X21356985Y-5495476D01*
G01X21362827Y-5524178D01*
G01X21374257Y-5541196D01*
G01X21391275Y-5547038D01*
G01X21402705Y-5547038D01*
G01X21419977Y-5541196D01*
G01X21431407Y-5524178D01*
G01X21436995Y-5495476D01*
G01X21436995Y-5478458D01*
G01X21431407Y-5449756D01*
G01X21419977Y-5432738D01*
G01X21402705Y-5426896D01*
G01X21391275Y-5426896D01*
G01X21519037Y-5426896D02*
G01X21502019Y-5432738D01*
G01X21490589Y-5449756D01*
G01X21484747Y-5478458D01*
G01X21484747Y-5495476D01*
G01X21490589Y-5524178D01*
G01X21502019Y-5541196D01*
G01X21519037Y-5547038D01*
G01X21530467Y-5547038D01*
G01X21547739Y-5541196D01*
G01X21559169Y-5524178D01*
G01X21564757Y-5495476D01*
G01X21564757Y-5478458D01*
G01X21559169Y-5449756D01*
G01X21547739Y-5432738D01*
G01X21530467Y-5426896D01*
G01X21519037Y-5426896D01*
G01X21612509Y-5467028D02*
G01X21612509Y-5547038D01*
G01X21612509Y-5489888D02*
G01X21629781Y-5472616D01*
G01X21641211Y-5467028D01*
G01X21658229Y-5467028D01*
G01X21669659Y-5472616D01*
G01X21675501Y-5489888D01*
G01X21675501Y-5547038D01*
G01X21675501Y-5489888D02*
G01X21692519Y-5472616D01*
G01X21703949Y-5467028D01*
G01X21721221Y-5467028D01*
G01X21732651Y-5472616D01*
G01X21738239Y-5489888D01*
G01X21738239Y-5547038D01*
G01X21785991Y-5467028D02*
G01X21785991Y-5547038D01*
G01X21785991Y-5489888D02*
G01X21803263Y-5472616D01*
G01X21814693Y-5467028D01*
G01X21831711Y-5467028D01*
G01X21843141Y-5472616D01*
G01X21848983Y-5489888D01*
G01X21848983Y-5547038D01*
G01X21848983Y-5489888D02*
G01X21866001Y-5472616D01*
G01X21877431Y-5467028D01*
G01X21894703Y-5467028D01*
G01X21906133Y-5472616D01*
G01X21911721Y-5489888D01*
G01X21911721Y-5547038D01*
G01X21959473Y-5404036D02*
G01X21970903Y-5415466D01*
G01X21982333Y-5432738D01*
G01X21993763Y-5455598D01*
G01X21999605Y-5484046D01*
G01X21999605Y-5506906D01*
G01X21993763Y-5535608D01*
G01X21982333Y-5558468D01*
G01X21970903Y-5575486D01*
G01X21959473Y-5586916D01*
G01X24164846Y-5426896D02*
G01X24164846Y-5547038D01*
G01X24164846Y-5426896D02*
G01X24244856Y-5547038D01*
G01X24244856Y-5426896D02*
G01X24244856Y-5547038D01*
G01X24292608Y-5426896D02*
G01X24292608Y-5547038D01*
G01X24292608Y-5426896D02*
G01X24344170Y-5426896D01*
G01X24361188Y-5432738D01*
G01X24367030Y-5438326D01*
G01X24372618Y-5449756D01*
G01X24372618Y-5467028D01*
G01X24367030Y-5478458D01*
G01X24361188Y-5484046D01*
G01X24344170Y-5489888D01*
G01X24292608Y-5489888D01*
G01X24460502Y-5426896D02*
G01X24460502Y-5547038D01*
G01X24420370Y-5426896D02*
G01X24500380Y-5426896D01*
G01X24548132Y-5426896D02*
G01X24548132Y-5547038D01*
G01X24628142Y-5426896D02*
G01X24628142Y-5547038D01*
G01X24548132Y-5484046D02*
G01X24628142Y-5484046D01*
G01X25626253Y-5426896D02*
G01X25626253Y-5547038D01*
G01X25626253Y-5426896D02*
G01X25677815Y-5426896D01*
G01X25694833Y-5432738D01*
G01X25700675Y-5438326D01*
G01X25706263Y-5449756D01*
G01X25706263Y-5461186D01*
G01X25700675Y-5472616D01*
G01X25694833Y-5478458D01*
G01X25677815Y-5484046D01*
G01X25626253Y-5484046D01*
G01X25666385Y-5484046D02*
G01X25706263Y-5547038D01*
G01X25782717Y-5467028D02*
G01X25771287Y-5472616D01*
G01X25759857Y-5484046D01*
G01X25754015Y-5501318D01*
G01X25754015Y-5512748D01*
G01X25759857Y-5529766D01*
G01X25771287Y-5541196D01*
G01X25782717Y-5547038D01*
G01X25799735Y-5547038D01*
G01X25811165Y-5541196D01*
G01X25822595Y-5529766D01*
G01X25828437Y-5512748D01*
G01X25828437Y-5501318D01*
G01X25822595Y-5484046D01*
G01X25811165Y-5472616D01*
G01X25799735Y-5467028D01*
G01X25782717Y-5467028D01*
G01X25876189Y-5467028D02*
G01X25876189Y-5524178D01*
G01X25882031Y-5541196D01*
G01X25893461Y-5547038D01*
G01X25910479Y-5547038D01*
G01X25921909Y-5541196D01*
G01X25939181Y-5524178D01*
G01X25939181Y-5467028D02*
G01X25939181Y-5547038D01*
G01X25986933Y-5467028D02*
G01X25986933Y-5547038D01*
G01X25986933Y-5489888D02*
G01X26004205Y-5472616D01*
G01X26015635Y-5467028D01*
G01X26032653Y-5467028D01*
G01X26044083Y-5472616D01*
G01X26049925Y-5489888D01*
G01X26049925Y-5547038D01*
G01X26166257Y-5426896D02*
G01X26166257Y-5547038D01*
G01X26166257Y-5484046D02*
G01X26154827Y-5472616D01*
G01X26143397Y-5467028D01*
G01X26126379Y-5467028D01*
G01X26114949Y-5472616D01*
G01X26103519Y-5484046D01*
G01X26097677Y-5501318D01*
G01X26097677Y-5512748D01*
G01X26103519Y-5529766D01*
G01X26114949Y-5541196D01*
G01X26126379Y-5547038D01*
G01X26143397Y-5547038D01*
G01X26154827Y-5541196D01*
G01X26166257Y-5529766D01*
G01X27057434Y-5426896D02*
G01X27103154Y-5547038D01*
G01X27148874Y-5426896D02*
G01X27103154Y-5547038D01*
G01X27196626Y-5426896D02*
G01X27202468Y-5432738D01*
G01X27208056Y-5426896D01*
G01X27202468Y-5421308D01*
G01X27196626Y-5426896D01*
G01X27202468Y-5467028D02*
G01X27202468Y-5547038D01*
G01X27324388Y-5467028D02*
G01X27324388Y-5547038D01*
G01X27324388Y-5484046D02*
G01X27312958Y-5472616D01*
G01X27301528Y-5467028D01*
G01X27284510Y-5467028D01*
G01X27273080Y-5472616D01*
G01X27261650Y-5484046D01*
G01X27255808Y-5501318D01*
G01X27255808Y-5512748D01*
G01X27261650Y-5529766D01*
G01X27273080Y-5541196D01*
G01X27284510Y-5547038D01*
G01X27301528Y-5547038D01*
G01X27312958Y-5541196D01*
G01X27324388Y-5529766D01*
G01X30686115Y-5426896D02*
G01X30686115Y-5547038D01*
G01X30645983Y-5426896D02*
G01X30725993Y-5426896D01*
G01X30802447Y-5467028D02*
G01X30791017Y-5472616D01*
G01X30779587Y-5484046D01*
G01X30773745Y-5501318D01*
G01X30773745Y-5512748D01*
G01X30779587Y-5529766D01*
G01X30791017Y-5541196D01*
G01X30802447Y-5547038D01*
G01X30819465Y-5547038D01*
G01X30830895Y-5541196D01*
G01X30842325Y-5529766D01*
G01X30848167Y-5512748D01*
G01X30848167Y-5501318D01*
G01X30842325Y-5484046D01*
G01X30830895Y-5472616D01*
G01X30819465Y-5467028D01*
G01X30802447Y-5467028D01*
G01X30895919Y-5467028D02*
G01X30895919Y-5586916D01*
G01X30895919Y-5484046D02*
G01X30907349Y-5472616D01*
G01X30918779Y-5467028D01*
G01X30936051Y-5467028D01*
G01X30947481Y-5472616D01*
G01X30958911Y-5484046D01*
G01X30964499Y-5501318D01*
G01X30964499Y-5512748D01*
G01X30958911Y-5529766D01*
G01X30947481Y-5541196D01*
G01X30936051Y-5547038D01*
G01X30918779Y-5547038D01*
G01X30907349Y-5541196D01*
G01X30895919Y-5529766D01*
G01X31140267Y-5426896D02*
G01X31140267Y-5547038D01*
G01X31140267Y-5547038D02*
G01X31208847Y-5547038D01*
G01X31325179Y-5467028D02*
G01X31325179Y-5547038D01*
G01X31325179Y-5484046D02*
G01X31313749Y-5472616D01*
G01X31302319Y-5467028D01*
G01X31285301Y-5467028D01*
G01X31273871Y-5472616D01*
G01X31262441Y-5484046D01*
G01X31256599Y-5501318D01*
G01X31256599Y-5512748D01*
G01X31262441Y-5529766D01*
G01X31273871Y-5541196D01*
G01X31285301Y-5547038D01*
G01X31302319Y-5547038D01*
G01X31313749Y-5541196D01*
G01X31325179Y-5529766D01*
G01X31378773Y-5467028D02*
G01X31413063Y-5547038D01*
G01X31447353Y-5467028D02*
G01X31413063Y-5547038D01*
G01X31401633Y-5569898D01*
G01X31390203Y-5581328D01*
G01X31378773Y-5586916D01*
G01X31372931Y-5586916D01*
G01X31495105Y-5501318D02*
G01X31563685Y-5501318D01*
G01X31563685Y-5489888D01*
G01X31558097Y-5478458D01*
G01X31552255Y-5472616D01*
G01X31540825Y-5467028D01*
G01X31523807Y-5467028D01*
G01X31512377Y-5472616D01*
G01X31500947Y-5484046D01*
G01X31495105Y-5501318D01*
G01X31495105Y-5512748D01*
G01X31500947Y-5529766D01*
G01X31512377Y-5541196D01*
G01X31523807Y-5547038D01*
G01X31540825Y-5547038D01*
G01X31552255Y-5541196D01*
G01X31563685Y-5529766D01*
G01X31611437Y-5467028D02*
G01X31611437Y-5547038D01*
G01X31611437Y-5501318D02*
G01X31617279Y-5484046D01*
G01X31628709Y-5472616D01*
G01X31640139Y-5467028D01*
G01X31657157Y-5467028D01*
G01X31704909Y-5495476D02*
G01X31807779Y-5495476D01*
G01X31855531Y-5426896D02*
G01X31855531Y-5547038D01*
G01X31855531Y-5426896D02*
G01X31907093Y-5426896D01*
G01X31924111Y-5432738D01*
G01X31929953Y-5438326D01*
G01X31935541Y-5449756D01*
G01X31935541Y-5461186D01*
G01X31929953Y-5472616D01*
G01X31924111Y-5478458D01*
G01X31907093Y-5484046D01*
G01X31855531Y-5484046D02*
G01X31907093Y-5484046D01*
G01X31924111Y-5489888D01*
G01X31929953Y-5495476D01*
G01X31935541Y-5506906D01*
G01X31935541Y-5524178D01*
G01X31929953Y-5535608D01*
G01X31924111Y-5541196D01*
G01X31907093Y-5547038D01*
G01X31855531Y-5547038D01*
G01X32011995Y-5467028D02*
G01X32000565Y-5472616D01*
G01X31989135Y-5484046D01*
G01X31983293Y-5501318D01*
G01X31983293Y-5512748D01*
G01X31989135Y-5529766D01*
G01X32000565Y-5541196D01*
G01X32011995Y-5547038D01*
G01X32029013Y-5547038D01*
G01X32040443Y-5541196D01*
G01X32051873Y-5529766D01*
G01X32057715Y-5512748D01*
G01X32057715Y-5501318D01*
G01X32051873Y-5484046D01*
G01X32040443Y-5472616D01*
G01X32029013Y-5467028D01*
G01X32011995Y-5467028D01*
G01X32122739Y-5426896D02*
G01X32122739Y-5524178D01*
G01X32128327Y-5541196D01*
G01X32139757Y-5547038D01*
G01X32151187Y-5547038D01*
G01X32105467Y-5467028D02*
G01X32145599Y-5467028D01*
G01X32216211Y-5426896D02*
G01X32216211Y-5524178D01*
G01X32221799Y-5541196D01*
G01X32233229Y-5547038D01*
G01X32244659Y-5547038D01*
G01X32198939Y-5467028D02*
G01X32239071Y-5467028D01*
G01X32321113Y-5467028D02*
G01X32309683Y-5472616D01*
G01X32298253Y-5484046D01*
G01X32292411Y-5501318D01*
G01X32292411Y-5512748D01*
G01X32298253Y-5529766D01*
G01X32309683Y-5541196D01*
G01X32321113Y-5547038D01*
G01X32338131Y-5547038D01*
G01X32349561Y-5541196D01*
G01X32360991Y-5529766D01*
G01X32366833Y-5512748D01*
G01X32366833Y-5501318D01*
G01X32360991Y-5484046D01*
G01X32349561Y-5472616D01*
G01X32338131Y-5467028D01*
G01X32321113Y-5467028D01*
G01X32414585Y-5467028D02*
G01X32414585Y-5547038D01*
G01X32414585Y-5489888D02*
G01X32431857Y-5472616D01*
G01X32443287Y-5467028D01*
G01X32460305Y-5467028D01*
G01X32471735Y-5472616D01*
G01X32477577Y-5489888D01*
G01X32477577Y-5547038D01*
G01X32477577Y-5489888D02*
G01X32494595Y-5472616D01*
G01X32506025Y-5467028D01*
G01X32523297Y-5467028D01*
G01X32534727Y-5472616D01*
G01X32540315Y-5489888D01*
G01X32540315Y-5547038D01*
G01X32716083Y-5426896D02*
G01X32716083Y-5547038D01*
G01X32716083Y-5547038D02*
G01X32784663Y-5547038D01*
G01X32900995Y-5467028D02*
G01X32900995Y-5547038D01*
G01X32900995Y-5484046D02*
G01X32889565Y-5472616D01*
G01X32878135Y-5467028D01*
G01X32861117Y-5467028D01*
G01X32849687Y-5472616D01*
G01X32838257Y-5484046D01*
G01X32832415Y-5501318D01*
G01X32832415Y-5512748D01*
G01X32838257Y-5529766D01*
G01X32849687Y-5541196D01*
G01X32861117Y-5547038D01*
G01X32878135Y-5547038D01*
G01X32889565Y-5541196D01*
G01X32900995Y-5529766D01*
G01X32954589Y-5467028D02*
G01X32988879Y-5547038D01*
G01X33023169Y-5467028D02*
G01X32988879Y-5547038D01*
G01X32977449Y-5569898D01*
G01X32966019Y-5581328D01*
G01X32954589Y-5586916D01*
G01X32948747Y-5586916D01*
G01X33070921Y-5501318D02*
G01X33139501Y-5501318D01*
G01X33139501Y-5489888D01*
G01X33133913Y-5478458D01*
G01X33128071Y-5472616D01*
G01X33116641Y-5467028D01*
G01X33099623Y-5467028D01*
G01X33088193Y-5472616D01*
G01X33076763Y-5484046D01*
G01X33070921Y-5501318D01*
G01X33070921Y-5512748D01*
G01X33076763Y-5529766D01*
G01X33088193Y-5541196D01*
G01X33099623Y-5547038D01*
G01X33116641Y-5547038D01*
G01X33128071Y-5541196D01*
G01X33139501Y-5529766D01*
G01X33187253Y-5467028D02*
G01X33187253Y-5547038D01*
G01X33187253Y-5501318D02*
G01X33193095Y-5484046D01*
G01X33204525Y-5472616D01*
G01X33215955Y-5467028D01*
G01X33232973Y-5467028D01*
G01X18874244Y-6036169D02*
G01X18874244Y-6030327D01*
G01X18879832Y-6018897D01*
G01X18885674Y-6013309D01*
G01X18897104Y-6007467D01*
G01X18919964Y-6007467D01*
G01X18931394Y-6013309D01*
G01X18936982Y-6018897D01*
G01X18942824Y-6030327D01*
G01X18942824Y-6041757D01*
G01X18936982Y-6053187D01*
G01X18925552Y-6070459D01*
G01X18868402Y-6127609D01*
G01X18948412Y-6127609D01*
G01X20288407Y-6036169D02*
G01X20288407Y-6030327D01*
G01X20293995Y-6018897D01*
G01X20299837Y-6013309D01*
G01X20311267Y-6007467D01*
G01X20334127Y-6007467D01*
G01X20345557Y-6013309D01*
G01X20351145Y-6018897D01*
G01X20356987Y-6030327D01*
G01X20356987Y-6041757D01*
G01X20351145Y-6053187D01*
G01X20339715Y-6070459D01*
G01X20282565Y-6127609D01*
G01X20362575Y-6127609D01*
G01X20490337Y-6007467D02*
G01X20433187Y-6127609D01*
G01X20410327Y-6007467D02*
G01X20490337Y-6007467D01*
G01X20543931Y-6098907D02*
G01X20538089Y-6104749D01*
G01X20543931Y-6110337D01*
G01X20549519Y-6104749D01*
G01X20543931Y-6098907D01*
G01X20665851Y-6024739D02*
G01X20660263Y-6013309D01*
G01X20642991Y-6007467D01*
G01X20631561Y-6007467D01*
G01X20614543Y-6013309D01*
G01X20603113Y-6030327D01*
G01X20597271Y-6059029D01*
G01X20597271Y-6087477D01*
G01X20603113Y-6110337D01*
G01X20614543Y-6121767D01*
G01X20631561Y-6127609D01*
G01X20637403Y-6127609D01*
G01X20654421Y-6121767D01*
G01X20665851Y-6110337D01*
G01X20671693Y-6093319D01*
G01X20671693Y-6087477D01*
G01X20665851Y-6070459D01*
G01X20654421Y-6059029D01*
G01X20637403Y-6053187D01*
G01X20631561Y-6053187D01*
G01X20614543Y-6059029D01*
G01X20603113Y-6070459D01*
G01X20597271Y-6087477D01*
G01X20719445Y-6047599D02*
G01X20719445Y-6127609D01*
G01X20719445Y-6070459D02*
G01X20736717Y-6053187D01*
G01X20748147Y-6047599D01*
G01X20765165Y-6047599D01*
G01X20776595Y-6053187D01*
G01X20782437Y-6070459D01*
G01X20782437Y-6127609D01*
G01X20782437Y-6070459D02*
G01X20799455Y-6053187D01*
G01X20810885Y-6047599D01*
G01X20828157Y-6047599D01*
G01X20839587Y-6053187D01*
G01X20845175Y-6070459D01*
G01X20845175Y-6127609D01*
G01X20892927Y-6007467D02*
G01X20898769Y-6013309D01*
G01X20904357Y-6007467D01*
G01X20898769Y-6001879D01*
G01X20892927Y-6007467D01*
G01X20898769Y-6047599D02*
G01X20898769Y-6127609D01*
G01X20952109Y-6007467D02*
G01X20952109Y-6127609D01*
G01X21039993Y-5984607D02*
G01X21028563Y-5996037D01*
G01X21017133Y-6013309D01*
G01X21005703Y-6036169D01*
G01X20999861Y-6064617D01*
G01X20999861Y-6087477D01*
G01X21005703Y-6116179D01*
G01X21017133Y-6139039D01*
G01X21028563Y-6156057D01*
G01X21039993Y-6167487D01*
G01X21122035Y-6007467D02*
G01X21105017Y-6013309D01*
G01X21093587Y-6030327D01*
G01X21087745Y-6059029D01*
G01X21087745Y-6076047D01*
G01X21093587Y-6104749D01*
G01X21105017Y-6121767D01*
G01X21122035Y-6127609D01*
G01X21133465Y-6127609D01*
G01X21150737Y-6121767D01*
G01X21162167Y-6104749D01*
G01X21167755Y-6076047D01*
G01X21167755Y-6059029D01*
G01X21162167Y-6030327D01*
G01X21150737Y-6013309D01*
G01X21133465Y-6007467D01*
G01X21122035Y-6007467D01*
G01X21221349Y-6098907D02*
G01X21215507Y-6104749D01*
G01X21221349Y-6110337D01*
G01X21226937Y-6104749D01*
G01X21221349Y-6098907D01*
G01X21354699Y-6007467D02*
G01X21297549Y-6127609D01*
G01X21274689Y-6007467D02*
G01X21354699Y-6007467D01*
G01X21436741Y-6007467D02*
G01X21419723Y-6013309D01*
G01X21408293Y-6030327D01*
G01X21402451Y-6059029D01*
G01X21402451Y-6076047D01*
G01X21408293Y-6104749D01*
G01X21419723Y-6121767D01*
G01X21436741Y-6127609D01*
G01X21448171Y-6127609D01*
G01X21465443Y-6121767D01*
G01X21476873Y-6104749D01*
G01X21482461Y-6076047D01*
G01X21482461Y-6059029D01*
G01X21476873Y-6030327D01*
G01X21465443Y-6013309D01*
G01X21448171Y-6007467D01*
G01X21436741Y-6007467D01*
G01X21564503Y-6007467D02*
G01X21547485Y-6013309D01*
G01X21536055Y-6030327D01*
G01X21530213Y-6059029D01*
G01X21530213Y-6076047D01*
G01X21536055Y-6104749D01*
G01X21547485Y-6121767D01*
G01X21564503Y-6127609D01*
G01X21575933Y-6127609D01*
G01X21593205Y-6121767D01*
G01X21604635Y-6104749D01*
G01X21610223Y-6076047D01*
G01X21610223Y-6059029D01*
G01X21604635Y-6030327D01*
G01X21593205Y-6013309D01*
G01X21575933Y-6007467D01*
G01X21564503Y-6007467D01*
G01X21657975Y-6047599D02*
G01X21657975Y-6127609D01*
G01X21657975Y-6070459D02*
G01X21675247Y-6053187D01*
G01X21686677Y-6047599D01*
G01X21703695Y-6047599D01*
G01X21715125Y-6053187D01*
G01X21720967Y-6070459D01*
G01X21720967Y-6127609D01*
G01X21720967Y-6070459D02*
G01X21737985Y-6053187D01*
G01X21749415Y-6047599D01*
G01X21766687Y-6047599D01*
G01X21778117Y-6053187D01*
G01X21783705Y-6070459D01*
G01X21783705Y-6127609D01*
G01X21831457Y-6047599D02*
G01X21831457Y-6127609D01*
G01X21831457Y-6070459D02*
G01X21848729Y-6053187D01*
G01X21860159Y-6047599D01*
G01X21877177Y-6047599D01*
G01X21888607Y-6053187D01*
G01X21894449Y-6070459D01*
G01X21894449Y-6127609D01*
G01X21894449Y-6070459D02*
G01X21911467Y-6053187D01*
G01X21922897Y-6047599D01*
G01X21940169Y-6047599D01*
G01X21951599Y-6053187D01*
G01X21957187Y-6070459D01*
G01X21957187Y-6127609D01*
G01X22004939Y-5984607D02*
G01X22016369Y-5996037D01*
G01X22027799Y-6013309D01*
G01X22039229Y-6036169D01*
G01X22045071Y-6064617D01*
G01X22045071Y-6087477D01*
G01X22039229Y-6116179D01*
G01X22027799Y-6139039D01*
G01X22016369Y-6156057D01*
G01X22004939Y-6167487D01*
G01X24164846Y-6007467D02*
G01X24164846Y-6127609D01*
G01X24164846Y-6007467D02*
G01X24244856Y-6127609D01*
G01X24244856Y-6007467D02*
G01X24244856Y-6127609D01*
G01X24292608Y-6007467D02*
G01X24292608Y-6127609D01*
G01X24292608Y-6007467D02*
G01X24344170Y-6007467D01*
G01X24361188Y-6013309D01*
G01X24367030Y-6018897D01*
G01X24372618Y-6030327D01*
G01X24372618Y-6047599D01*
G01X24367030Y-6059029D01*
G01X24361188Y-6064617D01*
G01X24344170Y-6070459D01*
G01X24292608Y-6070459D01*
G01X24460502Y-6007467D02*
G01X24460502Y-6127609D01*
G01X24420370Y-6007467D02*
G01X24500380Y-6007467D01*
G01X24548132Y-6007467D02*
G01X24548132Y-6127609D01*
G01X24628142Y-6007467D02*
G01X24628142Y-6127609D01*
G01X24548132Y-6064617D02*
G01X24628142Y-6064617D01*
G01X25626253Y-6007467D02*
G01X25626253Y-6127609D01*
G01X25626253Y-6007467D02*
G01X25677815Y-6007467D01*
G01X25694833Y-6013309D01*
G01X25700675Y-6018897D01*
G01X25706263Y-6030327D01*
G01X25706263Y-6041757D01*
G01X25700675Y-6053187D01*
G01X25694833Y-6059029D01*
G01X25677815Y-6064617D01*
G01X25626253Y-6064617D01*
G01X25666385Y-6064617D02*
G01X25706263Y-6127609D01*
G01X25782717Y-6047599D02*
G01X25771287Y-6053187D01*
G01X25759857Y-6064617D01*
G01X25754015Y-6081889D01*
G01X25754015Y-6093319D01*
G01X25759857Y-6110337D01*
G01X25771287Y-6121767D01*
G01X25782717Y-6127609D01*
G01X25799735Y-6127609D01*
G01X25811165Y-6121767D01*
G01X25822595Y-6110337D01*
G01X25828437Y-6093319D01*
G01X25828437Y-6081889D01*
G01X25822595Y-6064617D01*
G01X25811165Y-6053187D01*
G01X25799735Y-6047599D01*
G01X25782717Y-6047599D01*
G01X25876189Y-6047599D02*
G01X25876189Y-6104749D01*
G01X25882031Y-6121767D01*
G01X25893461Y-6127609D01*
G01X25910479Y-6127609D01*
G01X25921909Y-6121767D01*
G01X25939181Y-6104749D01*
G01X25939181Y-6047599D02*
G01X25939181Y-6127609D01*
G01X25986933Y-6047599D02*
G01X25986933Y-6127609D01*
G01X25986933Y-6070459D02*
G01X26004205Y-6053187D01*
G01X26015635Y-6047599D01*
G01X26032653Y-6047599D01*
G01X26044083Y-6053187D01*
G01X26049925Y-6070459D01*
G01X26049925Y-6127609D01*
G01X26166257Y-6007467D02*
G01X26166257Y-6127609D01*
G01X26166257Y-6064617D02*
G01X26154827Y-6053187D01*
G01X26143397Y-6047599D01*
G01X26126379Y-6047599D01*
G01X26114949Y-6053187D01*
G01X26103519Y-6064617D01*
G01X26097677Y-6081889D01*
G01X26097677Y-6093319D01*
G01X26103519Y-6110337D01*
G01X26114949Y-6121767D01*
G01X26126379Y-6127609D01*
G01X26143397Y-6127609D01*
G01X26154827Y-6121767D01*
G01X26166257Y-6110337D01*
G01X27057434Y-6007467D02*
G01X27103154Y-6127609D01*
G01X27148874Y-6007467D02*
G01X27103154Y-6127609D01*
G01X27196626Y-6007467D02*
G01X27202468Y-6013309D01*
G01X27208056Y-6007467D01*
G01X27202468Y-6001879D01*
G01X27196626Y-6007467D01*
G01X27202468Y-6047599D02*
G01X27202468Y-6127609D01*
G01X27324388Y-6047599D02*
G01X27324388Y-6127609D01*
G01X27324388Y-6064617D02*
G01X27312958Y-6053187D01*
G01X27301528Y-6047599D01*
G01X27284510Y-6047599D01*
G01X27273080Y-6053187D01*
G01X27261650Y-6064617D01*
G01X27255808Y-6081889D01*
G01X27255808Y-6093319D01*
G01X27261650Y-6110337D01*
G01X27273080Y-6121767D01*
G01X27284510Y-6127609D01*
G01X27301528Y-6127609D01*
G01X27312958Y-6121767D01*
G01X27324388Y-6110337D01*
G01X30686115Y-6007467D02*
G01X30686115Y-6127609D01*
G01X30645983Y-6007467D02*
G01X30725993Y-6007467D01*
G01X30802447Y-6047599D02*
G01X30791017Y-6053187D01*
G01X30779587Y-6064617D01*
G01X30773745Y-6081889D01*
G01X30773745Y-6093319D01*
G01X30779587Y-6110337D01*
G01X30791017Y-6121767D01*
G01X30802447Y-6127609D01*
G01X30819465Y-6127609D01*
G01X30830895Y-6121767D01*
G01X30842325Y-6110337D01*
G01X30848167Y-6093319D01*
G01X30848167Y-6081889D01*
G01X30842325Y-6064617D01*
G01X30830895Y-6053187D01*
G01X30819465Y-6047599D01*
G01X30802447Y-6047599D01*
G01X30895919Y-6047599D02*
G01X30895919Y-6167487D01*
G01X30895919Y-6064617D02*
G01X30907349Y-6053187D01*
G01X30918779Y-6047599D01*
G01X30936051Y-6047599D01*
G01X30947481Y-6053187D01*
G01X30958911Y-6064617D01*
G01X30964499Y-6081889D01*
G01X30964499Y-6093319D01*
G01X30958911Y-6110337D01*
G01X30947481Y-6121767D01*
G01X30936051Y-6127609D01*
G01X30918779Y-6127609D01*
G01X30907349Y-6121767D01*
G01X30895919Y-6110337D01*
G01X31140267Y-6007467D02*
G01X31140267Y-6127609D01*
G01X31140267Y-6127609D02*
G01X31208847Y-6127609D01*
G01X31325179Y-6047599D02*
G01X31325179Y-6127609D01*
G01X31325179Y-6064617D02*
G01X31313749Y-6053187D01*
G01X31302319Y-6047599D01*
G01X31285301Y-6047599D01*
G01X31273871Y-6053187D01*
G01X31262441Y-6064617D01*
G01X31256599Y-6081889D01*
G01X31256599Y-6093319D01*
G01X31262441Y-6110337D01*
G01X31273871Y-6121767D01*
G01X31285301Y-6127609D01*
G01X31302319Y-6127609D01*
G01X31313749Y-6121767D01*
G01X31325179Y-6110337D01*
G01X31378773Y-6047599D02*
G01X31413063Y-6127609D01*
G01X31447353Y-6047599D02*
G01X31413063Y-6127609D01*
G01X31401633Y-6150469D01*
G01X31390203Y-6161899D01*
G01X31378773Y-6167487D01*
G01X31372931Y-6167487D01*
G01X31495105Y-6081889D02*
G01X31563685Y-6081889D01*
G01X31563685Y-6070459D01*
G01X31558097Y-6059029D01*
G01X31552255Y-6053187D01*
G01X31540825Y-6047599D01*
G01X31523807Y-6047599D01*
G01X31512377Y-6053187D01*
G01X31500947Y-6064617D01*
G01X31495105Y-6081889D01*
G01X31495105Y-6093319D01*
G01X31500947Y-6110337D01*
G01X31512377Y-6121767D01*
G01X31523807Y-6127609D01*
G01X31540825Y-6127609D01*
G01X31552255Y-6121767D01*
G01X31563685Y-6110337D01*
G01X31611437Y-6047599D02*
G01X31611437Y-6127609D01*
G01X31611437Y-6081889D02*
G01X31617279Y-6064617D01*
G01X31628709Y-6053187D01*
G01X31640139Y-6047599D01*
G01X31657157Y-6047599D01*
G01X31704909Y-6076047D02*
G01X31807779Y-6076047D01*
G01X31855531Y-6007467D02*
G01X31855531Y-6127609D01*
G01X31855531Y-6007467D02*
G01X31907093Y-6007467D01*
G01X31924111Y-6013309D01*
G01X31929953Y-6018897D01*
G01X31935541Y-6030327D01*
G01X31935541Y-6041757D01*
G01X31929953Y-6053187D01*
G01X31924111Y-6059029D01*
G01X31907093Y-6064617D01*
G01X31855531Y-6064617D02*
G01X31907093Y-6064617D01*
G01X31924111Y-6070459D01*
G01X31929953Y-6076047D01*
G01X31935541Y-6087477D01*
G01X31935541Y-6104749D01*
G01X31929953Y-6116179D01*
G01X31924111Y-6121767D01*
G01X31907093Y-6127609D01*
G01X31855531Y-6127609D01*
G01X32011995Y-6047599D02*
G01X32000565Y-6053187D01*
G01X31989135Y-6064617D01*
G01X31983293Y-6081889D01*
G01X31983293Y-6093319D01*
G01X31989135Y-6110337D01*
G01X32000565Y-6121767D01*
G01X32011995Y-6127609D01*
G01X32029013Y-6127609D01*
G01X32040443Y-6121767D01*
G01X32051873Y-6110337D01*
G01X32057715Y-6093319D01*
G01X32057715Y-6081889D01*
G01X32051873Y-6064617D01*
G01X32040443Y-6053187D01*
G01X32029013Y-6047599D01*
G01X32011995Y-6047599D01*
G01X32122739Y-6007467D02*
G01X32122739Y-6104749D01*
G01X32128327Y-6121767D01*
G01X32139757Y-6127609D01*
G01X32151187Y-6127609D01*
G01X32105467Y-6047599D02*
G01X32145599Y-6047599D01*
G01X32216211Y-6007467D02*
G01X32216211Y-6104749D01*
G01X32221799Y-6121767D01*
G01X32233229Y-6127609D01*
G01X32244659Y-6127609D01*
G01X32198939Y-6047599D02*
G01X32239071Y-6047599D01*
G01X32321113Y-6047599D02*
G01X32309683Y-6053187D01*
G01X32298253Y-6064617D01*
G01X32292411Y-6081889D01*
G01X32292411Y-6093319D01*
G01X32298253Y-6110337D01*
G01X32309683Y-6121767D01*
G01X32321113Y-6127609D01*
G01X32338131Y-6127609D01*
G01X32349561Y-6121767D01*
G01X32360991Y-6110337D01*
G01X32366833Y-6093319D01*
G01X32366833Y-6081889D01*
G01X32360991Y-6064617D01*
G01X32349561Y-6053187D01*
G01X32338131Y-6047599D01*
G01X32321113Y-6047599D01*
G01X32414585Y-6047599D02*
G01X32414585Y-6127609D01*
G01X32414585Y-6070459D02*
G01X32431857Y-6053187D01*
G01X32443287Y-6047599D01*
G01X32460305Y-6047599D01*
G01X32471735Y-6053187D01*
G01X32477577Y-6070459D01*
G01X32477577Y-6127609D01*
G01X32477577Y-6070459D02*
G01X32494595Y-6053187D01*
G01X32506025Y-6047599D01*
G01X32523297Y-6047599D01*
G01X32534727Y-6053187D01*
G01X32540315Y-6070459D01*
G01X32540315Y-6127609D01*
G01X32716083Y-6007467D02*
G01X32716083Y-6127609D01*
G01X32716083Y-6127609D02*
G01X32784663Y-6127609D01*
G01X32900995Y-6047599D02*
G01X32900995Y-6127609D01*
G01X32900995Y-6064617D02*
G01X32889565Y-6053187D01*
G01X32878135Y-6047599D01*
G01X32861117Y-6047599D01*
G01X32849687Y-6053187D01*
G01X32838257Y-6064617D01*
G01X32832415Y-6081889D01*
G01X32832415Y-6093319D01*
G01X32838257Y-6110337D01*
G01X32849687Y-6121767D01*
G01X32861117Y-6127609D01*
G01X32878135Y-6127609D01*
G01X32889565Y-6121767D01*
G01X32900995Y-6110337D01*
G01X32954589Y-6047599D02*
G01X32988879Y-6127609D01*
G01X33023169Y-6047599D02*
G01X32988879Y-6127609D01*
G01X32977449Y-6150469D01*
G01X32966019Y-6161899D01*
G01X32954589Y-6167487D01*
G01X32948747Y-6167487D01*
G01X33070921Y-6081889D02*
G01X33139501Y-6081889D01*
G01X33139501Y-6070459D01*
G01X33133913Y-6059029D01*
G01X33128071Y-6053187D01*
G01X33116641Y-6047599D01*
G01X33099623Y-6047599D01*
G01X33088193Y-6053187D01*
G01X33076763Y-6064617D01*
G01X33070921Y-6081889D01*
G01X33070921Y-6093319D01*
G01X33076763Y-6110337D01*
G01X33088193Y-6121767D01*
G01X33099623Y-6127609D01*
G01X33116641Y-6127609D01*
G01X33128071Y-6121767D01*
G01X33139501Y-6110337D01*
G01X33187253Y-6047599D02*
G01X33187253Y-6127609D01*
G01X33187253Y-6081889D02*
G01X33193095Y-6064617D01*
G01X33204525Y-6053187D01*
G01X33215955Y-6047599D01*
G01X33232973Y-6047599D01*
G01X18879832Y-6588039D02*
G01X18942824Y-6588039D01*
G01X18908534Y-6633759D01*
G01X18925552Y-6633759D01*
G01X18936982Y-6639601D01*
G01X18942824Y-6645189D01*
G01X18948412Y-6662461D01*
G01X18948412Y-6673891D01*
G01X18942824Y-6690909D01*
G01X18931394Y-6702339D01*
G01X18914122Y-6708181D01*
G01X18897104Y-6708181D01*
G01X18879832Y-6702339D01*
G01X18874244Y-6696751D01*
G01X18868402Y-6685321D01*
G01X20282565Y-6610899D02*
G01X20293995Y-6605311D01*
G01X20311267Y-6588039D01*
G01X20311267Y-6708181D01*
G01X20364861Y-6616741D02*
G01X20364861Y-6610899D01*
G01X20370449Y-6599469D01*
G01X20376291Y-6593881D01*
G01X20387721Y-6588039D01*
G01X20410581Y-6588039D01*
G01X20422011Y-6593881D01*
G01X20427599Y-6599469D01*
G01X20433441Y-6610899D01*
G01X20433441Y-6622329D01*
G01X20427599Y-6633759D01*
G01X20416169Y-6651031D01*
G01X20359019Y-6708181D01*
G01X20439029Y-6708181D01*
G01X20555361Y-6605311D02*
G01X20549773Y-6593881D01*
G01X20532501Y-6588039D01*
G01X20521071Y-6588039D01*
G01X20504053Y-6593881D01*
G01X20492623Y-6610899D01*
G01X20486781Y-6639601D01*
G01X20486781Y-6668049D01*
G01X20492623Y-6690909D01*
G01X20504053Y-6702339D01*
G01X20521071Y-6708181D01*
G01X20526913Y-6708181D01*
G01X20543931Y-6702339D01*
G01X20555361Y-6690909D01*
G01X20561203Y-6673891D01*
G01X20561203Y-6668049D01*
G01X20555361Y-6651031D01*
G01X20543931Y-6639601D01*
G01X20526913Y-6633759D01*
G01X20521071Y-6633759D01*
G01X20504053Y-6639601D01*
G01X20492623Y-6651031D01*
G01X20486781Y-6668049D01*
G01X20614797Y-6679479D02*
G01X20608955Y-6685321D01*
G01X20614797Y-6690909D01*
G01X20620385Y-6685321D01*
G01X20614797Y-6679479D01*
G01X20702427Y-6588039D02*
G01X20685409Y-6593881D01*
G01X20673979Y-6610899D01*
G01X20668137Y-6639601D01*
G01X20668137Y-6656619D01*
G01X20673979Y-6685321D01*
G01X20685409Y-6702339D01*
G01X20702427Y-6708181D01*
G01X20713857Y-6708181D01*
G01X20731129Y-6702339D01*
G01X20742559Y-6685321D01*
G01X20748147Y-6656619D01*
G01X20748147Y-6639601D01*
G01X20742559Y-6610899D01*
G01X20731129Y-6593881D01*
G01X20713857Y-6588039D01*
G01X20702427Y-6588039D01*
G01X20795899Y-6628171D02*
G01X20795899Y-6708181D01*
G01X20795899Y-6651031D02*
G01X20813171Y-6633759D01*
G01X20824601Y-6628171D01*
G01X20841619Y-6628171D01*
G01X20853049Y-6633759D01*
G01X20858891Y-6651031D01*
G01X20858891Y-6708181D01*
G01X20858891Y-6651031D02*
G01X20875909Y-6633759D01*
G01X20887339Y-6628171D01*
G01X20904611Y-6628171D01*
G01X20916041Y-6633759D01*
G01X20921629Y-6651031D01*
G01X20921629Y-6708181D01*
G01X20969381Y-6588039D02*
G01X20975223Y-6593881D01*
G01X20980811Y-6588039D01*
G01X20975223Y-6582451D01*
G01X20969381Y-6588039D01*
G01X20975223Y-6628171D02*
G01X20975223Y-6708181D01*
G01X21028563Y-6588039D02*
G01X21028563Y-6708181D01*
G01X21116447Y-6565179D02*
G01X21105017Y-6576609D01*
G01X21093587Y-6593881D01*
G01X21082157Y-6616741D01*
G01X21076315Y-6645189D01*
G01X21076315Y-6668049D01*
G01X21082157Y-6696751D01*
G01X21093587Y-6719611D01*
G01X21105017Y-6736629D01*
G01X21116447Y-6748059D01*
G01X21175629Y-6588039D02*
G01X21238621Y-6588039D01*
G01X21204331Y-6633759D01*
G01X21221349Y-6633759D01*
G01X21232779Y-6639601D01*
G01X21238621Y-6645189D01*
G01X21244209Y-6662461D01*
G01X21244209Y-6673891D01*
G01X21238621Y-6690909D01*
G01X21227191Y-6702339D01*
G01X21209919Y-6708181D01*
G01X21192901Y-6708181D01*
G01X21175629Y-6702339D01*
G01X21170041Y-6696751D01*
G01X21164199Y-6685321D01*
G01X21297803Y-6679479D02*
G01X21291961Y-6685321D01*
G01X21297803Y-6690909D01*
G01X21303391Y-6685321D01*
G01X21297803Y-6679479D01*
G01X21356985Y-6616741D02*
G01X21356985Y-6610899D01*
G01X21362573Y-6599469D01*
G01X21368415Y-6593881D01*
G01X21379845Y-6588039D01*
G01X21402705Y-6588039D01*
G01X21414135Y-6593881D01*
G01X21419723Y-6599469D01*
G01X21425565Y-6610899D01*
G01X21425565Y-6622329D01*
G01X21419723Y-6633759D01*
G01X21408293Y-6651031D01*
G01X21351143Y-6708181D01*
G01X21431153Y-6708181D01*
G01X21513195Y-6588039D02*
G01X21496177Y-6593881D01*
G01X21484747Y-6610899D01*
G01X21478905Y-6639601D01*
G01X21478905Y-6656619D01*
G01X21484747Y-6685321D01*
G01X21496177Y-6702339D01*
G01X21513195Y-6708181D01*
G01X21524625Y-6708181D01*
G01X21541897Y-6702339D01*
G01X21553327Y-6685321D01*
G01X21558915Y-6656619D01*
G01X21558915Y-6639601D01*
G01X21553327Y-6610899D01*
G01X21541897Y-6593881D01*
G01X21524625Y-6588039D01*
G01X21513195Y-6588039D01*
G01X21640957Y-6588039D02*
G01X21623939Y-6593881D01*
G01X21612509Y-6610899D01*
G01X21606667Y-6639601D01*
G01X21606667Y-6656619D01*
G01X21612509Y-6685321D01*
G01X21623939Y-6702339D01*
G01X21640957Y-6708181D01*
G01X21652387Y-6708181D01*
G01X21669659Y-6702339D01*
G01X21681089Y-6685321D01*
G01X21686677Y-6656619D01*
G01X21686677Y-6639601D01*
G01X21681089Y-6610899D01*
G01X21669659Y-6593881D01*
G01X21652387Y-6588039D01*
G01X21640957Y-6588039D01*
G01X21734429Y-6628171D02*
G01X21734429Y-6708181D01*
G01X21734429Y-6651031D02*
G01X21751701Y-6633759D01*
G01X21763131Y-6628171D01*
G01X21780149Y-6628171D01*
G01X21791579Y-6633759D01*
G01X21797421Y-6651031D01*
G01X21797421Y-6708181D01*
G01X21797421Y-6651031D02*
G01X21814439Y-6633759D01*
G01X21825869Y-6628171D01*
G01X21843141Y-6628171D01*
G01X21854571Y-6633759D01*
G01X21860159Y-6651031D01*
G01X21860159Y-6708181D01*
G01X21907911Y-6628171D02*
G01X21907911Y-6708181D01*
G01X21907911Y-6651031D02*
G01X21925183Y-6633759D01*
G01X21936613Y-6628171D01*
G01X21953631Y-6628171D01*
G01X21965061Y-6633759D01*
G01X21970903Y-6651031D01*
G01X21970903Y-6708181D01*
G01X21970903Y-6651031D02*
G01X21987921Y-6633759D01*
G01X21999351Y-6628171D01*
G01X22016623Y-6628171D01*
G01X22028053Y-6633759D01*
G01X22033641Y-6651031D01*
G01X22033641Y-6708181D01*
G01X22081393Y-6565179D02*
G01X22092823Y-6576609D01*
G01X22104253Y-6593881D01*
G01X22115683Y-6616741D01*
G01X22121525Y-6645189D01*
G01X22121525Y-6668049D01*
G01X22115683Y-6696751D01*
G01X22104253Y-6719611D01*
G01X22092823Y-6736629D01*
G01X22081393Y-6748059D01*
G01X24164846Y-6588039D02*
G01X24164846Y-6708181D01*
G01X24164846Y-6588039D02*
G01X24244856Y-6708181D01*
G01X24244856Y-6588039D02*
G01X24244856Y-6708181D01*
G01X24292608Y-6588039D02*
G01X24292608Y-6708181D01*
G01X24292608Y-6588039D02*
G01X24344170Y-6588039D01*
G01X24361188Y-6593881D01*
G01X24367030Y-6599469D01*
G01X24372618Y-6610899D01*
G01X24372618Y-6628171D01*
G01X24367030Y-6639601D01*
G01X24361188Y-6645189D01*
G01X24344170Y-6651031D01*
G01X24292608Y-6651031D01*
G01X24460502Y-6588039D02*
G01X24460502Y-6708181D01*
G01X24420370Y-6588039D02*
G01X24500380Y-6588039D01*
G01X24548132Y-6588039D02*
G01X24548132Y-6708181D01*
G01X24628142Y-6588039D02*
G01X24628142Y-6708181D01*
G01X24548132Y-6645189D02*
G01X24628142Y-6645189D01*
G01X25626253Y-6588039D02*
G01X25626253Y-6708181D01*
G01X25626253Y-6588039D02*
G01X25677815Y-6588039D01*
G01X25694833Y-6593881D01*
G01X25700675Y-6599469D01*
G01X25706263Y-6610899D01*
G01X25706263Y-6622329D01*
G01X25700675Y-6633759D01*
G01X25694833Y-6639601D01*
G01X25677815Y-6645189D01*
G01X25626253Y-6645189D01*
G01X25666385Y-6645189D02*
G01X25706263Y-6708181D01*
G01X25782717Y-6628171D02*
G01X25771287Y-6633759D01*
G01X25759857Y-6645189D01*
G01X25754015Y-6662461D01*
G01X25754015Y-6673891D01*
G01X25759857Y-6690909D01*
G01X25771287Y-6702339D01*
G01X25782717Y-6708181D01*
G01X25799735Y-6708181D01*
G01X25811165Y-6702339D01*
G01X25822595Y-6690909D01*
G01X25828437Y-6673891D01*
G01X25828437Y-6662461D01*
G01X25822595Y-6645189D01*
G01X25811165Y-6633759D01*
G01X25799735Y-6628171D01*
G01X25782717Y-6628171D01*
G01X25876189Y-6628171D02*
G01X25876189Y-6685321D01*
G01X25882031Y-6702339D01*
G01X25893461Y-6708181D01*
G01X25910479Y-6708181D01*
G01X25921909Y-6702339D01*
G01X25939181Y-6685321D01*
G01X25939181Y-6628171D02*
G01X25939181Y-6708181D01*
G01X25986933Y-6628171D02*
G01X25986933Y-6708181D01*
G01X25986933Y-6651031D02*
G01X26004205Y-6633759D01*
G01X26015635Y-6628171D01*
G01X26032653Y-6628171D01*
G01X26044083Y-6633759D01*
G01X26049925Y-6651031D01*
G01X26049925Y-6708181D01*
G01X26166257Y-6588039D02*
G01X26166257Y-6708181D01*
G01X26166257Y-6645189D02*
G01X26154827Y-6633759D01*
G01X26143397Y-6628171D01*
G01X26126379Y-6628171D01*
G01X26114949Y-6633759D01*
G01X26103519Y-6645189D01*
G01X26097677Y-6662461D01*
G01X26097677Y-6673891D01*
G01X26103519Y-6690909D01*
G01X26114949Y-6702339D01*
G01X26126379Y-6708181D01*
G01X26143397Y-6708181D01*
G01X26154827Y-6702339D01*
G01X26166257Y-6690909D01*
G01X27057434Y-6588039D02*
G01X27103154Y-6708181D01*
G01X27148874Y-6588039D02*
G01X27103154Y-6708181D01*
G01X27196626Y-6588039D02*
G01X27202468Y-6593881D01*
G01X27208056Y-6588039D01*
G01X27202468Y-6582451D01*
G01X27196626Y-6588039D01*
G01X27202468Y-6628171D02*
G01X27202468Y-6708181D01*
G01X27324388Y-6628171D02*
G01X27324388Y-6708181D01*
G01X27324388Y-6645189D02*
G01X27312958Y-6633759D01*
G01X27301528Y-6628171D01*
G01X27284510Y-6628171D01*
G01X27273080Y-6633759D01*
G01X27261650Y-6645189D01*
G01X27255808Y-6662461D01*
G01X27255808Y-6673891D01*
G01X27261650Y-6690909D01*
G01X27273080Y-6702339D01*
G01X27284510Y-6708181D01*
G01X27301528Y-6708181D01*
G01X27312958Y-6702339D01*
G01X27324388Y-6690909D01*
G01X30686115Y-6588039D02*
G01X30686115Y-6708181D01*
G01X30645983Y-6588039D02*
G01X30725993Y-6588039D01*
G01X30802447Y-6628171D02*
G01X30791017Y-6633759D01*
G01X30779587Y-6645189D01*
G01X30773745Y-6662461D01*
G01X30773745Y-6673891D01*
G01X30779587Y-6690909D01*
G01X30791017Y-6702339D01*
G01X30802447Y-6708181D01*
G01X30819465Y-6708181D01*
G01X30830895Y-6702339D01*
G01X30842325Y-6690909D01*
G01X30848167Y-6673891D01*
G01X30848167Y-6662461D01*
G01X30842325Y-6645189D01*
G01X30830895Y-6633759D01*
G01X30819465Y-6628171D01*
G01X30802447Y-6628171D01*
G01X30895919Y-6628171D02*
G01X30895919Y-6748059D01*
G01X30895919Y-6645189D02*
G01X30907349Y-6633759D01*
G01X30918779Y-6628171D01*
G01X30936051Y-6628171D01*
G01X30947481Y-6633759D01*
G01X30958911Y-6645189D01*
G01X30964499Y-6662461D01*
G01X30964499Y-6673891D01*
G01X30958911Y-6690909D01*
G01X30947481Y-6702339D01*
G01X30936051Y-6708181D01*
G01X30918779Y-6708181D01*
G01X30907349Y-6702339D01*
G01X30895919Y-6690909D01*
G01X31140267Y-6588039D02*
G01X31140267Y-6708181D01*
G01X31140267Y-6708181D02*
G01X31208847Y-6708181D01*
G01X31325179Y-6628171D02*
G01X31325179Y-6708181D01*
G01X31325179Y-6645189D02*
G01X31313749Y-6633759D01*
G01X31302319Y-6628171D01*
G01X31285301Y-6628171D01*
G01X31273871Y-6633759D01*
G01X31262441Y-6645189D01*
G01X31256599Y-6662461D01*
G01X31256599Y-6673891D01*
G01X31262441Y-6690909D01*
G01X31273871Y-6702339D01*
G01X31285301Y-6708181D01*
G01X31302319Y-6708181D01*
G01X31313749Y-6702339D01*
G01X31325179Y-6690909D01*
G01X31378773Y-6628171D02*
G01X31413063Y-6708181D01*
G01X31447353Y-6628171D02*
G01X31413063Y-6708181D01*
G01X31401633Y-6731041D01*
G01X31390203Y-6742471D01*
G01X31378773Y-6748059D01*
G01X31372931Y-6748059D01*
G01X31495105Y-6662461D02*
G01X31563685Y-6662461D01*
G01X31563685Y-6651031D01*
G01X31558097Y-6639601D01*
G01X31552255Y-6633759D01*
G01X31540825Y-6628171D01*
G01X31523807Y-6628171D01*
G01X31512377Y-6633759D01*
G01X31500947Y-6645189D01*
G01X31495105Y-6662461D01*
G01X31495105Y-6673891D01*
G01X31500947Y-6690909D01*
G01X31512377Y-6702339D01*
G01X31523807Y-6708181D01*
G01X31540825Y-6708181D01*
G01X31552255Y-6702339D01*
G01X31563685Y-6690909D01*
G01X31611437Y-6628171D02*
G01X31611437Y-6708181D01*
G01X31611437Y-6662461D02*
G01X31617279Y-6645189D01*
G01X31628709Y-6633759D01*
G01X31640139Y-6628171D01*
G01X31657157Y-6628171D01*
G01X31704909Y-6656619D02*
G01X31807779Y-6656619D01*
G01X31855531Y-6588039D02*
G01X31855531Y-6708181D01*
G01X31855531Y-6588039D02*
G01X31907093Y-6588039D01*
G01X31924111Y-6593881D01*
G01X31929953Y-6599469D01*
G01X31935541Y-6610899D01*
G01X31935541Y-6622329D01*
G01X31929953Y-6633759D01*
G01X31924111Y-6639601D01*
G01X31907093Y-6645189D01*
G01X31855531Y-6645189D02*
G01X31907093Y-6645189D01*
G01X31924111Y-6651031D01*
G01X31929953Y-6656619D01*
G01X31935541Y-6668049D01*
G01X31935541Y-6685321D01*
G01X31929953Y-6696751D01*
G01X31924111Y-6702339D01*
G01X31907093Y-6708181D01*
G01X31855531Y-6708181D01*
G01X32011995Y-6628171D02*
G01X32000565Y-6633759D01*
G01X31989135Y-6645189D01*
G01X31983293Y-6662461D01*
G01X31983293Y-6673891D01*
G01X31989135Y-6690909D01*
G01X32000565Y-6702339D01*
G01X32011995Y-6708181D01*
G01X32029013Y-6708181D01*
G01X32040443Y-6702339D01*
G01X32051873Y-6690909D01*
G01X32057715Y-6673891D01*
G01X32057715Y-6662461D01*
G01X32051873Y-6645189D01*
G01X32040443Y-6633759D01*
G01X32029013Y-6628171D01*
G01X32011995Y-6628171D01*
G01X32122739Y-6588039D02*
G01X32122739Y-6685321D01*
G01X32128327Y-6702339D01*
G01X32139757Y-6708181D01*
G01X32151187Y-6708181D01*
G01X32105467Y-6628171D02*
G01X32145599Y-6628171D01*
G01X32216211Y-6588039D02*
G01X32216211Y-6685321D01*
G01X32221799Y-6702339D01*
G01X32233229Y-6708181D01*
G01X32244659Y-6708181D01*
G01X32198939Y-6628171D02*
G01X32239071Y-6628171D01*
G01X32321113Y-6628171D02*
G01X32309683Y-6633759D01*
G01X32298253Y-6645189D01*
G01X32292411Y-6662461D01*
G01X32292411Y-6673891D01*
G01X32298253Y-6690909D01*
G01X32309683Y-6702339D01*
G01X32321113Y-6708181D01*
G01X32338131Y-6708181D01*
G01X32349561Y-6702339D01*
G01X32360991Y-6690909D01*
G01X32366833Y-6673891D01*
G01X32366833Y-6662461D01*
G01X32360991Y-6645189D01*
G01X32349561Y-6633759D01*
G01X32338131Y-6628171D01*
G01X32321113Y-6628171D01*
G01X32414585Y-6628171D02*
G01X32414585Y-6708181D01*
G01X32414585Y-6651031D02*
G01X32431857Y-6633759D01*
G01X32443287Y-6628171D01*
G01X32460305Y-6628171D01*
G01X32471735Y-6633759D01*
G01X32477577Y-6651031D01*
G01X32477577Y-6708181D01*
G01X32477577Y-6651031D02*
G01X32494595Y-6633759D01*
G01X32506025Y-6628171D01*
G01X32523297Y-6628171D01*
G01X32534727Y-6633759D01*
G01X32540315Y-6651031D01*
G01X32540315Y-6708181D01*
G01X32716083Y-6588039D02*
G01X32716083Y-6708181D01*
G01X32716083Y-6708181D02*
G01X32784663Y-6708181D01*
G01X32900995Y-6628171D02*
G01X32900995Y-6708181D01*
G01X32900995Y-6645189D02*
G01X32889565Y-6633759D01*
G01X32878135Y-6628171D01*
G01X32861117Y-6628171D01*
G01X32849687Y-6633759D01*
G01X32838257Y-6645189D01*
G01X32832415Y-6662461D01*
G01X32832415Y-6673891D01*
G01X32838257Y-6690909D01*
G01X32849687Y-6702339D01*
G01X32861117Y-6708181D01*
G01X32878135Y-6708181D01*
G01X32889565Y-6702339D01*
G01X32900995Y-6690909D01*
G01X32954589Y-6628171D02*
G01X32988879Y-6708181D01*
G01X33023169Y-6628171D02*
G01X32988879Y-6708181D01*
G01X32977449Y-6731041D01*
G01X32966019Y-6742471D01*
G01X32954589Y-6748059D01*
G01X32948747Y-6748059D01*
G01X33070921Y-6662461D02*
G01X33139501Y-6662461D01*
G01X33139501Y-6651031D01*
G01X33133913Y-6639601D01*
G01X33128071Y-6633759D01*
G01X33116641Y-6628171D01*
G01X33099623Y-6628171D01*
G01X33088193Y-6633759D01*
G01X33076763Y-6645189D01*
G01X33070921Y-6662461D01*
G01X33070921Y-6673891D01*
G01X33076763Y-6690909D01*
G01X33088193Y-6702339D01*
G01X33099623Y-6708181D01*
G01X33116641Y-6708181D01*
G01X33128071Y-6702339D01*
G01X33139501Y-6690909D01*
G01X33187253Y-6628171D02*
G01X33187253Y-6708181D01*
G01X33187253Y-6662461D02*
G01X33193095Y-6645189D01*
G01X33204525Y-6633759D01*
G01X33215955Y-6628171D01*
G01X33232973Y-6628171D01*
G01X18925552Y-7168610D02*
G01X18868402Y-7248620D01*
G01X18954254Y-7248620D01*
G01X18925552Y-7168610D02*
G01X18925552Y-7288752D01*
G01X20288407Y-7197312D02*
G01X20288407Y-7191470D01*
G01X20293995Y-7180040D01*
G01X20299837Y-7174452D01*
G01X20311267Y-7168610D01*
G01X20334127Y-7168610D01*
G01X20345557Y-7174452D01*
G01X20351145Y-7180040D01*
G01X20356987Y-7191470D01*
G01X20356987Y-7202900D01*
G01X20351145Y-7214330D01*
G01X20339715Y-7231602D01*
G01X20282565Y-7288752D01*
G01X20362575Y-7288752D01*
G01X20467477Y-7168610D02*
G01X20410327Y-7248620D01*
G01X20496179Y-7248620D01*
G01X20467477Y-7168610D02*
G01X20467477Y-7288752D01*
G01X20549773Y-7260050D02*
G01X20543931Y-7265892D01*
G01X20549773Y-7271480D01*
G01X20555361Y-7265892D01*
G01X20549773Y-7260050D01*
G01X20637403Y-7168610D02*
G01X20620385Y-7174452D01*
G01X20608955Y-7191470D01*
G01X20603113Y-7220172D01*
G01X20603113Y-7237190D01*
G01X20608955Y-7265892D01*
G01X20620385Y-7282910D01*
G01X20637403Y-7288752D01*
G01X20648833Y-7288752D01*
G01X20666105Y-7282910D01*
G01X20677535Y-7265892D01*
G01X20683123Y-7237190D01*
G01X20683123Y-7220172D01*
G01X20677535Y-7191470D01*
G01X20666105Y-7174452D01*
G01X20648833Y-7168610D01*
G01X20637403Y-7168610D01*
G01X20730875Y-7208742D02*
G01X20793867Y-7288752D01*
G01X20793867Y-7208742D02*
G01X20730875Y-7288752D01*
G01X20847461Y-7197312D02*
G01X20847461Y-7191470D01*
G01X20853049Y-7180040D01*
G01X20858891Y-7174452D01*
G01X20870321Y-7168610D01*
G01X20893181Y-7168610D01*
G01X20904611Y-7174452D01*
G01X20910199Y-7180040D01*
G01X20916041Y-7191470D01*
G01X20916041Y-7202900D01*
G01X20910199Y-7214330D01*
G01X20898769Y-7231602D01*
G01X20841619Y-7288752D01*
G01X20921629Y-7288752D01*
G01X21026531Y-7168610D02*
G01X20969381Y-7248620D01*
G01X21055233Y-7248620D01*
G01X21026531Y-7168610D02*
G01X21026531Y-7288752D01*
G01X21108827Y-7260050D02*
G01X21102985Y-7265892D01*
G01X21108827Y-7271480D01*
G01X21114415Y-7265892D01*
G01X21108827Y-7260050D01*
G01X21196457Y-7168610D02*
G01X21179439Y-7174452D01*
G01X21168009Y-7191470D01*
G01X21162167Y-7220172D01*
G01X21162167Y-7237190D01*
G01X21168009Y-7265892D01*
G01X21179439Y-7282910D01*
G01X21196457Y-7288752D01*
G01X21207887Y-7288752D01*
G01X21225159Y-7282910D01*
G01X21236589Y-7265892D01*
G01X21242177Y-7237190D01*
G01X21242177Y-7220172D01*
G01X21236589Y-7191470D01*
G01X21225159Y-7174452D01*
G01X21207887Y-7168610D01*
G01X21196457Y-7168610D01*
G01X21289929Y-7208742D02*
G01X21289929Y-7288752D01*
G01X21289929Y-7231602D02*
G01X21307201Y-7214330D01*
G01X21318631Y-7208742D01*
G01X21335649Y-7208742D01*
G01X21347079Y-7214330D01*
G01X21352921Y-7231602D01*
G01X21352921Y-7288752D01*
G01X21352921Y-7231602D02*
G01X21369939Y-7214330D01*
G01X21381369Y-7208742D01*
G01X21398641Y-7208742D01*
G01X21410071Y-7214330D01*
G01X21415659Y-7231602D01*
G01X21415659Y-7288752D01*
G01X21463411Y-7168610D02*
G01X21469253Y-7174452D01*
G01X21474841Y-7168610D01*
G01X21469253Y-7163022D01*
G01X21463411Y-7168610D01*
G01X21469253Y-7208742D02*
G01X21469253Y-7288752D01*
G01X21522593Y-7168610D02*
G01X21522593Y-7288752D01*
G01X21610477Y-7145750D02*
G01X21599047Y-7157180D01*
G01X21587617Y-7174452D01*
G01X21576187Y-7197312D01*
G01X21570345Y-7225760D01*
G01X21570345Y-7248620D01*
G01X21576187Y-7277322D01*
G01X21587617Y-7300182D01*
G01X21599047Y-7317200D01*
G01X21610477Y-7328630D01*
G01X21692519Y-7168610D02*
G01X21675501Y-7174452D01*
G01X21664071Y-7191470D01*
G01X21658229Y-7220172D01*
G01X21658229Y-7237190D01*
G01X21664071Y-7265892D01*
G01X21675501Y-7282910D01*
G01X21692519Y-7288752D01*
G01X21703949Y-7288752D01*
G01X21721221Y-7282910D01*
G01X21732651Y-7265892D01*
G01X21738239Y-7237190D01*
G01X21738239Y-7220172D01*
G01X21732651Y-7191470D01*
G01X21721221Y-7174452D01*
G01X21703949Y-7168610D01*
G01X21692519Y-7168610D01*
G01X21791833Y-7260050D02*
G01X21785991Y-7265892D01*
G01X21791833Y-7271480D01*
G01X21797421Y-7265892D01*
G01X21791833Y-7260050D01*
G01X21913753Y-7185882D02*
G01X21908165Y-7174452D01*
G01X21890893Y-7168610D01*
G01X21879463Y-7168610D01*
G01X21862445Y-7174452D01*
G01X21851015Y-7191470D01*
G01X21845173Y-7220172D01*
G01X21845173Y-7248620D01*
G01X21851015Y-7271480D01*
G01X21862445Y-7282910D01*
G01X21879463Y-7288752D01*
G01X21885305Y-7288752D01*
G01X21902323Y-7282910D01*
G01X21913753Y-7271480D01*
G01X21919595Y-7254462D01*
G01X21919595Y-7248620D01*
G01X21913753Y-7231602D01*
G01X21902323Y-7220172D01*
G01X21885305Y-7214330D01*
G01X21879463Y-7214330D01*
G01X21862445Y-7220172D01*
G01X21851015Y-7231602D01*
G01X21845173Y-7248620D01*
G01X21967347Y-7191470D02*
G01X21978777Y-7185882D01*
G01X21996049Y-7168610D01*
G01X21996049Y-7288752D01*
G01X22078091Y-7168610D02*
G01X22061073Y-7174452D01*
G01X22049643Y-7191470D01*
G01X22043801Y-7220172D01*
G01X22043801Y-7237190D01*
G01X22049643Y-7265892D01*
G01X22061073Y-7282910D01*
G01X22078091Y-7288752D01*
G01X22089521Y-7288752D01*
G01X22106793Y-7282910D01*
G01X22118223Y-7265892D01*
G01X22123811Y-7237190D01*
G01X22123811Y-7220172D01*
G01X22118223Y-7191470D01*
G01X22106793Y-7174452D01*
G01X22089521Y-7168610D01*
G01X22078091Y-7168610D01*
G01X22171563Y-7208742D02*
G01X22234555Y-7288752D01*
G01X22234555Y-7208742D02*
G01X22171563Y-7288752D01*
G01X22316597Y-7168610D02*
G01X22299579Y-7174452D01*
G01X22288149Y-7191470D01*
G01X22282307Y-7220172D01*
G01X22282307Y-7237190D01*
G01X22288149Y-7265892D01*
G01X22299579Y-7282910D01*
G01X22316597Y-7288752D01*
G01X22328027Y-7288752D01*
G01X22345299Y-7282910D01*
G01X22356729Y-7265892D01*
G01X22362317Y-7237190D01*
G01X22362317Y-7220172D01*
G01X22356729Y-7191470D01*
G01X22345299Y-7174452D01*
G01X22328027Y-7168610D01*
G01X22316597Y-7168610D01*
G01X22415911Y-7260050D02*
G01X22410069Y-7265892D01*
G01X22415911Y-7271480D01*
G01X22421499Y-7265892D01*
G01X22415911Y-7260050D01*
G01X22537831Y-7185882D02*
G01X22532243Y-7174452D01*
G01X22514971Y-7168610D01*
G01X22503541Y-7168610D01*
G01X22486523Y-7174452D01*
G01X22475093Y-7191470D01*
G01X22469251Y-7220172D01*
G01X22469251Y-7248620D01*
G01X22475093Y-7271480D01*
G01X22486523Y-7282910D01*
G01X22503541Y-7288752D01*
G01X22509383Y-7288752D01*
G01X22526401Y-7282910D01*
G01X22537831Y-7271480D01*
G01X22543673Y-7254462D01*
G01X22543673Y-7248620D01*
G01X22537831Y-7231602D01*
G01X22526401Y-7220172D01*
G01X22509383Y-7214330D01*
G01X22503541Y-7214330D01*
G01X22486523Y-7220172D01*
G01X22475093Y-7231602D01*
G01X22469251Y-7248620D01*
G01X22591425Y-7191470D02*
G01X22602855Y-7185882D01*
G01X22620127Y-7168610D01*
G01X22620127Y-7288752D01*
G01X22702169Y-7168610D02*
G01X22685151Y-7174452D01*
G01X22673721Y-7191470D01*
G01X22667879Y-7220172D01*
G01X22667879Y-7237190D01*
G01X22673721Y-7265892D01*
G01X22685151Y-7282910D01*
G01X22702169Y-7288752D01*
G01X22713599Y-7288752D01*
G01X22730871Y-7282910D01*
G01X22742301Y-7265892D01*
G01X22747889Y-7237190D01*
G01X22747889Y-7220172D01*
G01X22742301Y-7191470D01*
G01X22730871Y-7174452D01*
G01X22713599Y-7168610D01*
G01X22702169Y-7168610D01*
G01X22795641Y-7208742D02*
G01X22795641Y-7288752D01*
G01X22795641Y-7231602D02*
G01X22812913Y-7214330D01*
G01X22824343Y-7208742D01*
G01X22841361Y-7208742D01*
G01X22852791Y-7214330D01*
G01X22858633Y-7231602D01*
G01X22858633Y-7288752D01*
G01X22858633Y-7231602D02*
G01X22875651Y-7214330D01*
G01X22887081Y-7208742D01*
G01X22904353Y-7208742D01*
G01X22915783Y-7214330D01*
G01X22921371Y-7231602D01*
G01X22921371Y-7288752D01*
G01X22969123Y-7208742D02*
G01X22969123Y-7288752D01*
G01X22969123Y-7231602D02*
G01X22986395Y-7214330D01*
G01X22997825Y-7208742D01*
G01X23014843Y-7208742D01*
G01X23026273Y-7214330D01*
G01X23032115Y-7231602D01*
G01X23032115Y-7288752D01*
G01X23032115Y-7231602D02*
G01X23049133Y-7214330D01*
G01X23060563Y-7208742D01*
G01X23077835Y-7208742D01*
G01X23089265Y-7214330D01*
G01X23094853Y-7231602D01*
G01X23094853Y-7288752D01*
G01X23142605Y-7145750D02*
G01X23154035Y-7157180D01*
G01X23165465Y-7174452D01*
G01X23176895Y-7197312D01*
G01X23182737Y-7225760D01*
G01X23182737Y-7248620D01*
G01X23176895Y-7277322D01*
G01X23165465Y-7300182D01*
G01X23154035Y-7317200D01*
G01X23142605Y-7328630D01*
G01X24164846Y-7168610D02*
G01X24164846Y-7288752D01*
G01X24164846Y-7168610D02*
G01X24216408Y-7168610D01*
G01X24233426Y-7174452D01*
G01X24239268Y-7180040D01*
G01X24244856Y-7191470D01*
G01X24244856Y-7208742D01*
G01X24239268Y-7220172D01*
G01X24233426Y-7225760D01*
G01X24216408Y-7231602D01*
G01X24164846Y-7231602D01*
G01X24332740Y-7168610D02*
G01X24332740Y-7288752D01*
G01X24292608Y-7168610D02*
G01X24372618Y-7168610D01*
G01X24420370Y-7168610D02*
G01X24420370Y-7288752D01*
G01X24500380Y-7168610D02*
G01X24500380Y-7288752D01*
G01X24420370Y-7225760D02*
G01X24500380Y-7225760D01*
G01X25626253Y-7168610D02*
G01X25626253Y-7288752D01*
G01X25626253Y-7168610D02*
G01X25677815Y-7168610D01*
G01X25694833Y-7174452D01*
G01X25700675Y-7180040D01*
G01X25706263Y-7191470D01*
G01X25706263Y-7202900D01*
G01X25700675Y-7214330D01*
G01X25694833Y-7220172D01*
G01X25677815Y-7225760D01*
G01X25626253Y-7225760D01*
G01X25666385Y-7225760D02*
G01X25706263Y-7288752D01*
G01X25782717Y-7208742D02*
G01X25771287Y-7214330D01*
G01X25759857Y-7225760D01*
G01X25754015Y-7243032D01*
G01X25754015Y-7254462D01*
G01X25759857Y-7271480D01*
G01X25771287Y-7282910D01*
G01X25782717Y-7288752D01*
G01X25799735Y-7288752D01*
G01X25811165Y-7282910D01*
G01X25822595Y-7271480D01*
G01X25828437Y-7254462D01*
G01X25828437Y-7243032D01*
G01X25822595Y-7225760D01*
G01X25811165Y-7214330D01*
G01X25799735Y-7208742D01*
G01X25782717Y-7208742D01*
G01X25876189Y-7208742D02*
G01X25876189Y-7265892D01*
G01X25882031Y-7282910D01*
G01X25893461Y-7288752D01*
G01X25910479Y-7288752D01*
G01X25921909Y-7282910D01*
G01X25939181Y-7265892D01*
G01X25939181Y-7208742D02*
G01X25939181Y-7288752D01*
G01X25986933Y-7208742D02*
G01X25986933Y-7288752D01*
G01X25986933Y-7231602D02*
G01X26004205Y-7214330D01*
G01X26015635Y-7208742D01*
G01X26032653Y-7208742D01*
G01X26044083Y-7214330D01*
G01X26049925Y-7231602D01*
G01X26049925Y-7288752D01*
G01X26166257Y-7168610D02*
G01X26166257Y-7288752D01*
G01X26166257Y-7225760D02*
G01X26154827Y-7214330D01*
G01X26143397Y-7208742D01*
G01X26126379Y-7208742D01*
G01X26114949Y-7214330D01*
G01X26103519Y-7225760D01*
G01X26097677Y-7243032D01*
G01X26097677Y-7254462D01*
G01X26103519Y-7271480D01*
G01X26114949Y-7282910D01*
G01X26126379Y-7288752D01*
G01X26143397Y-7288752D01*
G01X26154827Y-7282910D01*
G01X26166257Y-7271480D01*
G01X27057434Y-7168610D02*
G01X27057434Y-7288752D01*
G01X27057434Y-7168610D02*
G01X27108996Y-7168610D01*
G01X27126014Y-7174452D01*
G01X27131856Y-7180040D01*
G01X27137444Y-7191470D01*
G01X27137444Y-7208742D01*
G01X27131856Y-7220172D01*
G01X27126014Y-7225760D01*
G01X27108996Y-7231602D01*
G01X27057434Y-7231602D01*
G01X27253776Y-7208742D02*
G01X27253776Y-7288752D01*
G01X27253776Y-7225760D02*
G01X27242346Y-7214330D01*
G01X27230916Y-7208742D01*
G01X27213898Y-7208742D01*
G01X27202468Y-7214330D01*
G01X27191038Y-7225760D01*
G01X27185196Y-7243032D01*
G01X27185196Y-7254462D01*
G01X27191038Y-7271480D01*
G01X27202468Y-7282910D01*
G01X27213898Y-7288752D01*
G01X27230916Y-7288752D01*
G01X27242346Y-7282910D01*
G01X27253776Y-7271480D01*
G01X27370108Y-7168610D02*
G01X27370108Y-7288752D01*
G01X27370108Y-7225760D02*
G01X27358678Y-7214330D01*
G01X27347248Y-7208742D01*
G01X27330230Y-7208742D01*
G01X27318800Y-7214330D01*
G01X27307370Y-7225760D01*
G01X27301528Y-7243032D01*
G01X27301528Y-7254462D01*
G01X27307370Y-7271480D01*
G01X27318800Y-7282910D01*
G01X27330230Y-7288752D01*
G01X27347248Y-7288752D01*
G01X27358678Y-7282910D01*
G01X27370108Y-7271480D01*
G01X28726614Y-7168610D02*
G01X28726614Y-7288752D01*
G01X28726614Y-7168610D02*
G01X28778176Y-7168610D01*
G01X28795194Y-7174452D01*
G01X28801036Y-7180040D01*
G01X28806624Y-7191470D01*
G01X28806624Y-7202900D01*
G01X28801036Y-7214330D01*
G01X28795194Y-7220172D01*
G01X28778176Y-7225760D01*
G01X28726614Y-7225760D01*
G01X28766746Y-7225760D02*
G01X28806624Y-7288752D01*
G01X28854376Y-7243032D02*
G01X28922956Y-7243032D01*
G01X28922956Y-7231602D01*
G01X28917368Y-7220172D01*
G01X28911526Y-7214330D01*
G01X28900096Y-7208742D01*
G01X28883078Y-7208742D01*
G01X28871648Y-7214330D01*
G01X28860218Y-7225760D01*
G01X28854376Y-7243032D01*
G01X28854376Y-7254462D01*
G01X28860218Y-7271480D01*
G01X28871648Y-7282910D01*
G01X28883078Y-7288752D01*
G01X28900096Y-7288752D01*
G01X28911526Y-7282910D01*
G01X28922956Y-7271480D01*
G01X29039288Y-7225760D02*
G01X29027858Y-7214330D01*
G01X29016428Y-7208742D01*
G01X28999410Y-7208742D01*
G01X28987980Y-7214330D01*
G01X28976550Y-7225760D01*
G01X28970708Y-7243032D01*
G01X28970708Y-7254462D01*
G01X28976550Y-7271480D01*
G01X28987980Y-7282910D01*
G01X28999410Y-7288752D01*
G01X29016428Y-7288752D01*
G01X29027858Y-7282910D01*
G01X29039288Y-7271480D01*
G01X29104312Y-7168610D02*
G01X29104312Y-7265892D01*
G01X29109900Y-7282910D01*
G01X29121330Y-7288752D01*
G01X29132760Y-7288752D01*
G01X29087040Y-7208742D02*
G01X29127172Y-7208742D01*
G01X29249092Y-7208742D02*
G01X29249092Y-7288752D01*
G01X29249092Y-7225760D02*
G01X29237662Y-7214330D01*
G01X29226232Y-7208742D01*
G01X29209214Y-7208742D01*
G01X29197784Y-7214330D01*
G01X29186354Y-7225760D01*
G01X29180512Y-7243032D01*
G01X29180512Y-7254462D01*
G01X29186354Y-7271480D01*
G01X29197784Y-7282910D01*
G01X29209214Y-7288752D01*
G01X29226232Y-7288752D01*
G01X29237662Y-7282910D01*
G01X29249092Y-7271480D01*
G01X29296844Y-7208742D02*
G01X29296844Y-7288752D01*
G01X29296844Y-7231602D02*
G01X29314116Y-7214330D01*
G01X29325546Y-7208742D01*
G01X29342564Y-7208742D01*
G01X29353994Y-7214330D01*
G01X29359836Y-7231602D01*
G01X29359836Y-7288752D01*
G01X29476168Y-7208742D02*
G01X29476168Y-7300182D01*
G01X29470580Y-7317200D01*
G01X29464738Y-7323042D01*
G01X29453308Y-7328630D01*
G01X29436290Y-7328630D01*
G01X29424860Y-7323042D01*
G01X29476168Y-7225760D02*
G01X29464738Y-7214330D01*
G01X29453308Y-7208742D01*
G01X29436290Y-7208742D01*
G01X29424860Y-7214330D01*
G01X29413430Y-7225760D01*
G01X29407588Y-7243032D01*
G01X29407588Y-7254462D01*
G01X29413430Y-7271480D01*
G01X29424860Y-7282910D01*
G01X29436290Y-7288752D01*
G01X29453308Y-7288752D01*
G01X29464738Y-7282910D01*
G01X29476168Y-7271480D01*
G01X29523920Y-7168610D02*
G01X29523920Y-7288752D01*
G01X29571672Y-7243032D02*
G01X29640252Y-7243032D01*
G01X29640252Y-7231602D01*
G01X29634664Y-7220172D01*
G01X29628822Y-7214330D01*
G01X29617392Y-7208742D01*
G01X29600374Y-7208742D01*
G01X29588944Y-7214330D01*
G01X29577514Y-7225760D01*
G01X29571672Y-7243032D01*
G01X29571672Y-7254462D01*
G01X29577514Y-7271480D01*
G01X29588944Y-7282910D01*
G01X29600374Y-7288752D01*
G01X29617392Y-7288752D01*
G01X29628822Y-7282910D01*
G01X29640252Y-7271480D01*
G01X30686115Y-7168610D02*
G01X30686115Y-7288752D01*
G01X30645983Y-7168610D02*
G01X30725993Y-7168610D01*
G01X30802447Y-7208742D02*
G01X30791017Y-7214330D01*
G01X30779587Y-7225760D01*
G01X30773745Y-7243032D01*
G01X30773745Y-7254462D01*
G01X30779587Y-7271480D01*
G01X30791017Y-7282910D01*
G01X30802447Y-7288752D01*
G01X30819465Y-7288752D01*
G01X30830895Y-7282910D01*
G01X30842325Y-7271480D01*
G01X30848167Y-7254462D01*
G01X30848167Y-7243032D01*
G01X30842325Y-7225760D01*
G01X30830895Y-7214330D01*
G01X30819465Y-7208742D01*
G01X30802447Y-7208742D01*
G01X30895919Y-7208742D02*
G01X30895919Y-7328630D01*
G01X30895919Y-7225760D02*
G01X30907349Y-7214330D01*
G01X30918779Y-7208742D01*
G01X30936051Y-7208742D01*
G01X30947481Y-7214330D01*
G01X30958911Y-7225760D01*
G01X30964499Y-7243032D01*
G01X30964499Y-7254462D01*
G01X30958911Y-7271480D01*
G01X30947481Y-7282910D01*
G01X30936051Y-7288752D01*
G01X30918779Y-7288752D01*
G01X30907349Y-7282910D01*
G01X30895919Y-7271480D01*
G01X31140267Y-7168610D02*
G01X31140267Y-7288752D01*
G01X31140267Y-7288752D02*
G01X31208847Y-7288752D01*
G01X31325179Y-7208742D02*
G01X31325179Y-7288752D01*
G01X31325179Y-7225760D02*
G01X31313749Y-7214330D01*
G01X31302319Y-7208742D01*
G01X31285301Y-7208742D01*
G01X31273871Y-7214330D01*
G01X31262441Y-7225760D01*
G01X31256599Y-7243032D01*
G01X31256599Y-7254462D01*
G01X31262441Y-7271480D01*
G01X31273871Y-7282910D01*
G01X31285301Y-7288752D01*
G01X31302319Y-7288752D01*
G01X31313749Y-7282910D01*
G01X31325179Y-7271480D01*
G01X31378773Y-7208742D02*
G01X31413063Y-7288752D01*
G01X31447353Y-7208742D02*
G01X31413063Y-7288752D01*
G01X31401633Y-7311612D01*
G01X31390203Y-7323042D01*
G01X31378773Y-7328630D01*
G01X31372931Y-7328630D01*
G01X31495105Y-7243032D02*
G01X31563685Y-7243032D01*
G01X31563685Y-7231602D01*
G01X31558097Y-7220172D01*
G01X31552255Y-7214330D01*
G01X31540825Y-7208742D01*
G01X31523807Y-7208742D01*
G01X31512377Y-7214330D01*
G01X31500947Y-7225760D01*
G01X31495105Y-7243032D01*
G01X31495105Y-7254462D01*
G01X31500947Y-7271480D01*
G01X31512377Y-7282910D01*
G01X31523807Y-7288752D01*
G01X31540825Y-7288752D01*
G01X31552255Y-7282910D01*
G01X31563685Y-7271480D01*
G01X31611437Y-7208742D02*
G01X31611437Y-7288752D01*
G01X31611437Y-7243032D02*
G01X31617279Y-7225760D01*
G01X31628709Y-7214330D01*
G01X31640139Y-7208742D01*
G01X31657157Y-7208742D01*
G01X31704909Y-7237190D02*
G01X31807779Y-7237190D01*
G01X31855531Y-7168610D02*
G01X31855531Y-7288752D01*
G01X31855531Y-7168610D02*
G01X31907093Y-7168610D01*
G01X31924111Y-7174452D01*
G01X31929953Y-7180040D01*
G01X31935541Y-7191470D01*
G01X31935541Y-7202900D01*
G01X31929953Y-7214330D01*
G01X31924111Y-7220172D01*
G01X31907093Y-7225760D01*
G01X31855531Y-7225760D02*
G01X31907093Y-7225760D01*
G01X31924111Y-7231602D01*
G01X31929953Y-7237190D01*
G01X31935541Y-7248620D01*
G01X31935541Y-7265892D01*
G01X31929953Y-7277322D01*
G01X31924111Y-7282910D01*
G01X31907093Y-7288752D01*
G01X31855531Y-7288752D01*
G01X32011995Y-7208742D02*
G01X32000565Y-7214330D01*
G01X31989135Y-7225760D01*
G01X31983293Y-7243032D01*
G01X31983293Y-7254462D01*
G01X31989135Y-7271480D01*
G01X32000565Y-7282910D01*
G01X32011995Y-7288752D01*
G01X32029013Y-7288752D01*
G01X32040443Y-7282910D01*
G01X32051873Y-7271480D01*
G01X32057715Y-7254462D01*
G01X32057715Y-7243032D01*
G01X32051873Y-7225760D01*
G01X32040443Y-7214330D01*
G01X32029013Y-7208742D01*
G01X32011995Y-7208742D01*
G01X32122739Y-7168610D02*
G01X32122739Y-7265892D01*
G01X32128327Y-7282910D01*
G01X32139757Y-7288752D01*
G01X32151187Y-7288752D01*
G01X32105467Y-7208742D02*
G01X32145599Y-7208742D01*
G01X32216211Y-7168610D02*
G01X32216211Y-7265892D01*
G01X32221799Y-7282910D01*
G01X32233229Y-7288752D01*
G01X32244659Y-7288752D01*
G01X32198939Y-7208742D02*
G01X32239071Y-7208742D01*
G01X32321113Y-7208742D02*
G01X32309683Y-7214330D01*
G01X32298253Y-7225760D01*
G01X32292411Y-7243032D01*
G01X32292411Y-7254462D01*
G01X32298253Y-7271480D01*
G01X32309683Y-7282910D01*
G01X32321113Y-7288752D01*
G01X32338131Y-7288752D01*
G01X32349561Y-7282910D01*
G01X32360991Y-7271480D01*
G01X32366833Y-7254462D01*
G01X32366833Y-7243032D01*
G01X32360991Y-7225760D01*
G01X32349561Y-7214330D01*
G01X32338131Y-7208742D01*
G01X32321113Y-7208742D01*
G01X32414585Y-7208742D02*
G01X32414585Y-7288752D01*
G01X32414585Y-7231602D02*
G01X32431857Y-7214330D01*
G01X32443287Y-7208742D01*
G01X32460305Y-7208742D01*
G01X32471735Y-7214330D01*
G01X32477577Y-7231602D01*
G01X32477577Y-7288752D01*
G01X32477577Y-7231602D02*
G01X32494595Y-7214330D01*
G01X32506025Y-7208742D01*
G01X32523297Y-7208742D01*
G01X32534727Y-7214330D01*
G01X32540315Y-7231602D01*
G01X32540315Y-7288752D01*
G01X32716083Y-7168610D02*
G01X32716083Y-7288752D01*
G01X32716083Y-7288752D02*
G01X32784663Y-7288752D01*
G01X32900995Y-7208742D02*
G01X32900995Y-7288752D01*
G01X32900995Y-7225760D02*
G01X32889565Y-7214330D01*
G01X32878135Y-7208742D01*
G01X32861117Y-7208742D01*
G01X32849687Y-7214330D01*
G01X32838257Y-7225760D01*
G01X32832415Y-7243032D01*
G01X32832415Y-7254462D01*
G01X32838257Y-7271480D01*
G01X32849687Y-7282910D01*
G01X32861117Y-7288752D01*
G01X32878135Y-7288752D01*
G01X32889565Y-7282910D01*
G01X32900995Y-7271480D01*
G01X32954589Y-7208742D02*
G01X32988879Y-7288752D01*
G01X33023169Y-7208742D02*
G01X32988879Y-7288752D01*
G01X32977449Y-7311612D01*
G01X32966019Y-7323042D01*
G01X32954589Y-7328630D01*
G01X32948747Y-7328630D01*
G01X33070921Y-7243032D02*
G01X33139501Y-7243032D01*
G01X33139501Y-7231602D01*
G01X33133913Y-7220172D01*
G01X33128071Y-7214330D01*
G01X33116641Y-7208742D01*
G01X33099623Y-7208742D01*
G01X33088193Y-7214330D01*
G01X33076763Y-7225760D01*
G01X33070921Y-7243032D01*
G01X33070921Y-7254462D01*
G01X33076763Y-7271480D01*
G01X33088193Y-7282910D01*
G01X33099623Y-7288752D01*
G01X33116641Y-7288752D01*
G01X33128071Y-7282910D01*
G01X33139501Y-7271480D01*
G01X33187253Y-7208742D02*
G01X33187253Y-7288752D01*
G01X33187253Y-7243032D02*
G01X33193095Y-7225760D01*
G01X33204525Y-7214330D01*
G01X33215955Y-7208742D01*
G01X33232973Y-7208742D01*
G01X18868402Y-7772041D02*
G01X18879832Y-7766453D01*
G01X18897104Y-7749181D01*
G01X18897104Y-7869323D01*
G01X18950698Y-7777883D02*
G01X18950698Y-7772041D01*
G01X18956286Y-7760611D01*
G01X18962128Y-7755023D01*
G01X18973558Y-7749181D01*
G01X18996418Y-7749181D01*
G01X19007848Y-7755023D01*
G01X19013436Y-7760611D01*
G01X19019278Y-7772041D01*
G01X19019278Y-7783471D01*
G01X19013436Y-7794901D01*
G01X19002006Y-7812173D01*
G01X18944856Y-7869323D01*
G01X19024866Y-7869323D01*
G01X20293995Y-7749181D02*
G01X20356987Y-7749181D01*
G01X20322697Y-7794901D01*
G01X20339715Y-7794901D01*
G01X20351145Y-7800743D01*
G01X20356987Y-7806331D01*
G01X20362575Y-7823603D01*
G01X20362575Y-7835033D01*
G01X20356987Y-7852051D01*
G01X20345557Y-7863481D01*
G01X20328285Y-7869323D01*
G01X20311267Y-7869323D01*
G01X20293995Y-7863481D01*
G01X20288407Y-7857893D01*
G01X20282565Y-7846463D01*
G01X20478907Y-7766453D02*
G01X20473319Y-7755023D01*
G01X20456047Y-7749181D01*
G01X20444617Y-7749181D01*
G01X20427599Y-7755023D01*
G01X20416169Y-7772041D01*
G01X20410327Y-7800743D01*
G01X20410327Y-7829191D01*
G01X20416169Y-7852051D01*
G01X20427599Y-7863481D01*
G01X20444617Y-7869323D01*
G01X20450459Y-7869323D01*
G01X20467477Y-7863481D01*
G01X20478907Y-7852051D01*
G01X20484749Y-7835033D01*
G01X20484749Y-7829191D01*
G01X20478907Y-7812173D01*
G01X20467477Y-7800743D01*
G01X20450459Y-7794901D01*
G01X20444617Y-7794901D01*
G01X20427599Y-7800743D01*
G01X20416169Y-7812173D01*
G01X20410327Y-7829191D01*
G01X20538343Y-7840621D02*
G01X20532501Y-7846463D01*
G01X20538343Y-7852051D01*
G01X20543931Y-7846463D01*
G01X20538343Y-7840621D01*
G01X20625973Y-7749181D02*
G01X20608955Y-7755023D01*
G01X20597525Y-7772041D01*
G01X20591683Y-7800743D01*
G01X20591683Y-7817761D01*
G01X20597525Y-7846463D01*
G01X20608955Y-7863481D01*
G01X20625973Y-7869323D01*
G01X20637403Y-7869323D01*
G01X20654675Y-7863481D01*
G01X20666105Y-7846463D01*
G01X20671693Y-7817761D01*
G01X20671693Y-7800743D01*
G01X20666105Y-7772041D01*
G01X20654675Y-7755023D01*
G01X20637403Y-7749181D01*
G01X20625973Y-7749181D01*
G01X20719445Y-7789313D02*
G01X20782437Y-7869323D01*
G01X20782437Y-7789313D02*
G01X20719445Y-7869323D01*
G01X20841619Y-7749181D02*
G01X20904611Y-7749181D01*
G01X20870321Y-7794901D01*
G01X20887339Y-7794901D01*
G01X20898769Y-7800743D01*
G01X20904611Y-7806331D01*
G01X20910199Y-7823603D01*
G01X20910199Y-7835033D01*
G01X20904611Y-7852051D01*
G01X20893181Y-7863481D01*
G01X20875909Y-7869323D01*
G01X20858891Y-7869323D01*
G01X20841619Y-7863481D01*
G01X20836031Y-7857893D01*
G01X20830189Y-7846463D01*
G01X21026531Y-7766453D02*
G01X21020943Y-7755023D01*
G01X21003671Y-7749181D01*
G01X20992241Y-7749181D01*
G01X20975223Y-7755023D01*
G01X20963793Y-7772041D01*
G01X20957951Y-7800743D01*
G01X20957951Y-7829191D01*
G01X20963793Y-7852051D01*
G01X20975223Y-7863481D01*
G01X20992241Y-7869323D01*
G01X20998083Y-7869323D01*
G01X21015101Y-7863481D01*
G01X21026531Y-7852051D01*
G01X21032373Y-7835033D01*
G01X21032373Y-7829191D01*
G01X21026531Y-7812173D01*
G01X21015101Y-7800743D01*
G01X20998083Y-7794901D01*
G01X20992241Y-7794901D01*
G01X20975223Y-7800743D01*
G01X20963793Y-7812173D01*
G01X20957951Y-7829191D01*
G01X21085967Y-7840621D02*
G01X21080125Y-7846463D01*
G01X21085967Y-7852051D01*
G01X21091555Y-7846463D01*
G01X21085967Y-7840621D01*
G01X21173597Y-7749181D02*
G01X21156579Y-7755023D01*
G01X21145149Y-7772041D01*
G01X21139307Y-7800743D01*
G01X21139307Y-7817761D01*
G01X21145149Y-7846463D01*
G01X21156579Y-7863481D01*
G01X21173597Y-7869323D01*
G01X21185027Y-7869323D01*
G01X21202299Y-7863481D01*
G01X21213729Y-7846463D01*
G01X21219317Y-7817761D01*
G01X21219317Y-7800743D01*
G01X21213729Y-7772041D01*
G01X21202299Y-7755023D01*
G01X21185027Y-7749181D01*
G01X21173597Y-7749181D01*
G01X21267069Y-7789313D02*
G01X21267069Y-7869323D01*
G01X21267069Y-7812173D02*
G01X21284341Y-7794901D01*
G01X21295771Y-7789313D01*
G01X21312789Y-7789313D01*
G01X21324219Y-7794901D01*
G01X21330061Y-7812173D01*
G01X21330061Y-7869323D01*
G01X21330061Y-7812173D02*
G01X21347079Y-7794901D01*
G01X21358509Y-7789313D01*
G01X21375781Y-7789313D01*
G01X21387211Y-7794901D01*
G01X21392799Y-7812173D01*
G01X21392799Y-7869323D01*
G01X21440551Y-7749181D02*
G01X21446393Y-7755023D01*
G01X21451981Y-7749181D01*
G01X21446393Y-7743593D01*
G01X21440551Y-7749181D01*
G01X21446393Y-7789313D02*
G01X21446393Y-7869323D01*
G01X21499733Y-7749181D02*
G01X21499733Y-7869323D01*
G01X21587617Y-7726321D02*
G01X21576187Y-7737751D01*
G01X21564757Y-7755023D01*
G01X21553327Y-7777883D01*
G01X21547485Y-7806331D01*
G01X21547485Y-7829191D01*
G01X21553327Y-7857893D01*
G01X21564757Y-7880753D01*
G01X21576187Y-7897771D01*
G01X21587617Y-7909201D01*
G01X21669659Y-7749181D02*
G01X21652641Y-7755023D01*
G01X21641211Y-7772041D01*
G01X21635369Y-7800743D01*
G01X21635369Y-7817761D01*
G01X21641211Y-7846463D01*
G01X21652641Y-7863481D01*
G01X21669659Y-7869323D01*
G01X21681089Y-7869323D01*
G01X21698361Y-7863481D01*
G01X21709791Y-7846463D01*
G01X21715379Y-7817761D01*
G01X21715379Y-7800743D01*
G01X21709791Y-7772041D01*
G01X21698361Y-7755023D01*
G01X21681089Y-7749181D01*
G01X21669659Y-7749181D01*
G01X21768973Y-7840621D02*
G01X21763131Y-7846463D01*
G01X21768973Y-7852051D01*
G01X21774561Y-7846463D01*
G01X21768973Y-7840621D01*
G01X21896735Y-7789313D02*
G01X21890893Y-7806331D01*
G01X21879463Y-7817761D01*
G01X21862445Y-7823603D01*
G01X21856603Y-7823603D01*
G01X21839585Y-7817761D01*
G01X21828155Y-7806331D01*
G01X21822313Y-7789313D01*
G01X21822313Y-7783471D01*
G01X21828155Y-7766453D01*
G01X21839585Y-7755023D01*
G01X21856603Y-7749181D01*
G01X21862445Y-7749181D01*
G01X21879463Y-7755023D01*
G01X21890893Y-7766453D01*
G01X21896735Y-7789313D01*
G01X21896735Y-7817761D01*
G01X21890893Y-7846463D01*
G01X21879463Y-7863481D01*
G01X21862445Y-7869323D01*
G01X21851015Y-7869323D01*
G01X21833743Y-7863481D01*
G01X21828155Y-7852051D01*
G01X21944487Y-7772041D02*
G01X21955917Y-7766453D01*
G01X21973189Y-7749181D01*
G01X21973189Y-7869323D01*
G01X22078091Y-7749181D02*
G01X22020941Y-7829191D01*
G01X22106793Y-7829191D01*
G01X22078091Y-7749181D02*
G01X22078091Y-7869323D01*
G01X22154545Y-7789313D02*
G01X22217537Y-7869323D01*
G01X22217537Y-7789313D02*
G01X22154545Y-7869323D01*
G01X22299579Y-7749181D02*
G01X22282561Y-7755023D01*
G01X22271131Y-7772041D01*
G01X22265289Y-7800743D01*
G01X22265289Y-7817761D01*
G01X22271131Y-7846463D01*
G01X22282561Y-7863481D01*
G01X22299579Y-7869323D01*
G01X22311009Y-7869323D01*
G01X22328281Y-7863481D01*
G01X22339711Y-7846463D01*
G01X22345299Y-7817761D01*
G01X22345299Y-7800743D01*
G01X22339711Y-7772041D01*
G01X22328281Y-7755023D01*
G01X22311009Y-7749181D01*
G01X22299579Y-7749181D01*
G01X22398893Y-7840621D02*
G01X22393051Y-7846463D01*
G01X22398893Y-7852051D01*
G01X22404481Y-7846463D01*
G01X22398893Y-7840621D01*
G01X22526655Y-7789313D02*
G01X22520813Y-7806331D01*
G01X22509383Y-7817761D01*
G01X22492365Y-7823603D01*
G01X22486523Y-7823603D01*
G01X22469505Y-7817761D01*
G01X22458075Y-7806331D01*
G01X22452233Y-7789313D01*
G01X22452233Y-7783471D01*
G01X22458075Y-7766453D01*
G01X22469505Y-7755023D01*
G01X22486523Y-7749181D01*
G01X22492365Y-7749181D01*
G01X22509383Y-7755023D01*
G01X22520813Y-7766453D01*
G01X22526655Y-7789313D01*
G01X22526655Y-7817761D01*
G01X22520813Y-7846463D01*
G01X22509383Y-7863481D01*
G01X22492365Y-7869323D01*
G01X22480935Y-7869323D01*
G01X22463663Y-7863481D01*
G01X22458075Y-7852051D01*
G01X22574407Y-7772041D02*
G01X22585837Y-7766453D01*
G01X22603109Y-7749181D01*
G01X22603109Y-7869323D01*
G01X22708011Y-7749181D02*
G01X22650861Y-7829191D01*
G01X22736713Y-7829191D01*
G01X22708011Y-7749181D02*
G01X22708011Y-7869323D01*
G01X22784465Y-7789313D02*
G01X22784465Y-7869323D01*
G01X22784465Y-7812173D02*
G01X22801737Y-7794901D01*
G01X22813167Y-7789313D01*
G01X22830185Y-7789313D01*
G01X22841615Y-7794901D01*
G01X22847457Y-7812173D01*
G01X22847457Y-7869323D01*
G01X22847457Y-7812173D02*
G01X22864475Y-7794901D01*
G01X22875905Y-7789313D01*
G01X22893177Y-7789313D01*
G01X22904607Y-7794901D01*
G01X22910195Y-7812173D01*
G01X22910195Y-7869323D01*
G01X22957947Y-7789313D02*
G01X22957947Y-7869323D01*
G01X22957947Y-7812173D02*
G01X22975219Y-7794901D01*
G01X22986649Y-7789313D01*
G01X23003667Y-7789313D01*
G01X23015097Y-7794901D01*
G01X23020939Y-7812173D01*
G01X23020939Y-7869323D01*
G01X23020939Y-7812173D02*
G01X23037957Y-7794901D01*
G01X23049387Y-7789313D01*
G01X23066659Y-7789313D01*
G01X23078089Y-7794901D01*
G01X23083677Y-7812173D01*
G01X23083677Y-7869323D01*
G01X23131429Y-7726321D02*
G01X23142859Y-7737751D01*
G01X23154289Y-7755023D01*
G01X23165719Y-7777883D01*
G01X23171561Y-7806331D01*
G01X23171561Y-7829191D01*
G01X23165719Y-7857893D01*
G01X23154289Y-7880753D01*
G01X23142859Y-7897771D01*
G01X23131429Y-7909201D01*
G01X24164846Y-7749181D02*
G01X24164846Y-7869323D01*
G01X24164846Y-7749181D02*
G01X24216408Y-7749181D01*
G01X24233426Y-7755023D01*
G01X24239268Y-7760611D01*
G01X24244856Y-7772041D01*
G01X24244856Y-7789313D01*
G01X24239268Y-7800743D01*
G01X24233426Y-7806331D01*
G01X24216408Y-7812173D01*
G01X24164846Y-7812173D01*
G01X24332740Y-7749181D02*
G01X24332740Y-7869323D01*
G01X24292608Y-7749181D02*
G01X24372618Y-7749181D01*
G01X24420370Y-7749181D02*
G01X24420370Y-7869323D01*
G01X24500380Y-7749181D02*
G01X24500380Y-7869323D01*
G01X24420370Y-7806331D02*
G01X24500380Y-7806331D01*
G01X25626253Y-7749181D02*
G01X25626253Y-7869323D01*
G01X25626253Y-7749181D02*
G01X25677815Y-7749181D01*
G01X25694833Y-7755023D01*
G01X25700675Y-7760611D01*
G01X25706263Y-7772041D01*
G01X25706263Y-7783471D01*
G01X25700675Y-7794901D01*
G01X25694833Y-7800743D01*
G01X25677815Y-7806331D01*
G01X25626253Y-7806331D01*
G01X25666385Y-7806331D02*
G01X25706263Y-7869323D01*
G01X25782717Y-7789313D02*
G01X25771287Y-7794901D01*
G01X25759857Y-7806331D01*
G01X25754015Y-7823603D01*
G01X25754015Y-7835033D01*
G01X25759857Y-7852051D01*
G01X25771287Y-7863481D01*
G01X25782717Y-7869323D01*
G01X25799735Y-7869323D01*
G01X25811165Y-7863481D01*
G01X25822595Y-7852051D01*
G01X25828437Y-7835033D01*
G01X25828437Y-7823603D01*
G01X25822595Y-7806331D01*
G01X25811165Y-7794901D01*
G01X25799735Y-7789313D01*
G01X25782717Y-7789313D01*
G01X25876189Y-7789313D02*
G01X25876189Y-7846463D01*
G01X25882031Y-7863481D01*
G01X25893461Y-7869323D01*
G01X25910479Y-7869323D01*
G01X25921909Y-7863481D01*
G01X25939181Y-7846463D01*
G01X25939181Y-7789313D02*
G01X25939181Y-7869323D01*
G01X25986933Y-7789313D02*
G01X25986933Y-7869323D01*
G01X25986933Y-7812173D02*
G01X26004205Y-7794901D01*
G01X26015635Y-7789313D01*
G01X26032653Y-7789313D01*
G01X26044083Y-7794901D01*
G01X26049925Y-7812173D01*
G01X26049925Y-7869323D01*
G01X26166257Y-7749181D02*
G01X26166257Y-7869323D01*
G01X26166257Y-7806331D02*
G01X26154827Y-7794901D01*
G01X26143397Y-7789313D01*
G01X26126379Y-7789313D01*
G01X26114949Y-7794901D01*
G01X26103519Y-7806331D01*
G01X26097677Y-7823603D01*
G01X26097677Y-7835033D01*
G01X26103519Y-7852051D01*
G01X26114949Y-7863481D01*
G01X26126379Y-7869323D01*
G01X26143397Y-7869323D01*
G01X26154827Y-7863481D01*
G01X26166257Y-7852051D01*
G01X27057434Y-7749181D02*
G01X27057434Y-7869323D01*
G01X27057434Y-7749181D02*
G01X27108996Y-7749181D01*
G01X27126014Y-7755023D01*
G01X27131856Y-7760611D01*
G01X27137444Y-7772041D01*
G01X27137444Y-7789313D01*
G01X27131856Y-7800743D01*
G01X27126014Y-7806331D01*
G01X27108996Y-7812173D01*
G01X27057434Y-7812173D01*
G01X27253776Y-7789313D02*
G01X27253776Y-7869323D01*
G01X27253776Y-7806331D02*
G01X27242346Y-7794901D01*
G01X27230916Y-7789313D01*
G01X27213898Y-7789313D01*
G01X27202468Y-7794901D01*
G01X27191038Y-7806331D01*
G01X27185196Y-7823603D01*
G01X27185196Y-7835033D01*
G01X27191038Y-7852051D01*
G01X27202468Y-7863481D01*
G01X27213898Y-7869323D01*
G01X27230916Y-7869323D01*
G01X27242346Y-7863481D01*
G01X27253776Y-7852051D01*
G01X27370108Y-7749181D02*
G01X27370108Y-7869323D01*
G01X27370108Y-7806331D02*
G01X27358678Y-7794901D01*
G01X27347248Y-7789313D01*
G01X27330230Y-7789313D01*
G01X27318800Y-7794901D01*
G01X27307370Y-7806331D01*
G01X27301528Y-7823603D01*
G01X27301528Y-7835033D01*
G01X27307370Y-7852051D01*
G01X27318800Y-7863481D01*
G01X27330230Y-7869323D01*
G01X27347248Y-7869323D01*
G01X27358678Y-7863481D01*
G01X27370108Y-7852051D01*
G01X28726614Y-7749181D02*
G01X28726614Y-7869323D01*
G01X28726614Y-7749181D02*
G01X28778176Y-7749181D01*
G01X28795194Y-7755023D01*
G01X28801036Y-7760611D01*
G01X28806624Y-7772041D01*
G01X28806624Y-7783471D01*
G01X28801036Y-7794901D01*
G01X28795194Y-7800743D01*
G01X28778176Y-7806331D01*
G01X28726614Y-7806331D01*
G01X28766746Y-7806331D02*
G01X28806624Y-7869323D01*
G01X28883078Y-7789313D02*
G01X28871648Y-7794901D01*
G01X28860218Y-7806331D01*
G01X28854376Y-7823603D01*
G01X28854376Y-7835033D01*
G01X28860218Y-7852051D01*
G01X28871648Y-7863481D01*
G01X28883078Y-7869323D01*
G01X28900096Y-7869323D01*
G01X28911526Y-7863481D01*
G01X28922956Y-7852051D01*
G01X28928798Y-7835033D01*
G01X28928798Y-7823603D01*
G01X28922956Y-7806331D01*
G01X28911526Y-7794901D01*
G01X28900096Y-7789313D01*
G01X28883078Y-7789313D01*
G01X28976550Y-7789313D02*
G01X28976550Y-7846463D01*
G01X28982392Y-7863481D01*
G01X28993822Y-7869323D01*
G01X29010840Y-7869323D01*
G01X29022270Y-7863481D01*
G01X29039542Y-7846463D01*
G01X29039542Y-7789313D02*
G01X29039542Y-7869323D01*
G01X29087294Y-7789313D02*
G01X29087294Y-7869323D01*
G01X29087294Y-7812173D02*
G01X29104566Y-7794901D01*
G01X29115996Y-7789313D01*
G01X29133014Y-7789313D01*
G01X29144444Y-7794901D01*
G01X29150286Y-7812173D01*
G01X29150286Y-7869323D01*
G01X29266618Y-7749181D02*
G01X29266618Y-7869323D01*
G01X29266618Y-7806331D02*
G01X29255188Y-7794901D01*
G01X29243758Y-7789313D01*
G01X29226740Y-7789313D01*
G01X29215310Y-7794901D01*
G01X29203880Y-7806331D01*
G01X29198038Y-7823603D01*
G01X29198038Y-7835033D01*
G01X29203880Y-7852051D01*
G01X29215310Y-7863481D01*
G01X29226740Y-7869323D01*
G01X29243758Y-7869323D01*
G01X29255188Y-7863481D01*
G01X29266618Y-7852051D01*
G01X30686115Y-7749181D02*
G01X30686115Y-7869323D01*
G01X30645983Y-7749181D02*
G01X30725993Y-7749181D01*
G01X30802447Y-7789313D02*
G01X30791017Y-7794901D01*
G01X30779587Y-7806331D01*
G01X30773745Y-7823603D01*
G01X30773745Y-7835033D01*
G01X30779587Y-7852051D01*
G01X30791017Y-7863481D01*
G01X30802447Y-7869323D01*
G01X30819465Y-7869323D01*
G01X30830895Y-7863481D01*
G01X30842325Y-7852051D01*
G01X30848167Y-7835033D01*
G01X30848167Y-7823603D01*
G01X30842325Y-7806331D01*
G01X30830895Y-7794901D01*
G01X30819465Y-7789313D01*
G01X30802447Y-7789313D01*
G01X30895919Y-7789313D02*
G01X30895919Y-7909201D01*
G01X30895919Y-7806331D02*
G01X30907349Y-7794901D01*
G01X30918779Y-7789313D01*
G01X30936051Y-7789313D01*
G01X30947481Y-7794901D01*
G01X30958911Y-7806331D01*
G01X30964499Y-7823603D01*
G01X30964499Y-7835033D01*
G01X30958911Y-7852051D01*
G01X30947481Y-7863481D01*
G01X30936051Y-7869323D01*
G01X30918779Y-7869323D01*
G01X30907349Y-7863481D01*
G01X30895919Y-7852051D01*
G01X31140267Y-7749181D02*
G01X31140267Y-7869323D01*
G01X31140267Y-7869323D02*
G01X31208847Y-7869323D01*
G01X31325179Y-7789313D02*
G01X31325179Y-7869323D01*
G01X31325179Y-7806331D02*
G01X31313749Y-7794901D01*
G01X31302319Y-7789313D01*
G01X31285301Y-7789313D01*
G01X31273871Y-7794901D01*
G01X31262441Y-7806331D01*
G01X31256599Y-7823603D01*
G01X31256599Y-7835033D01*
G01X31262441Y-7852051D01*
G01X31273871Y-7863481D01*
G01X31285301Y-7869323D01*
G01X31302319Y-7869323D01*
G01X31313749Y-7863481D01*
G01X31325179Y-7852051D01*
G01X31378773Y-7789313D02*
G01X31413063Y-7869323D01*
G01X31447353Y-7789313D02*
G01X31413063Y-7869323D01*
G01X31401633Y-7892183D01*
G01X31390203Y-7903613D01*
G01X31378773Y-7909201D01*
G01X31372931Y-7909201D01*
G01X31495105Y-7823603D02*
G01X31563685Y-7823603D01*
G01X31563685Y-7812173D01*
G01X31558097Y-7800743D01*
G01X31552255Y-7794901D01*
G01X31540825Y-7789313D01*
G01X31523807Y-7789313D01*
G01X31512377Y-7794901D01*
G01X31500947Y-7806331D01*
G01X31495105Y-7823603D01*
G01X31495105Y-7835033D01*
G01X31500947Y-7852051D01*
G01X31512377Y-7863481D01*
G01X31523807Y-7869323D01*
G01X31540825Y-7869323D01*
G01X31552255Y-7863481D01*
G01X31563685Y-7852051D01*
G01X31611437Y-7789313D02*
G01X31611437Y-7869323D01*
G01X31611437Y-7823603D02*
G01X31617279Y-7806331D01*
G01X31628709Y-7794901D01*
G01X31640139Y-7789313D01*
G01X31657157Y-7789313D01*
G01X31704909Y-7817761D02*
G01X31807779Y-7817761D01*
G01X31855531Y-7749181D02*
G01X31855531Y-7869323D01*
G01X31855531Y-7749181D02*
G01X31907093Y-7749181D01*
G01X31924111Y-7755023D01*
G01X31929953Y-7760611D01*
G01X31935541Y-7772041D01*
G01X31935541Y-7783471D01*
G01X31929953Y-7794901D01*
G01X31924111Y-7800743D01*
G01X31907093Y-7806331D01*
G01X31855531Y-7806331D02*
G01X31907093Y-7806331D01*
G01X31924111Y-7812173D01*
G01X31929953Y-7817761D01*
G01X31935541Y-7829191D01*
G01X31935541Y-7846463D01*
G01X31929953Y-7857893D01*
G01X31924111Y-7863481D01*
G01X31907093Y-7869323D01*
G01X31855531Y-7869323D01*
G01X32011995Y-7789313D02*
G01X32000565Y-7794901D01*
G01X31989135Y-7806331D01*
G01X31983293Y-7823603D01*
G01X31983293Y-7835033D01*
G01X31989135Y-7852051D01*
G01X32000565Y-7863481D01*
G01X32011995Y-7869323D01*
G01X32029013Y-7869323D01*
G01X32040443Y-7863481D01*
G01X32051873Y-7852051D01*
G01X32057715Y-7835033D01*
G01X32057715Y-7823603D01*
G01X32051873Y-7806331D01*
G01X32040443Y-7794901D01*
G01X32029013Y-7789313D01*
G01X32011995Y-7789313D01*
G01X32122739Y-7749181D02*
G01X32122739Y-7846463D01*
G01X32128327Y-7863481D01*
G01X32139757Y-7869323D01*
G01X32151187Y-7869323D01*
G01X32105467Y-7789313D02*
G01X32145599Y-7789313D01*
G01X32216211Y-7749181D02*
G01X32216211Y-7846463D01*
G01X32221799Y-7863481D01*
G01X32233229Y-7869323D01*
G01X32244659Y-7869323D01*
G01X32198939Y-7789313D02*
G01X32239071Y-7789313D01*
G01X32321113Y-7789313D02*
G01X32309683Y-7794901D01*
G01X32298253Y-7806331D01*
G01X32292411Y-7823603D01*
G01X32292411Y-7835033D01*
G01X32298253Y-7852051D01*
G01X32309683Y-7863481D01*
G01X32321113Y-7869323D01*
G01X32338131Y-7869323D01*
G01X32349561Y-7863481D01*
G01X32360991Y-7852051D01*
G01X32366833Y-7835033D01*
G01X32366833Y-7823603D01*
G01X32360991Y-7806331D01*
G01X32349561Y-7794901D01*
G01X32338131Y-7789313D01*
G01X32321113Y-7789313D01*
G01X32414585Y-7789313D02*
G01X32414585Y-7869323D01*
G01X32414585Y-7812173D02*
G01X32431857Y-7794901D01*
G01X32443287Y-7789313D01*
G01X32460305Y-7789313D01*
G01X32471735Y-7794901D01*
G01X32477577Y-7812173D01*
G01X32477577Y-7869323D01*
G01X32477577Y-7812173D02*
G01X32494595Y-7794901D01*
G01X32506025Y-7789313D01*
G01X32523297Y-7789313D01*
G01X32534727Y-7794901D01*
G01X32540315Y-7812173D01*
G01X32540315Y-7869323D01*
G01X32716083Y-7749181D02*
G01X32716083Y-7869323D01*
G01X32716083Y-7869323D02*
G01X32784663Y-7869323D01*
G01X32900995Y-7789313D02*
G01X32900995Y-7869323D01*
G01X32900995Y-7806331D02*
G01X32889565Y-7794901D01*
G01X32878135Y-7789313D01*
G01X32861117Y-7789313D01*
G01X32849687Y-7794901D01*
G01X32838257Y-7806331D01*
G01X32832415Y-7823603D01*
G01X32832415Y-7835033D01*
G01X32838257Y-7852051D01*
G01X32849687Y-7863481D01*
G01X32861117Y-7869323D01*
G01X32878135Y-7869323D01*
G01X32889565Y-7863481D01*
G01X32900995Y-7852051D01*
G01X32954589Y-7789313D02*
G01X32988879Y-7869323D01*
G01X33023169Y-7789313D02*
G01X32988879Y-7869323D01*
G01X32977449Y-7892183D01*
G01X32966019Y-7903613D01*
G01X32954589Y-7909201D01*
G01X32948747Y-7909201D01*
G01X33070921Y-7823603D02*
G01X33139501Y-7823603D01*
G01X33139501Y-7812173D01*
G01X33133913Y-7800743D01*
G01X33128071Y-7794901D01*
G01X33116641Y-7789313D01*
G01X33099623Y-7789313D01*
G01X33088193Y-7794901D01*
G01X33076763Y-7806331D01*
G01X33070921Y-7823603D01*
G01X33070921Y-7835033D01*
G01X33076763Y-7852051D01*
G01X33088193Y-7863481D01*
G01X33099623Y-7869323D01*
G01X33116641Y-7869323D01*
G01X33128071Y-7863481D01*
G01X33139501Y-7852051D01*
G01X33187253Y-7789313D02*
G01X33187253Y-7869323D01*
G01X33187253Y-7823603D02*
G01X33193095Y-7806331D01*
G01X33204525Y-7794901D01*
G01X33215955Y-7789313D01*
G01X33232973Y-7789313D01*
G01X18868402Y-8352613D02*
G01X18879832Y-8347025D01*
G01X18897104Y-8329753D01*
G01X18897104Y-8449895D01*
G01X19024866Y-8329753D02*
G01X18967716Y-8449895D01*
G01X18944856Y-8329753D02*
G01X19024866Y-8329753D01*
G01X19078460Y-8358455D02*
G01X19078460Y-8352613D01*
G01X19084048Y-8341183D01*
G01X19089890Y-8335595D01*
G01X19101320Y-8329753D01*
G01X19124180Y-8329753D01*
G01X19135610Y-8335595D01*
G01X19141198Y-8341183D01*
G01X19147040Y-8352613D01*
G01X19147040Y-8364043D01*
G01X19141198Y-8375473D01*
G01X19129768Y-8392745D01*
G01X19072618Y-8449895D01*
G01X19152628Y-8449895D01*
G01X20282565Y-8352613D02*
G01X20293995Y-8347025D01*
G01X20311267Y-8329753D01*
G01X20311267Y-8449895D01*
G01X20364861Y-8358455D02*
G01X20364861Y-8352613D01*
G01X20370449Y-8341183D01*
G01X20376291Y-8335595D01*
G01X20387721Y-8329753D01*
G01X20410581Y-8329753D01*
G01X20422011Y-8335595D01*
G01X20427599Y-8341183D01*
G01X20433441Y-8352613D01*
G01X20433441Y-8364043D01*
G01X20427599Y-8375473D01*
G01X20416169Y-8392745D01*
G01X20359019Y-8449895D01*
G01X20439029Y-8449895D01*
G01X20492623Y-8421193D02*
G01X20486781Y-8427035D01*
G01X20492623Y-8432623D01*
G01X20498211Y-8427035D01*
G01X20492623Y-8421193D01*
G01X20580253Y-8329753D02*
G01X20563235Y-8335595D01*
G01X20551805Y-8352613D01*
G01X20545963Y-8381315D01*
G01X20545963Y-8398333D01*
G01X20551805Y-8427035D01*
G01X20563235Y-8444053D01*
G01X20580253Y-8449895D01*
G01X20591683Y-8449895D01*
G01X20608955Y-8444053D01*
G01X20620385Y-8427035D01*
G01X20625973Y-8398333D01*
G01X20625973Y-8381315D01*
G01X20620385Y-8352613D01*
G01X20608955Y-8335595D01*
G01X20591683Y-8329753D01*
G01X20580253Y-8329753D01*
G01X20673725Y-8369885D02*
G01X20673725Y-8449895D01*
G01X20673725Y-8392745D02*
G01X20690997Y-8375473D01*
G01X20702427Y-8369885D01*
G01X20719445Y-8369885D01*
G01X20730875Y-8375473D01*
G01X20736717Y-8392745D01*
G01X20736717Y-8449895D01*
G01X20736717Y-8392745D02*
G01X20753735Y-8375473D01*
G01X20765165Y-8369885D01*
G01X20782437Y-8369885D01*
G01X20793867Y-8375473D01*
G01X20799455Y-8392745D01*
G01X20799455Y-8449895D01*
G01X20847207Y-8329753D02*
G01X20853049Y-8335595D01*
G01X20858637Y-8329753D01*
G01X20853049Y-8324165D01*
G01X20847207Y-8329753D01*
G01X20853049Y-8369885D02*
G01X20853049Y-8449895D01*
G01X20906389Y-8329753D02*
G01X20906389Y-8449895D01*
G01X20994273Y-8306893D02*
G01X20982843Y-8318323D01*
G01X20971413Y-8335595D01*
G01X20959983Y-8358455D01*
G01X20954141Y-8386903D01*
G01X20954141Y-8409763D01*
G01X20959983Y-8438465D01*
G01X20971413Y-8461325D01*
G01X20982843Y-8478343D01*
G01X20994273Y-8489773D01*
G01X21076315Y-8329753D02*
G01X21059297Y-8335595D01*
G01X21047867Y-8352613D01*
G01X21042025Y-8381315D01*
G01X21042025Y-8398333D01*
G01X21047867Y-8427035D01*
G01X21059297Y-8444053D01*
G01X21076315Y-8449895D01*
G01X21087745Y-8449895D01*
G01X21105017Y-8444053D01*
G01X21116447Y-8427035D01*
G01X21122035Y-8398333D01*
G01X21122035Y-8381315D01*
G01X21116447Y-8352613D01*
G01X21105017Y-8335595D01*
G01X21087745Y-8329753D01*
G01X21076315Y-8329753D01*
G01X21175629Y-8421193D02*
G01X21169787Y-8427035D01*
G01X21175629Y-8432623D01*
G01X21181217Y-8427035D01*
G01X21175629Y-8421193D01*
G01X21240399Y-8329753D02*
G01X21303391Y-8329753D01*
G01X21269101Y-8375473D01*
G01X21286119Y-8375473D01*
G01X21297549Y-8381315D01*
G01X21303391Y-8386903D01*
G01X21308979Y-8404175D01*
G01X21308979Y-8415605D01*
G01X21303391Y-8432623D01*
G01X21291961Y-8444053D01*
G01X21274689Y-8449895D01*
G01X21257671Y-8449895D01*
G01X21240399Y-8444053D01*
G01X21234811Y-8438465D01*
G01X21228969Y-8427035D01*
G01X21391021Y-8329753D02*
G01X21374003Y-8335595D01*
G01X21362573Y-8352613D01*
G01X21356731Y-8381315D01*
G01X21356731Y-8398333D01*
G01X21362573Y-8427035D01*
G01X21374003Y-8444053D01*
G01X21391021Y-8449895D01*
G01X21402451Y-8449895D01*
G01X21419723Y-8444053D01*
G01X21431153Y-8427035D01*
G01X21436741Y-8398333D01*
G01X21436741Y-8381315D01*
G01X21431153Y-8352613D01*
G01X21419723Y-8335595D01*
G01X21402451Y-8329753D01*
G01X21391021Y-8329753D01*
G01X21553073Y-8329753D02*
G01X21495923Y-8329753D01*
G01X21490335Y-8381315D01*
G01X21495923Y-8375473D01*
G01X21513195Y-8369885D01*
G01X21530213Y-8369885D01*
G01X21547485Y-8375473D01*
G01X21558915Y-8386903D01*
G01X21564503Y-8404175D01*
G01X21564503Y-8415605D01*
G01X21558915Y-8432623D01*
G01X21547485Y-8444053D01*
G01X21530213Y-8449895D01*
G01X21513195Y-8449895D01*
G01X21495923Y-8444053D01*
G01X21490335Y-8438465D01*
G01X21484493Y-8427035D01*
G01X21612255Y-8369885D02*
G01X21612255Y-8449895D01*
G01X21612255Y-8392745D02*
G01X21629527Y-8375473D01*
G01X21640957Y-8369885D01*
G01X21657975Y-8369885D01*
G01X21669405Y-8375473D01*
G01X21675247Y-8392745D01*
G01X21675247Y-8449895D01*
G01X21675247Y-8392745D02*
G01X21692265Y-8375473D01*
G01X21703695Y-8369885D01*
G01X21720967Y-8369885D01*
G01X21732397Y-8375473D01*
G01X21737985Y-8392745D01*
G01X21737985Y-8449895D01*
G01X21785737Y-8369885D02*
G01X21785737Y-8449895D01*
G01X21785737Y-8392745D02*
G01X21803009Y-8375473D01*
G01X21814439Y-8369885D01*
G01X21831457Y-8369885D01*
G01X21842887Y-8375473D01*
G01X21848729Y-8392745D01*
G01X21848729Y-8449895D01*
G01X21848729Y-8392745D02*
G01X21865747Y-8375473D01*
G01X21877177Y-8369885D01*
G01X21894449Y-8369885D01*
G01X21905879Y-8375473D01*
G01X21911467Y-8392745D01*
G01X21911467Y-8449895D01*
G01X21959219Y-8306893D02*
G01X21970649Y-8318323D01*
G01X21982079Y-8335595D01*
G01X21993509Y-8358455D01*
G01X21999351Y-8386903D01*
G01X21999351Y-8409763D01*
G01X21993509Y-8438465D01*
G01X21982079Y-8461325D01*
G01X21970649Y-8478343D01*
G01X21959219Y-8489773D01*
G01X24164846Y-8329753D02*
G01X24164846Y-8449895D01*
G01X24164846Y-8329753D02*
G01X24216408Y-8329753D01*
G01X24233426Y-8335595D01*
G01X24239268Y-8341183D01*
G01X24244856Y-8352613D01*
G01X24244856Y-8369885D01*
G01X24239268Y-8381315D01*
G01X24233426Y-8386903D01*
G01X24216408Y-8392745D01*
G01X24164846Y-8392745D01*
G01X24332740Y-8329753D02*
G01X24332740Y-8449895D01*
G01X24292608Y-8329753D02*
G01X24372618Y-8329753D01*
G01X24420370Y-8329753D02*
G01X24420370Y-8449895D01*
G01X24500380Y-8329753D02*
G01X24500380Y-8449895D01*
G01X24420370Y-8386903D02*
G01X24500380Y-8386903D01*
G01X25626253Y-8329753D02*
G01X25626253Y-8449895D01*
G01X25626253Y-8329753D02*
G01X25677815Y-8329753D01*
G01X25694833Y-8335595D01*
G01X25700675Y-8341183D01*
G01X25706263Y-8352613D01*
G01X25706263Y-8364043D01*
G01X25700675Y-8375473D01*
G01X25694833Y-8381315D01*
G01X25677815Y-8386903D01*
G01X25626253Y-8386903D01*
G01X25666385Y-8386903D02*
G01X25706263Y-8449895D01*
G01X25782717Y-8369885D02*
G01X25771287Y-8375473D01*
G01X25759857Y-8386903D01*
G01X25754015Y-8404175D01*
G01X25754015Y-8415605D01*
G01X25759857Y-8432623D01*
G01X25771287Y-8444053D01*
G01X25782717Y-8449895D01*
G01X25799735Y-8449895D01*
G01X25811165Y-8444053D01*
G01X25822595Y-8432623D01*
G01X25828437Y-8415605D01*
G01X25828437Y-8404175D01*
G01X25822595Y-8386903D01*
G01X25811165Y-8375473D01*
G01X25799735Y-8369885D01*
G01X25782717Y-8369885D01*
G01X25876189Y-8369885D02*
G01X25876189Y-8427035D01*
G01X25882031Y-8444053D01*
G01X25893461Y-8449895D01*
G01X25910479Y-8449895D01*
G01X25921909Y-8444053D01*
G01X25939181Y-8427035D01*
G01X25939181Y-8369885D02*
G01X25939181Y-8449895D01*
G01X25986933Y-8369885D02*
G01X25986933Y-8449895D01*
G01X25986933Y-8392745D02*
G01X26004205Y-8375473D01*
G01X26015635Y-8369885D01*
G01X26032653Y-8369885D01*
G01X26044083Y-8375473D01*
G01X26049925Y-8392745D01*
G01X26049925Y-8449895D01*
G01X26166257Y-8329753D02*
G01X26166257Y-8449895D01*
G01X26166257Y-8386903D02*
G01X26154827Y-8375473D01*
G01X26143397Y-8369885D01*
G01X26126379Y-8369885D01*
G01X26114949Y-8375473D01*
G01X26103519Y-8386903D01*
G01X26097677Y-8404175D01*
G01X26097677Y-8415605D01*
G01X26103519Y-8432623D01*
G01X26114949Y-8444053D01*
G01X26126379Y-8449895D01*
G01X26143397Y-8449895D01*
G01X26154827Y-8444053D01*
G01X26166257Y-8432623D01*
G01X27057434Y-8329753D02*
G01X27103154Y-8449895D01*
G01X27148874Y-8329753D02*
G01X27103154Y-8449895D01*
G01X27196626Y-8329753D02*
G01X27202468Y-8335595D01*
G01X27208056Y-8329753D01*
G01X27202468Y-8324165D01*
G01X27196626Y-8329753D01*
G01X27202468Y-8369885D02*
G01X27202468Y-8449895D01*
G01X27324388Y-8369885D02*
G01X27324388Y-8449895D01*
G01X27324388Y-8386903D02*
G01X27312958Y-8375473D01*
G01X27301528Y-8369885D01*
G01X27284510Y-8369885D01*
G01X27273080Y-8375473D01*
G01X27261650Y-8386903D01*
G01X27255808Y-8404175D01*
G01X27255808Y-8415605D01*
G01X27261650Y-8432623D01*
G01X27273080Y-8444053D01*
G01X27284510Y-8449895D01*
G01X27301528Y-8449895D01*
G01X27312958Y-8444053D01*
G01X27324388Y-8432623D01*
G01X30686115Y-8329753D02*
G01X30686115Y-8449895D01*
G01X30645983Y-8329753D02*
G01X30725993Y-8329753D01*
G01X30802447Y-8369885D02*
G01X30791017Y-8375473D01*
G01X30779587Y-8386903D01*
G01X30773745Y-8404175D01*
G01X30773745Y-8415605D01*
G01X30779587Y-8432623D01*
G01X30791017Y-8444053D01*
G01X30802447Y-8449895D01*
G01X30819465Y-8449895D01*
G01X30830895Y-8444053D01*
G01X30842325Y-8432623D01*
G01X30848167Y-8415605D01*
G01X30848167Y-8404175D01*
G01X30842325Y-8386903D01*
G01X30830895Y-8375473D01*
G01X30819465Y-8369885D01*
G01X30802447Y-8369885D01*
G01X30895919Y-8369885D02*
G01X30895919Y-8489773D01*
G01X30895919Y-8386903D02*
G01X30907349Y-8375473D01*
G01X30918779Y-8369885D01*
G01X30936051Y-8369885D01*
G01X30947481Y-8375473D01*
G01X30958911Y-8386903D01*
G01X30964499Y-8404175D01*
G01X30964499Y-8415605D01*
G01X30958911Y-8432623D01*
G01X30947481Y-8444053D01*
G01X30936051Y-8449895D01*
G01X30918779Y-8449895D01*
G01X30907349Y-8444053D01*
G01X30895919Y-8432623D01*
G01X31140267Y-8329753D02*
G01X31140267Y-8449895D01*
G01X31140267Y-8449895D02*
G01X31208847Y-8449895D01*
G01X31325179Y-8369885D02*
G01X31325179Y-8449895D01*
G01X31325179Y-8386903D02*
G01X31313749Y-8375473D01*
G01X31302319Y-8369885D01*
G01X31285301Y-8369885D01*
G01X31273871Y-8375473D01*
G01X31262441Y-8386903D01*
G01X31256599Y-8404175D01*
G01X31256599Y-8415605D01*
G01X31262441Y-8432623D01*
G01X31273871Y-8444053D01*
G01X31285301Y-8449895D01*
G01X31302319Y-8449895D01*
G01X31313749Y-8444053D01*
G01X31325179Y-8432623D01*
G01X31378773Y-8369885D02*
G01X31413063Y-8449895D01*
G01X31447353Y-8369885D02*
G01X31413063Y-8449895D01*
G01X31401633Y-8472755D01*
G01X31390203Y-8484185D01*
G01X31378773Y-8489773D01*
G01X31372931Y-8489773D01*
G01X31495105Y-8404175D02*
G01X31563685Y-8404175D01*
G01X31563685Y-8392745D01*
G01X31558097Y-8381315D01*
G01X31552255Y-8375473D01*
G01X31540825Y-8369885D01*
G01X31523807Y-8369885D01*
G01X31512377Y-8375473D01*
G01X31500947Y-8386903D01*
G01X31495105Y-8404175D01*
G01X31495105Y-8415605D01*
G01X31500947Y-8432623D01*
G01X31512377Y-8444053D01*
G01X31523807Y-8449895D01*
G01X31540825Y-8449895D01*
G01X31552255Y-8444053D01*
G01X31563685Y-8432623D01*
G01X31611437Y-8369885D02*
G01X31611437Y-8449895D01*
G01X31611437Y-8404175D02*
G01X31617279Y-8386903D01*
G01X31628709Y-8375473D01*
G01X31640139Y-8369885D01*
G01X31657157Y-8369885D01*
G01X31704909Y-8398333D02*
G01X31807779Y-8398333D01*
G01X31855531Y-8329753D02*
G01X31855531Y-8449895D01*
G01X31855531Y-8329753D02*
G01X31907093Y-8329753D01*
G01X31924111Y-8335595D01*
G01X31929953Y-8341183D01*
G01X31935541Y-8352613D01*
G01X31935541Y-8364043D01*
G01X31929953Y-8375473D01*
G01X31924111Y-8381315D01*
G01X31907093Y-8386903D01*
G01X31855531Y-8386903D02*
G01X31907093Y-8386903D01*
G01X31924111Y-8392745D01*
G01X31929953Y-8398333D01*
G01X31935541Y-8409763D01*
G01X31935541Y-8427035D01*
G01X31929953Y-8438465D01*
G01X31924111Y-8444053D01*
G01X31907093Y-8449895D01*
G01X31855531Y-8449895D01*
G01X32011995Y-8369885D02*
G01X32000565Y-8375473D01*
G01X31989135Y-8386903D01*
G01X31983293Y-8404175D01*
G01X31983293Y-8415605D01*
G01X31989135Y-8432623D01*
G01X32000565Y-8444053D01*
G01X32011995Y-8449895D01*
G01X32029013Y-8449895D01*
G01X32040443Y-8444053D01*
G01X32051873Y-8432623D01*
G01X32057715Y-8415605D01*
G01X32057715Y-8404175D01*
G01X32051873Y-8386903D01*
G01X32040443Y-8375473D01*
G01X32029013Y-8369885D01*
G01X32011995Y-8369885D01*
G01X32122739Y-8329753D02*
G01X32122739Y-8427035D01*
G01X32128327Y-8444053D01*
G01X32139757Y-8449895D01*
G01X32151187Y-8449895D01*
G01X32105467Y-8369885D02*
G01X32145599Y-8369885D01*
G01X32216211Y-8329753D02*
G01X32216211Y-8427035D01*
G01X32221799Y-8444053D01*
G01X32233229Y-8449895D01*
G01X32244659Y-8449895D01*
G01X32198939Y-8369885D02*
G01X32239071Y-8369885D01*
G01X32321113Y-8369885D02*
G01X32309683Y-8375473D01*
G01X32298253Y-8386903D01*
G01X32292411Y-8404175D01*
G01X32292411Y-8415605D01*
G01X32298253Y-8432623D01*
G01X32309683Y-8444053D01*
G01X32321113Y-8449895D01*
G01X32338131Y-8449895D01*
G01X32349561Y-8444053D01*
G01X32360991Y-8432623D01*
G01X32366833Y-8415605D01*
G01X32366833Y-8404175D01*
G01X32360991Y-8386903D01*
G01X32349561Y-8375473D01*
G01X32338131Y-8369885D01*
G01X32321113Y-8369885D01*
G01X32414585Y-8369885D02*
G01X32414585Y-8449895D01*
G01X32414585Y-8392745D02*
G01X32431857Y-8375473D01*
G01X32443287Y-8369885D01*
G01X32460305Y-8369885D01*
G01X32471735Y-8375473D01*
G01X32477577Y-8392745D01*
G01X32477577Y-8449895D01*
G01X32477577Y-8392745D02*
G01X32494595Y-8375473D01*
G01X32506025Y-8369885D01*
G01X32523297Y-8369885D01*
G01X32534727Y-8375473D01*
G01X32540315Y-8392745D01*
G01X32540315Y-8449895D01*
G01X32716083Y-8329753D02*
G01X32716083Y-8449895D01*
G01X32716083Y-8449895D02*
G01X32784663Y-8449895D01*
G01X32900995Y-8369885D02*
G01X32900995Y-8449895D01*
G01X32900995Y-8386903D02*
G01X32889565Y-8375473D01*
G01X32878135Y-8369885D01*
G01X32861117Y-8369885D01*
G01X32849687Y-8375473D01*
G01X32838257Y-8386903D01*
G01X32832415Y-8404175D01*
G01X32832415Y-8415605D01*
G01X32838257Y-8432623D01*
G01X32849687Y-8444053D01*
G01X32861117Y-8449895D01*
G01X32878135Y-8449895D01*
G01X32889565Y-8444053D01*
G01X32900995Y-8432623D01*
G01X32954589Y-8369885D02*
G01X32988879Y-8449895D01*
G01X33023169Y-8369885D02*
G01X32988879Y-8449895D01*
G01X32977449Y-8472755D01*
G01X32966019Y-8484185D01*
G01X32954589Y-8489773D01*
G01X32948747Y-8489773D01*
G01X33070921Y-8404175D02*
G01X33139501Y-8404175D01*
G01X33139501Y-8392745D01*
G01X33133913Y-8381315D01*
G01X33128071Y-8375473D01*
G01X33116641Y-8369885D01*
G01X33099623Y-8369885D01*
G01X33088193Y-8375473D01*
G01X33076763Y-8386903D01*
G01X33070921Y-8404175D01*
G01X33070921Y-8415605D01*
G01X33076763Y-8432623D01*
G01X33088193Y-8444053D01*
G01X33099623Y-8449895D01*
G01X33116641Y-8449895D01*
G01X33128071Y-8444053D01*
G01X33139501Y-8432623D01*
G01X33187253Y-8369885D02*
G01X33187253Y-8449895D01*
G01X33187253Y-8404175D02*
G01X33193095Y-8386903D01*
G01X33204525Y-8375473D01*
G01X33215955Y-8369885D01*
G01X33232973Y-8369885D01*

G04 Image Start*
G36*
G01X17571913Y-7672619D02*
G01X17737013Y-7837719D01*
G01X17571913Y-8002819D01*
G01X17406813Y-7837719D01*
G01X17442729Y-7837719D01*
G01X17571913Y-7966903D01*
G01X17701098Y-7837719D01*
G01X17571913Y-7708534D01*
G01X17571913Y-7708534D01*
G01X17442729Y-7837719D01*
G01X17406813Y-7837719D01*
G01X17571913Y-7672619D01*
G37*
G36*
G01X17703790Y-5607508D02*
G01X17598177Y-5596027D01*
G01X17555302Y-5693233D01*
G01X17512426Y-5596027D01*
G01X17406813Y-5607508D01*
G01X17469577Y-5521783D01*
G01X17429854Y-5467528D01*
G01X17461347Y-5467528D01*
G01X17501047Y-5521783D01*
G01X17461347Y-5576037D01*
G01X17528174Y-5568773D01*
G01X17528174Y-5568773D01*
G01X17555302Y-5630266D01*
G01X17582429Y-5568773D01*
G01X17649256Y-5576037D01*
G01X17609556Y-5521783D01*
G01X17649231Y-5467554D01*
G01X17582403Y-5474818D01*
G01X17555302Y-5413299D01*
G01X17528174Y-5474793D01*
G01X17461347Y-5467528D01*
G01X17429854Y-5467528D01*
G01X17406813Y-5436058D01*
G01X17512452Y-5447539D01*
G01X17555302Y-5350333D01*
G01X17598177Y-5447539D01*
G01X17703790Y-5436058D01*
G01X17641027Y-5521783D01*
G01X17703790Y-5607508D01*
G37*
G36*
G01X17574796Y-4493203D02*
G01X17567056Y-4493792D01*
G01X17559213Y-4493990D01*
G01X17551370Y-4493792D01*
G01X17543630Y-4493203D01*
G01X17536003Y-4492234D01*
G01X17528497Y-4490894D01*
G01X17513891Y-4487139D01*
G01X17499889Y-4482015D01*
G01X17486567Y-4475598D01*
G01X17474002Y-4467964D01*
G01X17462270Y-4459192D01*
G01X17451447Y-4449356D01*
G01X17441612Y-4438534D01*
G01X17432839Y-4426802D01*
G01X17425206Y-4414236D01*
G01X17418789Y-4400914D01*
G01X17413664Y-4386912D01*
G01X17409909Y-4372306D01*
G01X17408569Y-4364801D01*
G01X17407600Y-4357173D01*
G01X17407012Y-4349433D01*
G01X17406813Y-4341590D01*
G01X17432213Y-4341590D01*
G01X17432870Y-4354557D01*
G01X17434798Y-4367153D01*
G01X17437933Y-4379314D01*
G01X17442209Y-4390977D01*
G01X17447564Y-4402076D01*
G01X17453932Y-4412548D01*
G01X17461250Y-4422327D01*
G01X17469453Y-4431350D01*
G01X17478476Y-4439553D01*
G01X17488256Y-4446871D01*
G01X17498727Y-4453239D01*
G01X17509827Y-4458594D01*
G01X17521489Y-4462871D01*
G01X17533651Y-4466005D01*
G01X17533651Y-4466005D01*
G01X17546247Y-4467933D01*
G01X17559213Y-4468590D01*
G01X17572180Y-4467933D01*
G01X17584776Y-4466005D01*
G01X17596937Y-4462871D01*
G01X17608600Y-4458594D01*
G01X17619699Y-4453239D01*
G01X17630171Y-4446871D01*
G01X17639950Y-4439553D01*
G01X17648974Y-4431350D01*
G01X17657176Y-4422327D01*
G01X17664494Y-4412548D01*
G01X17670862Y-4402076D01*
G01X17676217Y-4390977D01*
G01X17680494Y-4379314D01*
G01X17683628Y-4367153D01*
G01X17685556Y-4354557D01*
G01X17686213Y-4341590D01*
G01X17685556Y-4328624D01*
G01X17683628Y-4316027D01*
G01X17680494Y-4303866D01*
G01X17676217Y-4292203D01*
G01X17670862Y-4281104D01*
G01X17664494Y-4270633D01*
G01X17657176Y-4260853D01*
G01X17648974Y-4251830D01*
G01X17639950Y-4243627D01*
G01X17630171Y-4236309D01*
G01X17619699Y-4229941D01*
G01X17608600Y-4224586D01*
G01X17596937Y-4220309D01*
G01X17584776Y-4217175D01*
G01X17572180Y-4215247D01*
G01X17559213Y-4214590D01*
G01X17546247Y-4215247D01*
G01X17533651Y-4217175D01*
G01X17521489Y-4220309D01*
G01X17509827Y-4224586D01*
G01X17498727Y-4229941D01*
G01X17488256Y-4236309D01*
G01X17478476Y-4243627D01*
G01X17469453Y-4251830D01*
G01X17461250Y-4260853D01*
G01X17453932Y-4270633D01*
G01X17447564Y-4281104D01*
G01X17442209Y-4292203D01*
G01X17437933Y-4303866D01*
G01X17434798Y-4316027D01*
G01X17432870Y-4328624D01*
G01X17432213Y-4341590D01*
G01X17406813Y-4341590D01*
G01X17407012Y-4333747D01*
G01X17407600Y-4326007D01*
G01X17408569Y-4318379D01*
G01X17409909Y-4310874D01*
G01X17413664Y-4296268D01*
G01X17418789Y-4282266D01*
G01X17425206Y-4268944D01*
G01X17432839Y-4256378D01*
G01X17441612Y-4244646D01*
G01X17451447Y-4233824D01*
G01X17462270Y-4223988D01*
G01X17474002Y-4215216D01*
G01X17486567Y-4207582D01*
G01X17499889Y-4201165D01*
G01X17513891Y-4196041D01*
G01X17528497Y-4192286D01*
G01X17536003Y-4190946D01*
G01X17543630Y-4189977D01*
G01X17551370Y-4189388D01*
G01X17559213Y-4189190D01*
G01X17567056Y-4189388D01*
G01X17574796Y-4189977D01*
G01X17582424Y-4190946D01*
G01X17589929Y-4192286D01*
G01X17604535Y-4196041D01*
G01X17618537Y-4201165D01*
G01X17631859Y-4207582D01*
G01X17644425Y-4215216D01*
G01X17656157Y-4223988D01*
G01X17666979Y-4233824D01*
G01X17676815Y-4244646D01*
G01X17685588Y-4256378D01*
G01X17693221Y-4268944D01*
G01X17699638Y-4282266D01*
G01X17704762Y-4296268D01*
G01X17708517Y-4310874D01*
G01X17709857Y-4318379D01*
G01X17710827Y-4326007D01*
G01X17711415Y-4333747D01*
G01X17711613Y-4341590D01*
G01X17711415Y-4349433D01*
G01X17710827Y-4357173D01*
G01X17709857Y-4364801D01*
G01X17708517Y-4372306D01*
G01X17704762Y-4386912D01*
G01X17699638Y-4400914D01*
G01X17693221Y-4414236D01*
G01X17685588Y-4426802D01*
G01X17676815Y-4438534D01*
G01X17666979Y-4449356D01*
G01X17656157Y-4459192D01*
G01X17644425Y-4467964D01*
G01X17631859Y-4475598D01*
G01X17618537Y-4482015D01*
G01X17604535Y-4487139D01*
G01X17589929Y-4490894D01*
G01X17582424Y-4492234D01*
G01X17574796Y-4493203D01*
G37*
G36*
G01X17711613Y-6733142D02*
G01X17628504Y-6733142D01*
G01X17628504Y-6816276D01*
G01X17489947Y-6816276D01*
G01X17489947Y-6733167D01*
G01X17406813Y-6733167D01*
G01X17406813Y-6620010D01*
G01X17432213Y-6620010D01*
G01X17432213Y-6707742D01*
G01X17515347Y-6707742D01*
G01X17515347Y-6790876D01*
G01X17515347Y-6790876D01*
G01X17603079Y-6790876D01*
G01X17603079Y-6707767D01*
G01X17686213Y-6707767D01*
G01X17686213Y-6620010D01*
G01X17603079Y-6620010D01*
G01X17603079Y-6536876D01*
G01X17515347Y-6536876D01*
G01X17515347Y-6620010D01*
G01X17432213Y-6620010D01*
G01X17406813Y-6620010D01*
G01X17406813Y-6594610D01*
G01X17489947Y-6594610D01*
G01X17489947Y-6511476D01*
G01X17628479Y-6511476D01*
G01X17628479Y-6594610D01*
G01X17711613Y-6594610D01*
G01X17711613Y-6733142D01*
G37*
G36*
G01X17711613Y-5930904D02*
G01X17641585Y-6083304D01*
G01X17711613Y-6235704D01*
G01X17559213Y-6165677D01*
G01X17406813Y-6235704D01*
G01X17430576Y-6183990D01*
G01X17458528Y-6183990D01*
G01X17548596Y-6142588D01*
G01X17559213Y-6137711D01*
G01X17569830Y-6142588D01*
G01X17659899Y-6183990D01*
G01X17618497Y-6093922D01*
G01X17613620Y-6083304D01*
G01X17618497Y-6072687D01*
G01X17659899Y-5982619D01*
G01X17569830Y-6024021D01*
G01X17559213Y-6028898D01*
G01X17548596Y-6024021D01*
G01X17458528Y-5982619D01*
G01X17499930Y-6072687D01*
G01X17504806Y-6083304D01*
G01X17504806Y-6083304D01*
G01X17499930Y-6093922D01*
G01X17458528Y-6183990D01*
G01X17430576Y-6183990D01*
G01X17476841Y-6083304D01*
G01X17406813Y-5930904D01*
G01X17559213Y-6000932D01*
G01X17711613Y-5930904D01*
G37*
G36*
G01X17406813Y-4769761D02*
G01X17711613Y-4769761D01*
G01X17559213Y-5033718D01*
G01X17421478Y-4795161D01*
G01X17450806Y-4795161D01*
G01X17559213Y-4982918D01*
G01X17667620Y-4795161D01*
G01X17667620Y-4795161D01*
G01X17450806Y-4795161D01*
G01X17421478Y-4795161D01*
G01X17406813Y-4769761D01*
G37*
G36*
G01X17686213Y-7371447D02*
G01X17584613Y-7371447D01*
G01X17546513Y-7295247D01*
G01X17508413Y-7371447D01*
G01X17406813Y-7371447D01*
G01X17406813Y-7346047D01*
G01X17432213Y-7346047D01*
G01X17492716Y-7346047D01*
G01X17523780Y-7283893D01*
G01X17546513Y-7238453D01*
G01X17569246Y-7283893D01*
G01X17600310Y-7346047D01*
G01X17660813Y-7346047D01*
G01X17660813Y-7285544D01*
G01X17598659Y-7254455D01*
G01X17553219Y-7231747D01*
G01X17598659Y-7209040D01*
G01X17660813Y-7177950D01*
G01X17660813Y-7117447D01*
G01X17600310Y-7117447D01*
G01X17569246Y-7179601D01*
G01X17546513Y-7225042D01*
G01X17523780Y-7179601D01*
G01X17492716Y-7117447D01*
G01X17432213Y-7117447D01*
G01X17432213Y-7177950D01*
G01X17494367Y-7209040D01*
G01X17539808Y-7231747D01*
G01X17494367Y-7254455D01*
G01X17432213Y-7285544D01*
G01X17432213Y-7346047D01*
G01X17432213Y-7346047D01*
G01X17406813Y-7346047D01*
G01X17406813Y-7269847D01*
G01X17483013Y-7231747D01*
G01X17406813Y-7193647D01*
G01X17406813Y-7092047D01*
G01X17508413Y-7092047D01*
G01X17546513Y-7168247D01*
G01X17584613Y-7092047D01*
G01X17686213Y-7092047D01*
G01X17686213Y-7193647D01*
G01X17610013Y-7231747D01*
G01X17686213Y-7269847D01*
G01X17686213Y-7371447D01*
G37*
G36*
G01X17406813Y-3608619D02*
G01X17686213Y-3608619D01*
G01X17686213Y-3888019D01*
G01X17406813Y-3888019D01*
G01X17406813Y-3634019D01*
G01X17432213Y-3634019D01*
G01X17432213Y-3862619D01*
G01X17660813Y-3862619D01*
G01X17660813Y-3634019D01*
G01X17660813Y-3634019D01*
G01X17432213Y-3634019D01*
G01X17406813Y-3634019D01*
G01X17406813Y-3608619D01*
G37*
G36*
G01X17406813Y-8253190D02*
G01X17686213Y-8253190D01*
G01X17686213Y-8532590D01*
G01X17406813Y-8532590D01*
G01X17406813Y-8278590D01*
G01X17432213Y-8278590D01*
G01X17432213Y-8507190D01*
G01X17660813Y-8507190D01*
G01X17660813Y-8278590D01*
G01X17660813Y-8278590D01*
G01X17432213Y-8278590D01*
G01X17406813Y-8278590D01*
G01X17406813Y-8253190D01*
G37*
G36*
G01X17457613Y-8303990D02*
G01X17635413Y-8303990D01*
G01X17635413Y-8481790D01*
G01X17457613Y-8481790D01*
G01X17457613Y-8456390D01*
G01X17483013Y-8456390D01*
G01X17610013Y-8456390D01*
G01X17610013Y-8329390D01*
G01X17483013Y-8329390D01*
G01X17483013Y-8456390D01*
G01X17483013Y-8456390D01*
G01X17457613Y-8456390D01*
G01X17457613Y-8303990D01*
G37*

G04 PolygonModel Start*
G54D20*
G01X17116528Y-8688619D02*
G01X33823704Y-8688619D01*
G01X17116528Y-8108047D02*
G01X33823704Y-8108047D01*
G01X17116528Y-7527476D02*
G01X33823704Y-7527476D01*
G01X17116528Y-6946904D02*
G01X33823704Y-6946904D01*
G01X17116528Y-6366333D02*
G01X33823704Y-6366333D01*
G01X17116528Y-5785761D02*
G01X33823704Y-5785761D01*
G01X17116528Y-5205190D02*
G01X33823704Y-5205190D01*
G01X17116528Y-4624619D02*
G01X33823704Y-4624619D01*
G01X17116528Y-4044047D02*
G01X33823704Y-4044047D01*
G01X17116528Y-3463476D02*
G01X33823704Y-3463476D01*
G01X17116528Y-2882904D02*
G01X33823704Y-2882904D01*
G01X17116528Y-2882904D02*
G01X17116528Y-8663219D01*
G01X18567956Y-2882904D02*
G01X18567956Y-8663219D01*
G01X19982119Y-2882904D02*
G01X19982119Y-8663219D01*
G01X23864400Y-2882904D02*
G01X23864400Y-8663219D01*
G01X25325808Y-2882904D02*
G01X25325808Y-8663219D01*
G01X26756989Y-2882904D02*
G01X26756989Y-8663219D01*
G01X28426168Y-2882904D02*
G01X28426168Y-8663219D01*
G01X30345537Y-2882904D02*
G01X30345537Y-8663219D01*
G01X33823704Y-2882904D02*
G01X33823704Y-8663219D01*

M02*

