G04 Layer: TopSilkscreenLayer*
G04 EasyEDA Pro v3.2.149.88089769, 2026-08-13 17:59:42*
G04 Gerber Generator version 0.3*
G04 Scale: 100 percent, Rotated: No, Reflected: No*
G04 Dimensions in millimeters*
G04 Leading zeros omitted, absolute positions, 4 integers and 5 decimals*
G04 Generated by one-click*
G04 Object Configs: Pad,Via,Track,Text,Image,Dimension,BoardOutline,BoardCutout,CopperFilled,SolidRegion,FPCStiffener,Line,PlaneZone,ComponentProperty,ComponentSilkscreen,TearDrop*
G04 Layer Configs: 1,15,16,2,3,4,5,6,7,8,9,10,11,13,14,56*
G04 Copper Areas: 0*
%FSLAX45Y45*%
%MOMM*%
%ADD10C,0.1*%
%ADD11C,0.1524*%
%ADD12C,0.254*%
%ADD13C,0.15199*%
%ADD14C,0.127*%
%ADD15C,0.0814*%
%ADD16C,0.0762*%
%ADD17C,0.2*%
G75*


G04 Text Start*
G54D10*
G01X10211866Y-3131900D02*
G01X10271048Y-3131900D01*
G01X10211866Y-3131900D02*
G01X10271048Y-3109548D01*
G01X10211866Y-3086942D02*
G01X10271048Y-3109548D01*
G01X10211866Y-3086942D02*
G01X10271048Y-3086942D01*
G01X10220248Y-3023950D02*
G01X10214660Y-3029792D01*
G01X10211866Y-3038174D01*
G01X10211866Y-3049350D01*
G01X10214660Y-3057732D01*
G01X10220248Y-3063320D01*
G01X10226090Y-3063320D01*
G01X10231678Y-3060526D01*
G01X10234472Y-3057732D01*
G01X10237266Y-3052144D01*
G01X10242854Y-3035380D01*
G01X10245648Y-3029792D01*
G01X10248442Y-3026998D01*
G01X10254030Y-3023950D01*
G01X10262666Y-3023950D01*
G01X10268254Y-3029792D01*
G01X10271048Y-3038174D01*
G01X10271048Y-3049350D01*
G01X10268254Y-3057732D01*
G01X10262666Y-3063320D01*
G01X10211866Y-3000328D02*
G01X10271048Y-3000328D01*
G01X10271048Y-3000328D02*
G01X10271048Y-2966800D01*
G01X9849602Y-5479650D02*
G01X9908784Y-5479650D01*
G01X9849602Y-5440280D02*
G01X9908784Y-5440280D01*
G01X9877796Y-5479650D02*
G01X9877796Y-5440280D01*
G01X9857984Y-5377288D02*
G01X9852396Y-5383130D01*
G01X9849602Y-5391512D01*
G01X9849602Y-5402688D01*
G01X9852396Y-5411070D01*
G01X9857984Y-5416658D01*
G01X9863826Y-5416658D01*
G01X9869414Y-5413864D01*
G01X9872208Y-5411070D01*
G01X9875002Y-5405482D01*
G01X9880590Y-5388718D01*
G01X9883384Y-5383130D01*
G01X9886178Y-5380336D01*
G01X9891766Y-5377288D01*
G01X9900402Y-5377288D01*
G01X9905990Y-5383130D01*
G01X9908784Y-5391512D01*
G01X9908784Y-5402688D01*
G01X9905990Y-5411070D01*
G01X9900402Y-5416658D01*
G01X9849602Y-5353666D02*
G01X9908784Y-5353666D01*
G01X9849602Y-5314296D02*
G01X9908784Y-5314296D01*
G01X9877796Y-5353666D02*
G01X9877796Y-5314296D01*
G01X9851889Y-5207527D02*
G01X9911071Y-5207527D01*
G01X9851889Y-5168157D02*
G01X9911071Y-5168157D01*
G01X9880083Y-5207527D02*
G01X9880083Y-5168157D01*
G01X9860271Y-5105165D02*
G01X9854683Y-5111007D01*
G01X9851889Y-5119389D01*
G01X9851889Y-5130565D01*
G01X9854683Y-5138947D01*
G01X9860271Y-5144535D01*
G01X9866113Y-5144535D01*
G01X9871701Y-5141741D01*
G01X9874495Y-5138947D01*
G01X9877289Y-5133359D01*
G01X9882877Y-5116595D01*
G01X9885671Y-5111007D01*
G01X9888465Y-5108213D01*
G01X9894053Y-5105165D01*
G01X9902689Y-5105165D01*
G01X9908277Y-5111007D01*
G01X9911071Y-5119389D01*
G01X9911071Y-5130565D01*
G01X9908277Y-5138947D01*
G01X9902689Y-5144535D01*
G01X9851889Y-5081543D02*
G01X9911071Y-5081543D01*
G01X9911071Y-5081543D02*
G01X9911071Y-5048015D01*
G01X14331843Y-2966078D02*
G01X14331843Y-3025260D01*
G01X14331843Y-2966078D02*
G01X14356989Y-2966078D01*
G01X14365625Y-2968872D01*
G01X14368419Y-2971666D01*
G01X14371213Y-2977508D01*
G01X14371213Y-2983096D01*
G01X14368419Y-2988684D01*
G01X14365625Y-2991478D01*
G01X14356989Y-2994272D01*
G01X14331843Y-2994272D01*
G01X14351401Y-2994272D02*
G01X14371213Y-3025260D01*
G01X14394835Y-2966078D02*
G01X14434205Y-3025260D01*
G01X14434205Y-2966078D02*
G01X14394835Y-3025260D01*
G01X9473309Y-3706290D02*
G01X9524109Y-3706290D01*
G01X9498709Y-3731436D02*
G01X9498709Y-3680890D01*
G01X9476357Y-3657268D02*
G01X9473309Y-3651680D01*
G01X9464927Y-3643298D01*
G01X9524109Y-3643298D01*
G01X9479151Y-3616882D02*
G01X9476357Y-3616882D01*
G01X9470515Y-3614088D01*
G01X9467721Y-3611294D01*
G01X9464927Y-3605706D01*
G01X9464927Y-3594530D01*
G01X9467721Y-3588942D01*
G01X9470515Y-3586148D01*
G01X9476357Y-3583354D01*
G01X9481945Y-3583354D01*
G01X9487533Y-3586148D01*
G01X9495915Y-3591736D01*
G01X9524109Y-3619676D01*
G01X9524109Y-3580306D01*
G01X9464927Y-3556684D02*
G01X9524109Y-3534332D01*
G01X9464927Y-3511726D02*
G01X9524109Y-3534332D01*
G01X9469942Y-4828889D02*
G01X9464100Y-4831683D01*
G01X9458512Y-4837271D01*
G01X9455718Y-4843113D01*
G01X9455718Y-4854289D01*
G01X9458512Y-4859877D01*
G01X9464100Y-4865465D01*
G01X9469942Y-4868259D01*
G01X9478324Y-4871053D01*
G01X9492294Y-4871053D01*
G01X9500676Y-4868259D01*
G01X9506518Y-4865465D01*
G01X9512106Y-4859877D01*
G01X9514900Y-4854289D01*
G01X9514900Y-4843113D01*
G01X9512106Y-4837271D01*
G01X9506518Y-4831683D01*
G01X9500676Y-4828889D01*
G01X9492294Y-4828889D01*
G01X9492294Y-4843113D02*
G01X9492294Y-4828889D01*
G01X9455718Y-4805267D02*
G01X9514900Y-4805267D01*
G01X9455718Y-4805267D02*
G01X9514900Y-4765897D01*
G01X9455718Y-4765897D02*
G01X9514900Y-4765897D01*
G01X9455718Y-4742275D02*
G01X9514900Y-4742275D01*
G01X9455718Y-4742275D02*
G01X9455718Y-4722717D01*
G01X9458512Y-4714335D01*
G01X9464100Y-4708747D01*
G01X9469942Y-4705953D01*
G01X9478324Y-4702905D01*
G01X9492294Y-4702905D01*
G01X9500676Y-4705953D01*
G01X9506518Y-4708747D01*
G01X9512106Y-4714335D01*
G01X9514900Y-4722717D01*
G01X9514900Y-4742275D01*
G01X10467223Y-3384630D02*
G01X10526405Y-3384630D01*
G01X10467223Y-3384630D02*
G01X10526405Y-3362278D01*
G01X10467223Y-3339672D02*
G01X10526405Y-3362278D01*
G01X10467223Y-3339672D02*
G01X10526405Y-3339672D01*
G01X10475605Y-3276680D02*
G01X10470017Y-3282522D01*
G01X10467223Y-3290904D01*
G01X10467223Y-3302080D01*
G01X10470017Y-3310462D01*
G01X10475605Y-3316050D01*
G01X10481447Y-3316050D01*
G01X10487035Y-3313256D01*
G01X10489829Y-3310462D01*
G01X10492623Y-3304874D01*
G01X10498211Y-3288110D01*
G01X10501005Y-3282522D01*
G01X10503799Y-3279728D01*
G01X10509387Y-3276680D01*
G01X10518023Y-3276680D01*
G01X10523611Y-3282522D01*
G01X10526405Y-3290904D01*
G01X10526405Y-3302080D01*
G01X10523611Y-3310462D01*
G01X10518023Y-3316050D01*
G01X10467223Y-3253058D02*
G01X10526405Y-3253058D01*
G01X10467223Y-3213688D02*
G01X10526405Y-3213688D01*
G01X10495417Y-3253058D02*
G01X10495417Y-3213688D01*
G01X13597150Y-2958316D02*
G01X13597150Y-3017498D01*
G01X13577592Y-2958316D02*
G01X13616962Y-2958316D01*
G01X13640584Y-2958316D02*
G01X13679954Y-3017498D01*
G01X13679954Y-2958316D02*
G01X13640584Y-3017498D01*
G54D11*
G01X14062771Y-5467283D02*
G01X14031783Y-5467283D01*
G01X14028735Y-5494969D01*
G01X14031783Y-5491921D01*
G01X14041181Y-5488873D01*
G01X14050579Y-5488873D01*
G01X14059723Y-5491921D01*
G01X14065819Y-5498271D01*
G01X14069121Y-5507415D01*
G01X14069121Y-5513765D01*
G01X14065819Y-5522909D01*
G01X14059723Y-5529259D01*
G01X14050579Y-5532307D01*
G01X14041181Y-5532307D01*
G01X14031783Y-5529259D01*
G01X14028735Y-5525957D01*
G01X14025687Y-5519861D01*
G01X14102395Y-5516813D02*
G01X14099347Y-5519861D01*
G01X14102395Y-5522909D01*
G01X14105443Y-5519861D01*
G01X14102395Y-5516813D01*
G01X14135669Y-5479729D02*
G01X14141765Y-5476427D01*
G01X14150909Y-5467283D01*
G01X14150909Y-5532307D01*
G01X14181135Y-5467283D02*
G01X14181135Y-5532307D01*
G01X14211869Y-5488873D02*
G01X14181135Y-5519861D01*
G01X14193327Y-5507415D02*
G01X14215171Y-5532307D01*
G01X14245397Y-5532307D02*
G01X14266987Y-5532307D01*
G01X14260637Y-5522909D01*
G01X14254541Y-5513765D01*
G01X14251493Y-5504367D01*
G01X14251493Y-5494969D01*
G01X14254541Y-5485825D01*
G01X14257589Y-5479729D01*
G01X14263939Y-5473379D01*
G01X14270035Y-5470331D01*
G01X14282481Y-5470331D01*
G01X14288577Y-5473379D01*
G01X14294927Y-5479729D01*
G01X14297975Y-5485825D01*
G01X14301023Y-5494969D01*
G01X14301023Y-5504367D01*
G01X14297975Y-5513765D01*
G01X14291625Y-5522909D01*
G01X14285529Y-5532307D01*
G01X14307119Y-5532307D01*
G01X14062395Y-5851864D02*
G01X14031407Y-5851864D01*
G01X14028359Y-5879550D01*
G01X14031407Y-5876502D01*
G01X14040805Y-5873454D01*
G01X14050203Y-5873454D01*
G01X14059347Y-5876502D01*
G01X14065443Y-5882852D01*
G01X14068745Y-5891996D01*
G01X14068745Y-5898346D01*
G01X14065443Y-5907490D01*
G01X14059347Y-5913840D01*
G01X14050203Y-5916888D01*
G01X14040805Y-5916888D01*
G01X14031407Y-5913840D01*
G01X14028359Y-5910538D01*
G01X14025311Y-5904442D01*
G01X14102019Y-5901394D02*
G01X14098971Y-5904442D01*
G01X14102019Y-5907490D01*
G01X14105067Y-5904442D01*
G01X14102019Y-5901394D01*
G01X14135293Y-5864310D02*
G01X14141389Y-5861008D01*
G01X14150533Y-5851864D01*
G01X14150533Y-5916888D01*
G01X14180759Y-5851864D02*
G01X14180759Y-5916888D01*
G01X14211493Y-5873454D02*
G01X14180759Y-5904442D01*
G01X14192951Y-5891996D02*
G01X14214795Y-5916888D01*
G01X14245021Y-5916888D02*
G01X14266611Y-5916888D01*
G01X14260261Y-5907490D01*
G01X14254165Y-5898346D01*
G01X14251117Y-5888948D01*
G01X14251117Y-5879550D01*
G01X14254165Y-5870406D01*
G01X14257213Y-5864310D01*
G01X14263563Y-5857960D01*
G01X14269659Y-5854912D01*
G01X14282105Y-5854912D01*
G01X14288201Y-5857960D01*
G01X14294551Y-5864310D01*
G01X14297599Y-5870406D01*
G01X14300647Y-5879550D01*
G01X14300647Y-5888948D01*
G01X14297599Y-5898346D01*
G01X14291249Y-5907490D01*
G01X14285153Y-5916888D01*
G01X14306743Y-5916888D01*
G01X13570550Y-3588768D02*
G01X13576646Y-3585466D01*
G01X13586044Y-3576322D01*
G01X13586044Y-3641346D01*
G01X13634812Y-3576322D02*
G01X13625414Y-3579370D01*
G01X13619318Y-3588768D01*
G01X13616270Y-3604008D01*
G01X13616270Y-3613406D01*
G01X13619318Y-3628900D01*
G01X13625414Y-3638298D01*
G01X13634812Y-3641346D01*
G01X13640908Y-3641346D01*
G01X13650306Y-3638298D01*
G01X13656402Y-3628900D01*
G01X13659450Y-3613406D01*
G01X13659450Y-3604008D01*
G01X13656402Y-3588768D01*
G01X13650306Y-3579370D01*
G01X13640908Y-3576322D01*
G01X13634812Y-3576322D01*
G01X13689676Y-3576322D02*
G01X13689676Y-3641346D01*
G01X13720410Y-3597912D02*
G01X13689676Y-3628900D01*
G01X13701868Y-3616454D02*
G01X13723712Y-3641346D01*
G01X13753938Y-3641346D02*
G01X13775528Y-3641346D01*
G01X13769178Y-3631948D01*
G01X13763082Y-3622804D01*
G01X13760034Y-3613406D01*
G01X13760034Y-3604008D01*
G01X13763082Y-3594864D01*
G01X13766130Y-3588768D01*
G01X13772480Y-3582418D01*
G01X13778576Y-3579370D01*
G01X13791022Y-3579370D01*
G01X13797118Y-3582418D01*
G01X13803468Y-3588768D01*
G01X13806516Y-3594864D01*
G01X13809564Y-3604008D01*
G01X13809564Y-3613406D01*
G01X13806516Y-3622804D01*
G01X13800166Y-3631948D01*
G01X13794070Y-3641346D01*
G01X13815660Y-3641346D01*
G01X11024821Y-4751889D02*
G01X11024821Y-4748841D01*
G01X11027869Y-4742491D01*
G01X11031171Y-4739443D01*
G01X11037267Y-4736395D01*
G01X11049713Y-4736395D01*
G01X11055809Y-4739443D01*
G01X11058857Y-4742491D01*
G01X11061905Y-4748841D01*
G01X11061905Y-4754937D01*
G01X11058857Y-4761033D01*
G01X11052761Y-4770431D01*
G01X11021773Y-4801419D01*
G01X11065207Y-4801419D01*
G01X11098481Y-4751889D02*
G01X11098481Y-4748841D01*
G01X11101529Y-4742491D01*
G01X11104577Y-4739443D01*
G01X11110673Y-4736395D01*
G01X11123119Y-4736395D01*
G01X11129469Y-4739443D01*
G01X11132517Y-4742491D01*
G01X11135565Y-4748841D01*
G01X11135565Y-4754937D01*
G01X11132517Y-4761033D01*
G01X11126167Y-4770431D01*
G01X11095433Y-4801419D01*
G01X11138613Y-4801419D01*
G01X11168839Y-4757985D02*
G01X11168839Y-4788973D01*
G01X11171887Y-4798371D01*
G01X11177983Y-4801419D01*
G01X11187381Y-4801419D01*
G01X11193477Y-4798371D01*
G01X11202875Y-4788973D01*
G01X11202875Y-4757985D02*
G01X11202875Y-4801419D01*
G01X11233101Y-4736395D02*
G01X11233101Y-4801419D01*
G01X11233101Y-4736395D02*
G01X11273233Y-4736395D01*
G01X11233101Y-4767383D02*
G01X11257739Y-4767383D01*
G01X10641377Y-3276276D02*
G01X10635027Y-3270180D01*
G01X10625883Y-3267132D01*
G01X10613437Y-3267132D01*
G01X10604039Y-3270180D01*
G01X10597943Y-3276276D01*
G01X10597943Y-3282626D01*
G01X10600991Y-3288722D01*
G01X10604039Y-3291770D01*
G01X10610389Y-3294818D01*
G01X10628931Y-3301168D01*
G01X10635027Y-3304216D01*
G01X10638075Y-3307264D01*
G01X10641377Y-3313614D01*
G01X10641377Y-3322758D01*
G01X10635027Y-3329108D01*
G01X10625883Y-3332156D01*
G01X10613437Y-3332156D01*
G01X10604039Y-3329108D01*
G01X10597943Y-3322758D01*
G01X10714783Y-3276276D02*
G01X10708687Y-3270180D01*
G01X10699289Y-3267132D01*
G01X10686843Y-3267132D01*
G01X10677699Y-3270180D01*
G01X10671603Y-3276276D01*
G01X10671603Y-3282626D01*
G01X10674651Y-3288722D01*
G01X10677699Y-3291770D01*
G01X10683795Y-3294818D01*
G01X10702337Y-3301168D01*
G01X10708687Y-3304216D01*
G01X10711735Y-3307264D01*
G01X10714783Y-3313614D01*
G01X10714783Y-3322758D01*
G01X10708687Y-3329108D01*
G01X10699289Y-3332156D01*
G01X10686843Y-3332156D01*
G01X10677699Y-3329108D01*
G01X10671603Y-3322758D01*
G01X10751105Y-3267132D02*
G01X10785141Y-3267132D01*
G01X10766599Y-3291770D01*
G01X10775743Y-3291770D01*
G01X10782093Y-3294818D01*
G01X10785141Y-3298120D01*
G01X10788189Y-3307264D01*
G01X10788189Y-3313614D01*
G01X10785141Y-3322758D01*
G01X10779045Y-3329108D01*
G01X10769647Y-3332156D01*
G01X10760249Y-3332156D01*
G01X10751105Y-3329108D01*
G01X10748057Y-3325806D01*
G01X10745009Y-3319710D01*
G01X10849149Y-3267132D02*
G01X10818415Y-3310312D01*
G01X10864643Y-3310312D01*
G01X10849149Y-3267132D02*
G01X10849149Y-3332156D01*
G01X10089826Y-4662039D02*
G01X10095922Y-4658737D01*
G01X10105320Y-4649593D01*
G01X10105320Y-4714617D01*
G01X10154088Y-4649593D02*
G01X10144690Y-4652641D01*
G01X10138594Y-4662039D01*
G01X10135546Y-4677279D01*
G01X10135546Y-4686677D01*
G01X10138594Y-4702171D01*
G01X10144690Y-4711569D01*
G01X10154088Y-4714617D01*
G01X10160184Y-4714617D01*
G01X10169582Y-4711569D01*
G01X10175678Y-4702171D01*
G01X10178726Y-4686677D01*
G01X10178726Y-4677279D01*
G01X10175678Y-4662039D01*
G01X10169582Y-4652641D01*
G01X10160184Y-4649593D01*
G01X10154088Y-4649593D01*
G01X10208952Y-4671183D02*
G01X10208952Y-4702171D01*
G01X10212000Y-4711569D01*
G01X10218096Y-4714617D01*
G01X10227494Y-4714617D01*
G01X10233590Y-4711569D01*
G01X10242988Y-4702171D01*
G01X10242988Y-4671183D02*
G01X10242988Y-4714617D01*
G01X10273214Y-4649593D02*
G01X10273214Y-4714617D01*
G01X10316394Y-4649593D02*
G01X10316394Y-4714617D01*
G01X10273214Y-4680581D02*
G01X10316394Y-4680581D01*
G01X10661716Y-5121910D02*
G01X10667812Y-5118608D01*
G01X10677210Y-5109464D01*
G01X10677210Y-5174488D01*
G01X10725978Y-5109464D02*
G01X10716580Y-5112512D01*
G01X10710484Y-5121910D01*
G01X10707436Y-5137150D01*
G01X10707436Y-5146548D01*
G01X10710484Y-5162042D01*
G01X10716580Y-5171440D01*
G01X10725978Y-5174488D01*
G01X10732074Y-5174488D01*
G01X10741472Y-5171440D01*
G01X10747568Y-5162042D01*
G01X10750616Y-5146548D01*
G01X10750616Y-5137150D01*
G01X10747568Y-5121910D01*
G01X10741472Y-5112512D01*
G01X10732074Y-5109464D01*
G01X10725978Y-5109464D01*
G01X10799384Y-5109464D02*
G01X10789986Y-5112512D01*
G01X10783890Y-5121910D01*
G01X10780842Y-5137150D01*
G01X10780842Y-5146548D01*
G01X10783890Y-5162042D01*
G01X10789986Y-5171440D01*
G01X10799384Y-5174488D01*
G01X10805480Y-5174488D01*
G01X10814878Y-5171440D01*
G01X10820974Y-5162042D01*
G01X10824022Y-5146548D01*
G01X10824022Y-5137150D01*
G01X10820974Y-5121910D01*
G01X10814878Y-5112512D01*
G01X10805480Y-5109464D01*
G01X10799384Y-5109464D01*
G01X10854248Y-5109464D02*
G01X10854248Y-5174488D01*
G01X10884982Y-5131054D02*
G01X10854248Y-5162042D01*
G01X10866440Y-5149596D02*
G01X10888284Y-5174488D01*
G01X10918510Y-5174488D02*
G01X10940100Y-5174488D01*
G01X10933750Y-5165090D01*
G01X10927654Y-5155946D01*
G01X10924606Y-5146548D01*
G01X10924606Y-5137150D01*
G01X10927654Y-5128006D01*
G01X10930702Y-5121910D01*
G01X10937052Y-5115560D01*
G01X10943148Y-5112512D01*
G01X10955594Y-5112512D01*
G01X10961690Y-5115560D01*
G01X10968040Y-5121910D01*
G01X10971088Y-5128006D01*
G01X10974136Y-5137150D01*
G01X10974136Y-5146548D01*
G01X10971088Y-5155946D01*
G01X10964738Y-5165090D01*
G01X10958642Y-5174488D01*
G01X10980232Y-5174488D01*
G01X11076600Y-5588930D02*
G01X11045612Y-5632110D01*
G01X11092094Y-5632110D01*
G01X11076600Y-5588930D02*
G01X11076600Y-5653954D01*
G01X11128416Y-5588930D02*
G01X11162452Y-5588930D01*
G01X11143910Y-5613568D01*
G01X11153054Y-5613568D01*
G01X11159404Y-5616616D01*
G01X11162452Y-5619918D01*
G01X11165500Y-5629062D01*
G01X11165500Y-5635412D01*
G01X11162452Y-5644556D01*
G01X11156356Y-5650906D01*
G01X11146958Y-5653954D01*
G01X11137560Y-5653954D01*
G01X11128416Y-5650906D01*
G01X11125368Y-5647604D01*
G01X11122320Y-5641508D01*
G01X11214268Y-5588930D02*
G01X11204870Y-5591978D01*
G01X11198774Y-5601376D01*
G01X11195726Y-5616616D01*
G01X11195726Y-5626014D01*
G01X11198774Y-5641508D01*
G01X11204870Y-5650906D01*
G01X11214268Y-5653954D01*
G01X11220364Y-5653954D01*
G01X11229762Y-5650906D01*
G01X11235858Y-5641508D01*
G01X11238906Y-5626014D01*
G01X11238906Y-5616616D01*
G01X11235858Y-5601376D01*
G01X11229762Y-5591978D01*
G01X11220364Y-5588930D01*
G01X11214268Y-5588930D01*
G01X11269132Y-5588930D02*
G01X11269132Y-5653954D01*
G01X11299866Y-5610520D02*
G01X11269132Y-5641508D01*
G01X11281324Y-5629062D02*
G01X11303168Y-5653954D01*
G01X11333394Y-5653954D02*
G01X11354984Y-5653954D01*
G01X11348634Y-5644556D01*
G01X11342538Y-5635412D01*
G01X11339490Y-5626014D01*
G01X11339490Y-5616616D01*
G01X11342538Y-5607472D01*
G01X11345586Y-5601376D01*
G01X11351936Y-5595026D01*
G01X11358032Y-5591978D01*
G01X11370478Y-5591978D01*
G01X11376574Y-5595026D01*
G01X11382924Y-5601376D01*
G01X11385972Y-5607472D01*
G01X11389020Y-5616616D01*
G01X11389020Y-5626014D01*
G01X11385972Y-5635412D01*
G01X11379622Y-5644556D01*
G01X11373526Y-5653954D01*
G01X11395116Y-5653954D01*
G01X10458790Y-5883282D02*
G01X10449392Y-5886330D01*
G01X10446344Y-5892426D01*
G01X10446344Y-5898776D01*
G01X10449392Y-5904872D01*
G01X10455742Y-5907920D01*
G01X10468188Y-5910968D01*
G01X10477332Y-5914270D01*
G01X10483428Y-5920366D01*
G01X10486730Y-5926462D01*
G01X10486730Y-5935860D01*
G01X10483428Y-5941956D01*
G01X10480380Y-5945258D01*
G01X10471236Y-5948306D01*
G01X10458790Y-5948306D01*
G01X10449392Y-5945258D01*
G01X10446344Y-5941956D01*
G01X10443296Y-5935860D01*
G01X10443296Y-5926462D01*
G01X10446344Y-5920366D01*
G01X10452694Y-5914270D01*
G01X10461838Y-5910968D01*
G01X10474284Y-5907920D01*
G01X10480380Y-5904872D01*
G01X10483428Y-5898776D01*
G01X10483428Y-5892426D01*
G01X10480380Y-5886330D01*
G01X10471236Y-5883282D01*
G01X10458790Y-5883282D01*
G01X10520004Y-5898776D02*
G01X10520004Y-5895728D01*
G01X10523052Y-5889378D01*
G01X10526100Y-5886330D01*
G01X10532196Y-5883282D01*
G01X10544642Y-5883282D01*
G01X10550992Y-5886330D01*
G01X10554040Y-5889378D01*
G01X10557088Y-5895728D01*
G01X10557088Y-5901824D01*
G01X10554040Y-5907920D01*
G01X10547690Y-5917318D01*
G01X10516956Y-5948306D01*
G01X10560136Y-5948306D01*
G01X10590362Y-5883282D02*
G01X10590362Y-5948306D01*
G01X10621096Y-5904872D02*
G01X10590362Y-5935860D01*
G01X10602554Y-5923414D02*
G01X10624398Y-5948306D01*
G01X10654624Y-5948306D02*
G01X10676214Y-5948306D01*
G01X10669864Y-5938908D01*
G01X10663768Y-5929764D01*
G01X10660720Y-5920366D01*
G01X10660720Y-5910968D01*
G01X10663768Y-5901824D01*
G01X10666816Y-5895728D01*
G01X10673166Y-5889378D01*
G01X10679262Y-5886330D01*
G01X10691708Y-5886330D01*
G01X10697804Y-5889378D01*
G01X10704154Y-5895728D01*
G01X10707202Y-5901824D01*
G01X10710250Y-5910968D01*
G01X10710250Y-5920366D01*
G01X10707202Y-5929764D01*
G01X10700852Y-5938908D01*
G01X10694756Y-5948306D01*
G01X10716346Y-5948306D01*
G01X10010063Y-5279728D02*
G01X10010063Y-5344752D01*
G01X9988473Y-5279728D02*
G01X10031907Y-5279728D01*
G01X10062133Y-5279728D02*
G01X10062133Y-5344752D01*
G01X10062133Y-5279728D02*
G01X10089819Y-5279728D01*
G01X10099217Y-5282776D01*
G01X10102265Y-5285824D01*
G01X10105313Y-5292174D01*
G01X10105313Y-5301318D01*
G01X10102265Y-5307414D01*
G01X10099217Y-5310716D01*
G01X10089819Y-5313764D01*
G01X10062133Y-5313764D01*
G01X10178719Y-5288872D02*
G01X10172623Y-5282776D01*
G01X10163225Y-5279728D01*
G01X10150779Y-5279728D01*
G01X10141635Y-5282776D01*
G01X10135539Y-5288872D01*
G01X10135539Y-5295222D01*
G01X10138587Y-5301318D01*
G01X10141635Y-5304366D01*
G01X10147731Y-5307414D01*
G01X10166273Y-5313764D01*
G01X10172623Y-5316812D01*
G01X10175671Y-5319860D01*
G01X10178719Y-5326210D01*
G01X10178719Y-5335354D01*
G01X10172623Y-5341704D01*
G01X10163225Y-5344752D01*
G01X10150779Y-5344752D01*
G01X10141635Y-5341704D01*
G01X10135539Y-5335354D01*
G01X10246029Y-5288872D02*
G01X10242981Y-5282776D01*
G01X10233583Y-5279728D01*
G01X10227487Y-5279728D01*
G01X10218089Y-5282776D01*
G01X10211993Y-5292174D01*
G01X10208945Y-5307414D01*
G01X10208945Y-5322908D01*
G01X10211993Y-5335354D01*
G01X10218089Y-5341704D01*
G01X10227487Y-5344752D01*
G01X10230535Y-5344752D01*
G01X10239679Y-5341704D01*
G01X10246029Y-5335354D01*
G01X10249077Y-5326210D01*
G01X10249077Y-5322908D01*
G01X10246029Y-5313764D01*
G01X10239679Y-5307414D01*
G01X10230535Y-5304366D01*
G01X10227487Y-5304366D01*
G01X10218089Y-5307414D01*
G01X10211993Y-5313764D01*
G01X10208945Y-5322908D01*
G01X10282351Y-5295222D02*
G01X10282351Y-5292174D01*
G01X10285399Y-5285824D01*
G01X10288447Y-5282776D01*
G01X10294543Y-5279728D01*
G01X10306989Y-5279728D01*
G01X10313339Y-5282776D01*
G01X10316387Y-5285824D01*
G01X10319435Y-5292174D01*
G01X10319435Y-5298270D01*
G01X10316387Y-5304366D01*
G01X10310037Y-5313764D01*
G01X10279303Y-5344752D01*
G01X10322483Y-5344752D01*
G01X10352709Y-5292174D02*
G01X10358805Y-5288872D01*
G01X10367949Y-5279728D01*
G01X10367949Y-5344752D01*
G01X10441355Y-5279728D02*
G01X10410367Y-5344752D01*
G01X10398175Y-5279728D02*
G01X10441355Y-5279728D01*
G01X10508665Y-5279728D02*
G01X10477677Y-5279728D01*
G01X10474629Y-5307414D01*
G01X10477677Y-5304366D01*
G01X10486821Y-5301318D01*
G01X10496219Y-5301318D01*
G01X10505617Y-5304366D01*
G01X10511713Y-5310716D01*
G01X10514761Y-5319860D01*
G01X10514761Y-5326210D01*
G01X10511713Y-5335354D01*
G01X10505617Y-5341704D01*
G01X10496219Y-5344752D01*
G01X10486821Y-5344752D01*
G01X10477677Y-5341704D01*
G01X10474629Y-5338402D01*
G01X10471581Y-5332306D01*
G01X10852344Y-4222008D02*
G01X10858440Y-4218706D01*
G01X10867838Y-4209562D01*
G01X10867838Y-4274586D01*
G01X10916606Y-4209562D02*
G01X10907208Y-4212610D01*
G01X10901112Y-4222008D01*
G01X10898064Y-4237248D01*
G01X10898064Y-4246646D01*
G01X10901112Y-4262140D01*
G01X10907208Y-4271538D01*
G01X10916606Y-4274586D01*
G01X10922702Y-4274586D01*
G01X10932100Y-4271538D01*
G01X10938196Y-4262140D01*
G01X10941244Y-4246646D01*
G01X10941244Y-4237248D01*
G01X10938196Y-4222008D01*
G01X10932100Y-4212610D01*
G01X10922702Y-4209562D01*
G01X10916606Y-4209562D01*
G01X10971470Y-4209562D02*
G01X10971470Y-4274586D01*
G01X11002204Y-4231152D02*
G01X10971470Y-4262140D01*
G01X10983662Y-4249694D02*
G01X11005506Y-4274586D01*
G01X11035732Y-4274586D02*
G01X11057322Y-4274586D01*
G01X11050972Y-4265188D01*
G01X11044876Y-4256044D01*
G01X11041828Y-4246646D01*
G01X11041828Y-4237248D01*
G01X11044876Y-4228104D01*
G01X11047924Y-4222008D01*
G01X11054274Y-4215658D01*
G01X11060370Y-4212610D01*
G01X11072816Y-4212610D01*
G01X11078912Y-4215658D01*
G01X11085262Y-4222008D01*
G01X11088310Y-4228104D01*
G01X11091358Y-4237248D01*
G01X11091358Y-4246646D01*
G01X11088310Y-4256044D01*
G01X11081960Y-4265188D01*
G01X11075864Y-4274586D01*
G01X11097454Y-4274586D01*
G04 Text End*

G04 PolygonModel Start*
G54D12*
G01X13826872Y-4896710D02*
G01X14577784Y-4896710D01*
G01X14584137Y-3423510D02*
G01X13834837Y-3423510D01*
G01X14819082Y-4896710D02*
G01X15125091Y-4896710D01*
G01X15125091Y-4896710D02*
G01X15125088Y-3423510D01*
G01X15125088Y-3423510D02*
G01X14834088Y-3423510D01*
G01X15076554Y-4896710D02*
G01X15054088Y-4896710D01*
G01X15054088Y-4896710D02*
G01X15054088Y-4060110D01*
G01X15054088Y-4060110D02*
G01X15123796Y-3766410D01*
G54D11*
G01X13934811Y-5277124D02*
G01X14110051Y-5277124D01*
G01X14110051Y-5277124D02*
G01X14110051Y-5172963D01*
G01X13934811Y-4969885D02*
G01X14110051Y-4969885D01*
G01X14110051Y-4969885D02*
G01X14110051Y-5074046D01*
G01X13934811Y-5169044D02*
G01X13934811Y-5077965D01*
G01X14178077Y-5439707D02*
G01X14273964Y-5439707D01*
G01X14273964Y-5439707D02*
G01X14273964Y-5307587D01*
G01X14273964Y-5307587D02*
G01X14178077Y-5307587D01*
G01X14092834Y-5439707D02*
G01X13996947Y-5439707D01*
G01X13996947Y-5439707D02*
G01X13996947Y-5307587D01*
G01X13996947Y-5307587D02*
G01X14092834Y-5307587D01*
G01X14182431Y-5819796D02*
G01X14278318Y-5819796D01*
G01X14278318Y-5819796D02*
G01X14278318Y-5687675D01*
G01X14278318Y-5687675D02*
G01X14182431Y-5687675D01*
G01X14097188Y-5819796D02*
G01X14001301Y-5819796D01*
G01X14001301Y-5819796D02*
G01X14001301Y-5687675D01*
G01X14001301Y-5687675D02*
G01X14097188Y-5687675D01*
G54D12*
G01X13155348Y-3941571D02*
G01X13155348Y-3453111D01*
G01X13155348Y-3453111D02*
G01X12931828Y-3453111D01*
G01X12952148Y-3941571D02*
G01X12952148Y-3453111D01*
G01X12952148Y-3453111D02*
G01X12666932Y-3453111D01*
G01X12666932Y-3453111D02*
G01X12666932Y-3669011D01*
G01X12666932Y-3669011D02*
G01X12412932Y-3669011D01*
G01X12412932Y-3669011D02*
G01X12412932Y-3453111D01*
G01X12412932Y-3453111D02*
G01X12158932Y-3453111D01*
G01X12158932Y-3453111D02*
G01X12158932Y-3669011D01*
G01X12158932Y-3669011D02*
G01X11930332Y-3669011D01*
G01X11930332Y-3669011D02*
G01X11930332Y-3453111D01*
G01X11930332Y-3453111D02*
G01X11701732Y-3453111D01*
G01X11701732Y-3453111D02*
G01X11701732Y-3821411D01*
G01X11525631Y-3941571D02*
G01X13327332Y-3941571D01*
G01X13327332Y-4019495D02*
G01X13327332Y-3338811D01*
G01X13192247Y-5891511D02*
G01X13327332Y-5891511D01*
G01X13327332Y-5891511D02*
G01X13327332Y-5806726D01*
G01X11525631Y-5806726D02*
G01X11525631Y-5891511D01*
G01X11525631Y-5891511D02*
G01X11659017Y-5891511D01*
G01X11525631Y-3337610D02*
G01X11525631Y-4019495D01*
G01X13325632Y-3337610D02*
G01X11525631Y-3337610D01*
G36*
G01X11672776Y-4067108D02*
G02X11778491Y-4067108I52857J0D01*
G02X11672776Y-4067108I-52857J0D01*
G37*
G01X14760372Y-5098488D02*
G01X14560977Y-5098488D01*
G01X15103275Y-5098488D02*
G01X14955977Y-5098488D01*
G01X14760060Y-6005687D02*
G01X14561287Y-6005687D01*
G01X15118174Y-6005687D02*
G01X14956290Y-6005687D01*
G01X15118174Y-5105689D02*
G01X15118174Y-6005687D01*
G54D11*
G01X13536120Y-3530019D02*
G01X13536120Y-3434132D01*
G01X13536120Y-3434132D02*
G01X13403999Y-3434132D01*
G01X13403999Y-3434132D02*
G01X13403999Y-3530019D01*
G01X13536120Y-3615262D02*
G01X13536120Y-3711149D01*
G01X13536120Y-3711149D02*
G01X13403999Y-3711149D01*
G01X13403999Y-3711149D02*
G01X13403999Y-3615262D01*
G54D12*
G01X10874003Y-4702568D02*
G01X10954000Y-4702568D01*
G01X10817958Y-4702522D02*
G01X10737960Y-4702522D01*
G01X10874003Y-4844536D02*
G01X10954000Y-4844536D01*
G01X10817958Y-4844488D02*
G01X10737960Y-4844488D01*
G01X10984975Y-4733551D02*
G01X10984975Y-4813556D01*
G01X10706982Y-4813502D02*
G01X10706982Y-4733500D01*
G01X10737965Y-4844488D02*
G02X10706982Y-4813502I0J30983D01*
G01X10706982Y-4733505D02*
G02X10737965Y-4702522I30983J0D01*
G01X10953995Y-4702568D02*
G02X10984975Y-4733551I-3J-30983D01*
G01X10984975Y-4813548D02*
G02X10953995Y-4844536I-30983J-5D01*
G54D11*
G01X10760537Y-3926576D02*
G01X10155291Y-3926576D01*
G54D12*
G01X10457914Y-4082662D02*
G01X10407114Y-4184262D01*
G01X10407114Y-4184262D02*
G01X10508714Y-4184262D01*
G01X10508714Y-4184262D02*
G01X10457914Y-4082662D01*
G01X10457914Y-4082662D02*
G01X10407114Y-4082662D01*
G01X10407114Y-4082662D02*
G01X10508714Y-4082662D01*
G01X10457914Y-4235062D02*
G01X10457914Y-4031862D01*
G54D11*
G01X10760537Y-3735842D02*
G01X10760537Y-4531081D01*
G01X10155291Y-3735842D02*
G01X10155291Y-4531081D01*
G01X10760537Y-4531081D02*
G01X10640235Y-4531081D01*
G01X10155291Y-4531081D02*
G01X10275593Y-4531081D01*
G36*
G01X10768154Y-3743462D02*
G01X10635155Y-3743462D01*
G01X10635155Y-3697742D01*
G01X10768154Y-3697742D01*
G01X10768154Y-3743462D01*
G37*
G36*
G01X10147673Y-3743462D02*
G01X10147673Y-3697742D01*
G01X10280673Y-3697742D01*
G01X10280673Y-3743462D01*
G01X10147673Y-3743462D01*
G37*
G54D13*
G01X10909792Y-3464260D02*
G01X11169492Y-3464260D01*
G54D14*
G01X11038392Y-3620099D02*
G01X11038392Y-3493099D01*
G01X11038392Y-3594699D02*
G01X11076492Y-3594699D01*
G01X11076492Y-3594699D02*
G01X11038392Y-3518499D01*
G01X11038392Y-3518499D02*
G01X11076492Y-3518499D01*
G01X11038392Y-3594699D02*
G01X11000292Y-3594699D01*
G01X11000292Y-3594699D02*
G01X11038392Y-3518499D01*
G01X11038392Y-3518499D02*
G01X11000292Y-3518499D01*
G54D13*
G01X11135291Y-3781947D02*
G01X11168291Y-3781947D01*
G01X11168291Y-3781947D02*
G01X11168291Y-3347249D01*
G01X11168291Y-3347249D02*
G01X11137191Y-3347249D01*
G01X10944392Y-3780947D02*
G01X10908591Y-3780947D01*
G01X10908591Y-3780947D02*
G01X10908591Y-3346348D01*
G01X10908591Y-3346348D02*
G01X10939693Y-3346348D01*
G54D11*
G01X9756607Y-3589327D02*
G01X9637596Y-3589327D01*
G01X9941847Y-3589327D02*
G01X10060856Y-3589327D01*
G01X9622356Y-3604567D02*
G01X9622356Y-3792608D01*
G01X10076096Y-3604567D02*
G01X10076096Y-3792608D01*
G01X9637596Y-3807848D02*
G01X9756607Y-3807848D01*
G01X10060856Y-3807848D02*
G01X9941847Y-3807848D01*
G54D16*
G01X9849226Y-3698588D02*
G02X9849226Y-3614093I73175J42247D01*
G01X9849226Y-3698588D02*
G02X9849226Y-3783083I-73175J-42247D01*
G54D12*
G01X10554935Y-5181119D02*
G01X10094931Y-5181119D01*
G01X10094933Y-4771123D02*
G01X10094936Y-4826121D01*
G01X10554932Y-4771123D02*
G01X10554935Y-4826121D01*
G01X10094931Y-5126169D02*
G01X10094931Y-5181033D01*
G01X10094931Y-4771123D02*
G01X10554935Y-4771123D01*
G01X10554932Y-5126121D02*
G01X10554935Y-5181119D01*
G54D11*
G01X10670637Y-5214080D02*
G01X10574749Y-5214080D01*
G01X10574749Y-5214080D02*
G01X10574749Y-5346201D01*
G01X10574749Y-5346201D02*
G01X10670637Y-5346201D01*
G01X10755879Y-5214080D02*
G01X10851767Y-5214080D01*
G01X10851767Y-5214080D02*
G01X10851767Y-5346201D01*
G01X10851767Y-5346201D02*
G01X10755879Y-5346201D01*
G01X11019791Y-5672285D02*
G01X11019791Y-5576398D01*
G01X11019791Y-5576398D02*
G01X10887671Y-5576398D01*
G01X10887671Y-5576398D02*
G01X10887671Y-5672285D01*
G01X11019791Y-5757527D02*
G01X11019791Y-5853415D01*
G01X11019791Y-5853415D02*
G01X10887671Y-5853415D01*
G01X10887671Y-5853415D02*
G01X10887671Y-5757527D01*
G01X10546149Y-5720008D02*
G01X10450261Y-5720008D01*
G01X10450261Y-5720008D02*
G01X10450261Y-5852128D01*
G01X10450261Y-5852128D02*
G01X10546149Y-5852128D01*
G01X10631391Y-5720008D02*
G01X10727279Y-5720008D01*
G01X10727279Y-5720008D02*
G01X10727279Y-5852128D01*
G01X10727279Y-5852128D02*
G01X10631391Y-5852128D01*
G01X10277611Y-5593772D02*
G01X10277611Y-5378532D01*
G01X10592850Y-5378532D02*
G01X10592850Y-5593772D01*
G01X11126156Y-4001026D02*
G01X11126156Y-3905138D01*
G01X11126156Y-3905138D02*
G01X10994035Y-3905138D01*
G01X10994035Y-3905138D02*
G01X10994035Y-4001026D01*
G01X11126156Y-4086268D02*
G01X11126156Y-4182156D01*
G01X11126156Y-4182156D02*
G01X10994035Y-4182156D01*
G01X10994035Y-4182156D02*
G01X10994035Y-4086268D01*

G04 Circle Start*
G54D17*
G01X10325223Y-5634158D02*
G03X10345238Y-5634158I10008J0D01*
G03X10325223Y-5634158I-10008J0D01*
G04 Circle End*

M02*

