G04 Layer: BottomLayer*
G04 EasyEDA Pro v3.2.149.88089769, 2026-08-13 17:59:42*
G04 Gerber Generator version 0.3*
G04 Scale: 100 percent, Rotated: No, Reflected: No*
G04 Dimensions in millimeters*
G04 Leading zeros omitted, absolute positions, 4 integers and 5 decimals*
G04 Generated by one-click*
G04 Object Configs: Pad,Via,Track,Text,Image,Dimension,BoardOutline,BoardCutout,CopperFilled,SolidRegion,FPCStiffener,Line,PlaneZone,ComponentProperty,ComponentSilkscreen,TearDrop*
G04 Layer Configs: 1,15,16,2,3,4,5,6,7,8,9,10,11,13,14,56*
G04 Copper Areas: 35*
%FSLAX45Y45*%
%MOMM*%
%ADD10C,0.2032*%
%ADD11C,0.254*%
%ADD12R,1.524X1.524*%
%ADD13C,1.8*%
%ADD14R,0.8X0.9*%
%ADD15R,0.9X0.8*%
%ADD16R,2.49999X1.5*%
%ADD17R,0.86401X0.80648*%
%ADD18R,0.8155X0.86401*%
%ADD19R,0.80648X0.86401*%
%ADD20R,0.532X1.07201*%
%ADD21R,0.55999X1.42999*%
%ADD22O,2.1X0.55999*%
%ADD23R,1.397X0.40599*%
%ADD24R,0.7X1.25001*%
%ADD25O,2.0X1.1*%
%ADD26O,1.8X1.2*%
%ADD27R,1.2X1.4*%
%ADD28R,0.8X0.65001*%
%ADD29R,0.8X0.5*%
%ADD30C,1.524*%
%ADD31R,0.28001X0.505*%
%ADD32R,2.4X0.84*%
%ADD33R,2.79999X1.1*%
%ADD34R,1.1X2.79999*%
%ADD35R,1.2X1.0*%
%ADD36C,0.61*%
%ADD37C,0.508*%
G75*


G04 Copper Start*
G36*
G01X9528628Y-2918718D02*
G01X10151476Y-2918718D01*
G01X10142128Y-2923372D01*
G01X10133993Y-2929918D01*
G01X10130817Y-2933094D01*
G01X10014666Y-2933094D01*
G01X10003599Y-2934847D01*
G01X9993615Y-2939934D01*
G01X9985692Y-2947857D01*
G01X9980605Y-2957841D01*
G01X9978852Y-2968908D01*
G01X9978852Y-3121308D01*
G01X9980605Y-3132375D01*
G01X9985692Y-3142359D01*
G01X9993615Y-3150282D01*
G01X10003599Y-3155369D01*
G01X10014666Y-3157122D01*
G01X10167066Y-3157122D01*
G01X10178133Y-3155369D01*
G01X10188117Y-3150282D01*
G01X10196040Y-3142359D01*
G01X10201127Y-3132375D01*
G01X10202880Y-3121308D01*
G01X10202880Y-3012737D01*
G01X11280319Y-3012737D01*
G01X11337616Y-3070034D01*
G01X11324654Y-3068270D01*
G01X10559830Y-3068270D01*
G01X10547273Y-3069923D01*
G01X10535573Y-3074770D01*
G01X10525525Y-3082480D01*
G01X10426417Y-3181587D01*
G01X10422597Y-3181383D01*
G01X10270197Y-3181383D01*
G01X10259130Y-3183136D01*
G01X10249146Y-3188223D01*
G01X10241223Y-3196146D01*
G01X10236136Y-3206130D01*
G01X10234383Y-3217197D01*
G01X10234383Y-3369597D01*
G01X10236136Y-3380664D01*
G01X10241223Y-3390648D01*
G01X10249146Y-3398571D01*
G01X10259130Y-3403658D01*
G01X10270197Y-3405411D01*
G01X10422597Y-3405411D01*
G01X10433664Y-3403658D01*
G01X10443648Y-3398571D01*
G01X10451571Y-3390648D01*
G01X10456658Y-3380664D01*
G01X10458411Y-3369597D01*
G01X10458411Y-3286812D01*
G01X10579925Y-3165298D01*
G01X10902884Y-3165298D01*
G01X10894203Y-3176877D01*
G01X10888241Y-3190063D01*
G01X10885282Y-3204228D01*
G01X10885465Y-3218698D01*
G01X10888783Y-3232784D01*
G01X10895077Y-3245815D01*
G01X10904049Y-3257170D01*
G01X10915269Y-3266308D01*
G01X10903702Y-3276413D01*
G01X10894770Y-3288909D01*
G01X10888952Y-3303124D01*
G01X10886561Y-3318296D01*
G01X10887724Y-3333611D01*
G01X10892379Y-3348248D01*
G01X10900277Y-3361422D01*
G01X10910994Y-3372425D01*
G01X10923954Y-3380667D01*
G01X10938464Y-3385707D01*
G01X10953743Y-3387273D01*
G01X10968973Y-3385282D01*
G01X10983337Y-3379841D01*
G01X10996063Y-3371241D01*
G01X11006469Y-3359945D01*
G01X11013998Y-3346557D01*
G01X11018245Y-3331796D01*
G01X11018981Y-3316454D01*
G01X11016169Y-3301354D01*
G01X11009958Y-3287307D01*
G01X11000682Y-3275064D01*
G01X10988838Y-3265285D01*
G01X10997462Y-3258223D01*
G01X11010139Y-3266779D01*
G01X11024439Y-3272202D01*
G01X11039602Y-3274205D01*
G01X11054819Y-3272681D01*
G01X11069284Y-3267712D01*
G01X11082225Y-3259561D01*
G01X11089488Y-3266866D01*
G01X11097796Y-3272958D01*
G01X11086264Y-3283437D01*
G01X11077496Y-3296319D01*
G01X11071975Y-3310891D01*
G01X11070008Y-3326348D01*
G01X11071702Y-3341838D01*
G01X11076964Y-3356506D01*
G01X11085503Y-3369540D01*
G01X11096848Y-3380222D01*
G01X11084953Y-3391011D01*
G01X11076001Y-3404343D01*
G01X11070516Y-3419437D01*
G01X11068820Y-3435406D01*
G01X11071012Y-3451314D01*
G01X11076964Y-3466230D01*
G01X11086328Y-3479277D01*
G01X11098553Y-3489690D01*
G01X11087054Y-3499810D01*
G01X11078183Y-3512297D01*
G01X11072414Y-3526487D01*
G01X11070055Y-3541622D01*
G01X11071232Y-3556895D01*
G01X11075881Y-3571490D01*
G01X11083755Y-3584629D01*
G01X11094434Y-3595611D01*
G01X11107347Y-3603850D01*
G01X11121807Y-3608906D01*
G01X11137040Y-3610509D01*
G01X11152235Y-3608575D01*
G01X11166581Y-3603206D01*
G01X11179312Y-3594688D01*
G01X11189750Y-3583477D01*
G01X11197336Y-3570170D01*
G01X11201667Y-3555477D01*
G01X11202512Y-3540183D01*
G01X11199824Y-3525103D01*
G01X11193749Y-3511041D01*
G01X11184609Y-3498749D01*
G01X11172892Y-3488882D01*
G01X11184646Y-3478478D01*
G01X11193626Y-3465603D01*
G01X11199327Y-3450977D01*
G01X11201431Y-3435422D01*
G01X11199820Y-3419807D01*
G01X11194584Y-3405009D01*
G01X11186016Y-3391856D01*
G01X11174597Y-3381086D01*
G01X11186650Y-3370113D01*
G01X11195662Y-3356532D01*
G01X11201089Y-3341163D01*
G01X11202603Y-3324934D01*
G01X11200113Y-3308826D01*
G01X11193769Y-3293812D01*
G01X11183954Y-3280799D01*
G01X11171262Y-3270573D01*
G01X11182528Y-3260398D01*
G01X11191184Y-3247928D01*
G01X11196778Y-3233815D01*
G01X11199016Y-3218800D01*
G01X11197780Y-3203670D01*
G01X11193136Y-3189217D01*
G01X11185327Y-3176199D01*
G01X11174762Y-3165298D01*
G01X11304559Y-3165298D01*
G01X11386006Y-3246746D01*
G01X11386006Y-3438362D01*
G01X11387659Y-3450918D01*
G01X11392506Y-3462619D01*
G01X11400216Y-3472667D01*
G01X11447851Y-3520302D01*
G01X11457898Y-3528011D01*
G01X11469599Y-3532858D01*
G01X11482155Y-3534511D01*
G01X11697395Y-3534511D01*
G01X11709951Y-3532858D01*
G01X11721652Y-3528011D01*
G01X11731700Y-3520301D01*
G01X11777676Y-3474325D01*
G01X11779935Y-3474325D01*
G01X11779654Y-3478797D01*
G01X11779654Y-3559444D01*
G01X11780969Y-3569058D01*
G01X11784816Y-3577966D01*
G01X11790913Y-3585515D01*
G01X11798812Y-3591150D01*
G01X11807935Y-3594457D01*
G01X11798812Y-3597765D01*
G01X11790913Y-3603399D01*
G01X11784816Y-3610948D01*
G01X11780969Y-3619856D01*
G01X11779654Y-3629470D01*
G01X11779654Y-3710117D01*
G01X11781200Y-3720526D01*
G01X11785705Y-3730036D01*
G01X11792779Y-3737827D01*
G01X11801812Y-3743225D01*
G01X11812023Y-3745765D01*
G01X11812023Y-3748958D01*
G01X11802301Y-3751872D01*
G01X11793787Y-3757397D01*
G01X11787165Y-3765088D01*
G01X11782966Y-3774328D01*
G01X11781528Y-3784375D01*
G01X11781528Y-3829246D01*
G01X11722633Y-3888140D01*
G01X11714924Y-3898188D01*
G01X11710077Y-3909888D01*
G01X11708424Y-3922445D01*
G01X11708424Y-4043622D01*
G01X11710077Y-4056179D01*
G01X11714924Y-4067879D01*
G01X11722633Y-4077927D01*
G01X11756107Y-4111401D01*
G01X11766155Y-4119111D01*
G01X11777856Y-4123957D01*
G01X11790412Y-4125610D01*
G01X11861541Y-4125610D01*
G01X11921555Y-4185624D01*
G01X11873543Y-4185624D01*
G01X11860986Y-4187277D01*
G01X11849286Y-4192124D01*
G01X11839238Y-4199834D01*
G01X11610619Y-4428453D01*
G01X11606455Y-4421357D01*
G01X11601152Y-4415068D01*
G01X11500701Y-4314617D01*
G01X11520114Y-4314617D01*
G01X11531005Y-4312921D01*
G01X11540864Y-4307993D01*
G01X11548758Y-4300301D01*
G01X11553939Y-4290572D01*
G01X11555916Y-4279729D01*
G01X11571508Y-4283831D01*
G01X11587630Y-4284050D01*
G01X11603328Y-4280372D01*
G01X11617674Y-4273014D01*
G01X11629821Y-4262412D01*
G01X11639049Y-4249191D01*
G01X11644815Y-4234134D01*
G01X11646777Y-4218131D01*
G01X11644818Y-4202127D01*
G01X11639055Y-4187069D01*
G01X11629829Y-4173847D01*
G01X11617685Y-4163242D01*
G01X11603340Y-4155882D01*
G01X11587643Y-4152200D01*
G01X11571521Y-4152416D01*
G01X11555928Y-4156516D01*
G01X11555928Y-4128804D01*
G01X11554175Y-4117736D01*
G01X11549088Y-4107753D01*
G01X11541165Y-4099829D01*
G01X11531181Y-4094742D01*
G01X11520114Y-4092990D01*
G01X11489758Y-4092990D01*
G01X11489758Y-4074617D01*
G01X11489488Y-4069503D01*
G01X11489488Y-3940741D01*
G01X11502538Y-3940741D01*
G01X11507600Y-3950787D01*
G01X11515530Y-3958767D01*
G01X11525544Y-3963893D01*
G01X11536654Y-3965660D01*
G01X11626654Y-3965660D01*
G01X11637721Y-3963907D01*
G01X11647705Y-3958820D01*
G01X11655628Y-3950897D01*
G01X11660715Y-3940913D01*
G01X11662468Y-3929846D01*
G01X11662468Y-3849847D01*
G01X11660524Y-3838206D01*
G01X11654901Y-3827830D01*
G01X11646212Y-3819844D01*
G01X11654901Y-3811858D01*
G01X11660524Y-3801482D01*
G01X11662468Y-3789842D01*
G01X11662468Y-3709842D01*
G01X11660715Y-3698775D01*
G01X11655628Y-3688791D01*
G01X11647705Y-3680868D01*
G01X11637721Y-3675781D01*
G01X11626654Y-3674028D01*
G01X11536654Y-3674028D01*
G01X11525587Y-3675781D01*
G01X11515603Y-3680868D01*
G01X11507680Y-3688791D01*
G01X11502593Y-3698775D01*
G01X11500840Y-3709842D01*
G01X11500840Y-3789842D01*
G01X11502785Y-3801482D01*
G01X11508407Y-3811858D01*
G01X11517097Y-3819844D01*
G01X11509716Y-3826246D01*
G01X11504340Y-3834405D01*
G01X11501369Y-3843713D01*
G01X11474352Y-3843713D01*
G01X11471726Y-3833442D01*
G01X11466207Y-3824389D01*
G01X11458281Y-3817349D01*
G01X11466970Y-3809363D01*
G01X11472593Y-3798987D01*
G01X11474537Y-3787346D01*
G01X11474537Y-3707346D01*
G01X11472784Y-3696279D01*
G01X11467697Y-3686295D01*
G01X11459774Y-3678372D01*
G01X11449790Y-3673285D01*
G01X11438723Y-3671532D01*
G01X11348723Y-3671532D01*
G01X11337656Y-3673285D01*
G01X11327672Y-3678372D01*
G01X11319749Y-3686295D01*
G01X11314662Y-3696279D01*
G01X11312909Y-3707346D01*
G01X11312909Y-3787346D01*
G01X11314854Y-3798987D01*
G01X11320476Y-3809363D01*
G01X11329166Y-3817349D01*
G01X11322010Y-3823497D01*
G01X11316707Y-3831301D01*
G01X11313627Y-3840218D01*
G01X11300751Y-3833004D01*
G01X11286598Y-3828816D01*
G01X11271869Y-3827862D01*
G01X11257294Y-3830190D01*
G01X11243595Y-3835685D01*
G01X11231450Y-3844073D01*
G01X11221462Y-3854939D01*
G01X11214125Y-3867746D01*
G01X11209802Y-3881858D01*
G01X11208708Y-3896577D01*
G01X11210896Y-3911174D01*
G01X11216259Y-3924924D01*
G01X11224531Y-3937149D01*
G01X11235301Y-3947240D01*
G01X11248037Y-3954700D01*
G01X11262107Y-3959157D01*
G01X11276815Y-3960392D01*
G01X11291432Y-3958343D01*
G01X11305234Y-3953112D01*
G01X11317536Y-3944958D01*
G01X11323216Y-3952491D01*
G01X11330667Y-3958280D01*
G01X11339371Y-3961922D01*
G01X11348723Y-3963165D01*
G01X11392460Y-3963165D01*
G01X11392460Y-4074346D01*
G01X11392730Y-4079460D01*
G01X11392730Y-4092990D01*
G01X11270115Y-4092990D01*
G01X11259047Y-4094742D01*
G01X11249064Y-4099829D01*
G01X11241140Y-4107753D01*
G01X11236053Y-4117736D01*
G01X11234301Y-4128804D01*
G01X11234301Y-4258258D01*
G01X11171370Y-4321189D01*
G01X11163660Y-4331236D01*
G01X11158814Y-4342937D01*
G01X11157161Y-4355493D01*
G01X11157161Y-4667245D01*
G01X11133321Y-4667245D01*
G01X11133321Y-4666157D01*
G01X11131568Y-4655090D01*
G01X11126481Y-4645106D01*
G01X11118558Y-4637183D01*
G01X11108574Y-4632096D01*
G01X11097507Y-4630343D01*
G01X11016860Y-4630343D01*
G01X11007246Y-4631657D01*
G01X10998338Y-4635504D01*
G01X10990789Y-4641601D01*
G01X10985154Y-4649501D01*
G01X10981847Y-4658623D01*
G01X10978298Y-4649048D01*
G01X10972191Y-4640865D01*
G01X10964023Y-4634737D01*
G01X10954457Y-4631163D01*
G01X10954457Y-4468062D01*
G01X10965209Y-4468062D01*
G01X10976277Y-4466310D01*
G01X10986260Y-4461223D01*
G01X10994184Y-4453299D01*
G01X10999271Y-4443316D01*
G01X11001023Y-4432248D01*
G01X11001023Y-4332249D01*
G01X10999271Y-4321182D01*
G01X10994184Y-4311198D01*
G01X10986260Y-4303275D01*
G01X10976277Y-4298187D01*
G01X10965209Y-4296435D01*
G01X10845210Y-4296435D01*
G01X10834143Y-4298187D01*
G01X10824159Y-4303275D01*
G01X10816236Y-4311198D01*
G01X10811149Y-4321182D01*
G01X10809396Y-4332249D01*
G01X10809396Y-4432248D01*
G01X10811149Y-4443316D01*
G01X10816236Y-4453299D01*
G01X10824159Y-4461223D01*
G01X10834143Y-4466310D01*
G01X10845210Y-4468062D01*
G01X10857429Y-4468062D01*
G01X10857429Y-4631430D01*
G01X10846621Y-4636160D01*
G01X10837935Y-4644145D01*
G01X10832316Y-4654520D01*
G01X10830373Y-4666157D01*
G01X10830373Y-4752557D01*
G01X10832126Y-4763625D01*
G01X10837213Y-4773608D01*
G01X10845136Y-4781532D01*
G01X10855120Y-4786619D01*
G01X10866187Y-4788371D01*
G01X10911924Y-4788371D01*
G01X10981052Y-4857499D01*
G01X10934122Y-4857499D01*
G01X10923055Y-4859252D01*
G01X10913071Y-4864339D01*
G01X10905148Y-4872262D01*
G01X10900061Y-4882246D01*
G01X10898308Y-4893313D01*
G01X10898308Y-5173312D01*
G01X10899801Y-5183543D01*
G01X10904154Y-5192922D01*
G01X10891048Y-5184077D01*
G01X10876221Y-5178586D01*
G01X10860516Y-5176761D01*
G01X10844825Y-5178706D01*
G01X10830040Y-5184310D01*
G01X10817002Y-5193255D01*
G01X10806452Y-5205032D01*
G01X10798990Y-5218972D01*
G01X10795040Y-5234281D01*
G01X10779471Y-5232353D01*
G01X10763884Y-5234136D01*
G01X10749152Y-5239530D01*
G01X10736100Y-5248235D01*
G01X10725458Y-5259762D01*
G01X10717821Y-5273466D01*
G01X10713618Y-5288581D01*
G01X10713083Y-5304260D01*
G01X10716246Y-5319627D01*
G01X10722931Y-5333820D01*
G01X10732763Y-5346045D01*
G01X10745192Y-5355619D01*
G01X10759521Y-5362005D01*
G01X10774951Y-5364846D01*
G01X10775426Y-5379689D01*
G01X10779193Y-5394054D01*
G01X10786063Y-5407221D01*
G01X10795689Y-5418528D01*
G01X10807591Y-5427410D01*
G01X10821171Y-5433420D01*
G01X10835748Y-5436258D01*
G01X10850591Y-5435781D01*
G01X10864955Y-5432012D01*
G01X10878121Y-5425142D01*
G01X10889428Y-5415514D01*
G01X10898308Y-5403611D01*
G01X10898308Y-5505417D01*
G01X10900061Y-5516484D01*
G01X10905148Y-5526468D01*
G01X10913071Y-5534391D01*
G01X10923055Y-5539478D01*
G01X10934122Y-5541231D01*
G01X11044122Y-5541231D01*
G01X11055189Y-5539478D01*
G01X11065173Y-5534391D01*
G01X11073096Y-5526468D01*
G01X11078183Y-5516484D01*
G01X11079936Y-5505417D01*
G01X11079936Y-5381202D01*
G01X11403167Y-5381202D01*
G01X11404164Y-5381192D01*
G01X11407610Y-5382389D01*
G01X11393637Y-5388066D01*
G01X11381308Y-5396754D01*
G01X11371262Y-5408002D01*
G01X11364017Y-5421230D01*
G01X11359948Y-5435754D01*
G01X11359266Y-5450820D01*
G01X11362006Y-5465652D01*
G01X11368027Y-5479480D01*
G01X11377017Y-5491590D01*
G01X11377017Y-5713187D01*
G01X11378670Y-5725744D01*
G01X11383516Y-5737444D01*
G01X11391226Y-5747492D01*
G01X11556099Y-5912365D01*
G01X11566147Y-5920075D01*
G01X11577848Y-5924922D01*
G01X11590404Y-5926575D01*
G01X12218312Y-5926575D01*
G01X12230868Y-5924922D01*
G01X12242569Y-5920075D01*
G01X12252617Y-5912365D01*
G01X12297051Y-5867930D01*
G01X12322184Y-5867930D01*
G01X12322184Y-5981854D01*
G01X12323937Y-5992921D01*
G01X12329024Y-6002905D01*
G01X12336947Y-6010828D01*
G01X12346931Y-6015915D01*
G01X12357998Y-6017668D01*
G01X12427998Y-6017668D01*
G01X12436616Y-6016615D01*
G01X12444728Y-6013520D01*
G01X12451856Y-6008564D01*
G01X12774816Y-6008564D01*
G01X12777615Y-6018444D01*
G01X12783103Y-6027123D01*
G01X12790828Y-6033888D01*
G01X12800155Y-6038184D01*
G01X12810317Y-6039656D01*
G01X12890965Y-6039656D01*
G01X12900579Y-6038341D01*
G01X12909487Y-6034495D01*
G01X12917035Y-6028397D01*
G01X12922670Y-6020498D01*
G01X12925977Y-6011376D01*
G01X12929285Y-6020498D01*
G01X12934920Y-6028397D01*
G01X12942468Y-6034495D01*
G01X12951376Y-6038341D01*
G01X12960990Y-6039656D01*
G01X12966273Y-6039656D01*
G01X12978437Y-6048369D01*
G01X12992244Y-6054134D01*
G01X13006992Y-6056657D01*
G01X13021931Y-6055808D01*
G01X13036299Y-6051633D01*
G01X13049365Y-6044343D01*
G01X13060464Y-6034308D01*
G01X13067524Y-6028592D01*
G01X13072918Y-6021283D01*
G01X13076300Y-6012852D01*
G01X13077452Y-6003842D01*
G01X13077452Y-5917441D01*
G01X13077096Y-5912405D01*
G01X13222081Y-6057390D01*
G01X13232128Y-6065099D01*
G01X13243829Y-6069946D01*
G01X13256385Y-6071599D01*
G01X13510819Y-6071599D01*
G01X13523375Y-6069946D01*
G01X13535075Y-6065099D01*
G01X13545123Y-6057390D01*
G01X13551552Y-6050961D01*
G01X13591671Y-6050961D01*
G01X13604042Y-6060059D01*
G01X13618174Y-6066068D01*
G01X13633310Y-6068665D01*
G01X13648637Y-6067711D01*
G01X13663334Y-6063257D01*
G01X13676611Y-6055542D01*
G01X13687759Y-6044979D01*
G01X13696178Y-6032136D01*
G01X13701417Y-6017701D01*
G01X13703195Y-6002447D01*
G01X13701417Y-5987194D01*
G01X13696178Y-5972758D01*
G01X13687759Y-5959915D01*
G01X13676611Y-5949353D01*
G01X13663334Y-5941638D01*
G01X13648637Y-5937184D01*
G01X13633310Y-5936229D01*
G01X13618174Y-5938826D01*
G01X13604042Y-5944835D01*
G01X13591671Y-5953933D01*
G01X13535076Y-5953933D01*
G01X13535076Y-5940101D01*
G01X13622805Y-5852372D01*
G01X13736125Y-5852372D01*
G01X13747192Y-5850619D01*
G01X13757176Y-5845532D01*
G01X13765099Y-5837609D01*
G01X13770186Y-5827625D01*
G01X13771939Y-5816558D01*
G01X13771939Y-5775959D01*
G01X13771399Y-5769766D01*
G01X13769797Y-5763759D01*
G01X13771399Y-5757753D01*
G01X13771939Y-5751559D01*
G01X13771939Y-5710960D01*
G01X13771398Y-5704760D01*
G01X13769792Y-5698748D01*
G01X13771398Y-5692735D01*
G01X13771939Y-5686535D01*
G01X13771939Y-5645936D01*
G01X13771399Y-5639743D01*
G01X13769797Y-5633737D01*
G01X13771399Y-5627730D01*
G01X13771939Y-5621537D01*
G01X13771939Y-5580938D01*
G01X13770186Y-5569870D01*
G01X13765099Y-5559887D01*
G01X13757176Y-5551963D01*
G01X13747192Y-5546876D01*
G01X13736125Y-5545124D01*
G01X13596425Y-5545124D01*
G01X13588743Y-5545957D01*
G01X13581419Y-5548419D01*
G01X13711187Y-5418651D01*
G01X13724317Y-5412797D01*
G01X13735877Y-5404252D01*
G01X13745324Y-5393417D01*
G01X13752213Y-5380800D01*
G01X13756223Y-5366995D01*
G01X13757162Y-5352651D01*
G01X13754989Y-5338441D01*
G01X13749804Y-5325033D01*
G01X13760872Y-5314344D01*
G01X13769178Y-5301392D01*
G01X13774276Y-5286875D01*
G01X13775890Y-5271573D01*
G01X13773935Y-5256311D01*
G01X13781641Y-5267936D01*
G01X13791687Y-5277609D01*
G01X13803595Y-5284868D01*
G01X13816796Y-5289367D01*
G01X13830659Y-5290891D01*
G01X13954332Y-5290891D01*
G01X13997296Y-5333855D01*
G01X13997296Y-5406893D01*
G01X13984697Y-5399205D01*
G01X13970710Y-5394493D01*
G01X13956028Y-5392991D01*
G01X13941377Y-5394775D01*
G01X13927483Y-5399754D01*
G01X13915035Y-5407684D01*
G01X13904649Y-5418170D01*
G01X13896839Y-5430694D01*
G01X13891993Y-5444635D01*
G01X13890351Y-5459302D01*
G01X13891993Y-5473970D01*
G01X13896839Y-5487911D01*
G01X13904649Y-5500435D01*
G01X13915035Y-5510921D01*
G01X13927483Y-5518850D01*
G01X13941377Y-5523830D01*
G01X13956028Y-5525613D01*
G01X13970710Y-5524112D01*
G01X13984697Y-5519400D01*
G01X13997296Y-5511711D01*
G01X13997296Y-5535636D01*
G01X13997904Y-5543295D01*
G01X13982715Y-5540567D01*
G01X13967306Y-5541423D01*
G01X13952513Y-5545818D01*
G01X13939136Y-5553513D01*
G01X13927900Y-5564092D01*
G01X13919413Y-5576981D01*
G01X13908161Y-5566232D01*
G01X13894715Y-5558402D01*
G01X13879813Y-5553920D01*
G01X13864278Y-5553034D01*
G01X13848964Y-5555793D01*
G01X13834714Y-5562044D01*
G01X13822313Y-5571444D01*
G01X13812445Y-5583475D01*
G01X13805651Y-5597474D01*
G01X13802307Y-5612671D01*
G01X13802596Y-5628229D01*
G01X13806503Y-5643292D01*
G01X13813812Y-5657029D01*
G01X13824121Y-5668685D01*
G01X13836863Y-5677617D01*
G01X13851335Y-5683335D01*
G01X13843954Y-5696691D01*
G01X13839822Y-5711381D01*
G01X13839157Y-5726627D01*
G01X13841995Y-5741621D01*
G01X13848186Y-5755569D01*
G01X13857401Y-5767733D01*
G01X13869152Y-5777469D01*
G01X13882818Y-5784260D01*
G01X13897674Y-5787748D01*
G01X13912934Y-5787747D01*
G01X13927790Y-5784258D01*
G01X13941455Y-5777465D01*
G01X13953206Y-5767728D01*
G01X13962420Y-5755563D01*
G01X13968608Y-5741614D01*
G01X13971445Y-5726620D01*
G01X13970779Y-5711374D01*
G01X13966645Y-5696685D01*
G01X13959263Y-5683329D01*
G01X13949023Y-5672014D01*
G01X13936468Y-5663340D01*
G01X13922262Y-5657765D01*
G01X13927550Y-5649002D01*
G01X13937404Y-5658670D01*
G01X13949047Y-5666089D01*
G01X13961973Y-5670936D01*
G01X13975623Y-5673001D01*
G01X13989404Y-5672196D01*
G01X14002721Y-5668555D01*
G01X14014995Y-5662235D01*
G01X14025694Y-5653511D01*
G01X14034355Y-5642761D01*
G01X14040603Y-5630451D01*
G01X14044167Y-5617113D01*
G01X14044892Y-5603327D01*
G01X14058161Y-5616597D01*
G01X14058161Y-5732306D01*
G01X14060084Y-5743883D01*
G01X14065646Y-5754217D01*
G01X14038342Y-5781521D01*
G01X13986137Y-5781521D01*
G01X13975070Y-5783274D01*
G01X13965086Y-5788361D01*
G01X13957163Y-5796284D01*
G01X13952076Y-5806268D01*
G01X13950323Y-5817335D01*
G01X13950323Y-5907335D01*
G01X13952076Y-5918402D01*
G01X13957163Y-5928386D01*
G01X13965086Y-5936309D01*
G01X13975070Y-5941396D01*
G01X13986137Y-5943149D01*
G01X14066137Y-5943149D01*
G01X14077204Y-5941396D01*
G01X14087188Y-5936309D01*
G01X14095111Y-5928386D01*
G01X14100198Y-5918402D01*
G01X14101951Y-5907335D01*
G01X14101951Y-5855130D01*
G01X14112397Y-5844684D01*
G01X14419369Y-5844684D01*
G01X14421145Y-5860442D01*
G01X14426382Y-5875410D01*
G01X14434819Y-5888837D01*
G01X14446032Y-5900050D01*
G01X14459459Y-5908487D01*
G01X14474427Y-5913724D01*
G01X14490185Y-5915499D01*
G01X14505942Y-5913724D01*
G01X14520910Y-5908487D01*
G01X14534337Y-5900050D01*
G01X14545550Y-5888837D01*
G01X14553987Y-5875410D01*
G01X14559224Y-5860442D01*
G01X14561000Y-5844684D01*
G01X14559224Y-5828926D01*
G01X14553987Y-5813959D01*
G01X14545550Y-5800532D01*
G01X14534337Y-5789319D01*
G01X14520910Y-5780882D01*
G01X14505942Y-5775645D01*
G01X14490185Y-5773869D01*
G01X14474427Y-5775645D01*
G01X14459459Y-5780882D01*
G01X14446032Y-5789319D01*
G01X14434819Y-5800532D01*
G01X14426382Y-5813959D01*
G01X14421145Y-5828926D01*
G01X14419369Y-5844684D01*
G01X14419369Y-5844684D01*
G01X14112397Y-5844684D01*
G01X14174295Y-5782786D01*
G01X14180001Y-5775918D01*
G01X14184352Y-5768120D01*
G01X14213975Y-5768120D01*
G01X14223098Y-5766939D01*
G01X14231619Y-5763472D01*
G01X14238976Y-5757949D01*
G01X14246333Y-5763472D01*
G01X14254855Y-5766939D01*
G01X14263978Y-5768120D01*
G01X14383977Y-5768120D01*
G01X14395044Y-5766367D01*
G01X14405028Y-5761280D01*
G01X14412951Y-5753357D01*
G01X14418038Y-5743373D01*
G01X14419791Y-5732306D01*
G01X14419791Y-5592306D01*
G01X14418038Y-5581239D01*
G01X14412951Y-5571255D01*
G01X14405028Y-5563332D01*
G01X14395044Y-5558245D01*
G01X14383977Y-5556492D01*
G01X14263978Y-5556492D01*
G01X14254855Y-5557674D01*
G01X14246333Y-5561140D01*
G01X14238976Y-5566663D01*
G01X14231619Y-5561140D01*
G01X14223098Y-5557674D01*
G01X14213975Y-5556492D01*
G01X14135275Y-5556492D01*
G01X14094324Y-5515541D01*
G01X14094324Y-5313760D01*
G01X14092671Y-5301203D01*
G01X14087824Y-5289503D01*
G01X14080114Y-5279455D01*
G01X14045848Y-5245189D01*
G01X14047928Y-5235397D01*
G01X14228164Y-5415632D01*
G01X14228164Y-5512291D01*
G01X14229916Y-5523358D01*
G01X14235003Y-5533342D01*
G01X14242927Y-5541265D01*
G01X14252910Y-5546352D01*
G01X14263978Y-5548105D01*
G01X14383977Y-5548105D01*
G01X14395044Y-5546352D01*
G01X14405028Y-5541265D01*
G01X14412951Y-5533342D01*
G01X14418038Y-5523358D01*
G01X14419791Y-5512291D01*
G01X14419791Y-5492515D01*
G01X14467114Y-5492515D01*
G01X14472199Y-5502506D01*
G01X14480123Y-5510435D01*
G01X14490110Y-5515526D01*
G01X14501182Y-5517280D01*
G01X14591181Y-5517280D01*
G01X14602249Y-5515527D01*
G01X14612232Y-5510440D01*
G01X14620156Y-5502517D01*
G01X14625243Y-5492533D01*
G01X14626995Y-5481466D01*
G01X14626995Y-5401466D01*
G01X14625243Y-5390399D01*
G01X14620156Y-5380416D01*
G01X14612232Y-5372492D01*
G01X14602249Y-5367405D01*
G01X14591181Y-5365652D01*
G01X14501182Y-5365652D01*
G01X14491263Y-5367053D01*
G01X14482121Y-5371146D01*
G01X14474469Y-5377611D01*
G01X14468907Y-5385942D01*
G01X14465870Y-5395487D01*
G01X14419791Y-5395487D01*
G01X14419791Y-5372292D01*
G01X14418038Y-5361224D01*
G01X14412951Y-5351241D01*
G01X14405028Y-5343317D01*
G01X14395044Y-5338230D01*
G01X14383977Y-5336478D01*
G01X14286227Y-5336478D01*
G01X14216431Y-5266682D01*
G01X14419369Y-5266682D01*
G01X14421145Y-5282440D01*
G01X14426382Y-5297407D01*
G01X14434819Y-5310834D01*
G01X14446032Y-5322047D01*
G01X14459459Y-5330484D01*
G01X14474427Y-5335722D01*
G01X14490185Y-5337497D01*
G01X14505942Y-5335722D01*
G01X14520910Y-5330484D01*
G01X14534337Y-5322047D01*
G01X14545550Y-5310834D01*
G01X14553987Y-5297407D01*
G01X14559224Y-5282440D01*
G01X14561000Y-5266682D01*
G01X14559224Y-5250924D01*
G01X14553987Y-5235956D01*
G01X14545550Y-5222529D01*
G01X14534337Y-5211316D01*
G01X14520910Y-5202880D01*
G01X14505942Y-5197642D01*
G01X14490185Y-5195867D01*
G01X14474427Y-5197642D01*
G01X14459459Y-5202880D01*
G01X14446032Y-5211316D01*
G01X14434819Y-5222529D01*
G01X14426382Y-5235956D01*
G01X14421145Y-5250924D01*
G01X14419369Y-5266682D01*
G01X14419369Y-5266682D01*
G01X14216431Y-5266682D01*
G01X14048458Y-5098708D01*
G01X14046276Y-5083478D01*
G01X14040512Y-5069213D01*
G01X14031502Y-5056742D01*
G01X14019768Y-5046790D01*
G01X14005993Y-5039936D01*
G01X13990979Y-5036577D01*
G01X14004781Y-5033636D01*
G01X14017599Y-5027732D01*
G01X14028806Y-5019156D01*
G01X14037854Y-5008326D01*
G01X14044301Y-4995773D01*
G01X14047830Y-4982109D01*
G01X14048271Y-4968004D01*
G01X14045600Y-4954147D01*
G01X14084697Y-4954147D01*
G01X14084697Y-5026219D01*
G01X14086450Y-5037286D01*
G01X14091537Y-5047269D01*
G01X14099460Y-5055193D01*
G01X14109444Y-5060280D01*
G01X14120511Y-5062033D01*
G01X14200511Y-5062033D01*
G01X14212152Y-5060088D01*
G01X14222528Y-5054466D01*
G01X14230514Y-5045776D01*
G01X14238499Y-5054466D01*
G01X14248876Y-5060088D01*
G01X14260516Y-5062033D01*
G01X14340516Y-5062033D01*
G01X14351583Y-5060280D01*
G01X14361567Y-5055193D01*
G01X14369490Y-5047269D01*
G01X14374577Y-5037286D01*
G01X14376330Y-5026219D01*
G01X14376330Y-4936219D01*
G01X14374577Y-4925152D01*
G01X14369490Y-4915168D01*
G01X14361567Y-4907245D01*
G01X14351583Y-4902158D01*
G01X14340516Y-4900405D01*
G01X14260516Y-4900405D01*
G01X14250269Y-4901902D01*
G01X14240878Y-4906269D01*
G01X14233130Y-4913140D01*
G01X14228431Y-4905389D01*
G01X14222719Y-4898351D01*
G01X14222719Y-4872145D01*
G01X14227265Y-4866511D01*
G01X14235250Y-4875201D01*
G01X14245627Y-4880823D01*
G01X14257267Y-4882768D01*
G01X14337267Y-4882768D01*
G01X14348334Y-4881015D01*
G01X14358318Y-4875928D01*
G01X14366241Y-4868005D01*
G01X14371328Y-4858021D01*
G01X14373081Y-4846954D01*
G01X14373081Y-4756954D01*
G01X14371328Y-4745887D01*
G01X14366241Y-4735903D01*
G01X14358318Y-4727980D01*
G01X14348334Y-4722893D01*
G01X14337267Y-4721140D01*
G01X14257267Y-4721140D01*
G01X14245627Y-4723084D01*
G01X14235250Y-4728707D01*
G01X14227265Y-4737396D01*
G01X14219279Y-4728707D01*
G01X14208903Y-4723084D01*
G01X14197262Y-4721140D01*
G01X14130260Y-4721140D01*
G01X14285576Y-4565825D01*
G01X14293285Y-4555777D01*
G01X14298132Y-4544076D01*
G01X14299785Y-4531520D01*
G01X14299785Y-4235668D01*
G01X14298132Y-4223112D01*
G01X14293285Y-4211411D01*
G01X14285576Y-4201364D01*
G01X14103215Y-4019003D01*
G01X14103215Y-4009878D01*
G01X14119466Y-4010313D01*
G01X14135335Y-4006780D01*
G01X14149868Y-3999493D01*
G01X14162191Y-3988889D01*
G01X14171563Y-3975605D01*
G01X14177422Y-3960440D01*
G01X14179415Y-3944305D01*
G01X14177422Y-3928170D01*
G01X14171563Y-3913005D01*
G01X14162191Y-3899721D01*
G01X14149868Y-3889117D01*
G01X14135335Y-3881830D01*
G01X14119466Y-3878297D01*
G01X14103215Y-3878732D01*
G01X14103215Y-3801097D01*
G01X14103146Y-3798525D01*
G01X14159925Y-3798525D01*
G01X14170992Y-3796772D01*
G01X14180976Y-3791685D01*
G01X14188899Y-3783762D01*
G01X14193986Y-3773778D01*
G01X14195739Y-3762711D01*
G01X14195739Y-3719001D01*
G01X14212266Y-3702474D01*
G01X14248521Y-3702474D01*
G01X14248521Y-3707376D01*
G01X14250274Y-3718443D01*
G01X14255361Y-3728427D01*
G01X14263284Y-3736350D01*
G01X14273268Y-3741437D01*
G01X14284335Y-3743190D01*
G01X14337535Y-3743190D01*
G01X14348512Y-3741466D01*
G01X14358433Y-3736461D01*
G01X14368354Y-3741466D01*
G01X14379331Y-3743190D01*
G01X14392488Y-3743190D01*
G01X14446079Y-3796780D01*
G01X14446079Y-3862480D01*
G01X14447831Y-3873547D01*
G01X14452918Y-3883531D01*
G01X14460842Y-3891454D01*
G01X14470825Y-3896541D01*
G01X14481893Y-3898294D01*
G01X14529683Y-3898294D01*
G01X14517783Y-3910194D01*
G01X14430616Y-3910194D01*
G01X14418060Y-3911847D01*
G01X14406359Y-3916694D01*
G01X14396312Y-3924404D01*
G01X14330544Y-3990171D01*
G01X14322834Y-4000219D01*
G01X14317988Y-4011919D01*
G01X14316335Y-4024476D01*
G01X14316335Y-4608140D01*
G01X14317988Y-4620696D01*
G01X14322834Y-4632397D01*
G01X14330544Y-4642444D01*
G01X14388700Y-4700600D01*
G01X14388700Y-4731085D01*
G01X14390453Y-4742152D01*
G01X14395540Y-4752136D01*
G01X14403463Y-4760059D01*
G01X14413447Y-4765146D01*
G01X14424514Y-4766899D01*
G01X14445420Y-4766899D01*
G01X14460575Y-4782054D01*
G01X14470623Y-4789764D01*
G01X14482324Y-4794611D01*
G01X14494880Y-4796264D01*
G01X14788310Y-4796264D01*
G01X14800866Y-4794611D01*
G01X14812567Y-4789764D01*
G01X14822614Y-4782055D01*
G01X14845449Y-4759219D01*
G01X14898007Y-4759219D01*
G01X14908453Y-4757662D01*
G01X14917991Y-4753125D01*
G01X14925791Y-4746004D01*
G01X14931175Y-4736917D01*
G01X14934850Y-4736917D01*
G01X14940002Y-4746728D01*
G01X14947906Y-4754495D01*
G01X14957805Y-4759474D01*
G01X14968753Y-4761188D01*
G01X15055154Y-4761188D01*
G01X15064531Y-4759938D01*
G01X15073254Y-4756278D01*
G01X15080714Y-4750461D01*
G01X15080714Y-5911028D01*
G01X15078847Y-5939507D01*
G01X15073279Y-5967498D01*
G01X15064105Y-5994524D01*
G01X15051482Y-6020121D01*
G01X15035626Y-6043851D01*
G01X15016808Y-6065309D01*
G01X14995351Y-6084126D01*
G01X14971621Y-6099982D01*
G01X14946024Y-6112605D01*
G01X14918998Y-6121779D01*
G01X14891007Y-6127347D01*
G01X14862528Y-6129214D01*
G01X9528628Y-6129214D01*
G01X9500149Y-6127347D01*
G01X9472157Y-6121779D01*
G01X9445132Y-6112605D01*
G01X9419535Y-6099982D01*
G01X9395805Y-6084126D01*
G01X9374347Y-6065309D01*
G01X9355530Y-6043851D01*
G01X9339674Y-6020121D01*
G01X9327051Y-5994524D01*
G01X9317877Y-5967498D01*
G01X9312309Y-5939507D01*
G01X9310504Y-5911976D01*
G01X9484165Y-5911976D01*
G01X9486158Y-5939844D01*
G01X9492097Y-5967144D01*
G01X9501860Y-5993321D01*
G01X9515250Y-6017841D01*
G01X9531993Y-6040207D01*
G01X9551748Y-6059963D01*
G01X9574114Y-6076706D01*
G01X9598635Y-6090095D01*
G01X9624812Y-6099859D01*
G01X9652112Y-6105797D01*
G01X9679979Y-6107790D01*
G01X9707846Y-6105797D01*
G01X9735146Y-6099859D01*
G01X9761323Y-6090095D01*
G01X9785844Y-6076706D01*
G01X9808210Y-6059963D01*
G01X9827965Y-6040207D01*
G01X9844708Y-6017841D01*
G01X9858098Y-5993321D01*
G01X9867861Y-5967144D01*
G01X9873800Y-5939844D01*
G01X9875793Y-5911976D01*
G01X9873800Y-5884109D01*
G01X9867861Y-5856809D01*
G01X9858098Y-5830632D01*
G01X9844708Y-5806111D01*
G01X9827965Y-5783746D01*
G01X9808210Y-5763990D01*
G01X9785844Y-5747247D01*
G01X9761323Y-5733858D01*
G01X9735146Y-5724094D01*
G01X9707846Y-5718156D01*
G01X9679979Y-5716163D01*
G01X9652112Y-5718156D01*
G01X9624812Y-5724094D01*
G01X9598635Y-5733858D01*
G01X9574114Y-5747247D01*
G01X9551748Y-5763990D01*
G01X9531993Y-5783746D01*
G01X9515250Y-5806111D01*
G01X9501860Y-5830632D01*
G01X9492097Y-5856809D01*
G01X9486158Y-5884109D01*
G01X9484165Y-5911976D01*
G01X9484165Y-5911976D01*
G01X9310504Y-5911976D01*
G01X9310442Y-5911028D01*
G01X9310442Y-5335210D01*
G01X9622708Y-5335210D01*
G01X9622708Y-5487610D01*
G01X9624461Y-5498677D01*
G01X9629548Y-5508661D01*
G01X9637471Y-5516584D01*
G01X9647455Y-5521671D01*
G01X9658522Y-5523424D01*
G01X9810922Y-5523424D01*
G01X9821989Y-5521671D01*
G01X9831973Y-5516584D01*
G01X9839896Y-5508661D01*
G01X9844983Y-5498677D01*
G01X9846736Y-5487610D01*
G01X9846736Y-5487356D01*
G01X10634336Y-5487381D01*
G01X11006809Y-5859854D01*
G01X11014060Y-5865820D01*
G01X11022324Y-5870277D01*
G01X10925405Y-5870277D01*
G01X10734707Y-5679579D01*
G01X10724659Y-5671869D01*
G01X10712959Y-5667022D01*
G01X10700402Y-5665369D01*
G01X10436984Y-5665369D01*
G01X10424027Y-5655941D01*
G01X10409187Y-5649896D01*
G01X10393330Y-5647587D01*
G01X10377382Y-5649150D01*
G01X10362274Y-5654492D01*
G01X10348889Y-5663302D01*
G01X10338008Y-5675066D01*
G01X10330267Y-5689096D01*
G01X10326117Y-5704574D01*
G01X10325801Y-5720595D01*
G01X10329337Y-5736224D01*
G01X10336519Y-5750549D01*
G01X10287126Y-5750549D01*
G01X10277521Y-5751861D01*
G01X10268619Y-5755702D01*
G01X10261074Y-5761789D01*
G01X10260030Y-5760728D01*
G01X10270556Y-5749446D01*
G01X10278190Y-5736038D01*
G01X10282518Y-5721228D01*
G01X10283308Y-5705819D01*
G01X10280515Y-5690645D01*
G01X10274291Y-5676527D01*
G01X10264973Y-5664229D01*
G01X10253065Y-5654418D01*
G01X10239212Y-5647624D01*
G01X10224165Y-5644214D01*
G01X10208736Y-5644375D01*
G01X10193763Y-5648096D01*
G01X10180054Y-5655177D01*
G01X10168353Y-5665234D01*
G01X10159293Y-5677723D01*
G01X10153364Y-5691968D01*
G01X10150887Y-5707197D01*
G01X10151997Y-5722586D01*
G01X10156633Y-5737302D01*
G01X10164544Y-5750549D01*
G01X10084989Y-5750549D01*
G01X10092486Y-5736396D01*
G01X10096372Y-5720858D01*
G01X10096419Y-5704842D01*
G01X10092625Y-5689281D01*
G01X10085211Y-5675084D01*
G01X10074609Y-5663079D01*
G01X10061438Y-5653966D01*
G01X10046467Y-5648276D01*
G01X10030567Y-5646342D01*
G01X10014668Y-5648276D01*
G01X9999697Y-5653966D01*
G01X9986526Y-5663079D01*
G01X9975924Y-5675084D01*
G01X9968510Y-5689281D01*
G01X9964715Y-5704842D01*
G01X9964763Y-5720858D01*
G01X9968648Y-5736396D01*
G01X9976146Y-5750549D01*
G01X9955021Y-5750549D01*
G01X9943954Y-5752302D01*
G01X9933971Y-5757389D01*
G01X9926047Y-5765312D01*
G01X9920960Y-5775296D01*
G01X9919207Y-5786363D01*
G01X9919207Y-5896363D01*
G01X9920960Y-5907430D01*
G01X9926047Y-5917414D01*
G01X9933971Y-5925337D01*
G01X9943954Y-5930424D01*
G01X9955021Y-5932177D01*
G01X9987860Y-5932177D01*
G01X10000165Y-5939600D01*
G01X10013780Y-5944199D01*
G01X10028066Y-5945756D01*
G01X10042353Y-5944199D01*
G01X10055968Y-5939600D01*
G01X10068273Y-5932177D01*
G01X10179254Y-5932177D01*
G01X10192842Y-5938948D01*
G01X10207615Y-5942452D01*
G01X10222797Y-5942503D01*
G01X10237593Y-5939101D01*
G01X10251227Y-5932422D01*
G01X10262985Y-5922817D01*
G01X10270172Y-5927910D01*
G01X10278385Y-5931094D01*
G01X10287126Y-5932177D01*
G01X10567126Y-5932177D01*
G01X10578193Y-5930424D01*
G01X10588177Y-5925337D01*
G01X10596100Y-5917414D01*
G01X10601187Y-5907430D01*
G01X10602940Y-5896363D01*
G01X10602940Y-5786363D01*
G01X10601876Y-5777698D01*
G01X10598747Y-5769548D01*
G01X10593739Y-5762397D01*
G01X10680307Y-5762397D01*
G01X10871005Y-5953095D01*
G01X10881053Y-5960805D01*
G01X10892754Y-5965652D01*
G01X10905310Y-5967305D01*
G01X11237327Y-5967305D01*
G01X11249834Y-5976480D01*
G01X11264130Y-5982499D01*
G01X11279434Y-5985032D01*
G01X11294907Y-5983941D01*
G01X11309703Y-5979285D01*
G01X11323013Y-5971320D01*
G01X11334108Y-5960480D01*
G01X11342382Y-5947359D01*
G01X11347382Y-5932676D01*
G01X11348833Y-5917232D01*
G01X11346658Y-5901874D01*
G01X11340974Y-5887442D01*
G01X11332092Y-5874724D01*
G01X11320500Y-5864418D01*
G01X11306830Y-5857087D01*
G01X11291832Y-5853131D01*
G01X11276324Y-5852768D01*
G01X11261157Y-5856018D01*
G01X11266261Y-5842898D01*
G01X11268481Y-5828997D01*
G01X11267717Y-5814940D01*
G01X11282737Y-5814346D01*
G01X11297238Y-5810385D01*
G01X11310474Y-5803259D01*
G01X11321766Y-5793336D01*
G01X11330532Y-5781124D01*
G01X11336322Y-5767252D01*
G01X11338840Y-5752432D01*
G01X11337955Y-5737426D01*
G01X11333713Y-5723004D01*
G01X11326332Y-5709909D01*
G01X11316191Y-5698812D01*
G01X11303812Y-5690285D01*
G01X11289830Y-5684764D01*
G01X11274964Y-5682535D01*
G01X11259977Y-5683711D01*
G01X11245641Y-5688232D01*
G01X11232691Y-5695866D01*
G01X11221794Y-5706220D01*
G01X11040739Y-5706220D01*
G01X10703482Y-5368963D01*
G01X10693435Y-5361253D01*
G01X10681734Y-5356406D01*
G01X10669178Y-5354753D01*
G01X10227606Y-5354753D01*
G01X9984272Y-5111420D01*
G01X9974225Y-5103710D01*
G01X9962524Y-5098863D01*
G01X9949968Y-5097210D01*
G01X9846736Y-5097210D01*
G01X9846736Y-5055153D01*
G01X9845859Y-5049620D01*
G01X10734600Y-5049620D01*
G01X10736527Y-5065490D01*
G01X10742195Y-5080438D01*
G01X10751277Y-5093595D01*
G01X10763243Y-5104196D01*
G01X10777398Y-5111625D01*
G01X10792920Y-5115451D01*
G01X10808907Y-5115451D01*
G01X10824429Y-5111625D01*
G01X10838584Y-5104196D01*
G01X10850550Y-5093595D01*
G01X10859632Y-5080438D01*
G01X10865301Y-5065490D01*
G01X10867228Y-5049620D01*
G01X10865301Y-5033750D01*
G01X10859632Y-5018803D01*
G01X10850550Y-5005646D01*
G01X10838584Y-4995045D01*
G01X10824429Y-4987616D01*
G01X10808907Y-4983790D01*
G01X10792920Y-4983790D01*
G01X10777398Y-4987616D01*
G01X10763243Y-4995045D01*
G01X10751277Y-5005646D01*
G01X10742195Y-5018803D01*
G01X10736527Y-5033750D01*
G01X10734600Y-5049620D01*
G01X10734600Y-5049620D01*
G01X9845859Y-5049620D01*
G01X9844983Y-5044086D01*
G01X9839896Y-5034103D01*
G01X9831973Y-5026179D01*
G01X9821989Y-5021092D01*
G01X9810922Y-5019339D01*
G01X9658522Y-5019339D01*
G01X9647455Y-5021092D01*
G01X9637471Y-5026179D01*
G01X9629548Y-5034103D01*
G01X9624461Y-5044086D01*
G01X9622708Y-5055153D01*
G01X9622708Y-5207553D01*
G01X9624461Y-5218621D01*
G01X9629548Y-5228604D01*
G01X9637471Y-5236528D01*
G01X9647455Y-5241615D01*
G01X9658522Y-5243367D01*
G01X9810922Y-5243367D01*
G01X9821989Y-5241615D01*
G01X9831973Y-5236528D01*
G01X9839896Y-5228604D01*
G01X9844983Y-5218621D01*
G01X9846736Y-5207553D01*
G01X9846736Y-5194238D01*
G01X9929873Y-5194238D01*
G01X10125988Y-5390353D01*
G01X9846736Y-5390353D01*
G01X9846736Y-5390353D01*
G01X9846736Y-5335210D01*
G01X9844983Y-5324143D01*
G01X9839896Y-5314159D01*
G01X9831973Y-5306236D01*
G01X9821989Y-5301149D01*
G01X9810922Y-5299396D01*
G01X9658522Y-5299396D01*
G01X9647455Y-5301149D01*
G01X9637471Y-5306236D01*
G01X9629548Y-5314159D01*
G01X9624461Y-5324143D01*
G01X9622708Y-5335210D01*
G01X9310442Y-5335210D01*
G01X9310442Y-3879939D01*
G01X9381335Y-3879939D01*
G01X9383247Y-3901787D01*
G01X9388923Y-3922970D01*
G01X9398191Y-3942846D01*
G01X9410770Y-3960811D01*
G01X9426278Y-3976318D01*
G01X9444242Y-3988897D01*
G01X9464118Y-3998166D01*
G01X9485302Y-4003842D01*
G01X9507149Y-4005753D01*
G01X9528996Y-4003842D01*
G01X9550180Y-3998166D01*
G01X9570056Y-3988897D01*
G01X9588021Y-3976318D01*
G01X9603528Y-3960811D01*
G01X9616107Y-3942846D01*
G01X9625375Y-3922970D01*
G01X9631052Y-3901787D01*
G01X9632963Y-3879939D01*
G01X9632963Y-3879939D01*
G01X9631052Y-3858092D01*
G01X9625375Y-3836909D01*
G01X9616107Y-3817032D01*
G01X9603528Y-3799068D01*
G01X9588021Y-3783560D01*
G01X9570056Y-3770981D01*
G01X9550180Y-3761713D01*
G01X9528996Y-3756037D01*
G01X9507149Y-3754126D01*
G01X9485302Y-3756037D01*
G01X9464118Y-3761713D01*
G01X9444242Y-3770981D01*
G01X9426278Y-3783560D01*
G01X9410770Y-3799068D01*
G01X9398191Y-3817032D01*
G01X9388923Y-3836909D01*
G01X9383247Y-3858092D01*
G01X9381335Y-3879939D01*
G01X9310442Y-3879939D01*
G01X9310442Y-3680973D01*
G01X10809396Y-3680973D01*
G01X10809396Y-3780973D01*
G01X10811149Y-3792040D01*
G01X10816236Y-3802024D01*
G01X10824159Y-3809947D01*
G01X10834143Y-3815034D01*
G01X10845210Y-3816787D01*
G01X10884059Y-3816787D01*
G01X10884059Y-4075608D01*
G01X10874961Y-4087980D01*
G01X10868952Y-4102112D01*
G01X10866355Y-4117247D01*
G01X10867309Y-4132574D01*
G01X10871763Y-4147271D01*
G01X10879479Y-4160549D01*
G01X10890041Y-4171696D01*
G01X10902884Y-4180115D01*
G01X10917320Y-4185354D01*
G01X10932573Y-4187132D01*
G01X10932573Y-4187132D01*
G01X10947826Y-4185354D01*
G01X10962262Y-4180115D01*
G01X10975105Y-4171696D01*
G01X10985667Y-4160549D01*
G01X10993383Y-4147271D01*
G01X10997837Y-4132574D01*
G01X10998791Y-4117247D01*
G01X10996194Y-4102112D01*
G01X10990185Y-4087980D01*
G01X10981087Y-4075608D01*
G01X10981087Y-3813075D01*
G01X10989284Y-3807488D01*
G01X10995634Y-3799867D01*
G01X10999650Y-3790797D01*
G01X11001023Y-3780973D01*
G01X11001023Y-3680973D01*
G01X10999271Y-3669906D01*
G01X10994184Y-3659922D01*
G01X10986260Y-3651999D01*
G01X10976277Y-3646912D01*
G01X10965209Y-3645159D01*
G01X10845210Y-3645159D01*
G01X10834143Y-3646912D01*
G01X10824159Y-3651999D01*
G01X10816236Y-3659922D01*
G01X10811149Y-3669906D01*
G01X10809396Y-3680973D01*
G01X9310442Y-3680973D01*
G01X9310442Y-3548974D01*
G01X10887701Y-3548974D01*
G01X10889628Y-3564844D01*
G01X10895296Y-3579792D01*
G01X10904378Y-3592949D01*
G01X10916344Y-3603550D01*
G01X10930499Y-3610979D01*
G01X10946021Y-3614805D01*
G01X10962008Y-3614805D01*
G01X10977530Y-3610979D01*
G01X10991685Y-3603550D01*
G01X11003651Y-3592949D01*
G01X11012733Y-3579792D01*
G01X11018402Y-3564844D01*
G01X11020329Y-3548974D01*
G01X11018402Y-3533104D01*
G01X11012733Y-3518157D01*
G01X11003651Y-3505000D01*
G01X10991685Y-3494399D01*
G01X10977530Y-3486970D01*
G01X10962008Y-3483144D01*
G01X10946021Y-3483144D01*
G01X10930499Y-3486970D01*
G01X10916344Y-3494399D01*
G01X10904378Y-3505000D01*
G01X10895296Y-3518157D01*
G01X10889628Y-3533104D01*
G01X10887701Y-3548974D01*
G01X10887701Y-3548974D01*
G01X9310442Y-3548974D01*
G01X9310442Y-3137723D01*
G01X9469167Y-3137723D01*
G01X9471160Y-3165590D01*
G01X9477099Y-3192890D01*
G01X9486863Y-3219067D01*
G01X9500252Y-3243588D01*
G01X9516995Y-3265954D01*
G01X9536750Y-3285709D01*
G01X9559116Y-3302452D01*
G01X9583637Y-3315842D01*
G01X9609814Y-3325605D01*
G01X9637114Y-3331544D01*
G01X9664981Y-3333537D01*
G01X9692848Y-3331544D01*
G01X9720148Y-3325605D01*
G01X9746325Y-3315842D01*
G01X9770846Y-3302452D01*
G01X9793212Y-3285709D01*
G01X9812967Y-3265954D01*
G01X9829710Y-3243588D01*
G01X9843100Y-3219067D01*
G01X9852863Y-3192890D01*
G01X9858802Y-3165590D01*
G01X9860795Y-3137723D01*
G01X9858802Y-3109856D01*
G01X9852863Y-3082556D01*
G01X9843100Y-3056379D01*
G01X9829710Y-3031858D01*
G01X9812967Y-3009492D01*
G01X9793212Y-2989737D01*
G01X9770846Y-2972994D01*
G01X9746325Y-2959604D01*
G01X9720148Y-2949841D01*
G01X9692848Y-2943902D01*
G01X9664981Y-2941909D01*
G01X9637114Y-2943902D01*
G01X9609814Y-2949841D01*
G01X9583637Y-2959604D01*
G01X9559116Y-2972994D01*
G01X9536750Y-2989737D01*
G01X9516995Y-3009492D01*
G01X9500252Y-3031858D01*
G01X9486863Y-3056379D01*
G01X9477099Y-3082556D01*
G01X9471160Y-3109856D01*
G01X9469167Y-3137723D01*
G01X9469167Y-3137723D01*
G01X9310442Y-3137723D01*
G01X9310442Y-3136904D01*
G01X9312309Y-3108425D01*
G01X9317877Y-3080434D01*
G01X9327051Y-3053408D01*
G01X9339674Y-3027811D01*
G01X9355530Y-3004081D01*
G01X9374347Y-2982624D01*
G01X9395805Y-2963806D01*
G01X9419535Y-2947950D01*
G01X9445132Y-2935327D01*
G01X9472157Y-2926153D01*
G01X9500149Y-2920585D01*
G01X9528628Y-2918718D01*
G37*
G36*
G01X11079936Y-5173312D02*
G01X11079936Y-5043387D01*
G01X11091833Y-5052478D01*
G01X11105467Y-5058668D01*
G01X11120141Y-5061641D01*
G01X11135108Y-5061247D01*
G01X11149606Y-5057505D01*
G01X11162894Y-5050606D01*
G01X11174296Y-5040901D01*
G01X11183231Y-5028887D01*
G01X11189242Y-5015174D01*
G01X11192024Y-5000462D01*
G01X11191434Y-4985500D01*
G01X11187502Y-4971053D01*
G01X11180430Y-4957856D01*
G01X11170578Y-4946582D01*
G01X11170578Y-4889220D01*
G01X11168925Y-4876664D01*
G01X11164078Y-4864963D01*
G01X11156368Y-4854916D01*
G01X11110602Y-4809149D01*
G01X11100554Y-4801439D01*
G01X11088853Y-4796593D01*
G01X11076297Y-4794940D01*
G01X11055711Y-4794940D01*
G01X11049143Y-4788371D01*
G01X11097507Y-4788371D01*
G01X11108412Y-4786671D01*
G01X11118280Y-4781731D01*
G01X11126177Y-4774021D01*
G01X11131351Y-4764273D01*
G01X11195574Y-4764273D01*
G01X11200550Y-4769249D01*
G01X11200550Y-4811310D01*
G01X11201864Y-4820924D01*
G01X11205711Y-4829832D01*
G01X11211808Y-4837381D01*
G01X11219708Y-4843016D01*
G01X11228830Y-4846323D01*
G01X11219708Y-4849630D01*
G01X11211808Y-4855265D01*
G01X11205711Y-4862814D01*
G01X11201864Y-4871722D01*
G01X11200550Y-4881336D01*
G01X11200550Y-4961983D01*
G01X11202302Y-4973050D01*
G01X11207389Y-4983034D01*
G01X11215313Y-4990957D01*
G01X11225296Y-4996044D01*
G01X11236364Y-4997797D01*
G01X11286371Y-4997797D01*
G01X11315834Y-5027260D01*
G01X11315834Y-5039968D01*
G01X11314102Y-5050971D01*
G01X11314102Y-5091168D01*
G01X11293929Y-5091168D01*
G01X11282862Y-5092921D01*
G01X11272878Y-5098008D01*
G01X11264955Y-5105931D01*
G01X11259868Y-5115915D01*
G01X11258115Y-5126982D01*
G01X11258115Y-5210982D01*
G01X11259868Y-5222049D01*
G01X11264955Y-5232033D01*
G01X11272878Y-5239956D01*
G01X11282862Y-5245043D01*
G01X11293929Y-5246796D01*
G01X11364115Y-5246796D01*
G01X11364115Y-5284174D01*
G01X11079936Y-5284174D01*
G01X11079936Y-5225418D01*
G01X11078624Y-5215812D01*
G01X11074784Y-5206911D01*
G01X11068696Y-5199365D01*
G01X11074784Y-5191819D01*
G01X11078624Y-5182918D01*
G01X11079936Y-5173312D01*
G37*
G36*
G01X11334719Y-2929918D02*
G01X11326583Y-2923372D01*
G01X11317235Y-2918718D01*
G01X14862528Y-2918718D01*
G01X14891007Y-2920585D01*
G01X14918998Y-2926153D01*
G01X14946024Y-2935327D01*
G01X14971621Y-2947950D01*
G01X14995351Y-2963806D01*
G01X15016808Y-2982624D01*
G01X15035626Y-3004081D01*
G01X15051482Y-3027811D01*
G01X15064105Y-3053408D01*
G01X15073279Y-3080434D01*
G01X15078847Y-3108425D01*
G01X15080714Y-3136904D01*
G01X15080714Y-4468967D01*
G01X15073254Y-4463150D01*
G01X15064531Y-4459489D01*
G01X15055154Y-4458239D01*
G01X14968753Y-4458239D01*
G01X14958936Y-4459611D01*
G01X14949871Y-4463622D01*
G01X14942252Y-4469963D01*
G01X14936664Y-4478150D01*
G01X14933533Y-4487556D01*
G01X14930772Y-4477625D01*
G01X14925297Y-4468893D01*
G01X14917562Y-4462081D01*
G01X14908207Y-4457754D01*
G01X14898007Y-4456271D01*
G01X14811606Y-4456271D01*
G01X14801967Y-4457592D01*
G01X14793040Y-4461459D01*
G01X14785482Y-4467587D01*
G01X14779853Y-4475522D01*
G01X14776567Y-4484679D01*
G01X14538713Y-4484679D01*
G01X14531514Y-4479558D01*
G01X14523280Y-4476356D01*
G01X14514514Y-4475266D01*
G01X14501482Y-4475266D01*
G01X14501482Y-4433222D01*
G01X14516691Y-4433222D01*
G01X14527758Y-4431469D01*
G01X14537742Y-4426382D01*
G01X14545665Y-4418458D01*
G01X14550752Y-4408475D01*
G01X14552505Y-4397408D01*
G01X14552505Y-4316760D01*
G01X14551190Y-4307146D01*
G01X14547343Y-4298238D01*
G01X14541246Y-4290690D01*
G01X14533347Y-4285055D01*
G01X14524225Y-4281747D01*
G01X14533799Y-4278198D01*
G01X14541983Y-4272091D01*
G01X14548110Y-4263924D01*
G01X14579364Y-4263915D01*
G01X14584154Y-4274597D01*
G01X14592133Y-4283165D01*
G01X14602449Y-4288701D01*
G01X14613998Y-4290614D01*
G01X14703998Y-4290614D01*
G01X14715554Y-4288699D01*
G01X14725873Y-4283158D01*
G01X14733853Y-4274583D01*
G01X14738639Y-4263892D01*
G01X14766808Y-4263892D01*
G01X14771677Y-4274402D01*
G01X14779646Y-4282808D01*
G01X14789880Y-4288231D01*
G01X14801311Y-4290104D01*
G01X14891310Y-4290104D01*
G01X14902377Y-4288351D01*
G01X14912361Y-4283264D01*
G01X14920284Y-4275341D01*
G01X14925371Y-4265357D01*
G01X14927124Y-4254290D01*
G01X14927124Y-4192647D01*
G01X14933149Y-4186622D01*
G01X14940859Y-4176575D01*
G01X14945706Y-4164874D01*
G01X14947359Y-4152318D01*
G01X14947359Y-4118287D01*
G01X15016416Y-4118287D01*
G01X15027483Y-4116535D01*
G01X15037467Y-4111448D01*
G01X15045390Y-4103524D01*
G01X15050477Y-4093541D01*
G01X15052230Y-4082473D01*
G01X15052230Y-3932474D01*
G01X15050477Y-3921407D01*
G01X15045390Y-3911423D01*
G01X15037467Y-3903500D01*
G01X15027483Y-3898413D01*
G01X15016416Y-3896660D01*
G01X14799176Y-3896660D01*
G01X14805762Y-3881456D01*
G01X14809304Y-3865269D01*
G01X14809668Y-3848704D01*
G01X14806842Y-3832377D01*
G01X14800932Y-3816898D01*
G01X14792156Y-3802843D01*
G01X14780844Y-3790737D01*
G01X14767415Y-3781031D01*
G01X14752371Y-3774086D01*
G01X14736273Y-3770162D01*
G01X14719721Y-3769404D01*
G01X14703332Y-3771842D01*
G01X14687717Y-3777384D01*
G01X14673459Y-3785824D01*
G01X14673459Y-3765509D01*
G01X14671806Y-3752953D01*
G01X14666959Y-3741252D01*
G01X14659249Y-3731204D01*
G01X14563341Y-3635296D01*
G01X14563341Y-3602130D01*
G01X14730602Y-3602130D01*
G01X14730602Y-3702489D01*
G01X14732355Y-3713557D01*
G01X14737442Y-3723540D01*
G01X14745366Y-3731464D01*
G01X14755349Y-3736551D01*
G01X14766416Y-3738303D01*
G01X15016416Y-3738303D01*
G01X15027483Y-3736551D01*
G01X15037467Y-3731464D01*
G01X15045390Y-3723540D01*
G01X15050477Y-3713557D01*
G01X15052230Y-3702489D01*
G01X15052230Y-3552490D01*
G01X15050477Y-3541423D01*
G01X15045390Y-3531439D01*
G01X15037467Y-3523516D01*
G01X15027483Y-3518429D01*
G01X15016416Y-3516676D01*
G01X14891113Y-3516676D01*
G01X14872068Y-3497631D01*
G01X14862792Y-3490018D01*
G01X14852209Y-3484361D01*
G01X14840726Y-3480878D01*
G01X14828784Y-3479702D01*
G01X14563277Y-3479702D01*
G01X14563341Y-3477557D01*
G01X14563341Y-3370356D01*
G01X14562200Y-3361387D01*
G01X14562200Y-3207656D01*
G01X14571346Y-3202543D01*
G01X14578622Y-3195003D01*
G01X14583403Y-3185679D01*
G01X14585282Y-3175371D01*
G01X14596069Y-3167170D01*
G01X14604964Y-3156948D01*
G01X14611596Y-3145131D01*
G01X14613942Y-3137723D01*
G01X14666035Y-3137723D01*
G01X14668028Y-3165590D01*
G01X14673967Y-3192890D01*
G01X14683730Y-3219067D01*
G01X14697120Y-3243588D01*
G01X14713863Y-3265954D01*
G01X14733618Y-3285709D01*
G01X14755984Y-3302452D01*
G01X14780505Y-3315842D01*
G01X14806682Y-3325605D01*
G01X14833982Y-3331544D01*
G01X14861849Y-3333537D01*
G01X14889716Y-3331544D01*
G01X14917016Y-3325605D01*
G01X14943193Y-3315842D01*
G01X14967714Y-3302452D01*
G01X14990080Y-3285709D01*
G01X15009835Y-3265954D01*
G01X15026578Y-3243588D01*
G01X15039967Y-3219067D01*
G01X15049731Y-3192890D01*
G01X15055670Y-3165590D01*
G01X15057663Y-3137723D01*
G01X15055670Y-3109856D01*
G01X15049731Y-3082556D01*
G01X15039967Y-3056379D01*
G01X15026578Y-3031858D01*
G01X15009835Y-3009492D01*
G01X14990080Y-2989737D01*
G01X14967714Y-2972994D01*
G01X14943193Y-2959604D01*
G01X14917016Y-2949841D01*
G01X14889716Y-2943902D01*
G01X14861849Y-2941909D01*
G01X14833982Y-2943902D01*
G01X14806682Y-2949841D01*
G01X14780505Y-2959604D01*
G01X14755984Y-2972994D01*
G01X14733618Y-2989737D01*
G01X14713863Y-3009492D01*
G01X14697120Y-3031858D01*
G01X14683730Y-3056379D01*
G01X14673967Y-3082556D01*
G01X14668028Y-3109856D01*
G01X14666035Y-3137723D01*
G01X14666035Y-3137723D01*
G01X14613942Y-3137723D01*
G01X14615687Y-3132213D01*
G01X14617067Y-3118733D01*
G01X14615678Y-3105254D01*
G01X14611578Y-3092338D01*
G01X14604938Y-3080526D01*
G01X14596036Y-3070310D01*
G01X14585243Y-3062117D01*
G01X14583005Y-3051553D01*
G01X14577719Y-3042136D01*
G01X14569867Y-3034723D01*
G01X14560163Y-3029988D01*
G01X14549488Y-3028360D01*
G01X14438284Y-3028360D01*
G01X14426731Y-3027345D01*
G01X14415177Y-3028360D01*
G01X14269489Y-3028360D01*
G01X14258421Y-3030113D01*
G01X14248438Y-3035200D01*
G01X14240514Y-3043123D01*
G01X14235427Y-3053107D01*
G01X14233675Y-3064174D01*
G01X14233675Y-3151039D01*
G01X14230169Y-3164057D01*
G01X14229368Y-3177514D01*
G01X14231305Y-3190856D01*
G01X14235900Y-3203529D01*
G01X14242964Y-3215012D01*
G01X14095451Y-3362525D01*
G01X13967336Y-3362525D01*
G01X13953629Y-3364502D01*
G01X13941038Y-3370271D01*
G01X13887290Y-3370271D01*
G01X13876223Y-3372024D01*
G01X13866240Y-3377111D01*
G01X13858316Y-3385034D01*
G01X13853229Y-3395018D01*
G01X13851476Y-3406085D01*
G01X13851476Y-3496085D01*
G01X13853229Y-3507152D01*
G01X13858316Y-3517136D01*
G01X13866240Y-3525059D01*
G01X13876223Y-3530146D01*
G01X13887290Y-3531899D01*
G01X13896167Y-3531899D01*
G01X13887204Y-3543106D01*
G01X13880863Y-3555978D01*
G01X13877439Y-3569913D01*
G01X13877093Y-3584259D01*
G01X13879840Y-3598343D01*
G01X13686377Y-3598343D01*
G01X13659362Y-3571328D01*
G01X13659362Y-3441769D01*
G01X13657709Y-3429212D01*
G01X13652862Y-3417512D01*
G01X13645153Y-3407464D01*
G01X13551684Y-3313996D01*
G01X13612134Y-3313996D01*
G01X13615386Y-3329514D01*
G01X13622228Y-3343818D01*
G01X13622228Y-3343818D01*
G01X13632271Y-3356088D01*
G01X13644939Y-3365624D01*
G01X13659509Y-3371879D01*
G01X13675147Y-3374497D01*
G01X13690959Y-3373329D01*
G01X13706042Y-3368439D01*
G01X13719534Y-3360109D01*
G01X13730662Y-3348815D01*
G01X13738791Y-3335202D01*
G01X13743456Y-3320048D01*
G01X13761305Y-3329818D01*
G01X13780628Y-3336199D01*
G01X13800785Y-3338979D01*
G01X13821113Y-3338066D01*
G01X13840941Y-3333491D01*
G01X13859613Y-3325404D01*
G01X13876515Y-3314073D01*
G01X13891087Y-3299871D01*
G01X13902850Y-3283267D01*
G01X13911415Y-3264809D01*
G01X13916500Y-3245106D01*
G01X13917936Y-3224808D01*
G01X13915677Y-3204586D01*
G01X13909796Y-3185106D01*
G01X13900488Y-3167011D01*
G01X13888061Y-3150898D01*
G01X13872923Y-3137300D01*
G01X13855575Y-3126665D01*
G01X13836590Y-3119343D01*
G01X13816593Y-3115577D01*
G01X13796245Y-3115491D01*
G01X13776216Y-3119087D01*
G01X13757169Y-3126247D01*
G01X13739732Y-3136735D01*
G01X13724480Y-3150204D01*
G01X13711916Y-3166210D01*
G01X13702455Y-3184226D01*
G01X13696409Y-3203655D01*
G01X13693978Y-3223858D01*
G01X13695242Y-3244167D01*
G01X13679541Y-3241953D01*
G01X13663764Y-3243530D01*
G01X13648812Y-3248807D01*
G01X13635540Y-3257482D01*
G01X13624707Y-3269060D01*
G01X13616932Y-3282879D01*
G01X13612660Y-3298149D01*
G01X13612134Y-3313996D01*
G01X13551684Y-3313996D01*
G01X13436366Y-3198678D01*
G01X13426318Y-3190968D01*
G01X13414618Y-3186122D01*
G01X13402061Y-3184469D01*
G01X13401536Y-3184469D01*
G01X13392130Y-3166451D01*
G01X13379624Y-3150430D01*
G01X13364428Y-3136933D01*
G01X13347043Y-3126403D01*
G01X13328042Y-3119189D01*
G01X13308049Y-3115526D01*
G01X13287725Y-3115537D01*
G01X13267736Y-3119220D01*
G01X13248742Y-3126455D01*
G01X13231369Y-3137002D01*
G01X13216187Y-3150515D01*
G01X13203697Y-3166550D01*
G01X13194310Y-3184577D01*
G01X13188335Y-3204004D01*
G01X13185969Y-3224191D01*
G01X13187289Y-3244472D01*
G01X13192253Y-3264182D01*
G01X13200696Y-3282670D01*
G01X13151457Y-3282670D01*
G01X13144738Y-3275951D01*
G01X13151839Y-3257186D01*
G01X13155478Y-3237455D01*
G01X13155539Y-3217392D01*
G01X13152020Y-3197640D01*
G01X13145034Y-3178832D01*
G01X13134804Y-3161572D01*
G01X13121660Y-3146414D01*
G01X13106022Y-3133844D01*
G01X13088393Y-3124266D01*
G01X13069338Y-3117986D01*
G01X13049468Y-3115206D01*
G01X13029421Y-3116015D01*
G01X13009840Y-3120388D01*
G01X12991353Y-3128184D01*
G01X12974553Y-3139152D01*
G01X12959980Y-3152942D01*
G01X12948100Y-3169110D01*
G01X12939296Y-3187139D01*
G01X12933848Y-3206448D01*
G01X12931933Y-3226420D01*
G01X12933612Y-3246413D01*
G01X12938830Y-3265786D01*
G01X12947420Y-3283917D01*
G01X12959108Y-3300225D01*
G01X12973517Y-3314187D01*
G01X12990185Y-3325354D01*
G01X13008578Y-3333368D01*
G01X13028106Y-3337972D01*
G01X13048142Y-3339019D01*
G01X13068044Y-3336475D01*
G01X13092371Y-3360802D01*
G01X12706228Y-3360802D01*
G01X12693671Y-3362455D01*
G01X12681971Y-3367301D01*
G01X12671923Y-3375011D01*
G01X12609932Y-3437002D01*
G01X12581652Y-3437002D01*
G01X12570214Y-3438877D01*
G01X12570214Y-3333727D01*
G01X12588679Y-3325908D01*
G01X12605453Y-3314923D01*
G01X12620001Y-3301123D01*
G01X12631855Y-3284950D01*
G01X12640635Y-3266923D01*
G01X12646061Y-3247619D01*
G01X12647958Y-3227657D01*
G01X12647909Y-3227084D01*
G01X12677931Y-3227084D01*
G01X12679838Y-3247666D01*
G01X12685495Y-3267548D01*
G01X12694709Y-3286051D01*
G01X12707166Y-3302547D01*
G01X12722442Y-3316473D01*
G01X12740016Y-3327355D01*
G01X12759291Y-3334822D01*
G01X12779610Y-3338620D01*
G01X12800281Y-3338620D01*
G01X12820599Y-3334822D01*
G01X12839874Y-3327355D01*
G01X12857449Y-3316473D01*
G01X12872725Y-3302547D01*
G01X12885181Y-3286051D01*
G01X12894395Y-3267548D01*
G01X12900052Y-3247666D01*
G01X12901959Y-3227084D01*
G01X12901959Y-3227084D01*
G01X12900052Y-3206501D01*
G01X12894395Y-3186620D01*
G01X12885181Y-3168116D01*
G01X12872725Y-3151620D01*
G01X12857449Y-3137695D01*
G01X12839874Y-3126813D01*
G01X12820599Y-3119346D01*
G01X12800281Y-3115548D01*
G01X12779610Y-3115548D01*
G01X12759291Y-3119346D01*
G01X12740016Y-3126813D01*
G01X12722442Y-3137695D01*
G01X12707166Y-3151620D01*
G01X12694709Y-3168116D01*
G01X12685495Y-3186620D01*
G01X12679838Y-3206501D01*
G01X12677931Y-3227084D01*
G01X12647909Y-3227084D01*
G01X12646265Y-3207677D01*
G01X12641038Y-3188319D01*
G01X12632442Y-3170202D01*
G01X12620754Y-3153909D01*
G01X12606349Y-3139961D01*
G01X12589688Y-3128804D01*
G01X12571304Y-3120797D01*
G01X12551787Y-3116196D01*
G01X12531763Y-3115148D01*
G01X12511872Y-3117687D01*
G01X12492753Y-3123732D01*
G01X12475019Y-3133089D01*
G01X12459236Y-3145457D01*
G01X12445912Y-3160442D01*
G01X12435473Y-3177562D01*
G01X12428253Y-3196269D01*
G01X12424485Y-3215964D01*
G01X12424288Y-3236015D01*
G01X12427669Y-3255779D01*
G01X12434520Y-3274624D01*
G01X12444621Y-3291946D01*
G01X12457649Y-3307189D01*
G01X12473186Y-3319865D01*
G01X12473186Y-3383060D01*
G01X12398760Y-3308634D01*
G01X12390613Y-3302080D01*
G01X12381252Y-3297425D01*
G01X12371110Y-3294883D01*
G01X12382053Y-3277338D01*
G01X12389585Y-3258081D01*
G01X12393449Y-3237768D01*
G01X12393513Y-3217090D01*
G01X12389775Y-3196753D01*
G01X12382362Y-3177450D01*
G01X12371528Y-3159838D01*
G01X12357641Y-3144517D01*
G01X12341175Y-3132010D01*
G01X12322690Y-3122743D01*
G01X12302817Y-3117031D01*
G01X12282233Y-3115070D01*
G01X12261639Y-3116926D01*
G01X12241736Y-3122535D01*
G01X12223204Y-3131707D01*
G01X12206674Y-3144130D01*
G01X12192709Y-3159379D01*
G01X12181784Y-3176935D01*
G01X12174273Y-3196200D01*
G01X12170431Y-3216517D01*
G01X12170389Y-3237195D01*
G01X12174148Y-3257528D01*
G01X12181580Y-3276824D01*
G01X12192433Y-3294424D01*
G01X12117457Y-3294424D01*
G01X12128299Y-3276845D01*
G01X12135730Y-3257574D01*
G01X12139495Y-3237267D01*
G01X12139469Y-3216613D01*
G01X12135650Y-3196315D01*
G01X12128170Y-3177063D01*
G01X12117283Y-3159512D01*
G01X12103358Y-3144259D01*
G01X12086870Y-3131821D01*
G01X12068378Y-3122621D01*
G01X12048511Y-3116974D01*
G01X12027945Y-3115070D01*
G01X12007379Y-3116974D01*
G01X11987513Y-3122621D01*
G01X11969021Y-3131821D01*
G01X11952532Y-3144259D01*
G01X11938607Y-3159512D01*
G01X11927720Y-3177063D01*
G01X11920240Y-3196315D01*
G01X11916422Y-3216613D01*
G01X11916395Y-3237267D01*
G01X11920161Y-3257574D01*
G01X11927591Y-3276845D01*
G01X11938433Y-3294424D01*
G01X11782922Y-3294424D01*
G01X11779929Y-3284815D01*
G01X11774380Y-3276417D01*
G01X11766714Y-3269895D01*
G01X11757536Y-3265764D01*
G01X11747571Y-3264350D01*
G01X11669150Y-3264350D01*
G01X11334719Y-2929918D01*
G37*
G36*
G01X11358564Y-4812315D02*
G01X11374782Y-4812315D01*
G01X11374782Y-4816815D01*
G01X11376535Y-4827882D01*
G01X11381622Y-4837866D01*
G01X11389545Y-4845789D01*
G01X11399529Y-4850876D01*
G01X11410596Y-4852629D01*
G01X11480577Y-4852629D01*
G01X11480577Y-4955483D01*
G01X11431075Y-5004985D01*
G01X11423293Y-5015157D01*
G01X11412862Y-5015157D01*
G01X11412862Y-5007165D01*
G01X11411209Y-4994609D01*
G01X11406362Y-4982908D01*
G01X11398653Y-4972861D01*
G01X11358578Y-4932786D01*
G01X11358578Y-4881336D01*
G01X11357264Y-4871722D01*
G01X11353417Y-4862814D01*
G01X11347320Y-4855265D01*
G01X11339420Y-4849630D01*
G01X11330298Y-4846323D01*
G01X11341320Y-4841943D01*
G01X11350307Y-4834203D01*
G01X11356273Y-4823952D01*
G01X11358564Y-4812315D01*
G37*
G36*
G01X11513948Y-5339852D02*
G01X11513948Y-5246796D01*
G01X11533929Y-5246796D01*
G01X11540069Y-5246266D01*
G01X11540046Y-5262437D01*
G01X11543938Y-5278132D01*
G01X11551513Y-5292419D01*
G01X11562320Y-5304448D01*
G01X11575718Y-5313504D01*
G01X11590908Y-5319047D01*
G01X11606989Y-5320749D01*
G01X11623004Y-5318508D01*
G01X11638001Y-5312458D01*
G01X11651087Y-5302958D01*
G01X11697436Y-5302958D01*
G01X11709993Y-5301305D01*
G01X11721693Y-5296459D01*
G01X11731741Y-5288749D01*
G01X11764694Y-5255796D01*
G01X11764694Y-5372439D01*
G01X11756088Y-5383962D01*
G01X11750168Y-5397069D01*
G01X11747214Y-5411145D01*
G01X11747364Y-5425526D01*
G01X11750611Y-5439537D01*
G01X11756802Y-5452519D01*
G01X11765647Y-5463860D01*
G01X11776729Y-5473027D01*
G01X11789527Y-5479590D01*
G01X11803438Y-5483239D01*
G01X11817809Y-5483803D01*
G01X11831964Y-5481255D01*
G01X11845237Y-5475715D01*
G01X11857003Y-5467444D01*
G01X11866709Y-5456831D01*
G01X11873898Y-5444374D01*
G01X11880217Y-5447865D01*
G01X11877270Y-5457243D01*
G01X11876274Y-5467023D01*
G01X11876274Y-5733848D01*
G01X11877927Y-5746404D01*
G01X11882774Y-5758105D01*
G01X11890483Y-5768152D01*
G01X11929650Y-5807319D01*
G01X11931029Y-5818634D01*
G01X11934326Y-5829547D01*
G01X11610499Y-5829547D01*
G01X11474045Y-5693092D01*
G01X11474045Y-5687946D01*
G01X11635969Y-5687946D01*
G01X11636537Y-5703124D01*
G01X11640543Y-5717775D01*
G01X11647777Y-5731130D01*
G01X11657860Y-5742488D01*
G01X11670264Y-5751255D01*
G01X11684336Y-5756969D01*
G01X11684336Y-5756969D01*
G01X11699340Y-5759331D01*
G01X11714488Y-5758218D01*
G01X11728985Y-5753687D01*
G01X11742071Y-5745977D01*
G01X11753059Y-5735491D01*
G01X11761373Y-5722780D01*
G01X11766577Y-5708511D01*
G01X11768398Y-5693432D01*
G01X11766740Y-5678334D01*
G01X11761690Y-5664010D01*
G01X11753514Y-5651210D01*
G01X11767120Y-5644461D01*
G01X11778835Y-5634793D01*
G01X11788042Y-5622713D01*
G01X11794259Y-5608855D01*
G01X11797160Y-5593947D01*
G01X11796593Y-5578769D01*
G01X11792587Y-5564118D01*
G01X11785353Y-5550763D01*
G01X11775269Y-5539404D01*
G01X11762866Y-5530638D01*
G01X11748793Y-5524923D01*
G01X11733790Y-5522561D01*
G01X11718642Y-5523674D01*
G01X11704145Y-5528205D01*
G01X11691059Y-5535916D01*
G01X11680071Y-5546401D01*
G01X11671757Y-5559112D01*
G01X11666553Y-5573381D01*
G01X11664732Y-5588460D01*
G01X11666390Y-5603558D01*
G01X11671439Y-5617883D01*
G01X11679616Y-5630683D01*
G01X11666009Y-5637432D01*
G01X11654295Y-5647099D01*
G01X11645088Y-5659179D01*
G01X11638870Y-5673037D01*
G01X11635969Y-5687946D01*
G01X11474045Y-5687946D01*
G01X11474045Y-5491360D01*
G01X11482339Y-5480298D01*
G01X11488159Y-5467755D01*
G01X11492290Y-5463624D01*
G01X11500000Y-5453577D01*
G01X11504846Y-5441876D01*
G01X11506499Y-5429320D01*
G01X11506499Y-5361716D01*
G01X11512035Y-5351401D01*
G01X11513948Y-5339852D01*
G37*
G36*
G01X11937683Y-3710117D02*
G01X11937683Y-3629470D01*
G01X11936369Y-3619856D01*
G01X11932522Y-3610948D01*
G01X11926425Y-3603399D01*
G01X11918525Y-3597765D01*
G01X11909403Y-3594457D01*
G01X11919799Y-3590447D01*
G01X11928460Y-3583436D01*
G01X11934546Y-3574102D01*
G01X11937469Y-3563350D01*
G01X11960312Y-3563350D01*
G01X11973626Y-3572460D01*
G01X11988745Y-3578086D01*
G01X12004775Y-3579896D01*
G01X12020767Y-3577781D01*
G01X12035776Y-3571867D01*
G01X12048913Y-3562504D01*
G01X12059400Y-3550246D01*
G01X12066617Y-3535819D01*
G01X12070137Y-3520075D01*
G01X12069752Y-3503948D01*
G01X12065484Y-3488391D01*
G01X12057585Y-3474325D01*
G01X12158436Y-3474325D01*
G01X12149889Y-3486926D01*
G01X12144441Y-3501145D01*
G01X12142380Y-3516231D01*
G01X12143815Y-3531390D01*
G01X12148670Y-3545822D01*
G01X12156688Y-3558766D01*
G01X12167447Y-3569540D01*
G01X12180381Y-3577576D01*
G01X12194806Y-3582450D01*
G01X12209963Y-3583905D01*
G01X12225052Y-3581865D01*
G01X12239278Y-3576437D01*
G01X12251891Y-3567907D01*
G01X12262226Y-3556725D01*
G01X12271633Y-3567777D01*
G01X12283220Y-3576519D01*
G01X12296431Y-3582530D01*
G01X12310634Y-3585523D01*
G01X12325147Y-3585354D01*
G01X12339276Y-3582032D01*
G01X12352344Y-3575716D01*
G01X12363725Y-3566708D01*
G01X12363725Y-3695935D01*
G01X12365378Y-3708491D01*
G01X12370225Y-3720192D01*
G01X12377935Y-3730240D01*
G01X12607683Y-3959988D01*
G01X12581652Y-3959988D01*
G01X12571050Y-3961593D01*
G01X12561398Y-3966265D01*
G01X12553562Y-3973585D01*
G01X12548244Y-3982896D01*
G01X12545921Y-3993365D01*
G01X12274656Y-3993365D01*
G01X12262636Y-3984468D01*
G01X12248929Y-3978491D01*
G01X12234231Y-3975738D01*
G01X12219289Y-3976347D01*
G01X12204864Y-3980289D01*
G01X12191689Y-3987363D01*
G01X12180434Y-3997209D01*
G01X12171672Y-4009326D01*
G01X12165847Y-4023099D01*
G01X12163256Y-4037827D01*
G01X12164031Y-4052760D01*
G01X12168132Y-4067141D01*
G01X12175351Y-4080237D01*
G01X12185321Y-4091382D01*
G01X12197535Y-4100010D01*
G01X12211371Y-4105682D01*
G01X12208691Y-4108362D01*
G01X11981511Y-4108362D01*
G01X11915941Y-4042792D01*
G01X11905893Y-4035082D01*
G01X11894193Y-4030236D01*
G01X11881636Y-4028582D01*
G01X11810507Y-4028582D01*
G01X11805452Y-4023527D01*
G01X11805452Y-3942540D01*
G01X11847155Y-3900836D01*
G01X11903742Y-3900836D01*
G01X11914809Y-3899084D01*
G01X11924793Y-3893997D01*
G01X11932716Y-3886073D01*
G01X11937803Y-3876090D01*
G01X11939556Y-3865022D01*
G01X11939556Y-3784375D01*
G01X11938118Y-3774326D01*
G01X11933917Y-3765085D01*
G01X11927293Y-3757393D01*
G01X11918776Y-3751869D01*
G01X11909051Y-3748957D01*
G01X11909051Y-3745204D01*
G01X11918270Y-3741955D01*
G01X11926267Y-3736335D01*
G01X11932447Y-3728762D01*
G01X11936349Y-3719800D01*
G01X11937683Y-3710117D01*
G37*
G36*
G01X12109888Y-4778150D02*
G01X12099841Y-4770440D01*
G01X12088140Y-4765594D01*
G01X12075584Y-4763940D01*
G01X12064095Y-4763940D01*
G01X12053639Y-4753650D01*
G01X12041175Y-4745910D01*
G01X12027315Y-4741100D01*
G01X12012736Y-4739455D01*
G01X11998152Y-4741057D01*
G01X11984278Y-4745825D01*
G01X11971791Y-4753528D01*
G01X11961304Y-4763788D01*
G01X11953329Y-4776103D01*
G01X11948258Y-4789869D01*
G01X11946337Y-4804414D01*
G01X11947662Y-4819026D01*
G01X11928792Y-4819026D01*
G01X11928792Y-4651143D01*
G01X11969974Y-4651143D01*
G01X11980135Y-4649672D01*
G01X11989461Y-4645378D01*
G01X11997186Y-4638614D01*
G01X12002674Y-4629937D01*
G01X12005474Y-4620059D01*
G01X12008275Y-4629937D01*
G01X12013763Y-4638614D01*
G01X12021488Y-4645378D01*
G01X12030814Y-4649672D01*
G01X12040975Y-4651143D01*
G01X12096974Y-4651143D01*
G01X12107135Y-4649672D01*
G01X12116461Y-4645378D01*
G01X12124186Y-4638614D01*
G01X12129674Y-4629937D01*
G01X12132474Y-4620059D01*
G01X12135275Y-4629937D01*
G01X12140763Y-4638614D01*
G01X12148488Y-4645378D01*
G01X12157814Y-4649672D01*
G01X12167975Y-4651143D01*
G01X12209297Y-4651143D01*
G01X12347502Y-4789348D01*
G01X12357550Y-4797058D01*
G01X12369250Y-4801905D01*
G01X12381807Y-4803558D01*
G01X12623261Y-4803558D01*
G01X12688065Y-4868361D01*
G01X12698113Y-4876071D01*
G01X12709813Y-4880918D01*
G01X12722370Y-4882571D01*
G01X12818292Y-4882571D01*
G01X12827316Y-4892930D01*
G01X12838347Y-4901117D01*
G01X12850876Y-4906753D01*
G01X12864321Y-4909577D01*
G01X12851102Y-4912329D01*
G01X12838757Y-4917800D01*
G01X12676387Y-4917800D01*
G01X12678142Y-4903832D01*
G01X12676909Y-4889808D01*
G01X12672743Y-4876361D01*
G01X12665833Y-4864096D01*
G01X12656489Y-4853566D01*
G01X12645133Y-4845245D01*
G01X12632277Y-4839510D01*
G01X12618499Y-4836617D01*
G01X12604422Y-4836698D01*
G01X12590678Y-4839748D01*
G01X12577889Y-4845632D01*
G01X12566629Y-4854082D01*
G01X12185820Y-4854082D01*
G01X12109888Y-4778150D01*
G37*
G36*
G01X11957589Y-5204307D02*
G01X11956380Y-5193541D01*
G01X11952811Y-5183312D01*
G01X11947061Y-5174129D01*
G01X11969974Y-5174129D01*
G01X11980135Y-5172658D01*
G01X11989461Y-5168364D01*
G01X11997186Y-5161600D01*
G01X12002674Y-5152923D01*
G01X12005474Y-5143045D01*
G01X12008275Y-5152923D01*
G01X12013763Y-5161600D01*
G01X12021488Y-5168364D01*
G01X12030814Y-5172658D01*
G01X12040975Y-5174129D01*
G01X12045203Y-5174129D01*
G01X12058122Y-5183161D01*
G01X12072806Y-5188889D01*
G01X12088428Y-5190989D01*
G01X12104105Y-5189343D01*
G01X12118950Y-5184044D01*
G01X12132125Y-5175390D01*
G01X12142885Y-5163872D01*
G01X12151179Y-5169947D01*
G01X12151179Y-5172022D01*
G01X11967117Y-5356085D01*
G01X11957589Y-5342949D01*
G01X11957589Y-5204307D01*
G37*
G36*
G01X12248207Y-5164686D02*
G01X12253615Y-5158416D01*
G01X12257439Y-5151071D01*
G01X12259474Y-5143045D01*
G01X12262174Y-5152694D01*
G01X12267441Y-5161218D01*
G01X12274863Y-5167949D01*
G01X12283860Y-5172361D01*
G01X12293726Y-5174108D01*
G01X12307651Y-5181187D01*
G01X12322846Y-5184812D01*
G01X12338467Y-5184783D01*
G01X12353648Y-5181100D01*
G01X12367547Y-5173968D01*
G01X12379391Y-5163783D01*
G01X12388524Y-5151109D01*
G01X12393829Y-5160462D01*
G01X12401671Y-5167818D01*
G01X12411344Y-5172515D01*
G01X12421975Y-5174129D01*
G01X12477974Y-5174129D01*
G01X12488135Y-5172658D01*
G01X12497461Y-5168364D01*
G01X12505186Y-5161600D01*
G01X12510674Y-5152923D01*
G01X12513474Y-5143045D01*
G01X12516684Y-5153806D01*
G01X12523068Y-5163044D01*
G01X12523068Y-5174893D01*
G01X12408157Y-5289804D01*
G01X12292413Y-5289804D01*
G01X12279856Y-5291457D01*
G01X12268156Y-5296303D01*
G01X12258108Y-5304013D01*
G01X12170703Y-5391418D01*
G01X12170816Y-5378135D01*
G01X12168280Y-5365096D01*
G01X12163196Y-5352825D01*
G01X12155768Y-5341812D01*
G01X12146294Y-5332501D01*
G01X12135155Y-5325265D01*
G01X12233998Y-5226422D01*
G01X12241708Y-5216374D01*
G01X12246554Y-5204674D01*
G01X12248207Y-5192117D01*
G01X12248207Y-5164686D01*
G37*
G36*
G01X12605887Y-5229292D02*
G01X12613596Y-5219245D01*
G01X12618443Y-5207544D01*
G01X12620096Y-5194988D01*
G01X12620096Y-5170780D01*
G01X12628579Y-5165249D01*
G01X12635175Y-5157565D01*
G01X12639356Y-5148341D01*
G01X12640788Y-5138315D01*
G01X12640788Y-5014828D01*
G01X12822380Y-5014828D01*
G01X12831113Y-5023175D01*
G01X12841263Y-5029727D01*
G01X12852466Y-5034248D01*
G01X12864321Y-5036577D01*
G01X12849382Y-5039909D01*
G01X12835665Y-5046702D01*
G01X12823961Y-5056566D01*
G01X12814943Y-5068933D01*
G01X12809129Y-5083092D01*
G01X12806854Y-5098228D01*
G01X12808248Y-5113471D01*
G01X12760399Y-5161321D01*
G01X12752689Y-5171368D01*
G01X12747842Y-5183069D01*
G01X12746189Y-5195625D01*
G01X12746189Y-5276391D01*
G01X12737527Y-5288009D01*
G01X12731595Y-5301231D01*
G01X12728677Y-5315426D01*
G01X12728912Y-5329916D01*
G01X12732289Y-5344008D01*
G01X12738647Y-5357031D01*
G01X12747681Y-5368361D01*
G01X12758962Y-5377459D01*
G01X12771949Y-5383889D01*
G01X12786022Y-5387345D01*
G01X12800510Y-5387661D01*
G01X12814721Y-5384822D01*
G01X12822510Y-5395978D01*
G01X12832487Y-5405229D01*
G01X12844198Y-5412155D01*
G01X12857112Y-5416441D01*
G01X12870641Y-5417891D01*
G01X13024641Y-5417891D01*
G01X13036950Y-5416693D01*
G01X13048797Y-5413142D01*
G01X13059736Y-5407374D01*
G01X13069358Y-5399603D01*
G01X13066878Y-5409058D01*
G01X13065814Y-5418775D01*
G01X12904150Y-5580439D01*
G01X12637190Y-5580439D01*
G01X12648028Y-5562859D01*
G01X12655455Y-5543589D01*
G01X12659217Y-5523282D01*
G01X12659188Y-5502630D01*
G01X12655368Y-5482335D01*
G01X12647887Y-5463085D01*
G01X12636999Y-5445536D01*
G01X12623074Y-5430285D01*
G01X12606586Y-5417849D01*
G01X12588095Y-5408651D01*
G01X12568230Y-5403004D01*
G01X12547666Y-5401100D01*
G01X12527102Y-5403004D01*
G01X12507236Y-5408651D01*
G01X12488746Y-5417849D01*
G01X12472258Y-5430285D01*
G01X12458333Y-5445536D01*
G01X12447445Y-5463085D01*
G01X12439964Y-5482335D01*
G01X12436143Y-5502630D01*
G01X12436114Y-5523282D01*
G01X12439877Y-5543589D01*
G01X12447304Y-5562859D01*
G01X12458142Y-5580439D01*
G01X12383190Y-5580439D01*
G01X12393861Y-5563194D01*
G01X12401249Y-5544307D01*
G01X12405110Y-5524398D01*
G01X12405318Y-5504120D01*
G01X12401866Y-5484136D01*
G01X12394868Y-5465101D01*
G01X12384553Y-5447641D01*
G01X12371258Y-5432327D01*
G01X12355420Y-5419661D01*
G01X12337558Y-5410058D01*
G01X12318257Y-5403833D01*
G01X12298150Y-5401190D01*
G01X12312508Y-5386832D01*
G01X12428252Y-5386832D01*
G01X12440809Y-5385179D01*
G01X12452509Y-5380332D01*
G01X12462557Y-5372622D01*
G01X12605887Y-5229292D01*
G37*
G36*
G01X12387108Y-5677467D02*
G01X12577655Y-5677467D01*
G01X12576554Y-5686279D01*
G01X12576554Y-5766926D01*
G01X12576776Y-5770902D01*
G01X12368816Y-5770902D01*
G01X12368816Y-5695758D01*
G01X12387108Y-5677467D01*
G37*
G36*
G01X12988516Y-5872977D02*
G01X13029078Y-5872977D01*
G01X13038694Y-5871662D01*
G01X13047604Y-5867813D01*
G01X13055153Y-5861714D01*
G01X13055153Y-5870367D01*
G01X13055749Y-5877948D01*
G01X13057522Y-5885343D01*
G01X13049794Y-5882569D01*
G01X13041638Y-5881627D01*
G01X12997166Y-5881627D01*
G01X12988516Y-5872977D01*
G37*
G36*
G01X13030960Y-5163577D02*
G01X13046190Y-5160143D01*
G01X13060130Y-5153112D01*
G01X13071945Y-5142908D01*
G01X13080930Y-5130140D01*
G01X13086545Y-5115572D01*
G01X13088454Y-5100077D01*
G01X13086545Y-5084582D01*
G01X13080930Y-5070015D01*
G01X13071945Y-5057247D01*
G01X13060130Y-5047042D01*
G01X13046190Y-5040012D01*
G01X13030960Y-5036577D01*
G01X13045754Y-5033297D01*
G01X13059357Y-5026621D01*
G01X13071003Y-5016927D01*
G01X13080034Y-5004759D01*
G01X13085942Y-4990806D01*
G01X13088394Y-4975853D01*
G01X13087251Y-4960743D01*
G01X13286093Y-4761901D01*
G01X13294614Y-4775557D01*
G01X13306175Y-4786757D01*
G01X13292931Y-4793134D01*
G01X13281417Y-4802273D01*
G01X13272199Y-4813724D01*
G01X13265731Y-4826924D01*
G01X13262329Y-4841225D01*
G01X13262162Y-4855924D01*
G01X13265237Y-4870299D01*
G01X13271403Y-4883643D01*
G01X13280358Y-4895301D01*
G01X13291661Y-4904699D01*
G01X13304757Y-4911377D01*
G01X13319002Y-4915005D01*
G01X13333696Y-4915406D01*
G01X13348118Y-4912560D01*
G01X13361558Y-4906607D01*
G01X13373357Y-4897839D01*
G01X13568689Y-4897839D01*
G01X13444487Y-5022041D01*
G01X13436777Y-5032089D01*
G01X13431930Y-5043790D01*
G01X13430277Y-5056346D01*
G01X13430277Y-5070141D01*
G01X13421290Y-5082319D01*
G01X13415298Y-5096217D01*
G01X13412613Y-5111112D01*
G01X13413375Y-5126228D01*
G01X13417545Y-5140777D01*
G01X13424905Y-5154001D01*
G01X13435072Y-5165213D01*
G01X13447516Y-5173827D01*
G01X13461589Y-5179396D01*
G01X13476559Y-5181628D01*
G01X13491644Y-5180408D01*
G01X13506060Y-5175799D01*
G01X13519056Y-5168042D01*
G01X13529954Y-5157540D01*
G01X13538188Y-5144841D01*
G01X13543327Y-5130605D01*
G01X13545105Y-5115575D01*
G01X13543428Y-5100533D01*
G01X13538385Y-5086263D01*
G01X13530238Y-5073509D01*
G01X13649600Y-4954147D01*
G01X13769718Y-4954147D01*
G01X13767047Y-4968004D01*
G01X13767488Y-4982109D01*
G01X13771017Y-4995773D01*
G01X13777464Y-5008326D01*
G01X13786512Y-5019156D01*
G01X13797719Y-5027732D01*
G01X13810537Y-5033636D01*
G01X13824339Y-5036577D01*
G01X13809110Y-5040012D01*
G01X13795170Y-5047042D01*
G01X13783354Y-5057247D01*
G01X13774370Y-5070015D01*
G01X13768755Y-5084582D01*
G01X13766845Y-5100077D01*
G01X13768755Y-5115572D01*
G01X13774370Y-5130140D01*
G01X13783354Y-5142908D01*
G01X13795170Y-5153112D01*
G01X13809110Y-5160143D01*
G01X13824339Y-5163577D01*
G01X13809162Y-5166994D01*
G01X13795262Y-5173981D01*
G01X13783466Y-5184124D01*
G01X13774475Y-5196820D01*
G01X13768823Y-5211314D01*
G01X13766846Y-5226745D01*
G01X13768662Y-5242196D01*
G01X13760190Y-5229459D01*
G01X13749024Y-5219003D01*
G01X13735759Y-5211383D01*
G01X13721102Y-5207006D01*
G01X13705831Y-5206103D01*
G01X13690760Y-5208724D01*
G01X13676690Y-5214729D01*
G01X13664370Y-5223797D01*
G01X13419134Y-5223797D01*
G01X13415075Y-5219738D01*
G01X13410274Y-5204312D01*
G01X13401885Y-5190504D01*
G01X13390406Y-5179135D01*
G01X13376519Y-5170879D01*
G01X13361048Y-5166226D01*
G01X13344910Y-5165453D01*
G01X13329065Y-5168605D01*
G01X13314451Y-5175494D01*
G01X13314451Y-5033761D01*
G01X13323550Y-5021390D01*
G01X13329558Y-5007257D01*
G01X13332155Y-4992122D01*
G01X13331201Y-4976795D01*
G01X13326747Y-4962098D01*
G01X13319032Y-4948820D01*
G01X13308469Y-4937673D01*
G01X13295626Y-4929254D01*
G01X13281191Y-4924015D01*
G01X13265937Y-4922237D01*
G01X13250684Y-4924015D01*
G01X13236249Y-4929254D01*
G01X13223405Y-4937673D01*
G01X13212843Y-4948820D01*
G01X13205128Y-4962098D01*
G01X13200674Y-4976795D01*
G01X13199720Y-4992122D01*
G01X13202316Y-5007257D01*
G01X13208325Y-5021390D01*
G01X13217423Y-5033761D01*
G01X13217423Y-5386027D01*
G01X13219076Y-5398584D01*
G01X13223923Y-5410284D01*
G01X13231633Y-5420332D01*
G01X13318421Y-5507121D01*
G01X13318421Y-5737345D01*
G01X13311945Y-5743821D01*
G01X13311945Y-5710960D01*
G01X13311404Y-5704760D01*
G01X13309798Y-5698748D01*
G01X13311404Y-5692735D01*
G01X13311945Y-5686535D01*
G01X13311945Y-5645936D01*
G01X13310192Y-5634869D01*
G01X13305105Y-5624885D01*
G01X13297182Y-5616962D01*
G01X13287198Y-5611875D01*
G01X13276131Y-5610122D01*
G01X13136431Y-5610122D01*
G01X13125056Y-5611976D01*
G01X13114859Y-5617348D01*
G01X13103667Y-5616039D01*
G01X13005768Y-5616039D01*
G01X13134423Y-5487384D01*
G01X13150316Y-5484870D01*
G01X13165136Y-5478603D01*
G01X13178010Y-5468951D01*
G01X13188181Y-5456482D01*
G01X13195048Y-5441930D01*
G01X13198209Y-5426153D01*
G01X13197477Y-5410079D01*
G01X13192895Y-5394655D01*
G01X13184733Y-5380788D01*
G01X13173471Y-5369295D01*
G01X13159773Y-5360853D01*
G01X13144445Y-5355959D01*
G01X13128389Y-5354900D01*
G01X13112551Y-5357740D01*
G01X13097863Y-5364311D01*
G01X13085190Y-5374226D01*
G01X13088154Y-5360266D01*
G01X13087941Y-5345996D01*
G01X13084562Y-5332131D01*
G01X13078186Y-5319363D01*
G01X13069133Y-5308332D01*
G01X13057854Y-5299588D01*
G01X13044914Y-5293570D01*
G01X13030960Y-5290577D01*
G01X13046190Y-5287143D01*
G01X13060130Y-5280112D01*
G01X13071945Y-5269908D01*
G01X13080930Y-5257140D01*
G01X13086545Y-5242572D01*
G01X13088454Y-5227077D01*
G01X13086545Y-5211582D01*
G01X13080930Y-5197015D01*
G01X13071945Y-5184247D01*
G01X13060130Y-5174042D01*
G01X13046190Y-5167012D01*
G01X13030960Y-5163577D01*
G37*
G36*
G01X13055153Y-5713067D02*
G01X13055153Y-5722612D01*
G01X13048200Y-5716881D01*
G01X13040037Y-5713067D01*
G01X13055153Y-5713067D01*
G37*
G36*
G01X13418472Y-4369247D02*
G01X13432254Y-4370372D01*
G01X13445970Y-4368614D01*
G01X13459023Y-4364050D01*
G01X13470846Y-4356878D01*
G01X13480924Y-4347410D01*
G01X13488820Y-4336057D01*
G01X13494189Y-4323315D01*
G01X13496800Y-4309735D01*
G01X13496537Y-4295910D01*
G01X13493413Y-4282439D01*
G01X13487563Y-4269909D01*
G01X13479241Y-4258865D01*
G01X13479241Y-4120121D01*
G01X13494925Y-4104438D01*
G01X13494925Y-4127745D01*
G01X13496913Y-4139510D01*
G01X13502655Y-4149970D01*
G01X13511515Y-4157962D01*
G01X13522509Y-4162601D01*
G01X13522509Y-4293464D01*
G01X13524162Y-4306020D01*
G01X13529009Y-4317721D01*
G01X13536718Y-4327769D01*
G01X13588758Y-4379808D01*
G01X13598806Y-4387518D01*
G01X13610506Y-4392364D01*
G01X13623063Y-4394017D01*
G01X13710974Y-4394017D01*
G01X13710565Y-4399391D01*
G01X13695927Y-4414030D01*
G01X13532448Y-4414030D01*
G01X13520077Y-4404932D01*
G01X13505944Y-4398923D01*
G01X13490809Y-4396326D01*
G01X13475482Y-4397280D01*
G01X13460785Y-4401734D01*
G01X13447507Y-4409449D01*
G01X13436360Y-4420012D01*
G01X13427941Y-4432855D01*
G01X13422702Y-4447290D01*
G01X13420924Y-4462544D01*
G01X13422702Y-4477797D01*
G01X13427941Y-4492233D01*
G01X13436360Y-4505076D01*
G01X13447507Y-4515638D01*
G01X13460785Y-4523353D01*
G01X13475482Y-4527807D01*
G01X13490809Y-4528762D01*
G01X13505944Y-4526165D01*
G01X13520077Y-4520156D01*
G01X13532448Y-4511058D01*
G01X13716022Y-4511058D01*
G01X13728578Y-4509405D01*
G01X13740279Y-4504558D01*
G01X13750327Y-4496848D01*
G01X13768345Y-4478830D01*
G01X13773710Y-4493869D01*
G01X13782640Y-4507106D01*
G01X13794577Y-4517711D01*
G01X13808773Y-4525021D01*
G01X13824339Y-4528577D01*
G01X13809086Y-4532021D01*
G01X13795128Y-4539070D01*
G01X13783303Y-4549303D01*
G01X13774323Y-4562104D01*
G01X13768724Y-4576705D01*
G01X13766845Y-4592229D01*
G01X13768798Y-4607744D01*
G01X13750192Y-4607744D01*
G01X13753692Y-4592313D01*
G01X13753436Y-4576492D01*
G01X13749440Y-4561182D01*
G01X13741931Y-4547254D01*
G01X13731336Y-4535502D01*
G01X13718258Y-4526594D01*
G01X13703442Y-4521039D01*
G01X13687732Y-4519151D01*
G01X13672022Y-4521039D01*
G01X13657207Y-4526594D01*
G01X13644129Y-4535502D01*
G01X13633534Y-4547254D01*
G01X13626024Y-4561182D01*
G01X13622028Y-4576492D01*
G01X13621773Y-4592313D01*
G01X13625273Y-4607744D01*
G01X13429840Y-4607744D01*
G01X13418471Y-4609095D01*
G01X13418472Y-4369247D01*
G37*
G36*
G01X13984997Y-3527216D02*
G01X13992492Y-3521532D01*
G01X13998248Y-3514092D01*
G01X14001869Y-3505410D01*
G01X14003104Y-3496085D01*
G01X14003104Y-3459553D01*
G01X14115546Y-3459553D01*
G01X14128103Y-3457900D01*
G01X14139803Y-3453054D01*
G01X14149851Y-3445344D01*
G01X14337155Y-3258040D01*
G01X14404477Y-3252235D01*
G01X14438590Y-3282621D01*
G01X14438590Y-3335058D01*
G01X14432531Y-3334542D01*
G01X14379331Y-3334542D01*
G01X14368264Y-3336295D01*
G01X14358280Y-3341382D01*
G01X14350357Y-3349305D01*
G01X14345270Y-3359289D01*
G01X14343517Y-3370356D01*
G01X14343517Y-3461914D01*
G01X14323337Y-3482094D01*
G01X14167023Y-3482094D01*
G01X14154466Y-3483747D01*
G01X14142766Y-3488594D01*
G01X14132718Y-3496304D01*
G01X14122130Y-3506892D01*
G01X14069925Y-3506892D01*
G01X14058858Y-3508645D01*
G01X14048874Y-3513732D01*
G01X14040951Y-3521655D01*
G01X14035864Y-3531639D01*
G01X14034111Y-3542706D01*
G01X14034111Y-3622706D01*
G01X14036055Y-3634346D01*
G01X14041678Y-3644723D01*
G01X14050367Y-3652708D01*
G01X14041678Y-3660694D01*
G01X14036055Y-3671071D01*
G01X14034111Y-3682711D01*
G01X14034111Y-3711898D01*
G01X13963885Y-3641672D01*
G01X13978150Y-3635015D01*
G01X13990443Y-3625184D01*
G01X14000073Y-3612731D01*
G01X14006497Y-3598360D01*
G01X14009352Y-3582880D01*
G01X14008478Y-3567163D01*
G01X14003924Y-3552094D01*
G01X13995947Y-3538524D01*
G01X13984997Y-3527216D01*
G37*
G36*
G01X14450711Y-4007222D02*
G01X14537878Y-4007222D01*
G01X14550434Y-4005569D01*
G01X14562135Y-4000723D01*
G01X14572182Y-3993013D01*
G01X14656817Y-3908378D01*
G01X14668440Y-3920427D01*
G01X14682181Y-3929989D01*
G01X14697518Y-3936702D01*
G01X14713865Y-3940309D01*
G01X14730602Y-3940674D01*
G01X14730602Y-4082473D01*
G01X14732355Y-4093541D01*
G01X14737442Y-4103524D01*
G01X14745366Y-4111448D01*
G01X14755349Y-4116535D01*
G01X14766416Y-4118287D01*
G01X14850331Y-4118287D01*
G01X14850331Y-4132222D01*
G01X14844077Y-4138476D01*
G01X14801311Y-4138476D01*
G01X14791675Y-4139797D01*
G01X14782751Y-4143660D01*
G01X14775195Y-4149783D01*
G01X14769564Y-4157712D01*
G01X14766275Y-4166864D01*
G01X14738922Y-4166864D01*
G01X14734337Y-4155768D01*
G01X14726341Y-4146811D01*
G01X14715835Y-4140999D01*
G01X14703998Y-4138986D01*
G01X14613998Y-4138986D01*
G01X14602156Y-4141001D01*
G01X14591646Y-4146818D01*
G01X14583651Y-4155783D01*
G01X14579070Y-4166887D01*
G01X14552505Y-4166894D01*
G01X14552505Y-4166087D01*
G01X14550752Y-4155020D01*
G01X14545665Y-4145036D01*
G01X14537742Y-4137113D01*
G01X14527758Y-4132026D01*
G01X14516691Y-4130273D01*
G01X14430290Y-4130273D01*
G01X14421563Y-4131353D01*
G01X14413363Y-4134526D01*
G01X14413363Y-4044571D01*
G01X14450711Y-4007222D01*
G37*
G54D10*
G01X9528628Y-2918718D02*
G01X10151476Y-2918718D01*
G03X10133993Y-2929918I16821J-45504D01*
G01X10130817Y-2933094D01*
G01X10014666Y-2933094D01*
G03X9978852Y-2968908I0J-35814D01*
G01X9978852Y-3121308D01*
G03X10014666Y-3157122I35814J0D01*
G01X10167066Y-3157122D01*
G03X10202880Y-3121308I0J35814D01*
G01X10202880Y-3012737D01*
G01X11280319Y-3012737D01*
G01X11337616Y-3070034D01*
G03X11324654Y-3068270I-12962J-46750D01*
G01X10559830Y-3068270D01*
G03X10525525Y-3082480I0J-48514D01*
G01X10426417Y-3181587D01*
G03X10422597Y-3181383I-3820J-35610D01*
G01X10270197Y-3181383D01*
G03X10234383Y-3217197I0J-35814D01*
G01X10234383Y-3369597D01*
G03X10270197Y-3405411I35814J0D01*
G01X10422597Y-3405411D01*
G03X10458411Y-3369597I0J35814D01*
G01X10458411Y-3286812D01*
G01X10579925Y-3165298D01*
G01X10902884Y-3165298D01*
G03X10885465Y-3218698I48403J-45329D01*
G03X10915269Y-3266308I65821J8071D01*
G03X10953743Y-3387273I37552J-54657D01*
G03X10988838Y-3265285I-922J66308D01*
G03X10997462Y-3258223I-37552J54657D01*
G03X11082225Y-3259561I43186J50324D01*
G03X11097796Y-3272958I50514J42964D01*
G03X11096848Y-3380222I38524J-53977D01*
G03X11098553Y-3489690I38278J-54151D01*
G03X11137040Y-3610509I37767J-54509D01*
G03X11172892Y-3488882I-721J66310D01*
G03X11174597Y-3381086I-37767J54509D01*
G03X11171262Y-3270573I-38278J54151D01*
G03X11199016Y-3218800I-38524J53977D01*
G03X11174762Y-3165298I-66277J2204D01*
G01X11304559Y-3165298D01*
G01X11386006Y-3246746D01*
G01X11386006Y-3438362D01*
G03X11400216Y-3472667I48514J0D01*
G01X11447851Y-3520302D01*
G03X11482155Y-3534511I34304J34305D01*
G01X11697395Y-3534511D01*
G03X11731700Y-3520301I0J48514D01*
G01X11777676Y-3474325D01*
G01X11779935Y-3474325D01*
G03X11779654Y-3478797I35534J-4472D01*
G01X11779654Y-3559444D01*
G03X11807935Y-3594457I35814J0D01*
G03X11779654Y-3629470I7534J-35013D01*
G01X11779654Y-3710117D01*
G03X11812023Y-3745765I35814J0D01*
G01X11812023Y-3748958D01*
G03X11781528Y-3784375I5318J-35417D01*
G01X11781528Y-3829246D01*
G01X11722633Y-3888140D01*
G03X11708424Y-3922445I34305J-34305D01*
G01X11708424Y-4043622D01*
G03X11722633Y-4077927I48514J0D01*
G01X11756107Y-4111401D01*
G03X11790412Y-4125610I34305J34305D01*
G01X11861541Y-4125610D01*
G01X11921555Y-4185624D01*
G01X11873543Y-4185624D01*
G03X11839238Y-4199834I0J-48514D01*
G01X11610619Y-4428453D01*
G03X11601152Y-4415068I-43772J-20920D01*
G01X11500701Y-4314617D01*
G01X11520114Y-4314617D01*
G03X11555916Y-4279729I0J35814D01*
G03X11646777Y-4218131I24546J61604D01*
G03X11555928Y-4156516I-66314J6D01*
G01X11555928Y-4128804D01*
G03X11520114Y-4092990I-35814J0D01*
G01X11489758Y-4092990D01*
G01X11489758Y-4074617D01*
G03X11489488Y-4069503I-48514J0D01*
G01X11489488Y-3940741D01*
G01X11502538Y-3940741D01*
G03X11536654Y-3965660I34117J10895D01*
G01X11626654Y-3965660D01*
G03X11662468Y-3929846I0J35814D01*
G01X11662468Y-3849847D01*
G03X11646212Y-3819844I-35814J0D01*
G03X11662468Y-3789842I-19557J30002D01*
G01X11662468Y-3709842D01*
G03X11626654Y-3674028I-35814J0D01*
G01X11536654Y-3674028D01*
G03X11500840Y-3709842I0J-35814D01*
G01X11500840Y-3789842D01*
G03X11517097Y-3819844I35814J0D01*
G03X11501369Y-3843713I19557J-30002D01*
G01X11474352Y-3843713D01*
G03X11458281Y-3817349I-35629J-3638D01*
G03X11474537Y-3787346I-19557J30002D01*
G01X11474537Y-3707346D01*
G03X11438723Y-3671532I-35814J0D01*
G01X11348723Y-3671532D01*
G03X11312909Y-3707346I0J-35814D01*
G01X11312909Y-3787346D01*
G03X11329166Y-3817349I35814J0D01*
G03X11313627Y-3840218I19557J-30002D01*
G03X11208708Y-3896577I-38651J-53885D01*
G03X11317536Y-3944958I66268J2473D01*
G03X11348723Y-3963165I31187J17607D01*
G01X11392460Y-3963165D01*
G01X11392460Y-4074346D01*
G03X11392730Y-4079460I48514J0D01*
G01X11392730Y-4092990D01*
G01X11270115Y-4092990D01*
G03X11234301Y-4128804I0J-35814D01*
G01X11234301Y-4258258D01*
G01X11171370Y-4321189D01*
G03X11157161Y-4355493I34305J-34305D01*
G01X11157161Y-4667245D01*
G01X11133321Y-4667245D01*
G01X11133321Y-4666157D01*
G03X11097507Y-4630343I-35814J0D01*
G01X11016860Y-4630343D01*
G03X10981847Y-4658623I0J-35814D01*
G03X10954457Y-4631163I-35013J-7534D01*
G01X10954457Y-4468062D01*
G01X10965209Y-4468062D01*
G03X11001023Y-4432248I0J35814D01*
G01X11001023Y-4332249D01*
G03X10965209Y-4296435I-35814J0D01*
G01X10845210Y-4296435D01*
G03X10809396Y-4332249I0J-35814D01*
G01X10809396Y-4432248D01*
G03X10845210Y-4468062I35814J0D01*
G01X10857429Y-4468062D01*
G01X10857429Y-4631430D01*
G03X10830373Y-4666157I8757J-34727D01*
G01X10830373Y-4752557D01*
G03X10866187Y-4788371I35814J0D01*
G01X10911924Y-4788371D01*
G01X10981052Y-4857499D01*
G01X10934122Y-4857499D01*
G03X10898308Y-4893313I0J-35814D01*
G01X10898308Y-5173312D01*
G03X10904154Y-5192922I35814J0D01*
G03X10795040Y-5234281I-43385J-50153D01*
G03X10713618Y-5288581I-15880J-64385D01*
G03X10774951Y-5364846I65543J-10085D01*
G03X10821171Y-5433420I66101J-5310D01*
G03X10898308Y-5403611I19881J63264D01*
G01X10898308Y-5505417D01*
G03X10934122Y-5541231I35814J0D01*
G01X11044122Y-5541231D01*
G03X11079936Y-5505417I0J35814D01*
G01X11079936Y-5381202D01*
G01X11403167Y-5381202D01*
G01X11404164Y-5381192D01*
G03X11407610Y-5382389I23476J62020D01*
G03X11377017Y-5491590I17813J-63877D01*
G01X11377017Y-5713187D01*
G03X11391226Y-5747492I48514J0D01*
G01X11556099Y-5912365D01*
G03X11590404Y-5926575I34305J34305D01*
G01X12218312Y-5926575D01*
G03X12252617Y-5912365I0J48514D01*
G01X12297051Y-5867930D01*
G01X12322184Y-5867930D01*
G01X12322184Y-5981854D01*
G03X12357998Y-6017668I35814J0D01*
G01X12427998Y-6017668D01*
G03X12451856Y-6008564I0J35814D01*
G01X12774816Y-6008564D01*
G03X12810317Y-6039656I35501J4722D01*
G01X12890965Y-6039656D01*
G03X12925977Y-6011376I0J35814D01*
G03X12960990Y-6039656I35013J7534D01*
G01X12966273Y-6039656D01*
G03X13060464Y-6034308I44453J49208D01*
G03X13077452Y-6003842I-18827J30466D01*
G01X13077452Y-5917441D01*
G03X13077096Y-5912405I-35814J0D01*
G01X13222081Y-6057390D01*
G03X13256385Y-6071599I34305J34305D01*
G01X13510819Y-6071599D01*
G03X13545123Y-6057390I0J48514D01*
G01X13551552Y-6050961D01*
G01X13591671Y-6050961D01*
G03X13703195Y-6002447I45210J48514D01*
G03X13591671Y-5953933I-66314J0D01*
G01X13535076Y-5953933D01*
G01X13535076Y-5940101D01*
G01X13622805Y-5852372D01*
G01X13736125Y-5852372D01*
G03X13771939Y-5816558I0J35814D01*
G01X13771939Y-5775959D01*
G03X13769797Y-5763759I-35814J0D01*
G03X13771939Y-5751559I-33672J12200D01*
G01X13771939Y-5710960D01*
G03X13769792Y-5698748I-35814J0D01*
G03X13771939Y-5686535I-33668J12212D01*
G01X13771939Y-5645936D01*
G03X13769797Y-5633737I-35814J0D01*
G03X13771939Y-5621537I-33672J12200D01*
G01X13771939Y-5580938D01*
G03X13736125Y-5545124I-35814J0D01*
G01X13596425Y-5545124D01*
G03X13581419Y-5548419I0J-35814D01*
G01X13711187Y-5418651D01*
G03X13749804Y-5325033I-20277J63138D01*
G03X13773935Y-5256311I-40224J52722D01*
G03X13830659Y-5290891I56724J29234D01*
G01X13954332Y-5290891D01*
G01X13997296Y-5333855D01*
G01X13997296Y-5406893D01*
G03X13890351Y-5459302I-40631J-52409D01*
G03X13997296Y-5511711I66314J0D01*
G01X13997296Y-5535636D01*
G03X13997904Y-5543295I48514J0D01*
G03X13919413Y-5576981I-19238J-63462D01*
G03X13812445Y-5583475I-51117J-42245D01*
G03X13851335Y-5683335I55852J-35751D01*
G03X13927790Y-5784258I53966J-38539D01*
G03X13922262Y-5657765I-22490J62384D01*
G03X13927550Y-5649002I-53966J38539D01*
G03X14002721Y-5668555I51117J42245D01*
G03X14044892Y-5603327I-24055J61798D01*
G01X14058161Y-5616597D01*
G01X14058161Y-5732306D01*
G03X14065646Y-5754217I35814J0D01*
G01X14038342Y-5781521D01*
G01X13986137Y-5781521D01*
G03X13950323Y-5817335I0J-35814D01*
G01X13950323Y-5907335D01*
G03X13986137Y-5943149I35814J0D01*
G01X14066137Y-5943149D01*
G03X14101951Y-5907335I0J35814D01*
G01X14101951Y-5855130D01*
G01X14174295Y-5782786D01*
G03X14184352Y-5768120I-34305J34305D01*
G01X14213975Y-5768120D01*
G03X14238976Y-5757949I0J35814D01*
G03X14263978Y-5768120I25001J25643D01*
G01X14383977Y-5768120D01*
G03X14419791Y-5732306I0J35814D01*
G01X14419791Y-5592306D01*
G03X14383977Y-5556492I-35814J0D01*
G01X14263978Y-5556492D01*
G03X14238976Y-5566663I0J-35814D01*
G03X14213975Y-5556492I-25001J-25643D01*
G01X14135275Y-5556492D01*
G01X14094324Y-5515541D01*
G01X14094324Y-5313760D01*
G03X14080114Y-5279455I-48514J0D01*
G01X14045848Y-5245189D01*
G03X14047928Y-5235397I-61189J18112D01*
G01X14228164Y-5415632D01*
G01X14228164Y-5512291D01*
G03X14263978Y-5548105I35814J0D01*
G01X14383977Y-5548105D01*
G03X14419791Y-5512291I0J35814D01*
G01X14419791Y-5492515D01*
G01X14467114Y-5492515D01*
G03X14501182Y-5517280I34067J11049D01*
G01X14591181Y-5517280D01*
G03X14626995Y-5481466I0J35814D01*
G01X14626995Y-5401466D01*
G03X14591181Y-5365652I-35814J0D01*
G01X14501182Y-5365652D01*
G03X14465870Y-5395487I0J-35814D01*
G01X14419791Y-5395487D01*
G01X14419791Y-5372292D01*
G03X14383977Y-5336478I-35814J0D01*
G01X14286227Y-5336478D01*
G01X14048458Y-5098708D01*
G03X13990979Y-5036577I-63799J-1369D01*
G03X14045600Y-4954147I-6320J63500D01*
G01X14084697Y-4954147D01*
G01X14084697Y-5026219D01*
G03X14120511Y-5062033I35814J0D01*
G01X14200511Y-5062033D01*
G03X14230514Y-5045776I0J35814D01*
G03X14260516Y-5062033I30002J19557D01*
G01X14340516Y-5062033D01*
G03X14376330Y-5026219I0J35814D01*
G01X14376330Y-4936219D01*
G03X14340516Y-4900405I-35814J0D01*
G01X14260516Y-4900405D01*
G03X14233130Y-4913140I0J-35814D01*
G03X14222719Y-4898351I-58925J-30421D01*
G01X14222719Y-4872145D01*
G03X14227265Y-4866511I-25457J25191D01*
G03X14257267Y-4882768I30002J19557D01*
G01X14337267Y-4882768D01*
G03X14373081Y-4846954I0J35814D01*
G01X14373081Y-4756954D01*
G03X14337267Y-4721140I-35814J0D01*
G01X14257267Y-4721140D01*
G03X14227265Y-4737396I0J-35814D01*
G03X14197262Y-4721140I-30002J-19557D01*
G01X14130260Y-4721140D01*
G01X14285576Y-4565825D01*
G03X14299785Y-4531520I-34305J34305D01*
G01X14299785Y-4235668D01*
G03X14285576Y-4201364I-48514J0D01*
G01X14103215Y-4019003D01*
G01X14103215Y-4009878D01*
G03X14179415Y-3944305I9886J65573D01*
G03X14103215Y-3878732I-66314J0D01*
G01X14103215Y-3801097D01*
G03X14103146Y-3798525I-48514J0D01*
G01X14159925Y-3798525D01*
G03X14195739Y-3762711I0J35814D01*
G01X14195739Y-3719001D01*
G01X14212266Y-3702474D01*
G01X14248521Y-3702474D01*
G01X14248521Y-3707376D01*
G03X14284335Y-3743190I35814J0D01*
G01X14337535Y-3743190D01*
G03X14358433Y-3736461I0J35814D01*
G03X14379331Y-3743190I20898J29085D01*
G01X14392488Y-3743190D01*
G01X14446079Y-3796780D01*
G01X14446079Y-3862480D01*
G03X14481893Y-3898294I35814J0D01*
G01X14529683Y-3898294D01*
G01X14517783Y-3910194D01*
G01X14430616Y-3910194D01*
G03X14396312Y-3924404I0J-48514D01*
G01X14330544Y-3990171D01*
G03X14316335Y-4024476I34305J-34305D01*
G01X14316335Y-4608140D01*
G03X14330544Y-4642444I48514J0D01*
G01X14388700Y-4700600D01*
G01X14388700Y-4731085D01*
G03X14424514Y-4766899I35814J0D01*
G01X14445420Y-4766899D01*
G01X14460575Y-4782054D01*
G03X14494880Y-4796264I34305J34304D01*
G01X14788310Y-4796264D01*
G03X14822614Y-4782055I0J48514D01*
G01X14845449Y-4759219D01*
G01X14898007Y-4759219D01*
G03X14931175Y-4736917I0J35814D01*
G01X14934850Y-4736917D01*
G03X14968753Y-4761188I33903J11543D01*
G01X15055154Y-4761188D01*
G03X15080714Y-4750461I0J35814D01*
G01X15080714Y-5911028D01*
G02X14862528Y-6129214I-218186J0D01*
G01X9528628Y-6129214D01*
G02X9310442Y-5911028I0J218186D01*
G01X9310442Y-3136904D01*
G02X9528628Y-2918718I218186J0D01*
G01X9632963Y-3879939D02*
G03X9381335Y-3879939I-125814J0D01*
G03X9632963Y-3879939I125814J0D01*
G01X9469167Y-3137723D02*
G03X9860795Y-3137723I195814J0D01*
G03X9469167Y-3137723I-195814J0D01*
G01X9484165Y-5911976D02*
G03X9875793Y-5911976I195814J0D01*
G03X9484165Y-5911976I-195814J0D01*
G01X9846736Y-5390353D02*
G01X9846736Y-5335210D01*
G03X9810922Y-5299396I-35814J0D01*
G01X9658522Y-5299396D01*
G03X9622708Y-5335210I0J-35814D01*
G01X9622708Y-5487610D01*
G03X9658522Y-5523424I35814J0D01*
G01X9810922Y-5523424D01*
G03X9846736Y-5487610I0J35814D01*
G01X9846736Y-5487356D01*
G01X10634336Y-5487381D01*
G01X11006809Y-5859854D01*
G03X11022324Y-5870277I34305J34305D01*
G01X10925405Y-5870277D01*
G01X10734707Y-5679579D01*
G03X10700402Y-5665369I-34305J-34305D01*
G01X10436984Y-5665369D01*
G03X10348889Y-5663302I-45210J-48514D01*
G03X10336519Y-5750549I42885J-50581D01*
G01X10287126Y-5750549D01*
G03X10261074Y-5761789I0J-35814D01*
G01X10260030Y-5760728D01*
G03X10224165Y-5644214I-42895J50573D01*
G03X10164544Y-5750549I-7029J-65940D01*
G01X10084989Y-5750549D01*
G03X10030567Y-5646342I-54421J37893D01*
G03X9976146Y-5750549I0J-66314D01*
G01X9955021Y-5750549D01*
G03X9919207Y-5786363I0J-35814D01*
G01X9919207Y-5896363D01*
G03X9955021Y-5932177I35814J0D01*
G01X9987860Y-5932177D01*
G03X10068273Y-5932177I40207J52735D01*
G01X10179254Y-5932177D01*
G03X10262985Y-5922817I36176J55577D01*
G03X10287126Y-5932177I24141J26454D01*
G01X10567126Y-5932177D01*
G03X10602940Y-5896363I0J35814D01*
G01X10602940Y-5786363D01*
G03X10593739Y-5762397I-35814J0D01*
G01X10680307Y-5762397D01*
G01X10871005Y-5953095D01*
G03X10905310Y-5967305I34305J34305D01*
G01X11237327Y-5967305D01*
G03X11347382Y-5932676I45210J48514D01*
G03X11261157Y-5856018I-64844J13885D01*
G03X11267717Y-5814940I-58900J30468D01*
G03X11333713Y-5723004I4908J66132D01*
G03X11221794Y-5706220I-61088J-25803D01*
G01X11040739Y-5706220D01*
G01X10703482Y-5368963D01*
G03X10669178Y-5354753I-34305J-34305D01*
G01X10227606Y-5354753D01*
G01X9984272Y-5111420D01*
G03X9949968Y-5097210I-34305J-34305D01*
G01X9846736Y-5097210D01*
G01X9846736Y-5055153D01*
G03X9810922Y-5019339I-35814J0D01*
G01X9658522Y-5019339D01*
G03X9622708Y-5055153I0J-35814D01*
G01X9622708Y-5207553D01*
G03X9658522Y-5243367I35814J0D01*
G01X9810922Y-5243367D01*
G03X9846736Y-5207553I0J35814D01*
G01X9846736Y-5194238D01*
G01X9929873Y-5194238D01*
G01X10125988Y-5390353D01*
G01X9846736Y-5390353D01*
G01X10734600Y-5049620D02*
G03X10867228Y-5049620I66314J0D01*
G03X10734600Y-5049620I-66314J0D01*
G01X10932573Y-4187132D02*
G03X10981087Y-4075608I0J66314D01*
G01X10981087Y-3813075D01*
G03X11001023Y-3780973I-15878J32102D01*
G01X11001023Y-3680973D01*
G03X10965209Y-3645159I-35814J0D01*
G01X10845210Y-3645159D01*
G03X10809396Y-3680973I0J-35814D01*
G01X10809396Y-3780973D01*
G03X10845210Y-3816787I35814J0D01*
G01X10884059Y-3816787D01*
G01X10884059Y-4075608D01*
G03X10932573Y-4187132I48514J-45210D01*
G01X10887701Y-3548974D02*
G03X11020329Y-3548974I66314J0D01*
G03X10887701Y-3548974I-66314J0D01*
G01X14419369Y-5844684D02*
G03X14561000Y-5844684I70815J0D01*
G03X14419369Y-5844684I-70815J0D01*
G01X14419369Y-5266682D02*
G03X14561000Y-5266682I70815J0D01*
G03X14419369Y-5266682I-70815J0D01*
G01X11079936Y-5173312D02*
G01X11079936Y-5043387D01*
G03X11174296Y-5040901I45953J47810D01*
G03X11170578Y-4946582I-48407J45325D01*
G01X11170578Y-4889220D01*
G03X11156368Y-4854916I-48514J0D01*
G01X11110602Y-4809149D01*
G03X11076297Y-4794940I-34305J-34305D01*
G01X11055711Y-4794940D01*
G01X11049143Y-4788371D01*
G01X11097507Y-4788371D01*
G03X11131351Y-4764273I0J35814D01*
G01X11195574Y-4764273D01*
G01X11200550Y-4769249D01*
G01X11200550Y-4811310D01*
G03X11228830Y-4846323I35814J0D01*
G03X11200550Y-4881336I7534J-35013D01*
G01X11200550Y-4961983D01*
G03X11236364Y-4997797I35814J0D01*
G01X11286371Y-4997797D01*
G01X11315834Y-5027260D01*
G01X11315834Y-5039968D01*
G03X11314102Y-5050971I34082J-11003D01*
G01X11314102Y-5091168D01*
G01X11293929Y-5091168D01*
G03X11258115Y-5126982I0J-35814D01*
G01X11258115Y-5210982D01*
G03X11293929Y-5246796I35814J0D01*
G01X11364115Y-5246796D01*
G01X11364115Y-5284174D01*
G01X11079936Y-5284174D01*
G01X11079936Y-5225418D01*
G03X11068696Y-5199365I-35814J0D01*
G03X11079936Y-5173312I-24574J26053D01*
G01X11334719Y-2929918D02*
G03X11317235Y-2918718I-34305J-34305D01*
G01X14862528Y-2918718D01*
G02X15080714Y-3136904I0J-218186D01*
G01X15080714Y-4468967D01*
G03X15055154Y-4458239I-25560J-25087D01*
G01X14968753Y-4458239D01*
G03X14933533Y-4487556I0J-35814D01*
G03X14898007Y-4456271I-35526J-4529D01*
G01X14811606Y-4456271D01*
G03X14776567Y-4484679I0J-35814D01*
G01X14538713Y-4484679D01*
G03X14514514Y-4475266I-24199J-26401D01*
G01X14501482Y-4475266D01*
G01X14501482Y-4433222D01*
G01X14516691Y-4433222D01*
G03X14552505Y-4397408I0J35814D01*
G01X14552505Y-4316760D01*
G03X14524225Y-4281747I-35814J0D01*
G03X14548110Y-4263924I-7534J35013D01*
G01X14579364Y-4263915D01*
G03X14613998Y-4290614I34635J9115D01*
G01X14703998Y-4290614D01*
G03X14738639Y-4263892I0J35814D01*
G01X14766808Y-4263892D01*
G03X14801311Y-4290104I34503J9602D01*
G01X14891310Y-4290104D01*
G03X14927124Y-4254290I0J35814D01*
G01X14927124Y-4192647D01*
G01X14933149Y-4186622D01*
G03X14947359Y-4152318I-34305J34305D01*
G01X14947359Y-4118287D01*
G01X15016416Y-4118287D01*
G03X15052230Y-4082473I0J35814D01*
G01X15052230Y-3932474D01*
G03X15016416Y-3896660I-35814J0D01*
G01X14799176Y-3896660D01*
G03X14780844Y-3790737I-75083J41553D01*
G03X14673459Y-3785824I-56750J-64370D01*
G01X14673459Y-3765509D01*
G03X14659249Y-3731204I-48514J0D01*
G01X14563341Y-3635296D01*
G01X14563341Y-3602130D01*
G01X14730602Y-3602130D01*
G01X14730602Y-3702489D01*
G03X14766416Y-3738303I35814J0D01*
G01X15016416Y-3738303D01*
G03X15052230Y-3702489I0J35814D01*
G01X15052230Y-3552490D01*
G03X15016416Y-3516676I-35814J0D01*
G01X14891113Y-3516676D01*
G01X14872068Y-3497631D01*
G03X14828784Y-3479702I-43285J-43285D01*
G01X14563277Y-3479702D01*
G01X14563341Y-3477557D01*
G01X14563341Y-3370356D01*
G03X14562200Y-3361387I-35814J0D01*
G01X14562200Y-3207656D01*
G03X14585282Y-3175371I-12712J33482D01*
G03X14617067Y-3118733I-34529J56615D01*
G03X14585243Y-3062117I-66314J-23D01*
G03X14549488Y-3028360I-35755J-2057D01*
G01X14438284Y-3028360D01*
G03X14415177Y-3028360I-11554J-65300D01*
G01X14269489Y-3028360D01*
G03X14233675Y-3064174I0J-35814D01*
G01X14233675Y-3151039D01*
G03X14242964Y-3215012I61948J-23666D01*
G01X14095451Y-3362525D01*
G01X13967336Y-3362525D01*
G03X13941038Y-3370271I0J-48514D01*
G01X13887290Y-3370271D01*
G03X13851476Y-3406085I0J-35814D01*
G01X13851476Y-3496085D01*
G03X13887290Y-3531899I35814J0D01*
G01X13896167Y-3531899D01*
G03X13879840Y-3598343I47005J-46777D01*
G01X13686377Y-3598343D01*
G01X13659362Y-3571328D01*
G01X13659362Y-3441769D01*
G03X13645153Y-3407464I-48514J0D01*
G01X13436366Y-3198678D01*
G03X13402061Y-3184469I-34305J-34305D01*
G01X13401536Y-3184469D01*
G03X13248742Y-3126455I-103591J-42615D01*
G03X13200696Y-3282670I49203J-100629D01*
G01X13151457Y-3282670D01*
G01X13144738Y-3275951D01*
G03X12974553Y-3139152I-100793J48867D01*
G03X13068044Y-3336475I69392J-87931D01*
G01X13092371Y-3360802D01*
G01X12706228Y-3360802D01*
G03X12671923Y-3375011I0J-48514D01*
G01X12609932Y-3437002D01*
G01X12581652Y-3437002D01*
G03X12570214Y-3438877I0J-35814D01*
G01X12570214Y-3333727D01*
G03X12551787Y-3116196I-34269J106643D01*
G03X12473186Y-3319865I-15842J-110888D01*
G01X12473186Y-3383060D01*
G01X12398760Y-3308634D01*
G03X12371110Y-3294883I-34305J-34305D01*
G03X12282233Y-3115070I-89165J67799D01*
G03X12192433Y-3294424I-288J-112014D01*
G01X12117457Y-3294424D01*
G03X12027945Y-3115070I-89512J67340D01*
G03X11938433Y-3294424I0J-112014D01*
G01X11782922Y-3294424D01*
G03X11747571Y-3264350I-35351J-5740D01*
G01X11669150Y-3264350D01*
G01X11334719Y-2929918D01*
G01X12901959Y-3227084D02*
G03X12677931Y-3227084I-112014J0D01*
G03X12901959Y-3227084I112014J0D01*
G01X13622228Y-3343818D02*
G03X13743456Y-3320048I55971J35564D01*
G03X13900488Y-3167011I62489J92964D01*
G03X13695242Y-3244167I-94543J-60073D01*
G03X13622228Y-3343818I-17042J-64087D01*
G01X14666035Y-3137723D02*
G03X15057663Y-3137723I195814J0D01*
G03X14666035Y-3137723I-195814J0D01*
G01X11358564Y-4812315D02*
G01X11374782Y-4812315D01*
G01X11374782Y-4816815D01*
G03X11410596Y-4852629I35814J0D01*
G01X11480577Y-4852629D01*
G01X11480577Y-4955483D01*
G01X11431075Y-5004985D01*
G03X11423293Y-5015157I34305J-34305D01*
G01X11412862Y-5015157D01*
G01X11412862Y-5007165D01*
G03X11398653Y-4972861I-48514J0D01*
G01X11358578Y-4932786D01*
G01X11358578Y-4881336D01*
G03X11330298Y-4846323I-35814J0D01*
G03X11358564Y-4812315I-7534J35013D01*
G01X11513948Y-5339852D02*
G01X11513948Y-5246796D01*
G01X11533929Y-5246796D01*
G03X11540069Y-5246266I0J35814D01*
G03X11575718Y-5313504I65808J-8178D01*
G03X11651087Y-5302958I30159J59059D01*
G01X11697436Y-5302958D01*
G03X11731741Y-5288749I0J48514D01*
G01X11764694Y-5255796D01*
G01X11764694Y-5372439D01*
G03X11776729Y-5473027I48514J-45210D01*
G03X11873898Y-5444374I36480J55379D01*
G03X11880217Y-5447865I35177J56215D01*
G03X11876274Y-5467023I44571J-19158D01*
G01X11876274Y-5733848D01*
G03X11890483Y-5768152I48514J0D01*
G01X11929650Y-5807319D01*
G03X11934326Y-5829547I66273J2336D01*
G01X11610499Y-5829547D01*
G01X11474045Y-5693092D01*
G01X11474045Y-5491360D01*
G03X11488159Y-5467755I-48621J45095D01*
G01X11492290Y-5463624D01*
G03X11506499Y-5429320I-34305J34305D01*
G01X11506499Y-5361716D01*
G03X11513948Y-5339852I-28365J21864D01*
G01X11684336Y-5756969D02*
G03X11753514Y-5651210I17749J63895D01*
G03X11748793Y-5524923I-22469J62392D01*
G03X11679616Y-5630683I-17749J-63895D01*
G03X11684336Y-5756969I22469J-62392D01*
G01X11937683Y-3710117D02*
G01X11937683Y-3629470D01*
G03X11909403Y-3594457I-35814J0D01*
G03X11937469Y-3563350I-7534J35013D01*
G01X11960312Y-3563350D01*
G03X12048913Y-3562504I43829J49765D01*
G03X12057585Y-3474325I-44771J48919D01*
G01X12158436Y-3474325D01*
G03X12167447Y-3569540I50244J-43279D01*
G03X12262226Y-3556725I41233J51937D01*
G03X12310634Y-3585523I54899J37197D01*
G03X12363725Y-3566708I6491J65996D01*
G01X12363725Y-3695935D01*
G03X12377935Y-3730240I48514J0D01*
G01X12607683Y-3959988D01*
G01X12581652Y-3959988D01*
G03X12545921Y-3993365I0J-35814D01*
G01X12274656Y-3993365D01*
G03X12171672Y-4009326I-45210J-48514D01*
G03X12211371Y-4105682I57774J-32553D01*
G01X12208691Y-4108362D01*
G01X11981511Y-4108362D01*
G01X11915941Y-4042792D01*
G03X11881636Y-4028582I-34305J-34305D01*
G01X11810507Y-4028582D01*
G01X11805452Y-4023527D01*
G01X11805452Y-3942540D01*
G01X11847155Y-3900836D01*
G01X11903742Y-3900836D01*
G03X11939556Y-3865022I0J35814D01*
G01X11939556Y-3784375D01*
G03X11909051Y-3748957I-35814J0D01*
G01X11909051Y-3745204D01*
G03X11937683Y-3710117I-7182J35086D01*
G01X12109888Y-4778150D02*
G03X12075584Y-4763940I-34305J-34305D01*
G01X12064095Y-4763940D01*
G03X11984278Y-4745825I-51458J-41829D01*
G03X11947662Y-4819026I28360J-59944D01*
G01X11928792Y-4819026D01*
G01X11928792Y-4651143D01*
G01X11969974Y-4651143D01*
G03X12005474Y-4620059I0J35814D01*
G03X12040975Y-4651143I35500J4730D01*
G01X12096974Y-4651143D01*
G03X12132474Y-4620059I0J35814D01*
G03X12167975Y-4651143I35500J4730D01*
G01X12209297Y-4651143D01*
G01X12347502Y-4789348D01*
G03X12381807Y-4803558I34305J34305D01*
G01X12623261Y-4803558D01*
G01X12688065Y-4868361D01*
G03X12722370Y-4882571I34305J34305D01*
G01X12818292Y-4882571D01*
G03X12864321Y-4909577I52349J36493D01*
G03X12838757Y-4917800I6320J-63500D01*
G01X12676387Y-4917800D01*
G03X12645133Y-4845245I-64548J15204D01*
G03X12566629Y-4854082I-33294J-57350D01*
G01X12185820Y-4854082D01*
G01X12109888Y-4778150D01*
G01X11957589Y-5204307D02*
G03X11947061Y-5174129I-48514J0D01*
G01X11969974Y-5174129D01*
G03X12005474Y-5143045I0J35814D01*
G03X12040975Y-5174129I35500J4730D01*
G01X12045203Y-5174129D01*
G03X12142885Y-5163872I44187J49447D01*
G03X12151179Y-5169947I25090J25557D01*
G01X12151179Y-5172022D01*
G01X11967117Y-5356085D01*
G03X11957589Y-5342949I-58041J-32074D01*
G01X11957589Y-5204307D01*
G01X12248207Y-5164686D02*
G03X12259474Y-5143045I-24233J26370D01*
G03X12293726Y-5174108I35500J4730D01*
G03X12388524Y-5151109I36806J55162D01*
G03X12421975Y-5174129I33451J12794D01*
G01X12477974Y-5174129D01*
G03X12513474Y-5143045I0J35814D01*
G03X12523068Y-5163044I35500J4730D01*
G01X12523068Y-5174893D01*
G01X12408157Y-5289804D01*
G01X12292413Y-5289804D01*
G03X12258108Y-5304013I0J-48514D01*
G01X12170703Y-5391418D01*
G03X12163196Y-5352825I-65922J7204D01*
G03X12135155Y-5325265I-58414J-31390D01*
G01X12233998Y-5226422D01*
G03X12248207Y-5192117I-34305J34305D01*
G01X12248207Y-5164686D01*
G01X12605887Y-5229292D02*
G03X12620096Y-5194988I-34305J34305D01*
G01X12620096Y-5170780D01*
G03X12640788Y-5138315I-15122J32465D01*
G01X12640788Y-5014828D01*
G01X12822380Y-5014828D01*
G03X12864321Y-5036577I48261J41750D01*
G03X12808248Y-5113471I6320J-63500D01*
G01X12760399Y-5161321D01*
G03X12746189Y-5195625I34305J-34305D01*
G01X12746189Y-5276391D01*
G03X12738647Y-5357031I48514J-45210D01*
G03X12814721Y-5384822I56056J35430D01*
G03X12870641Y-5417891I55919J30744D01*
G01X13024641Y-5417891D01*
G03X13069358Y-5399603I0J63814D01*
G03X13065814Y-5418775I62729J-21508D01*
G01X12904150Y-5580439D01*
G01X12637190Y-5580439D01*
G03X12547666Y-5401100I-89524J67325D01*
G03X12458142Y-5580439I0J-112014D01*
G01X12383190Y-5580439D01*
G03X12298150Y-5401190I-89524J67325D01*
G01X12312508Y-5386832D01*
G01X12428252Y-5386832D01*
G03X12462557Y-5372622I0J48514D01*
G01X12605887Y-5229292D01*
G01X12387108Y-5677467D02*
G01X12577655Y-5677467D01*
G03X12576554Y-5686279I34713J-8812D01*
G01X12576554Y-5766926D01*
G03X12576776Y-5770902I35814J0D01*
G01X12368816Y-5770902D01*
G01X12368816Y-5695758D01*
G01X12387108Y-5677467D01*
G01X12988516Y-5872977D02*
G01X13029078Y-5872977D01*
G03X13055153Y-5861714I0J35814D01*
G01X13055153Y-5870367D01*
G03X13057522Y-5885343I48514J0D01*
G03X13041638Y-5881627I-15885J-32099D01*
G01X12997166Y-5881627D01*
G01X12988516Y-5872977D01*
G01X13030960Y-5163577D02*
G03X13030960Y-5036577I-6320J63500D01*
G03X13087251Y-4960743I-6320J63500D01*
G01X13286093Y-4761901D01*
G03X13306175Y-4786757I60103J28021D01*
G03X13271403Y-4883643I21972J-62568D01*
G03X13373357Y-4897839I56743J34318D01*
G01X13568689Y-4897839D01*
G01X13444487Y-5022041D01*
G03X13430277Y-5056346I34305J-34305D01*
G01X13430277Y-5070141D01*
G03X13476559Y-5181628I48514J-45210D01*
G03X13530238Y-5073509I2233J66276D01*
G01X13649600Y-4954147D01*
G01X13769718Y-4954147D01*
G03X13824339Y-5036577I60941J-18931D01*
G03X13824339Y-5163577I6320J-63500D01*
G03X13768662Y-5242196I6320J-63500D01*
G03X13664370Y-5223797I-59082J-30115D01*
G01X13419134Y-5223797D01*
G01X13415075Y-5219738D01*
G03X13314451Y-5175494I-65247J-11847D01*
G01X13314451Y-5033761D01*
G03X13265937Y-4922237I-48514J45210D01*
G03X13217423Y-5033761I0J-66314D01*
G01X13217423Y-5386027D01*
G03X13231633Y-5420332I48514J0D01*
G01X13318421Y-5507121D01*
G01X13318421Y-5737345D01*
G01X13311945Y-5743821D01*
G01X13311945Y-5710960D01*
G03X13309798Y-5698748I-35814J0D01*
G03X13311945Y-5686535I-33668J12212D01*
G01X13311945Y-5645936D01*
G03X13276131Y-5610122I-35814J0D01*
G01X13136431Y-5610122D01*
G03X13114859Y-5617348I0J-35814D01*
G03X13103667Y-5616039I-11192J-47205D01*
G01X13005768Y-5616039D01*
G01X13134423Y-5487384D01*
G03X13192895Y-5394655I-2336J66273D01*
G03X13085190Y-5374226I-60808J-26456D01*
G03X13030960Y-5290577I-60549J20148D01*
G03X13030960Y-5163577I-6320J63500D01*
G01X13055153Y-5713067D02*
G01X13055153Y-5722612D01*
G03X13040037Y-5713067I-26075J-24551D01*
G01X13055153Y-5713067D01*
G01X13418472Y-4369247D02*
G03X13488820Y-4336057I12256J65172D01*
G03X13479241Y-4258865I-58092J31982D01*
G01X13479241Y-4120121D01*
G01X13494925Y-4104438D01*
G01X13494925Y-4127745D01*
G03X13522509Y-4162601I35814J0D01*
G01X13522509Y-4293464D01*
G03X13536718Y-4327769I48514J0D01*
G01X13588758Y-4379808D01*
G03X13623063Y-4394017I34304J34305D01*
G01X13710974Y-4394017D01*
G03X13710565Y-4399391I65864J-7710D01*
G01X13695927Y-4414030D01*
G01X13532448Y-4414030D01*
G03X13420924Y-4462544I-45210J-48514D01*
G03X13532448Y-4511058I66314J0D01*
G01X13716022Y-4511058D01*
G03X13750327Y-4496848I0J48514D01*
G01X13768345Y-4478830D01*
G03X13824339Y-4528577I62314J13753D01*
G03X13768798Y-4607744I6320J-63500D01*
G01X13750192Y-4607744D01*
G03X13687732Y-4519151I-62460J22279D01*
G03X13625273Y-4607744I0J-66314D01*
G01X13429840Y-4607744D01*
G03X13418471Y-4609095I0J-48514D01*
G01X13418472Y-4369247D01*
G01X13984997Y-3527216D02*
G03X14003104Y-3496085I-17706J31131D01*
G01X14003104Y-3459553D01*
G01X14115546Y-3459553D01*
G03X14149851Y-3445344I0J48514D01*
G01X14337155Y-3258040D01*
G01X14404477Y-3252235D01*
G01X14438590Y-3282621D01*
G01X14438590Y-3335058D01*
G03X14432531Y-3334542I-6059J-35298D01*
G01X14379331Y-3334542D01*
G03X14343517Y-3370356I0J-35814D01*
G01X14343517Y-3461914D01*
G01X14323337Y-3482094D01*
G01X14167023Y-3482094D01*
G03X14132718Y-3496304I0J-48514D01*
G01X14122130Y-3506892D01*
G01X14069925Y-3506892D01*
G03X14034111Y-3542706I0J-35814D01*
G01X14034111Y-3622706D01*
G03X14050367Y-3652708I35814J0D01*
G03X14034111Y-3682711I19557J-30002D01*
G01X14034111Y-3711898D01*
G01X13963885Y-3641672D01*
G03X13984997Y-3527216I-20714J62996D01*
G01X14450711Y-4007222D02*
G01X14537878Y-4007222D01*
G03X14572182Y-3993013I0J48514D01*
G01X14656817Y-3908378D01*
G03X14730602Y-3940674I67277J53272D01*
G01X14730602Y-4082473D01*
G03X14766416Y-4118287I35814J0D01*
G01X14850331Y-4118287D01*
G01X14850331Y-4132222D01*
G01X14844077Y-4138476D01*
G01X14801311Y-4138476D01*
G03X14766275Y-4166864I0J-35814D01*
G01X14738922Y-4166864D01*
G03X14703998Y-4138986I-34924J-7936D01*
G01X14613998Y-4138986D01*
G03X14579070Y-4166887I0J-35814D01*
G01X14552505Y-4166894D01*
G01X14552505Y-4166087D01*
G03X14516691Y-4130273I-35814J0D01*
G01X14430290Y-4130273D01*
G03X14413363Y-4134526I0J-35814D01*
G01X14413363Y-4044571D01*
G01X14450711Y-4007222D01*
G54D11*
G01X10427126Y-5841363D02*
G01X10592780Y-5841363D01*
G01X10427126Y-5841363D02*
G01X10427126Y-5922017D01*
G01X10989122Y-5033313D02*
G01X10908468Y-5033313D01*
G01X11393723Y-3747346D02*
G01X11393723Y-3681692D01*
G01X11393723Y-3747346D02*
G01X11323069Y-3747346D01*
G01X11393723Y-3747346D02*
G01X11464377Y-3747346D01*
G01X11581654Y-3749842D02*
G01X11581654Y-3684188D01*
G01X11581654Y-3749842D02*
G01X11511000Y-3749842D01*
G01X11581654Y-3749842D02*
G01X11652308Y-3749842D01*
G01X12449974Y-5066816D02*
G01X12449974Y-5163969D01*
G01X12989078Y-5792163D02*
G01X12989078Y-5862817D01*
G01X14297267Y-4801954D02*
G01X14362921Y-4801954D01*
G01X14297267Y-4801954D02*
G01X14297267Y-4872608D01*
G01X14297267Y-4801954D02*
G01X14297267Y-4731300D01*
G01X14300516Y-4981219D02*
G01X14366170Y-4981219D01*
G01X14300516Y-4981219D02*
G01X14300516Y-5051873D01*
G01X14300516Y-4981219D02*
G01X14300516Y-4910565D01*
G01X15011953Y-4534377D02*
G01X15011953Y-4468399D01*
G04 Copper End*

G04 PolygonModel Start*
G36*
G01X14499171Y-3110075D02*
G01X14499171Y-3243561D01*
G01X14484013Y-3275120D01*
G01X14416775Y-3215228D01*
G01X14313565Y-3224127D01*
G01X14265252Y-3248646D01*
G01X14403824Y-3110075D01*
G01X14499171Y-3110075D01*
G37*
G36*
G01X14380929Y-3469723D02*
G01X14381604Y-3469048D01*
G01X14428132Y-3467396D01*
G01X14447217Y-3514105D01*
G01X14457207Y-3540916D01*
G01X14455936Y-3542187D01*
G01X14344061Y-3542187D01*
G01X14380929Y-3505319D01*
G01X14380929Y-3469723D01*
G37*

G04 Rect Start*
G36*
G01X11401434Y-5339852D02*
G01X11401434Y-5238730D01*
G01X11478134Y-5238730D01*
G01X11478134Y-5339852D01*
G01X11401434Y-5339852D01*
G37*
G36*
G01X14474404Y-3477403D02*
G01X14474404Y-3154776D01*
G01X14526386Y-3154776D01*
G01X14526386Y-3477403D01*
G01X14474404Y-3477403D01*
G37*
G04 Rect End*

G04 Pad Start*
G54D12*
G01X10346397Y-3293397D03*
G01X10090866Y-3045108D03*
G01X9734722Y-5131353D03*
G01X9734722Y-5411410D03*
G54D13*
G01X9507149Y-3879939D03*
G01X9496789Y-4579250D03*
G54D14*
G01X13787286Y-3451085D03*
G01X13927290Y-3451085D03*
G54D15*
G01X14114925Y-3722711D03*
G01X14114925Y-3582706D03*
G01X14658998Y-4214800D03*
G01X14658998Y-4354805D03*
G01X14846310Y-4214290D03*
G01X14846310Y-4354295D03*
G01X14469514Y-4551080D03*
G01X14469514Y-4691085D03*
G01X11455596Y-4776815D03*
G01X11455596Y-4916819D03*
G54D16*
G01X14891416Y-3627490D03*
G01X14891416Y-4007474D03*
G01X11395114Y-4583787D03*
G01X11395114Y-4203803D03*
G54D17*
G01X14473490Y-4206411D03*
G01X14473490Y-4357084D03*
G01X14854807Y-4532409D03*
G01X14854807Y-4683082D03*
G01X15011953Y-4534377D03*
G01X15011953Y-4685050D03*
G01X11279564Y-4921659D03*
G01X11279564Y-4770987D03*
G01X11858669Y-3519121D03*
G01X11858669Y-3669794D03*
G01X11860542Y-3824699D03*
G01X11860542Y-3975372D03*
G01X12655569Y-5726602D03*
G01X12655569Y-5877275D03*
G54D19*
G01X12850641Y-5960642D03*
G01X13001314Y-5960642D03*
G54D20*
G01X14310935Y-3423956D03*
G01X14405931Y-3423956D03*
G01X14500927Y-3423956D03*
G01X14500927Y-3653776D03*
G01X14405931Y-3653776D03*
G01X14310935Y-3653776D03*
G54D21*
G01X12576974Y-5066816D03*
G01X12449974Y-5066816D03*
G01X12322974Y-5066816D03*
G01X12195974Y-5066816D03*
G01X12068974Y-5066816D03*
G01X11941974Y-5066816D03*
G01X11814974Y-5066816D03*
G01X11814974Y-4543830D03*
G01X11941974Y-4543830D03*
G01X12068974Y-4543830D03*
G01X12195974Y-4543830D03*
G01X12322974Y-4543830D03*
G01X12449974Y-4543830D03*
G01X12576974Y-4543830D03*
G01X12609652Y-3544315D03*
G01X12736652Y-3544315D03*
G01X12863652Y-3544315D03*
G01X12990652Y-3544315D03*
G01X13117652Y-3544315D03*
G01X13244652Y-3544315D03*
G01X13371652Y-3544315D03*
G01X13371652Y-4067301D03*
G01X13244652Y-4067301D03*
G01X13117652Y-4067301D03*
G01X12990652Y-4067301D03*
G01X12863652Y-4067301D03*
G01X12736652Y-4067301D03*
G01X12609652Y-4067301D03*
G54D22*
G01X13907659Y-4338077D03*
G01X13907659Y-4465077D03*
G01X13907659Y-4592077D03*
G01X13907659Y-4719077D03*
G01X13907659Y-4846077D03*
G01X13907659Y-4973077D03*
G01X13907659Y-5100077D03*
G01X13907659Y-5227077D03*
G01X13907659Y-5354077D03*
G01X12947641Y-4338077D03*
G01X12947641Y-4465077D03*
G01X12947641Y-4592077D03*
G01X12947641Y-4719077D03*
G01X12947641Y-4846077D03*
G01X12947641Y-4973077D03*
G01X12947641Y-5100077D03*
G01X12947641Y-5227077D03*
G01X12947641Y-5354077D03*
G54D23*
G01X13206281Y-5796258D03*
G01X13206281Y-5731260D03*
G01X13206281Y-5666236D03*
G01X13206281Y-5601237D03*
G01X13666275Y-5601237D03*
G01X13666275Y-5666236D03*
G01X13666275Y-5731260D03*
G01X13666275Y-5796258D03*
G54D24*
G01X12298002Y-5719354D03*
G01X12487994Y-5719354D03*
G01X12392998Y-5919353D03*
G54D25*
G01X14438165Y-5988194D03*
G01X14438165Y-5123197D03*
G54D26*
G01X14858180Y-5988194D03*
G01X14858180Y-5123197D03*
G54D27*
G01X14323977Y-5442291D03*
G01X14323977Y-5662306D03*
G01X14153975Y-5662306D03*
G01X14153975Y-5442291D03*
G54D14*
G01X14026137Y-5862335D03*
G01X13886132Y-5862335D03*
G54D15*
G01X14546181Y-5581471D03*
G01X14546181Y-5441466D03*
G01X11393723Y-3747346D03*
G01X11393723Y-3887351D03*
G54D14*
G01X12849073Y-5792163D03*
G01X12989078Y-5792163D03*
G01X14157262Y-4801954D03*
G01X14297267Y-4801954D03*
G01X14160511Y-4981219D03*
G01X14300516Y-4981219D03*
G54D19*
G01X13458938Y-5951985D03*
G01X13308265Y-5951985D03*
G01X12324728Y-4356057D03*
G01X12174056Y-4356057D03*
G01X11556575Y-3343364D03*
G01X11707247Y-3343364D03*
G54D28*
G01X13570739Y-4095245D03*
G01X13730739Y-4095245D03*
G54D29*
G01X13570739Y-4015260D03*
G01X13730739Y-4015260D03*
G01X13570739Y-3935250D03*
G01X13730739Y-3935250D03*
G54D28*
G01X13570739Y-3855265D03*
G01X13730739Y-3855265D03*
G54D15*
G01X11581654Y-3749842D03*
G01X11581654Y-3889846D03*
G54D30*
G01X12027945Y-3227084D03*
G01X12281945Y-3227084D03*
G01X12535945Y-3227084D03*
G01X12789945Y-3227084D03*
G01X13043945Y-3227084D03*
G01X13297945Y-3227084D03*
G01X13551945Y-3227084D03*
G01X13805945Y-3227084D03*
G01X12039666Y-5513114D03*
G01X12293666Y-5513114D03*
G01X12547666Y-5513114D03*
G01X12801666Y-5513114D03*
G54D19*
G01X14371544Y-3819280D03*
G01X14522216Y-3819280D03*
G54D31*
G01X11513929Y-5261743D03*
G01X11463916Y-5261743D03*
G01X11413929Y-5261743D03*
G01X11363917Y-5261743D03*
G01X11313929Y-5261743D03*
G01X11513929Y-5076221D03*
G01X11463916Y-5076221D03*
G01X11413929Y-5076221D03*
G01X11363917Y-5076221D03*
G01X11313929Y-5076221D03*
G54D32*
G01X11413929Y-5168982D03*
G54D33*
G01X10095021Y-5841363D03*
G01X10427126Y-5841363D03*
G01X14409488Y-3119174D03*
G01X14077383Y-3119174D03*
G54D34*
G01X10989122Y-5365418D03*
G01X10989122Y-5033313D03*
G54D19*
G01X10906511Y-4709357D03*
G01X11057183Y-4709357D03*
G54D35*
G01X10165211Y-3730973D03*
G01X10905210Y-3730973D03*
G01X10165211Y-4382249D03*
G01X10905210Y-4382249D03*
G04 Pad End*

G04 Via Start*
G54D36*
G01X13687732Y-4585465D03*
G01X12122094Y-5796295D03*
G01X11605877Y-5254444D03*
G01X12716127Y-4486982D03*
G01X12538447Y-4401820D03*
G01X11661866Y-5076361D03*
G01X11995923Y-5804983D03*
G01X13675990Y-4264270D03*
G01X13485911Y-3936277D03*
G01X13567377Y-3847481D03*
G01X13430728Y-4304075D03*
G01X13818777Y-4198435D03*
G01X11941860Y-4928500D03*
G01X13346196Y-4733880D03*
G01X13328147Y-4849325D03*
G01X13132087Y-5421111D03*
G01X13349828Y-5231584D03*
G01X13709580Y-5272311D03*
G01X13478791Y-5115351D03*
G01X13487238Y-4462544D03*
G01X13776838Y-4401728D03*
G01X11702085Y-5693074D03*
G01X13905301Y-5721873D03*
G01X13868296Y-5619226D03*
G01X11731045Y-5588818D03*
G01X13978666Y-5606757D03*
G01X13956665Y-5459302D03*
G01X13265937Y-4988551D03*
G01X13010727Y-5990448D03*
G01X12794703Y-5321601D03*
G01X13723986Y-3850630D03*
G01X14517551Y-3825165D03*
G01X13636881Y-6002447D03*
G01X12763497Y-5697391D03*
G01X13124653Y-4246191D03*
G01X12796218Y-4631337D03*
G01X12611839Y-4902596D03*
G01X12012638Y-4805769D03*
G01X11909075Y-5388159D03*
G01X11687531Y-4755382D03*
G01X11686083Y-4997199D03*
G01X12229446Y-4041879D03*
G01X12293158Y-4175095D03*
G01X11580462Y-4218125D03*
G01X11304188Y-4172210D03*
G01X11680534Y-3996762D03*
G01X11691809Y-4115452D03*
G01X14174205Y-4943561D03*
G01X12662568Y-4262840D03*
G01X13275478Y-4219864D03*
G01X12448225Y-4567138D03*
G01X12318599Y-4560868D03*
G01X12104781Y-5384214D03*
G01X13260515Y-4461250D03*
G01X13261480Y-4585778D03*
G01X13943171Y-3578676D03*
G01X14113101Y-3944305D03*
G01X13678199Y-3308254D03*
G01X11724999Y-3731338D03*
G01X11319110Y-4030888D03*
G01X11857143Y-3517758D03*
G01X12317125Y-3519527D03*
G01X12239736Y-3700826D03*
G01X12737528Y-3496037D03*
G01X12866400Y-3498934D03*
G01X14404063Y-3301898D03*
G01X14654859Y-3966819D03*
G01X14671250Y-4365592D03*
G01X14246233Y-3786586D03*
G01X14243259Y-4086921D03*
G01X14307163Y-4805032D03*
G01X14307163Y-4660231D03*
G01X15042396Y-4373086D03*
G01X14880572Y-5403057D03*
G01X14880572Y-5628945D03*
G01X13893034Y-5898273D03*
G01X12208680Y-3517604D03*
G01X12105405Y-4531210D03*
G01X11427640Y-5319172D03*
G01X11425423Y-5446265D03*
G01X12004142Y-3513585D03*
G01X12857775Y-4326352D03*
G01X12358734Y-5115924D03*
G01X14829827Y-4046669D03*
G01X11680641Y-5166984D03*
G01X12018508Y-4966195D03*
G01X13690910Y-5355513D03*
G01X12039031Y-5223052D03*
G01X12460108Y-5216686D03*
G01X11430579Y-4906813D03*
G01X11206138Y-5066093D03*
G01X11184418Y-5264470D03*
G01X11013286Y-4580720D03*
G01X11121508Y-4598542D03*
G01X11118695Y-4335185D03*
G01X11218171Y-4075326D03*
G01X11297374Y-3508880D03*
G01X11730315Y-4214668D03*
G01X11853500Y-5547749D03*
G01X12942293Y-5481670D03*
G01X12607804Y-5270261D03*
G01X13816444Y-5426123D03*
G01X14288654Y-4964693D03*
G01X13706557Y-4979173D03*
G01X13153223Y-5592657D03*
G01X13158801Y-5497839D03*
G01X13034163Y-5734243D03*
G01X12399666Y-5705597D03*
G01X10951286Y-3210628D03*
G01X11040648Y-3207899D03*
G01X11132738Y-3216597D03*
G01X11136319Y-3326934D03*
G01X11135126Y-3434373D03*
G01X11136319Y-3544199D03*
G01X10952821Y-3320965D03*
G01X10954015Y-3548974D03*
G01X11813208Y-5417649D03*
G01X10391774Y-5713883D03*
G01X10860769Y-5243075D03*
G01X10800914Y-5049620D03*
G01X10779161Y-5298666D03*
G01X10841052Y-5370156D03*
G01X11282538Y-5918791D03*
G01X11272625Y-5748808D03*
G01X11202257Y-5825549D03*
G01X10215430Y-5876600D03*
G01X10028066Y-5879442D03*
G01X10217136Y-5710155D03*
G01X10030567Y-5712656D03*
G01X10113689Y-5835494D03*
G01X10642954Y-5509980D03*
G01X10710333Y-5609141D03*
G01X10782797Y-5652366D03*
G01X10088669Y-5497267D03*
G01X9793410Y-4565406D03*
G01X9892095Y-4170669D03*
G01X9745525Y-5603262D03*
G01X10338555Y-4838712D03*
G01X10321392Y-5115220D03*
G01X10304230Y-4930246D03*
G01X13722408Y-3014092D03*
G01X13410623Y-3022673D03*
G01X13013025Y-3022673D03*
G01X12675495Y-3022673D03*
G01X12234991Y-3022673D03*
G01X11742999Y-3022673D03*
G01X14643463Y-2971186D03*
G01X14283050Y-2976906D03*
G01X14632022Y-3220042D03*
G01X14032923Y-3282018D03*
G01X11274976Y-3894104D03*
G01X10932573Y-4120818D03*
G01X11125890Y-4995577D03*
G01X13118727Y-3914422D03*
G01X11322005Y-4253239D03*
G01X11245032Y-3713315D03*
G01X11721769Y-3842987D03*
G01X14833334Y-3969677D03*
G01X14956226Y-3968830D03*
G01X14956226Y-4048498D03*
G01X14550753Y-3118756D03*
G01X14426731Y-3093660D03*
G01X14375314Y-3176953D03*
G01X14295622Y-3174705D03*
G01X14324771Y-3315001D03*
G01X14183233Y-3458234D03*
G01X11853893Y-5652523D03*
G01X13483876Y-4377599D03*
G01X11974069Y-5311475D03*
G01X11997005Y-4704457D03*
G01X12179219Y-4773884D03*
G01X12327277Y-4823237D03*
G04 Via End*

G04 Track Start*
G54D11*
G01X14343432Y-3530608D02*
G01X14389172Y-3484869D01*
G01X13275084Y-5911774D02*
G01X13275084Y-5843953D01*
G01X14293354Y-3663244D02*
G01X14284070Y-3653960D01*
G01X14468915Y-4215432D02*
G01X14467428Y-4213945D01*
G01X14452968Y-4515167D02*
G01X14452968Y-4361551D01*
G01X14463869Y-4350650D01*
G01X11860537Y-3818630D02*
G01X11860537Y-3668979D01*
G01X11852609Y-3661050D01*
G01X14147627Y-5637453D02*
G01X14045810Y-5535636D01*
G01X14139990Y-5673089D02*
G01X14155263Y-5657816D01*
G01X14544712Y-5444001D02*
G01X14351260Y-5444001D01*
G01X13823690Y-5221032D02*
G01X13816902Y-5227820D01*
G01X14045810Y-5535636D02*
G01X14045810Y-5313760D01*
G01X13953082Y-5221032D01*
G01X14026137Y-5862335D02*
G01X14139990Y-5748482D01*
G01X14139990Y-5673089D01*
G01X12193446Y-4566683D02*
G01X12381807Y-4755044D01*
G01X13084673Y-4719077D02*
G01X12947641Y-4719077D01*
G01X13183614Y-4620137D02*
G01X13084673Y-4719077D01*
G01X12187224Y-4501987D02*
G01X12170348Y-4501987D01*
G01X12106168Y-4437806D01*
G01X12997798Y-4090689D02*
G01X12643356Y-4445131D01*
G01X12643356Y-4755044D01*
G01X12381807Y-4755044D02*
G01X12643356Y-4755044D01*
G01X13735383Y-4092878D02*
G01X13735383Y-4204877D01*
G01X13675990Y-4264270D01*
G01X13547420Y-3928337D02*
G01X13493851Y-3928337D01*
G01X13485911Y-3936277D01*
G01X13571023Y-4100012D02*
G01X13571023Y-4293464D01*
G01X13818777Y-4256642D02*
G01X13818777Y-4198435D01*
G01X13571023Y-4293464D02*
G01X13623063Y-4345503D01*
G01X13729916Y-4345503D01*
G01X13818777Y-4256642D01*
G01X13924129Y-4331079D02*
G01X13924129Y-4201876D01*
G01X13847814Y-4125560D01*
G01X13942242Y-4458763D02*
G01X14006726Y-4458763D01*
G01X14062725Y-4402764D01*
G01X14062725Y-4244493D01*
G01X13898121Y-4079889D01*
G01X13037408Y-3444916D02*
G01X12984256Y-3498067D01*
G01X13328147Y-4849325D02*
G01X13748357Y-4849325D01*
G01X13048151Y-3247973D02*
G01X13131362Y-3331184D01*
G01X13748357Y-4849325D02*
G01X13814161Y-4783521D01*
G01X13999270Y-4783521D01*
G01X13709580Y-5272311D02*
G01X13399039Y-5272311D01*
G01X13358312Y-5231584D01*
G01X13847814Y-4125560D02*
G01X13847814Y-3825561D01*
G01X13806280Y-3784027D01*
G01X13457557Y-3491265D02*
G01X13411208Y-3444916D01*
G01X13037408Y-3444916D01*
G01X13806280Y-3784027D02*
G01X13490648Y-3784027D01*
G01X13457557Y-3750936D01*
G01X13457557Y-3491265D01*
G01X13498284Y-3478576D02*
G01X13429023Y-3409316D01*
G01X13498284Y-3700028D02*
G01X13498284Y-3478576D01*
G01X13544101Y-3745845D02*
G01X13498284Y-3700028D01*
G01X13824098Y-3745845D02*
G01X13544101Y-3745845D01*
G01X13898121Y-3819869D02*
G01X13824098Y-3745845D01*
G01X13898121Y-4079889D02*
G01X13898121Y-3819869D01*
G01X13572384Y-3619706D02*
G01X13637999Y-3685321D01*
G01X13875605Y-3685321D01*
G01X13986439Y-3796155D01*
G01X13986439Y-4049000D01*
G01X13900460Y-3646857D02*
G01X13666282Y-3646857D01*
G01X13610848Y-3591423D01*
G01X14032822Y-4656258D02*
G01X13429840Y-4656258D01*
G01X13349206Y-4736891D01*
G01X13346196Y-4733880D01*
G01X13487238Y-4462544D02*
G01X13716022Y-4462544D01*
G01X13776838Y-4401728D01*
G01X12165039Y-4966314D02*
G01X12906163Y-4966314D01*
G01X13132087Y-5421111D02*
G01X12924245Y-5628953D01*
G01X12367012Y-5628953D01*
G01X12309599Y-5686366D01*
G01X12838405Y-5960050D02*
G01X12435860Y-5960050D01*
G01X12405452Y-5929642D01*
G01X13220325Y-5803052D02*
G01X13223583Y-5799794D01*
G01X13324581Y-5799794D02*
G01X13366935Y-5757440D01*
G01X13366935Y-5487026D02*
G01X13265937Y-5386027D01*
G01X13265937Y-4988551D01*
G01X13230925Y-5799794D02*
G01X13275084Y-5843953D01*
G01X13223583Y-5799794D02*
G01X13230925Y-5799794D01*
G01X13324581Y-5799794D01*
G01X13366935Y-5757440D02*
G01X13366935Y-5487026D01*
G01X14537878Y-3958708D02*
G01X14624945Y-3871641D01*
G01X11924788Y-5733848D02*
G01X11995923Y-5804983D01*
G01X12159224Y-5586533D02*
G01X12122094Y-5623662D01*
G01X12122094Y-5796295D01*
G01X13124653Y-4246191D02*
G01X13056597Y-4178135D01*
G01X12521700Y-3233174D02*
G01X12530972Y-3223902D01*
G01X13056597Y-4178135D02*
G01X13056597Y-3929079D01*
G01X12824917Y-3697398D01*
G01X12599028Y-3697398D01*
G01X12521700Y-3620070D01*
G01X12521700Y-3233174D01*
G01X12671067Y-5738046D02*
G01X12727056Y-5794036D01*
G01X12835817Y-5788887D02*
G01X12988983Y-5942054D01*
G01X12988983Y-5956855D01*
G01X12727056Y-5794036D02*
G01X12837104Y-5794036D01*
G01X12199693Y-5092050D02*
G01X12199693Y-5192117D01*
G01X11924788Y-5467023D01*
G01X11924788Y-5733848D01*
G01X12643356Y-4755044D02*
G01X12722370Y-4834057D01*
G01X12850269Y-4834057D01*
G01X12870527Y-4854315D01*
G01X12895353Y-4725439D02*
G01X12767723Y-4725439D01*
G01X12716127Y-4673843D01*
G01X12716127Y-4486982D01*
G01X12909162Y-4597550D02*
G01X12830005Y-4597550D01*
G01X12796218Y-4631337D01*
G01X11687531Y-4755382D02*
G01X11686083Y-4756830D01*
G01X11686083Y-4997199D01*
G01X14526722Y-3808814D02*
G01X14413851Y-3695944D01*
G01X14413851Y-3661696D01*
G01X14405931Y-3653776D01*
G01X14506017Y-3658866D02*
G01X14500927Y-3653776D01*
G01X14624945Y-3871641D02*
G01X14624945Y-3765509D01*
G01X14518301Y-3658866D01*
G01X14506017Y-3658866D01*
G01X11468275Y-4778281D02*
G01X11453795Y-4763801D01*
G01X11281000Y-4763801D01*
G01X11446072Y-4585214D02*
G01X11529091Y-4668233D01*
G01X11520732Y-5074739D02*
G01X11520732Y-5043568D01*
G01X11364348Y-5083427D02*
G01X11364348Y-5007165D01*
G01X11291948Y-4934765D01*
G01X11452194Y-5279390D02*
G01X11457985Y-5273598D01*
G01X11380750Y-4174797D02*
G01X11390774Y-4184821D01*
G01X12229446Y-4041879D02*
G01X12597238Y-4041879D01*
G01X12616787Y-4061427D01*
G01X12863634Y-4083777D02*
G01X12863634Y-4017325D01*
G01X12465815Y-3619507D01*
G01X12465815Y-3444298D01*
G01X11707247Y-3343364D02*
G01X11707673Y-3342938D01*
G01X12364455Y-3342938D02*
G01X11707673Y-3342938D01*
G01X12364455Y-3342938D02*
G01X12465815Y-3444298D01*
G01X11554056Y-3349427D02*
G01X11554056Y-3442100D01*
G01X11881636Y-4077096D02*
G01X11961416Y-4156876D01*
G01X12228787Y-4156876D01*
G01X11790412Y-4077096D02*
G01X11881636Y-4077096D01*
G01X12228787Y-4156876D02*
G01X12283328Y-4102335D01*
G01X12465079Y-4102335D01*
G01X12449540Y-4175095D02*
G01X12293158Y-4175095D01*
G01X12576403Y-4503390D02*
G01X12601803Y-4477990D01*
G01X12601803Y-4327357D01*
G01X12449540Y-4175095D01*
G01X11627683Y-4479998D02*
G01X11873543Y-4234138D01*
G01X12444846Y-4234138D01*
G01X12538447Y-4327739D01*
G01X12538447Y-4401820D01*
G01X12332312Y-4519805D02*
G01X12327485Y-4519805D01*
G01X12174056Y-4366375D01*
G01X12174056Y-4356057D01*
G01X12329971Y-4355288D02*
G01X12458340Y-4355288D01*
G01X12449673Y-4496227D02*
G01X12451949Y-4493950D01*
G01X12451949Y-4398597D01*
G01X12106168Y-4437806D02*
G01X11770404Y-4437806D01*
G01X11745931Y-4462279D01*
G01X13735438Y-3854049D02*
G01X13735438Y-4083325D01*
G01X14441226Y-4683265D02*
G01X14439974Y-4683265D01*
G01X14821195Y-4377871D02*
G01X14834811Y-4364255D01*
G01X11457985Y-5429320D02*
G01X11441395Y-5445910D01*
G01X12648369Y-5845481D02*
G01X12622304Y-5819416D01*
G01X12276956Y-5819416D02*
G01X12218312Y-5878061D01*
G01X12622304Y-5819416D02*
G01X12276956Y-5819416D01*
G01X13953082Y-5221032D02*
G01X13825242Y-5221032D01*
G01X13841181Y-5236971D02*
G01X13825242Y-5221032D01*
G01X11661866Y-5076361D02*
G01X11627683Y-5042178D01*
G01X11627683Y-4479998D01*
G01X11745931Y-4462279D02*
G01X11745931Y-5205950D01*
G01X11697436Y-5254444D01*
G01X11605877Y-5254444D01*
G01X12018508Y-4966195D02*
G01X12060017Y-5007704D01*
G01X12060017Y-5034733D01*
G01X12794703Y-5321601D02*
G01X12794703Y-5195625D01*
G01X12898959Y-5091369D01*
G01X14313079Y-5428729D02*
G01X14309869Y-5428729D01*
G01X13986781Y-5105640D01*
G01X13852538Y-5105640D01*
G01X14174205Y-4943561D02*
G01X14174205Y-4820591D01*
G01X14156128Y-4802514D01*
G01X14174205Y-4943561D02*
G01X14136277Y-4905633D01*
G01X14191182Y-4957642D02*
G01X14177101Y-4943561D01*
G01X14174205Y-4943561D01*
G01X12159224Y-5471507D02*
G01X12159224Y-5586533D01*
G01X12571582Y-5095070D02*
G01X12571582Y-5194988D01*
G01X12442732Y-5116773D02*
G01X12442732Y-5196414D01*
G01X12461556Y-5215237D01*
G01X13845404Y-5359837D02*
G01X13818375Y-5386866D01*
G01X13818375Y-5422262D01*
G01X14136277Y-4905633D02*
G01X13629505Y-4905633D01*
G01X13478791Y-5056346D01*
G01X13478791Y-5115351D01*
G01X11441244Y-4114302D02*
G01X11380750Y-4174797D01*
G01X11440974Y-4074346D02*
G01X11441244Y-4074617D01*
G01X11441244Y-4114302D01*
G01X11440974Y-3892227D02*
G01X11440974Y-4074346D01*
G01X11525222Y-5083965D02*
G01X11544242Y-5083965D01*
G01X11627261Y-5166984D01*
G01X11680641Y-5166984D01*
G01X12796336Y-5664553D02*
G01X12763497Y-5697391D01*
G01X13002307Y-5777683D02*
G01X13002307Y-5766099D01*
G01X13032232Y-5736174D01*
G01X12412239Y-3513802D02*
G01X12324248Y-3425811D01*
G01X11434520Y-3438362D02*
G01X11434520Y-3226651D01*
G01X11482155Y-3485997D02*
G01X11434520Y-3438362D01*
G01X12324248Y-3425811D02*
G01X11757581Y-3425811D01*
G01X11697395Y-3485997D01*
G01X11482155Y-3485997D01*
G01X14671250Y-4365592D02*
G01X14808916Y-4365592D01*
G01X14821195Y-4377871D01*
G01X14430616Y-3958708D02*
G01X14537878Y-3958708D01*
G01X14439974Y-4683265D02*
G01X14364849Y-4608140D01*
G01X14364849Y-4024476D01*
G01X14430616Y-3958708D01*
G01X13999270Y-4783521D02*
G01X14251271Y-4531520D01*
G01X14251271Y-4235668D01*
G01X13986439Y-4049000D02*
G01X14160715Y-4223276D01*
G01X14160715Y-4528365D01*
G01X14032822Y-4656258D01*
G01X14251271Y-4235668D02*
G01X14054701Y-4039098D01*
G01X14054701Y-3801097D01*
G01X13900460Y-3646857D01*
G54D37*
G01X14885543Y-3637722D02*
G01X14891416Y-3631848D01*
G01X14891416Y-3627490D01*
G54D11*
G01X14891416Y-4007474D02*
G01X14898845Y-4014902D01*
G01X14898845Y-4152318D01*
G01X14643039Y-4215378D02*
G01X14640992Y-4213332D01*
G01X14640993Y-4215383D02*
G01X14468915Y-4215432D01*
G01X14835405Y-4215378D02*
G01X14643039Y-4215378D01*
G01X13469377Y-5937190D02*
G01X13612117Y-5794450D01*
G01X13529236Y-5759917D02*
G01X13529236Y-5531993D01*
G01X13690394Y-5370835D01*
G01X13690394Y-5343208D01*
G01X13612117Y-5794450D02*
G01X13563770Y-5794450D01*
G01X13529236Y-5759917D01*
G01X13612117Y-5794450D02*
G01X13658162Y-5794450D01*
G01X11756938Y-4043622D02*
G01X11790412Y-4077096D01*
G01X11874536Y-3835420D02*
G01X11843963Y-3835420D01*
G01X11756938Y-3922445D01*
G01X11756938Y-4043622D01*
G01X11205675Y-4688476D02*
G01X11205675Y-4355493D01*
G01X11714302Y-3328190D02*
G01X11664382Y-3328190D01*
G01X12218312Y-5878061D02*
G01X11590404Y-5878061D01*
G01X11425531Y-5713187D01*
G01X11425531Y-5448004D01*
G01X11815511Y-5070008D02*
G01X11813208Y-5072310D01*
G01X11813208Y-5417649D01*
G01X11266699Y-5754734D02*
G01X11272625Y-5748808D01*
G01X14858983Y-4677076D02*
G01X14788310Y-4747750D01*
G01X14494880Y-4747750D01*
G01X14442774Y-4695643D01*
G01X14870155Y-4532409D02*
G01X14869371Y-4533193D01*
G01X14439926Y-4533193D01*
G01X14887170Y-4688403D02*
G01X14990516Y-4688403D01*
G01X14992562Y-4686356D01*
G01X11529091Y-4668233D02*
G01X11529091Y-4975578D01*
G01X11465379Y-5039290D01*
G01X11465379Y-5078500D01*
G01X12465079Y-4102335D02*
G01X12625585Y-4262840D01*
G01X12662568Y-4262840D01*
G01X11435356Y-5269011D02*
G01X11426569Y-5260224D01*
G01X11424977Y-5279390D02*
G01X11435356Y-5269011D01*
G01X11424977Y-5279390D02*
G01X11452194Y-5279390D01*
G01X10989242Y-5332688D02*
G01X11403167Y-5332688D01*
G01X11424977Y-5310878D01*
G01X11424977Y-5279390D01*
G01X14489074Y-3161080D02*
G01X14489074Y-3390342D01*
G01X14447627Y-3091205D02*
G01X14447627Y-3119633D01*
G01X14489074Y-3161080D01*
G01X14428243Y-3098342D02*
G01X14432057Y-3098342D01*
G01X11282538Y-5918791D02*
G01X10905310Y-5918791D01*
G01X10700402Y-5713883D01*
G01X10391774Y-5713883D01*
G01X14284070Y-3653960D02*
G01X14192171Y-3653960D01*
G01X14123420Y-3722711D01*
G01X14114925Y-3722711D01*
G01X14114925Y-3582706D02*
G01X14167023Y-3530608D01*
G01X14343432Y-3530608D01*
G01X14115546Y-3411039D02*
G01X14428243Y-3098342D01*
G01X11274976Y-3894104D02*
G01X11377951Y-3894104D01*
G01X11385578Y-3886476D01*
G01X13636881Y-6002447D02*
G01X13531457Y-6002447D01*
G01X13510819Y-6023085D01*
G01X13256385Y-6023085D01*
G01X13103667Y-5870367D01*
G01X9748208Y-5145724D02*
G01X9949968Y-5145724D01*
G01X11202257Y-5825549D02*
G01X11041114Y-5825549D01*
G01X10654432Y-5438867D01*
G01X9782244Y-5438867D01*
G01X9748253Y-5404876D01*
G01X9949968Y-5145724D02*
G01X10207511Y-5403267D01*
G01X10669178Y-5403267D01*
G01X11020644Y-5754734D01*
G01X11266699Y-5754734D01*
G01X11281000Y-4763801D02*
G01X11205675Y-4688476D01*
G01X10926357Y-3730973D02*
G01X10926357Y-3766894D01*
G01X11055862Y-4715759D02*
G01X11215669Y-4715759D01*
G01X11260965Y-4761055D01*
G01X11260965Y-4771696D01*
G01X10905943Y-4379854D02*
G01X10905943Y-4705306D01*
G01X10901706Y-4709544D02*
G01X11035616Y-4843454D01*
G01X11076297Y-4843454D01*
G01X11122064Y-4889220D01*
G01X11122064Y-4989229D01*
G01X10905943Y-4705306D02*
G01X10901706Y-4709544D01*
G01X10896621Y-4714629D01*
G01X13927290Y-3451085D02*
G01X13967336Y-3411039D01*
G01X14115546Y-3411039D01*
G01X13119857Y-4055677D02*
G01X13119857Y-3917247D01*
G01X13121553Y-3915552D01*
G01X11457985Y-5273598D02*
G01X11457985Y-5429320D01*
G01X13242159Y-3561242D02*
G01X13242159Y-3577589D01*
G01X13183614Y-3636134D01*
G01X13183614Y-4620137D01*
G01X13429023Y-3409316D02*
G01X12706228Y-3409316D01*
G01X12603351Y-3512193D01*
G01X12603351Y-3525442D01*
G01X12726456Y-4046667D02*
G01X12726456Y-4010151D01*
G01X12412239Y-3695935D01*
G01X12412239Y-3513802D01*
G01X13369958Y-4078490D02*
G01X13369958Y-4609427D01*
G01X13005435Y-4973950D01*
G01X13551606Y-4018374D02*
G01X13512380Y-4018374D01*
G01X13103667Y-5870367D02*
G01X13103667Y-5664553D01*
G01X12796336Y-5664553D01*
G01X13610848Y-3591423D02*
G01X13610848Y-3441769D01*
G01X13402061Y-3232983D01*
G01X13312874Y-3232983D01*
G01X13131362Y-3331184D02*
G01X13425115Y-3331184D01*
G01X13572384Y-3478452D01*
G01X13572384Y-3619706D01*
G01X11664382Y-3328190D02*
G01X11300414Y-2964223D01*
G01X11434520Y-3226651D02*
G01X11324654Y-3116784D01*
G01X11205675Y-4355493D02*
G01X11310968Y-4250200D01*
G01X11325406Y-4235763D01*
G01X11367675Y-4250200D02*
G01X11310968Y-4250200D01*
G01X11520732Y-5043568D02*
G01X11566847Y-4997452D01*
G01X11566847Y-4449372D01*
G01X11367675Y-4250200D01*
G01X11310968Y-4250200D02*
G01X11304188Y-4243420D01*
G01X11304188Y-4172210D01*
G01X11596571Y-3894502D02*
G01X11594296Y-3892227D01*
G01X11440974Y-3892227D01*
G01X10926357Y-3766894D02*
G01X10932573Y-3773110D01*
G01X10932573Y-4120818D01*
G01X11324654Y-3116784D02*
G01X10559830Y-3116784D01*
G01X10378069Y-3298545D01*
G01X11300414Y-2964223D02*
G01X10168298Y-2964223D01*
G01X10103456Y-3029065D01*
G01X14898845Y-4152318D02*
G01X14835731Y-4215432D01*
G54D37*
G01X14885543Y-3597675D02*
G01X14885543Y-3637722D01*
G01X14449531Y-3540916D02*
G01X14828784Y-3540916D01*
G01X14885543Y-3597675D01*
G01X14405931Y-3495515D02*
G01X14405931Y-3497316D01*
G01X14449531Y-3540916D01*
G54D11*
G01X11826539Y-4565694D02*
G01X11880278Y-4619433D01*
G01X11880278Y-4894227D01*
G01X11880278Y-5175510D01*
G01X11909075Y-5204307D01*
G01X11909075Y-5388159D01*
G01X13512380Y-4018374D02*
G01X13430728Y-4100026D01*
G01X13430728Y-4304075D01*
G01X11935416Y-5059028D02*
G01X11935416Y-4934944D01*
G01X11941860Y-4928500D01*
G01X11880278Y-4894227D02*
G01X11906966Y-4867540D01*
G01X12066265Y-4867540D01*
G01X12165039Y-4966314D01*
G01X12019323Y-4812454D02*
G01X12012638Y-4805769D01*
G01X12611839Y-4902596D02*
G01X12165725Y-4902596D01*
G01X12075584Y-4812454D01*
G01X12019323Y-4812454D01*
G01X11857143Y-3517758D02*
G01X11860065Y-3514836D01*
G01X12007508Y-3514836D01*
G01X12571582Y-5194988D02*
G01X12377928Y-5388642D01*
G01X12242089Y-5388642D01*
G01X12159224Y-5471507D01*
G01X12039031Y-5223052D02*
G01X12065213Y-5196869D01*
G01X12065213Y-5108372D01*
G04 Track End*

M02*

