G04 Layer: BottomSolderMaskLayer*
G04 EasyEDA Pro v3.2.149.88089769, 2026-08-13 17:59:42*
G04 Gerber Generator version 0.3*
G04 Scale: 100 percent, Rotated: No, Reflected: No*
G04 Dimensions in millimeters*
G04 Leading zeros omitted, absolute positions, 4 integers and 5 decimals*
G04 Generated by one-click*
G04 Object Configs: Pad,Via,Track,Text,Image,Dimension,BoardOutline,BoardCutout,CopperFilled,SolidRegion,FPCStiffener,Line,PlaneZone,ComponentProperty,ComponentSilkscreen,TearDrop*
G04 Layer Configs: 1,15,16,2,3,4,5,6,7,8,9,10,11,13,14,56*
G04 Copper Areas: 0*
%FSLAX45Y45*%
%MOMM*%
%AMRoundRect*1,1,$1,$2,$3*1,1,$1,$4,$5*1,1,$1,0-$2,0-$3*1,1,$1,0-$4,0-$5*20,1,$1,$2,$3,$4,$5,0*20,1,$1,$4,$5,0-$2,0-$3,0*20,1,$1,0-$2,0-$3,0-$4,0-$5,0*20,1,$1,0-$4,0-$5,$2,$3,0*4,1,4,$2,$3,$4,$5,0-$2,0-$3,0-$4,0-$5,$2,$3,0*%
%ADD10RoundRect,0.1016X-0.762X0.762X0.762X0.762*%
%ADD11C,1.9016*%
%ADD12RoundRect,0.1016X-0.4X0.45X0.4X0.45*%
%ADD13RoundRect,0.1016X-0.45X-0.4X-0.45X0.4*%
%ADD14RoundRect,0.1016X-1.25X0.75X1.25X0.75*%
%ADD15RoundRect,0.1022X-0.432X-0.40324X-0.432X0.40324*%
%ADD16RoundRect,0.1016X-0.432X-0.40324X-0.432X0.40324*%
%ADD17RoundRect,0.1016X-0.40324X0.432X0.40324X0.432*%
%ADD18RoundRect,0.1016X-0.266X0.536X0.266X0.536*%
%ADD19RoundRect,0.1016X-0.28X0.715X0.28X0.715*%
%ADD20O,2.2016X0.66159*%
%ADD21RoundRect,0.1016X-0.6985X-0.203X-0.6985X0.203*%
%ADD22RoundRect,0.1016X-0.35X-0.62501X-0.35X0.62501*%
%ADD23O,2.10002X1.20002*%
%ADD24O,1.90002X1.30002*%
%ADD25RoundRect,0.1016X-0.6X-0.7X-0.6X0.7*%
%ADD26RoundRect,0.1016X-0.4X-0.32501X-0.4X0.32501*%
%ADD27RoundRect,0.1016X-0.4X-0.25X-0.4X0.25*%
%ADD28C,1.6256*%
%ADD29RoundRect,0.1016X-0.14X0.2525X0.14X0.2525*%
%ADD30RoundRect,0.1016X-1.2X0.42X1.2X0.42*%
%ADD31RoundRect,0.1016X-1.4X0.55X1.4X0.55*%
%ADD32RoundRect,0.1016X-0.55X-1.4X-0.55X1.4*%
%ADD33RoundRect,0.1016X-0.6X0.5X0.6X0.5*%
G75*


G04 Rect Start*
G36*
G01X11525096Y-3521900D02*
G01X11525096Y-3396407D01*
G01X11580442Y-3396407D01*
G01X11580442Y-3521900D01*
G01X11525096Y-3521900D01*
G37*
G36*
G01X12406684Y-4456541D02*
G01X12406684Y-4316241D01*
G01X12476614Y-4316241D01*
G01X12476614Y-4456541D01*
G01X12406684Y-4456541D01*
G37*
G04 Rect End*

G04 Pad Start*
G54D10*
G01X10346397Y-3293397D03*
G01X10090866Y-3045108D03*
G01X9734722Y-5131353D03*
G01X9734722Y-5411410D03*
G54D11*
G01X9507149Y-3879939D03*
G01X9496789Y-4579250D03*
G54D12*
G01X13787286Y-3451085D03*
G01X13927290Y-3451085D03*
G54D13*
G01X14114925Y-3722711D03*
G01X14114925Y-3582706D03*
G01X14658998Y-4214800D03*
G01X14658998Y-4354805D03*
G01X14846310Y-4214290D03*
G01X14846310Y-4354295D03*
G01X14469514Y-4551080D03*
G01X14469514Y-4691085D03*
G01X11455596Y-4776815D03*
G01X11455596Y-4916819D03*
G54D14*
G01X14891416Y-3627490D03*
G01X14891416Y-4007474D03*
G01X11395114Y-4583787D03*
G01X11395114Y-4203803D03*
G54D16*
G01X14473490Y-4206411D03*
G01X14473490Y-4357084D03*
G01X14854807Y-4532409D03*
G01X14854807Y-4683082D03*
G01X15011953Y-4534377D03*
G01X15011953Y-4685050D03*
G01X11279564Y-4921659D03*
G01X11279564Y-4770987D03*
G01X11858669Y-3519121D03*
G01X11858669Y-3669794D03*
G01X11860542Y-3824699D03*
G01X11860542Y-3975372D03*
G01X12655569Y-5726602D03*
G01X12655569Y-5877275D03*
G54D17*
G01X12850641Y-5960642D03*
G01X13001314Y-5960642D03*
G54D18*
G01X14310935Y-3423956D03*
G01X14405931Y-3423956D03*
G01X14500927Y-3423956D03*
G01X14500927Y-3653776D03*
G01X14405931Y-3653776D03*
G01X14310935Y-3653776D03*
G54D19*
G01X12576974Y-5066816D03*
G01X12449974Y-5066816D03*
G01X12322974Y-5066816D03*
G01X12195974Y-5066816D03*
G01X12068974Y-5066816D03*
G01X11941974Y-5066816D03*
G01X11814974Y-5066816D03*
G01X11814974Y-4543830D03*
G01X11941974Y-4543830D03*
G01X12068974Y-4543830D03*
G01X12195974Y-4543830D03*
G01X12322974Y-4543830D03*
G01X12449974Y-4543830D03*
G01X12576974Y-4543830D03*
G01X12609652Y-3544315D03*
G01X12736652Y-3544315D03*
G01X12863652Y-3544315D03*
G01X12990652Y-3544315D03*
G01X13117652Y-3544315D03*
G01X13244652Y-3544315D03*
G01X13371652Y-3544315D03*
G01X13371652Y-4067301D03*
G01X13244652Y-4067301D03*
G01X13117652Y-4067301D03*
G01X12990652Y-4067301D03*
G01X12863652Y-4067301D03*
G01X12736652Y-4067301D03*
G01X12609652Y-4067301D03*
G54D20*
G01X13907659Y-4338077D03*
G01X13907659Y-4465077D03*
G01X13907659Y-4592077D03*
G01X13907659Y-4719077D03*
G01X13907659Y-4846077D03*
G01X13907659Y-4973077D03*
G01X13907659Y-5100077D03*
G01X13907659Y-5227077D03*
G01X13907659Y-5354077D03*
G01X12947641Y-4338077D03*
G01X12947641Y-4465077D03*
G01X12947641Y-4592077D03*
G01X12947641Y-4719077D03*
G01X12947641Y-4846077D03*
G01X12947641Y-4973077D03*
G01X12947641Y-5100077D03*
G01X12947641Y-5227077D03*
G01X12947641Y-5354077D03*
G54D21*
G01X13206281Y-5796258D03*
G01X13206281Y-5731260D03*
G01X13206281Y-5666236D03*
G01X13206281Y-5601237D03*
G01X13666275Y-5601237D03*
G01X13666275Y-5666236D03*
G01X13666275Y-5731260D03*
G01X13666275Y-5796258D03*
G54D22*
G01X12298002Y-5719354D03*
G01X12487994Y-5719354D03*
G01X12392998Y-5919353D03*
G54D23*
G01X14438165Y-5988194D03*
G01X14438165Y-5123197D03*
G54D24*
G01X14858180Y-5988194D03*
G01X14858180Y-5123197D03*
G54D25*
G01X14323977Y-5442291D03*
G01X14323977Y-5662306D03*
G01X14153975Y-5662306D03*
G01X14153975Y-5442291D03*
G54D12*
G01X14026137Y-5862335D03*
G01X13886132Y-5862335D03*
G54D13*
G01X14546181Y-5581471D03*
G01X14546181Y-5441466D03*
G01X11393723Y-3747346D03*
G01X11393723Y-3887351D03*
G54D12*
G01X12849073Y-5792163D03*
G01X12989078Y-5792163D03*
G01X14157262Y-4801954D03*
G01X14297267Y-4801954D03*
G01X14160511Y-4981219D03*
G01X14300516Y-4981219D03*
G54D17*
G01X13458938Y-5951985D03*
G01X13308265Y-5951985D03*
G01X12324728Y-4356057D03*
G01X12174056Y-4356057D03*
G01X11556575Y-3343364D03*
G01X11707247Y-3343364D03*
G54D26*
G01X13570739Y-4095245D03*
G01X13730739Y-4095245D03*
G54D27*
G01X13570739Y-4015260D03*
G01X13730739Y-4015260D03*
G01X13570739Y-3935250D03*
G01X13730739Y-3935250D03*
G54D26*
G01X13570739Y-3855265D03*
G01X13730739Y-3855265D03*
G54D13*
G01X11581654Y-3749842D03*
G01X11581654Y-3889846D03*
G54D28*
G01X12027945Y-3227084D03*
G01X12281945Y-3227084D03*
G01X12535945Y-3227084D03*
G01X12789945Y-3227084D03*
G01X13043945Y-3227084D03*
G01X13297945Y-3227084D03*
G01X13551945Y-3227084D03*
G01X13805945Y-3227084D03*
G01X12039666Y-5513114D03*
G01X12293666Y-5513114D03*
G01X12547666Y-5513114D03*
G01X12801666Y-5513114D03*
G54D17*
G01X14371544Y-3819280D03*
G01X14522216Y-3819280D03*
G54D29*
G01X11513929Y-5261743D03*
G01X11463916Y-5261743D03*
G01X11413929Y-5261743D03*
G01X11363917Y-5261743D03*
G01X11313929Y-5261743D03*
G01X11513929Y-5076221D03*
G01X11463916Y-5076221D03*
G01X11413929Y-5076221D03*
G01X11363917Y-5076221D03*
G01X11313929Y-5076221D03*
G54D30*
G01X11413929Y-5168982D03*
G54D31*
G01X10095021Y-5841363D03*
G01X10427126Y-5841363D03*
G01X14409488Y-3119174D03*
G01X14077383Y-3119174D03*
G54D32*
G01X10989122Y-5365418D03*
G01X10989122Y-5033313D03*
G54D17*
G01X10906511Y-4709357D03*
G01X11057183Y-4709357D03*
G54D33*
G01X10165211Y-3730973D03*
G01X10905210Y-3730973D03*
G01X10165211Y-4382249D03*
G01X10905210Y-4382249D03*
G04 Pad End*

M02*

